<svg xmlns="http://www.w3.org/2000/svg" width="500" height="500" viewBox="0 0 500 500" preserveAspectRatio="xMidYMid meet"><defs><clipPath id="animationMask_6ocJBLS9MG"><rect width="500" height="500" x="0" y="0"></rect></clipPath><clipPath id="8HwhbtwWkk"><path fill="#ffffff" clip-rule="nonzero" d=" M0,0 C0,0 0,500 0,500 C0,500 500,500 500,500 C500,500 500,0 500,0 C500,0 361.062,127.31400000000001 311.156,204.655 C309.436,207.32 307.342,211.86399999999998 305.671,213.807 C304.567,215.08999999999997 296.75,218 280.607,215.385 C274.90900000000005,214.462 271.181,212.106 269.412,213.273 C267.61899999999997,214.456 268.54900000000004,215.351 268.427,216.733 C268.28700000000003,218.318 267.316,220.386 268.599,221.601 C271,223.875 271.728,226.212 271.692,226.625 C270.5,240.125 248.25,244.25 236.199,234.329 C235.43900000000002,233.703 233,231.75 230.813,233.027 C230.178,233.398 229.88799999999998,234.911 230.051,235.851 C230.75,239.875 231.5,244.5 231.5,244.5 C231.5,244.5 234.314,252.499 229.289,256.577 C223.83499999999998,261.003 209.875,264.75 195.77,255.215 C162.044,232.416 0,0 0,0"></path></clipPath></defs><g clip-path="url(#animationMask_6ocJBLS9MG)" style="user-select: none;"><g transform="matrix(1.2,0,0,1.2,105.68319999999997,211.3764)" style="user-select: none;"><path d=" M237.197,55.289 C237.197,55.289 151.279,5.359999999999999 151.279,5.359999999999999 C151.279,5.359999999999999 145.608,2.0630000000000024 145.608,2.0630000000000024 C142.487,0.25 137.364,0.2530000000000001 134.22899999999998,2.0630000000000024 C134.22899999999998,2.0630000000000024 3.4080000000000013,77.593 3.4080000000000013,77.593 C0.2669999999999959,79.40700000000001 0.25,82.37100000000001 3.370999999999995,84.184 C3.370999999999995,84.184 9.040999999999997,87.48100000000001 9.040999999999997,87.48100000000001 C9.040999999999997,87.48100000000001 94.96,137.41000000000003 94.96,137.41000000000003 C98.137,139.257 103.305,139.257 106.50999999999999,137.406 C106.50999999999999,137.406 237.153,61.979000000000006 237.153,61.979000000000006 C240.339,60.14 240.36200000000002,57.12800000000001 237.197,55.289z" style="fill: rgb(108, 201, 164); fill-opacity: 1;"></path></g><g transform="matrix(1.2,0,0,1.2,105.68319999999997,160.9122381212818)" style="user-select: none;"><path d=" M9.042,87.481 C9.042,87.481 3.3710000000000004,84.18599999999999 3.3710000000000004,84.18599999999999 C1.8210000000000002,83.285 1.045,82.099 1.0410000000000004,80.91199999999999 C1.0410000000000004,80.91199999999999 1.0510000000000002,84.192 1.0510000000000002,84.192 C1.0540000000000003,85.379 1.83,86.564 3.3810000000000002,87.465 C3.3810000000000002,87.465 9.051,90.76 9.051,90.76 C9.051,90.76 9.042,87.481 9.042,87.481z" style="fill: rgb(189, 189, 189); fill-opacity: 1;"></path><path d=" M134.23000000000002,2.064 C137.365,0.2539999999999978 142.488,0.25 145.609,2.064 C145.609,2.064 151.382,5.419000000000004 151.382,5.419000000000004 C151.382,5.419000000000004 9.042000000000002,87.48 9.042000000000002,87.48 C9.042000000000002,87.48 3.2150000000000034,84.498 3.2150000000000034,84.498 C0.0940000000000083,82.684 0.2669999999999959,79.408 3.4080000000000013,77.594 C3.4080000000000013,77.594 134.23000000000002,2.064 134.23000000000002,2.064z" style="fill: rgb(255, 255, 255); fill-opacity: 1;"></path><path d=" M151.279,5.359999999999999 C151.279,5.359999999999999 237.197,55.29 237.197,55.29 C240.36200000000002,57.129999999999995 240.339,60.141 237.153,61.980999999999995 C237.153,61.980999999999995 106.50999999999999,137.40699999999998 106.50999999999999,137.40699999999998 C103.305,139.25799999999998 98.138,139.25799999999998 94.96,137.411 C94.96,137.411 9.042000000000002,87.481 9.042000000000002,87.481 C9.042000000000002,87.481 151.279,5.359999999999999 151.279,5.359999999999999z" style="fill: rgb(92, 116, 255); fill-opacity: 1;"></path><path d=" M239.558,58.24999999999999 C239.15300000000002,60.608999999999995 237.41500000000002,61.71999999999999 235.563,62.788999999999994 C233.536,63.959999999999994 231.508,65.131 229.48000000000002,66.30199999999999 C221.871,70.695 214.262,75.088 206.65300000000002,79.481 C196.26100000000002,85.481 185.868,91.481 175.476,97.481 C164.856,103.613 154.235,109.744 143.615,115.875 C135.154,120.75999999999999 126.694,125.64599999999999 118.233,130.531 C114.363,132.765 110.522,135.058 106.62100000000001,137.23499999999999 C102.83500000000001,139.34699999999998 98.037,139.089 94.348,136.945 C92.179,135.685 90.511,134.17499999999998 88.343,132.915 C79.37100000000001,127.701 69.96100000000001,122.55 60.989000000000004,117.336 C60.989000000000004,117.336 29.49900000000001,98.73899999999999 29.49900000000001,98.73899999999999 C29.49900000000001,98.73899999999999 9.857,87.22999999999999 9.857,87.22999999999999 C9.543999999999997,87.048 9.356000000000009,87.663 9.043000000000006,87.481 C9.043000000000006,87.481 8.954000000000008,90.70299999999999 8.954000000000008,90.70299999999999 C8.954000000000008,90.70299999999999 24.843000000000004,99.765 24.843000000000004,99.765 C33.35900000000001,104.714 41.821,109.663 50.337,114.612 C60.649,120.60499999999999 70.935,126.598 81.24700000000001,132.59 C84.631,134.557 88.001,136.523 91.386,138.49 C92.952,139.401 94.53800000000001,140.524 96.238,141.179 C96.70100000000001,141.358 97.165,141.503 97.635,141.619 C97.635,141.619 97.638,141.62199999999999 97.638,141.62199999999999 C97.638,141.62199999999999 97.63300000000001,141.62 97.63300000000001,141.62 C101.006,142.456 104.512,141.737 107.515,140.004 C109.409,138.91 111.304,137.816 113.19800000000001,136.72199999999998 C120.83800000000001,132.31099999999998 128.477,127.901 136.116,123.49 C146.698,117.38 157.281,111.27099999999999 167.863,105.161 C178.756,98.872 189.64999999999998,92.582 200.54399999999998,86.29299999999999 C209.119,81.342 217.69400000000002,76.39099999999999 226.269,71.44 C229.894,69.348 233.55900000000003,67.31299999999999 237.14800000000002,65.15899999999999 C237.835,64.74699999999999 238.477,64.25399999999999 238.94299999999998,63.590999999999994 C239.982,62.114 239.568,59.965999999999994 239.558,58.24999999999999z" style="fill: rgb(82, 104, 227); fill-opacity: 1;"></path></g><g transform="matrix(1.2,0,0,1.2,105.68319999999997,160.9122381212818)" style="user-select: none;"><path d=" M9.042,87.481 C9.042,87.481 3.3710000000000004,84.18599999999999 3.3710000000000004,84.18599999999999 C1.8210000000000002,83.285 1.045,82.099 1.0410000000000004,80.91199999999999 C1.0410000000000004,80.91199999999999 1.0510000000000002,84.192 1.0510000000000002,84.192 C1.0540000000000003,85.379 1.83,86.564 3.3810000000000002,87.465 C3.3810000000000002,87.465 9.051,90.76 9.051,90.76 C9.051,90.76 9.042,87.481 9.042,87.481z" style="fill: rgb(189, 189, 189); fill-opacity: 1;"></path><path d=" M134.23000000000002,2.064 C137.365,0.2539999999999978 142.488,0.25 145.609,2.064 C145.609,2.064 151.382,5.419000000000004 151.382,5.419000000000004 C151.382,5.419000000000004 9.042000000000002,87.48 9.042000000000002,87.48 C9.042000000000002,87.48 3.2150000000000034,84.498 3.2150000000000034,84.498 C0.0940000000000083,82.684 0.2669999999999959,79.408 3.4080000000000013,77.594 C3.4080000000000013,77.594 134.23000000000002,2.064 134.23000000000002,2.064z" style="fill: rgb(255, 255, 255); fill-opacity: 1;"></path><path d=" M151.279,5.359999999999999 C151.279,5.359999999999999 237.197,55.29 237.197,55.29 C240.36200000000002,57.129999999999995 240.339,60.141 237.153,61.980999999999995 C237.153,61.980999999999995 106.50999999999999,137.40699999999998 106.50999999999999,137.40699999999998 C103.305,139.25799999999998 98.138,139.25799999999998 94.96,137.411 C94.96,137.411 9.042000000000002,87.481 9.042000000000002,87.481 C9.042000000000002,87.481 151.279,5.359999999999999 151.279,5.359999999999999z" style="fill: rgb(92, 116, 255); fill-opacity: 1;"></path><path d=" M239.558,58.24999999999999 C239.15300000000002,60.608999999999995 237.41500000000002,61.71999999999999 235.563,62.788999999999994 C233.536,63.959999999999994 231.508,65.131 229.48000000000002,66.30199999999999 C221.871,70.695 214.262,75.088 206.65300000000002,79.481 C196.26100000000002,85.481 185.868,91.481 175.476,97.481 C164.856,103.613 154.235,109.744 143.615,115.875 C135.154,120.75999999999999 126.694,125.64599999999999 118.233,130.531 C114.363,132.765 110.522,135.058 106.62100000000001,137.23499999999999 C102.83500000000001,139.34699999999998 98.037,139.089 94.348,136.945 C92.179,135.685 90.511,134.17499999999998 88.343,132.915 C79.37100000000001,127.701 69.96100000000001,122.55 60.989000000000004,117.336 C60.989000000000004,117.336 29.49900000000001,98.73899999999999 29.49900000000001,98.73899999999999 C29.49900000000001,98.73899999999999 9.857,87.22999999999999 9.857,87.22999999999999 C9.543999999999997,87.048 9.356000000000009,87.663 9.043000000000006,87.481 C9.043000000000006,87.481 8.954000000000008,90.70299999999999 8.954000000000008,90.70299999999999 C8.954000000000008,90.70299999999999 24.843000000000004,99.765 24.843000000000004,99.765 C33.35900000000001,104.714 41.821,109.663 50.337,114.612 C60.649,120.60499999999999 70.935,126.598 81.24700000000001,132.59 C84.631,134.557 88.001,136.523 91.386,138.49 C92.952,139.401 94.53800000000001,140.524 96.238,141.179 C96.70100000000001,141.358 97.165,141.503 97.635,141.619 C97.635,141.619 97.638,141.62199999999999 97.638,141.62199999999999 C97.638,141.62199999999999 97.63300000000001,141.62 97.63300000000001,141.62 C101.006,142.456 104.512,141.737 107.515,140.004 C109.409,138.91 111.304,137.816 113.19800000000001,136.72199999999998 C120.83800000000001,132.31099999999998 128.477,127.901 136.116,123.49 C146.698,117.38 157.281,111.27099999999999 167.863,105.161 C178.756,98.872 189.64999999999998,92.582 200.54399999999998,86.29299999999999 C209.119,81.342 217.69400000000002,76.39099999999999 226.269,71.44 C229.894,69.348 233.55900000000003,67.31299999999999 237.14800000000002,65.15899999999999 C237.835,64.74699999999999 238.477,64.25399999999999 238.94299999999998,63.590999999999994 C239.982,62.114 239.568,59.965999999999994 239.558,58.24999999999999z" style="fill: rgb(82, 104, 227); fill-opacity: 1;"></path></g><g transform="matrix(1.2,0,0,1.2,116.9428,253.51383812128176)" style="user-select: none;"><path d=" M1.2440000000000002,0.8399999999999999 C0.25,1.4249999999999998 0.266,2.368 1.2770000000000001,2.944 C2.2910000000000004,3.5220000000000002 3.914,3.513 4.908,2.9269999999999996 C5.899,2.344 5.8870000000000005,1.4049999999999998 4.873,0.827 C3.862,0.2510000000000001 2.2350000000000003,0.256 1.2440000000000002,0.8399999999999999z" style="fill: rgb(209, 209, 209); fill-opacity: 1;"></path></g><g transform="matrix(1.2,0,0,1.2,124.78720000000001,248.8950381212818)" style="user-select: none;"><path d=" M1.2440000000000002,0.8399999999999999 C0.25,1.4249999999999998 0.266,2.368 1.2770000000000001,2.944 C2.2910000000000004,3.5220000000000002 3.914,3.513 4.908,2.9269999999999996 C5.899,2.344 5.8870000000000005,1.4049999999999998 4.873,0.827 C3.862,0.2510000000000001 2.2350000000000003,0.256 1.2440000000000002,0.8399999999999999z" style="fill: rgb(209, 209, 209); fill-opacity: 1;"></path></g><g transform="matrix(1.2,0,0,1.2,132.6304,244.2750381212818)" style="user-select: none;"><path d=" M1.2440000000000002,0.8400000000000001 C0.25,1.425 0.26900000000000013,2.367 1.2800000000000002,2.942 C2.2940000000000005,3.5199999999999996 3.914,3.513 4.908,2.927 C5.899,2.3440000000000003 5.8870000000000005,1.4049999999999998 4.873,0.827 C3.862,0.2510000000000001 2.2350000000000003,0.256 1.2440000000000002,0.8400000000000001z" style="fill: rgb(209, 209, 209); fill-opacity: 1;"></path></g><g transform="matrix(1.2,0,0,1.2,180.16959999999997,254.0778381212818)" style="user-select: none;"><path d=" M35.756,4.705 C28.04,0.25 15.580000000000002,0.25 7.915000000000001,4.705 C0.24900000000000233,9.16 0.2839999999999989,16.381 7.9990000000000006,20.835 C15.715,25.29 28.189,25.29 35.854,20.835 C43.519000000000005,16.381 43.472,9.16 35.756,4.705z" style="fill: rgb(70, 88, 191); fill-opacity: 1;"></path></g><g transform="matrix(1.2,0,0,1.2,225.96519999999998,227.63703812128176)" style="user-select: none;"><path d=" M35.756,4.705 C28.04,0.25 15.581,0.25 7.916,4.705 C0.25,9.16 0.2839999999999989,16.381 7.9990000000000006,20.835 C15.715,25.29 28.189,25.29 35.854,20.835 C43.519000000000005,16.381 43.472,9.16 35.756,4.705z" style="fill: rgb(70, 88, 191); fill-opacity: 1;"></path></g><g transform="matrix(1.2,0,0,1.2,271.7596,201.19503812128175)" style="user-select: none;"><path d=" M35.756,4.705 C28.04,0.25 15.580000000000002,0.2510000000000012 7.915000000000001,4.705 C0.24900000000000233,9.16 0.2839999999999989,16.381 7.9990000000000006,20.835 C15.715,25.29 28.189,25.29 35.854,20.835 C43.519000000000005,16.381 43.472,9.16 35.756,4.705z" style="fill: rgb(70, 88, 191); fill-opacity: 1;"></path></g><g transform="matrix(1.2,0,0,1.2,143.2528,241.36983812128176)" style="user-select: none;"><path d=" M8.054,7.334 C8.054,11.245999999999999 4.152,14.418 4.152,14.418 C4.152,14.418 0.25,11.245999999999999 0.25,7.334 C0.25,3.4219999999999997 1.9970000000000003,0.25 4.152,0.25 C6.307,0.25 8.054,3.4219999999999997 8.054,7.334z" style="fill: rgb(249, 115, 115); fill-opacity: 1;"></path><path d=" M7.631,19.78 C7.631,20.402 6.078,20.907 4.165,20.907 C2.2510000000000003,20.907 0.6989999999999998,20.402 0.6989999999999998,19.78 C0.6989999999999998,19.158 2.2510000000000003,18.653000000000002 4.165,18.653000000000002 C6.078,18.653000000000002 7.631,19.158 7.631,19.78z" style="fill: rgb(83, 104, 227); fill-opacity: 1;"></path><path d=" M4.224,19.832 C4.224,19.832 4.08,19.832 4.08,19.832 C3.964,19.832 3.87,19.737000000000002 3.87,19.622 C3.87,19.622 3.87,3.766000000000001 3.87,3.766000000000001 C3.87,3.6500000000000004 3.964,3.556000000000001 4.08,3.556000000000001 C4.08,3.556000000000001 4.224,3.556000000000001 4.224,3.556000000000001 C4.34,3.556000000000001 4.434,3.6500000000000004 4.434,3.766000000000001 C4.434,3.766000000000001 4.434,19.622 4.434,19.622 C4.434,19.737000000000002 4.34,19.832 4.224,19.832z" style="fill: rgb(163, 223, 235); fill-opacity: 1;"></path><path d=" M4.024,7.482 C4.024,7.482 2.1149999999999998,5.574 2.1149999999999998,5.574 C2.037,5.496 2.037,5.368 2.1149999999999998,5.29 C2.1149999999999998,5.29 2.2119999999999997,5.194 2.2119999999999997,5.194 C2.2909999999999995,5.116 2.4179999999999997,5.116 2.4959999999999996,5.194 C2.4959999999999996,5.194 4.404999999999999,7.102 4.404999999999999,7.102 C4.483,7.18 4.483,7.308 4.404999999999999,7.386 C4.404999999999999,7.386 4.308,7.482 4.308,7.482 C4.2299999999999995,7.5600000000000005 4.101999999999999,7.5600000000000005 4.024,7.482z" style="fill: rgb(163, 223, 235); fill-opacity: 1;"></path><path d=" M4.024,11.682 C4.024,11.682 2.1149999999999998,9.774000000000001 2.1149999999999998,9.774000000000001 C2.037,9.696 2.037,9.568 2.1149999999999998,9.49 C2.1149999999999998,9.49 2.2119999999999997,9.394 2.2119999999999997,9.394 C2.2909999999999995,9.316 2.4179999999999997,9.316 2.4959999999999996,9.394 C2.4959999999999996,9.394 4.404999999999999,11.302 4.404999999999999,11.302 C4.483,11.38 4.483,11.508000000000001 4.404999999999999,11.586 C4.404999999999999,11.586 4.308,11.682 4.308,11.682 C4.2299999999999995,11.76 4.101999999999999,11.76 4.024,11.682z" style="fill: rgb(163, 223, 235); fill-opacity: 1;"></path><path d=" M4.281,6.682 C4.281,6.682 6.189,4.774 6.189,4.774 C6.2669999999999995,4.696000000000001 6.2669999999999995,4.5680000000000005 6.189,4.49 C6.189,4.49 6.092,4.394 6.092,4.394 C6.013,4.316000000000001 5.885999999999999,4.316000000000001 5.808,4.394 C5.808,4.394 3.8989999999999996,6.3020000000000005 3.8989999999999996,6.3020000000000005 C3.8209999999999997,6.38 3.8209999999999997,6.508 3.8989999999999996,6.586 C3.8989999999999996,6.586 3.9959999999999996,6.682 3.9959999999999996,6.682 C4.074,6.76 4.202999999999999,6.76 4.281,6.682z" style="fill: rgb(163, 223, 235); fill-opacity: 1;"></path><path d=" M4.281,10.883000000000001 C4.281,10.883000000000001 6.189,8.975000000000001 6.189,8.975000000000001 C6.2669999999999995,8.897 6.2669999999999995,8.769 6.189,8.691 C6.189,8.691 6.092,8.595 6.092,8.595 C6.013,8.517000000000001 5.885999999999999,8.517000000000001 5.808,8.595 C5.808,8.595 3.8989999999999996,10.503 3.8989999999999996,10.503 C3.8209999999999997,10.581000000000001 3.8209999999999997,10.709000000000001 3.8989999999999996,10.787 C3.8989999999999996,10.787 3.9959999999999996,10.883000000000001 3.9959999999999996,10.883000000000001 C4.074,10.961 4.202999999999999,10.961 4.281,10.883000000000001z" style="fill: rgb(163, 223, 235); fill-opacity: 1;"></path></g><g transform="matrix(1.2,0,0,1.2,225.01239999999996,290.8182381212818)" style="user-select: none;"><path d=" M8.054,7.334 C8.054,11.245999999999999 4.152,14.418 4.152,14.418 C4.152,14.418 0.25,11.245999999999999 0.25,7.334 C0.25,3.4219999999999997 1.9970000000000003,0.25 4.152,0.25 C6.307,0.25 8.054,3.4219999999999997 8.054,7.334z" style="fill: rgb(249, 115, 115); fill-opacity: 1;"></path><path d=" M7.631,19.78 C7.631,20.402 6.078,20.907 4.165,20.907 C2.2510000000000003,20.907 0.6989999999999998,20.402 0.6989999999999998,19.78 C0.6989999999999998,19.158 2.2510000000000003,18.653000000000002 4.165,18.653000000000002 C6.078,18.653000000000002 7.631,19.158 7.631,19.78z" style="fill: rgb(83, 104, 227); fill-opacity: 1;"></path><path d=" M4.224,19.832 C4.224,19.832 4.08,19.832 4.08,19.832 C3.964,19.832 3.87,19.737000000000002 3.87,19.622 C3.87,19.622 3.87,3.766000000000001 3.87,3.766000000000001 C3.87,3.6500000000000004 3.964,3.556000000000001 4.08,3.556000000000001 C4.08,3.556000000000001 4.224,3.556000000000001 4.224,3.556000000000001 C4.34,3.556000000000001 4.434,3.6500000000000004 4.434,3.766000000000001 C4.434,3.766000000000001 4.434,19.622 4.434,19.622 C4.434,19.737000000000002 4.34,19.832 4.224,19.832z" style="fill: rgb(163, 223, 235); fill-opacity: 1;"></path><path d=" M4.024,7.4830000000000005 C4.024,7.4830000000000005 2.1149999999999998,5.574 2.1149999999999998,5.574 C2.037,5.496 2.037,5.368 2.1149999999999998,5.29 C2.1149999999999998,5.29 2.2119999999999997,5.193 2.2119999999999997,5.193 C2.2909999999999995,5.115 2.4179999999999997,5.115 2.4959999999999996,5.193 C2.4959999999999996,5.193 4.404999999999999,7.102 4.404999999999999,7.102 C4.483,7.18 4.483,7.308 4.404999999999999,7.386 C4.404999999999999,7.386 4.308,7.4830000000000005 4.308,7.4830000000000005 C4.2299999999999995,7.561 4.101999999999999,7.561 4.024,7.4830000000000005z" style="fill: rgb(163, 223, 235); fill-opacity: 1;"></path><path d=" M4.024,11.683 C4.024,11.683 2.1149999999999998,9.774000000000001 2.1149999999999998,9.774000000000001 C2.037,9.696 2.037,9.568 2.1149999999999998,9.49 C2.1149999999999998,9.49 2.2119999999999997,9.393 2.2119999999999997,9.393 C2.2909999999999995,9.315 2.4179999999999997,9.315 2.4959999999999996,9.393 C2.4959999999999996,9.393 4.404999999999999,11.302 4.404999999999999,11.302 C4.483,11.38 4.483,11.508000000000001 4.404999999999999,11.586 C4.404999999999999,11.586 4.308,11.683 4.308,11.683 C4.2299999999999995,11.761000000000001 4.101999999999999,11.761000000000001 4.024,11.683z" style="fill: rgb(163, 223, 235); fill-opacity: 1;"></path><path d=" M4.281,6.683 C4.281,6.683 6.189,4.774 6.189,4.774 C6.2669999999999995,4.696000000000001 6.2669999999999995,4.5680000000000005 6.189,4.49 C6.189,4.49 6.092,4.393000000000001 6.092,4.393000000000001 C6.013999999999999,4.315 5.885999999999999,4.315 5.808,4.393000000000001 C5.808,4.393000000000001 3.8989999999999996,6.3020000000000005 3.8989999999999996,6.3020000000000005 C3.8209999999999997,6.38 3.8209999999999997,6.508 3.8989999999999996,6.586 C3.8989999999999996,6.586 3.9959999999999996,6.683 3.9959999999999996,6.683 C4.074,6.761 4.202999999999999,6.761 4.281,6.683z" style="fill: rgb(163, 223, 235); fill-opacity: 1;"></path><path d=" M4.281,10.884 C4.281,10.884 6.189,8.975000000000001 6.189,8.975000000000001 C6.2669999999999995,8.897 6.2669999999999995,8.769 6.189,8.691 C6.189,8.691 6.092,8.594000000000001 6.092,8.594000000000001 C6.013999999999999,8.516 5.885999999999999,8.516 5.808,8.594000000000001 C5.808,8.594000000000001 3.8989999999999996,10.503 3.8989999999999996,10.503 C3.8209999999999997,10.581000000000001 3.8209999999999997,10.709000000000001 3.8989999999999996,10.787 C3.8989999999999996,10.787 3.9959999999999996,10.884 3.9959999999999996,10.884 C4.074,10.962000000000002 4.202999999999999,10.962000000000002 4.281,10.884z" style="fill: rgb(163, 223, 235); fill-opacity: 1;"></path></g><g transform="matrix(1.2,0,0,1.2,300.3628,230.26623812128173)" style="user-select: none;"><path d=" M8.054,7.334 C8.054,11.245999999999999 4.152,14.418 4.152,14.418 C4.152,14.418 0.25,11.245999999999999 0.25,7.334 C0.25,3.4219999999999997 1.9970000000000003,0.25 4.152,0.25 C6.307,0.25 8.054,3.4219999999999997 8.054,7.334z" style="fill: rgb(249, 115, 115); fill-opacity: 1;"></path><path d=" M7.631,19.78 C7.631,20.402 6.078,20.907 4.165,20.907 C2.2510000000000003,20.907 0.6989999999999998,20.402 0.6989999999999998,19.78 C0.6989999999999998,19.158 2.2510000000000003,18.653000000000002 4.165,18.653000000000002 C6.078,18.653000000000002 7.631,19.158 7.631,19.78z" style="fill: rgb(83, 104, 227); fill-opacity: 1;"></path><path d=" M4.224,19.832 C4.224,19.832 4.08,19.832 4.08,19.832 C3.964,19.832 3.87,19.737000000000002 3.87,19.622 C3.87,19.622 3.87,3.766000000000001 3.87,3.766000000000001 C3.87,3.6500000000000004 3.964,3.556000000000001 4.08,3.556000000000001 C4.08,3.556000000000001 4.224,3.556000000000001 4.224,3.556000000000001 C4.34,3.556000000000001 4.434,3.6500000000000004 4.434,3.766000000000001 C4.434,3.766000000000001 4.434,19.622 4.434,19.622 C4.434,19.737000000000002 4.34,19.832 4.224,19.832z" style="fill: rgb(163, 223, 235); fill-opacity: 1;"></path><path d=" M4.024,7.482 C4.024,7.482 2.1149999999999998,5.574 2.1149999999999998,5.574 C2.037,5.496 2.037,5.368 2.1149999999999998,5.29 C2.1149999999999998,5.29 2.213,5.194 2.213,5.194 C2.291,5.116 2.4189999999999996,5.116 2.497,5.194 C2.497,5.194 4.404999999999999,7.102 4.404999999999999,7.102 C4.483,7.18 4.483,7.308 4.404999999999999,7.386 C4.404999999999999,7.386 4.308,7.482 4.308,7.482 C4.2299999999999995,7.5600000000000005 4.101999999999999,7.5600000000000005 4.024,7.482z" style="fill: rgb(163, 223, 235); fill-opacity: 1;"></path><path d=" M4.024,11.682 C4.024,11.682 2.1149999999999998,9.774000000000001 2.1149999999999998,9.774000000000001 C2.037,9.696 2.037,9.568 2.1149999999999998,9.49 C2.1149999999999998,9.49 2.213,9.394 2.213,9.394 C2.291,9.316 2.4189999999999996,9.316 2.497,9.394 C2.497,9.394 4.404999999999999,11.302 4.404999999999999,11.302 C4.483,11.38 4.483,11.508000000000001 4.404999999999999,11.586 C4.404999999999999,11.586 4.308,11.682 4.308,11.682 C4.2299999999999995,11.76 4.101999999999999,11.76 4.024,11.682z" style="fill: rgb(163, 223, 235); fill-opacity: 1;"></path><path d=" M4.281,6.682 C4.281,6.682 6.189,4.774 6.189,4.774 C6.2669999999999995,4.696000000000001 6.2669999999999995,4.5680000000000005 6.189,4.49 C6.189,4.49 6.090999999999999,4.394 6.090999999999999,4.394 C6.013,4.316000000000001 5.885,4.316000000000001 5.8069999999999995,4.394 C5.8069999999999995,4.394 3.8989999999999996,6.3020000000000005 3.8989999999999996,6.3020000000000005 C3.8209999999999997,6.38 3.8209999999999997,6.508 3.8989999999999996,6.586 C3.8989999999999996,6.586 3.9959999999999996,6.682 3.9959999999999996,6.682 C4.074,6.76 4.202999999999999,6.76 4.281,6.682z" style="fill: rgb(163, 223, 235); fill-opacity: 1;"></path><path d=" M4.281,10.883000000000001 C4.281,10.883000000000001 6.189,8.975000000000001 6.189,8.975000000000001 C6.2669999999999995,8.897 6.2669999999999995,8.769 6.189,8.691 C6.189,8.691 6.090999999999999,8.595 6.090999999999999,8.595 C6.013,8.517000000000001 5.885,8.517000000000001 5.8069999999999995,8.595 C5.8069999999999995,8.595 3.8989999999999996,10.503 3.8989999999999996,10.503 C3.8209999999999997,10.581000000000001 3.8209999999999997,10.709000000000001 3.8989999999999996,10.787 C3.8989999999999996,10.787 3.9959999999999996,10.883000000000001 3.9959999999999996,10.883000000000001 C4.074,10.961 4.202999999999999,10.961 4.281,10.883000000000001z" style="fill: rgb(163, 223, 235); fill-opacity: 1;"></path></g><g transform="matrix(1.2,0,0,1.2,286.91799999999995,164.05383812128176)" style="user-select: none;"><path d=" M8.054,7.334 C8.054,11.245999999999999 4.152,14.418 4.152,14.418 C4.152,14.418 0.25,11.245999999999999 0.25,7.334 C0.25,3.4219999999999997 1.9970000000000003,0.25 4.152,0.25 C6.307,0.25 8.054,3.4219999999999997 8.054,7.334z" style="fill: rgb(249, 115, 115); fill-opacity: 1;"></path><path d=" M7.631,19.78 C7.631,20.402 6.078,20.907 4.165,20.907 C2.2510000000000003,20.907 0.6989999999999998,20.402 0.6989999999999998,19.78 C0.6989999999999998,19.158 2.2510000000000003,18.653000000000002 4.165,18.653000000000002 C6.078,18.653000000000002 7.631,19.158 7.631,19.78z" style="fill: rgb(83, 104, 227); fill-opacity: 1;"></path><path d=" M4.224,19.832 C4.224,19.832 4.08,19.832 4.08,19.832 C3.964,19.832 3.87,19.737000000000002 3.87,19.622 C3.87,19.622 3.87,3.766000000000001 3.87,3.766000000000001 C3.87,3.6500000000000004 3.964,3.556000000000001 4.08,3.556000000000001 C4.08,3.556000000000001 4.224,3.556000000000001 4.224,3.556000000000001 C4.34,3.556000000000001 4.434,3.6500000000000004 4.434,3.766000000000001 C4.434,3.766000000000001 4.434,19.622 4.434,19.622 C4.434,19.737000000000002 4.34,19.832 4.224,19.832z" style="fill: rgb(163, 223, 235); fill-opacity: 1;"></path><path d=" M4.024,7.482 C4.024,7.482 2.1149999999999998,5.574 2.1149999999999998,5.574 C2.037,5.496 2.037,5.368 2.1149999999999998,5.29 C2.1149999999999998,5.29 2.213,5.194 2.213,5.194 C2.292,5.116 2.4189999999999996,5.116 2.497,5.194 C2.497,5.194 4.404999999999999,7.102 4.404999999999999,7.102 C4.483,7.18 4.483,7.308 4.404999999999999,7.386 C4.404999999999999,7.386 4.308,7.482 4.308,7.482 C4.2299999999999995,7.5600000000000005 4.101999999999999,7.5600000000000005 4.024,7.482z" style="fill: rgb(163, 223, 235); fill-opacity: 1;"></path><path d=" M4.024,11.682 C4.024,11.682 2.1149999999999998,9.774000000000001 2.1149999999999998,9.774000000000001 C2.037,9.696 2.037,9.568 2.1149999999999998,9.49 C2.1149999999999998,9.49 2.213,9.394 2.213,9.394 C2.292,9.316 2.4189999999999996,9.316 2.497,9.394 C2.497,9.394 4.404999999999999,11.302 4.404999999999999,11.302 C4.483,11.38 4.483,11.508000000000001 4.404999999999999,11.586 C4.404999999999999,11.586 4.308,11.682 4.308,11.682 C4.2299999999999995,11.76 4.101999999999999,11.76 4.024,11.682z" style="fill: rgb(163, 223, 235); fill-opacity: 1;"></path><path d=" M4.281,6.682 C4.281,6.682 6.189,4.774 6.189,4.774 C6.2669999999999995,4.696000000000001 6.2669999999999995,4.5680000000000005 6.189,4.49 C6.189,4.49 6.090999999999999,4.394 6.090999999999999,4.394 C6.012,4.316000000000001 5.885,4.316000000000001 5.8069999999999995,4.394 C5.8069999999999995,4.394 3.8989999999999996,6.3020000000000005 3.8989999999999996,6.3020000000000005 C3.8209999999999997,6.38 3.8209999999999997,6.508 3.8989999999999996,6.586 C3.8989999999999996,6.586 3.9959999999999996,6.682 3.9959999999999996,6.682 C4.074,6.76 4.202999999999999,6.76 4.281,6.682z" style="fill: rgb(163, 223, 235); fill-opacity: 1;"></path><path d=" M4.281,10.883000000000001 C4.281,10.883000000000001 6.189,8.975000000000001 6.189,8.975000000000001 C6.2669999999999995,8.897 6.2669999999999995,8.769 6.189,8.691 C6.189,8.691 6.090999999999999,8.595 6.090999999999999,8.595 C6.012,8.517000000000001 5.885,8.517000000000001 5.8069999999999995,8.595 C5.8069999999999995,8.595 3.8989999999999996,10.503 3.8989999999999996,10.503 C3.8209999999999997,10.581000000000001 3.8209999999999997,10.709000000000001 3.8989999999999996,10.787 C3.8989999999999996,10.787 3.9959999999999996,10.883000000000001 3.9959999999999996,10.883000000000001 C4.074,10.961 4.202999999999999,10.961 4.281,10.883000000000001z" style="fill: rgb(163, 223, 235); fill-opacity: 1;"></path></g><g transform="matrix(1.2,0,0,1.2,199.3576,203.69823812128175)" style="user-select: none;"><path d=" M8.054,7.334 C8.054,11.245999999999999 4.152,14.418 4.152,14.418 C4.152,14.418 0.25,11.245999999999999 0.25,7.334 C0.25,3.4219999999999997 1.9970000000000003,0.25 4.152,0.25 C6.307,0.25 8.054,3.4219999999999997 8.054,7.334z" style="fill: rgb(249, 115, 115); fill-opacity: 1;"></path><path d=" M7.631,19.78 C7.631,20.402 6.078,20.907 4.165,20.907 C2.2510000000000003,20.907 0.6989999999999998,20.402 0.6989999999999998,19.78 C0.6989999999999998,19.158 2.2510000000000003,18.653000000000002 4.165,18.653000000000002 C6.078,18.653000000000002 7.631,19.158 7.631,19.78z" style="fill: rgb(83, 104, 227); fill-opacity: 1;"></path><path d=" M4.224,19.832 C4.224,19.832 4.08,19.832 4.08,19.832 C3.964,19.832 3.87,19.737000000000002 3.87,19.622 C3.87,19.622 3.87,3.766000000000001 3.87,3.766000000000001 C3.87,3.6500000000000004 3.964,3.556000000000001 4.08,3.556000000000001 C4.08,3.556000000000001 4.224,3.556000000000001 4.224,3.556000000000001 C4.34,3.556000000000001 4.434,3.6500000000000004 4.434,3.766000000000001 C4.434,3.766000000000001 4.434,19.622 4.434,19.622 C4.434,19.737000000000002 4.34,19.832 4.224,19.832z" style="fill: rgb(163, 223, 235); fill-opacity: 1;"></path><path d=" M4.024,7.482 C4.024,7.482 2.1149999999999998,5.574 2.1149999999999998,5.574 C2.037,5.496 2.037,5.368 2.1149999999999998,5.29 C2.1149999999999998,5.29 2.213,5.194 2.213,5.194 C2.292,5.116 2.4189999999999996,5.116 2.497,5.194 C2.497,5.194 4.404999999999999,7.102 4.404999999999999,7.102 C4.483,7.18 4.483,7.308 4.404999999999999,7.386 C4.404999999999999,7.386 4.308,7.482 4.308,7.482 C4.2299999999999995,7.5600000000000005 4.101999999999999,7.5600000000000005 4.024,7.482z" style="fill: rgb(163, 223, 235); fill-opacity: 1;"></path><path d=" M4.024,11.682 C4.024,11.682 2.1149999999999998,9.774000000000001 2.1149999999999998,9.774000000000001 C2.037,9.696 2.037,9.568 2.1149999999999998,9.49 C2.1149999999999998,9.49 2.213,9.394 2.213,9.394 C2.292,9.316 2.4189999999999996,9.316 2.497,9.394 C2.497,9.394 4.404999999999999,11.302 4.404999999999999,11.302 C4.483,11.38 4.483,11.508000000000001 4.404999999999999,11.586 C4.404999999999999,11.586 4.308,11.682 4.308,11.682 C4.2299999999999995,11.76 4.101999999999999,11.76 4.024,11.682z" style="fill: rgb(163, 223, 235); fill-opacity: 1;"></path><path d=" M4.281,6.682 C4.281,6.682 6.189,4.774 6.189,4.774 C6.2669999999999995,4.696000000000001 6.2669999999999995,4.5680000000000005 6.189,4.49 C6.189,4.49 6.090999999999999,4.394 6.090999999999999,4.394 C6.012,4.316000000000001 5.885,4.316000000000001 5.8069999999999995,4.394 C5.8069999999999995,4.394 3.8989999999999996,6.3020000000000005 3.8989999999999996,6.3020000000000005 C3.8209999999999997,6.38 3.8209999999999997,6.508 3.8989999999999996,6.586 C3.8989999999999996,6.586 3.9959999999999996,6.682 3.9959999999999996,6.682 C4.074,6.76 4.202999999999999,6.76 4.281,6.682z" style="fill: rgb(163, 223, 235); fill-opacity: 1;"></path><path d=" M4.281,10.883000000000001 C4.281,10.883000000000001 6.189,8.975000000000001 6.189,8.975000000000001 C6.2669999999999995,8.897 6.2669999999999995,8.769 6.189,8.691 C6.189,8.691 6.090999999999999,8.595 6.090999999999999,8.595 C6.012,8.517000000000001 5.885,8.517000000000001 5.8069999999999995,8.595 C5.8069999999999995,8.595 3.8989999999999996,10.503 3.8989999999999996,10.503 C3.8209999999999997,10.581000000000001 3.8209999999999997,10.709000000000001 3.8989999999999996,10.787 C3.8989999999999996,10.787 3.9959999999999996,10.883000000000001 3.9959999999999996,10.883000000000001 C4.074,10.961 4.202999999999999,10.961 4.281,10.883000000000001z" style="fill: rgb(163, 223, 235); fill-opacity: 1;"></path></g><g transform="matrix(1.2,0,0,1.2,355.5628,216.57903812128177)" style="user-select: none;"><path d=" M8.054,7.334 C8.054,11.245999999999999 4.152,14.418 4.152,14.418 C4.152,14.418 0.25,11.245999999999999 0.25,7.334 C0.25,3.4219999999999997 1.9970000000000003,0.25 4.152,0.25 C6.307,0.25 8.054,3.4219999999999997 8.054,7.334z" style="fill: rgb(249, 115, 115); fill-opacity: 1;"></path><path d=" M7.631,19.78 C7.631,20.402 6.078,20.907 4.165,20.907 C2.2510000000000003,20.907 0.6989999999999998,20.402 0.6989999999999998,19.78 C0.6989999999999998,19.158 2.2510000000000003,18.653000000000002 4.165,18.653000000000002 C6.078,18.653000000000002 7.631,19.158 7.631,19.78z" style="fill: rgb(83, 104, 227); fill-opacity: 1;"></path><path d=" M4.224,19.832 C4.224,19.832 4.08,19.832 4.08,19.832 C3.964,19.832 3.87,19.737000000000002 3.87,19.622 C3.87,19.622 3.87,3.766000000000001 3.87,3.766000000000001 C3.87,3.6500000000000004 3.964,3.556000000000001 4.08,3.556000000000001 C4.08,3.556000000000001 4.224,3.556000000000001 4.224,3.556000000000001 C4.34,3.556000000000001 4.434,3.6500000000000004 4.434,3.766000000000001 C4.434,3.766000000000001 4.434,19.622 4.434,19.622 C4.434,19.737000000000002 4.34,19.832 4.224,19.832z" style="fill: rgb(163, 223, 235); fill-opacity: 1;"></path><path d=" M4.024,7.482 C4.024,7.482 2.1149999999999998,5.574 2.1149999999999998,5.574 C2.037,5.496 2.037,5.368 2.1149999999999998,5.29 C2.1149999999999998,5.29 2.213,5.194 2.213,5.194 C2.291,5.116 2.4189999999999996,5.116 2.497,5.194 C2.497,5.194 4.404999999999999,7.102 4.404999999999999,7.102 C4.483,7.18 4.483,7.308 4.404999999999999,7.386 C4.404999999999999,7.386 4.308,7.482 4.308,7.482 C4.2299999999999995,7.5600000000000005 4.101999999999999,7.5600000000000005 4.024,7.482z" style="fill: rgb(163, 223, 235); fill-opacity: 1;"></path><path d=" M4.024,11.682 C4.024,11.682 2.1149999999999998,9.774000000000001 2.1149999999999998,9.774000000000001 C2.037,9.696 2.037,9.568 2.1149999999999998,9.49 C2.1149999999999998,9.49 2.213,9.394 2.213,9.394 C2.291,9.316 2.4189999999999996,9.316 2.497,9.394 C2.497,9.394 4.404999999999999,11.302 4.404999999999999,11.302 C4.483,11.38 4.483,11.508000000000001 4.404999999999999,11.586 C4.404999999999999,11.586 4.308,11.682 4.308,11.682 C4.2299999999999995,11.76 4.101999999999999,11.76 4.024,11.682z" style="fill: rgb(163, 223, 235); fill-opacity: 1;"></path><path d=" M4.281,6.682 C4.281,6.682 6.189,4.774 6.189,4.774 C6.2669999999999995,4.696000000000001 6.2669999999999995,4.5680000000000005 6.189,4.49 C6.189,4.49 6.090999999999999,4.394 6.090999999999999,4.394 C6.013,4.316000000000001 5.885,4.316000000000001 5.8069999999999995,4.394 C5.8069999999999995,4.394 3.8989999999999996,6.3020000000000005 3.8989999999999996,6.3020000000000005 C3.8209999999999997,6.38 3.8209999999999997,6.508 3.8989999999999996,6.586 C3.8989999999999996,6.586 3.9959999999999996,6.682 3.9959999999999996,6.682 C4.074,6.76 4.202999999999999,6.76 4.281,6.682z" style="fill: rgb(163, 223, 235); fill-opacity: 1;"></path><path d=" M4.281,10.883000000000001 C4.281,10.883000000000001 6.189,8.975000000000001 6.189,8.975000000000001 C6.2669999999999995,8.897 6.2669999999999995,8.769 6.189,8.691 C6.189,8.691 6.090999999999999,8.595 6.090999999999999,8.595 C6.013,8.517000000000001 5.885,8.517000000000001 5.8069999999999995,8.595 C5.8069999999999995,8.595 3.8989999999999996,10.503 3.8989999999999996,10.503 C3.8209999999999997,10.581000000000001 3.8209999999999997,10.709000000000001 3.8989999999999996,10.787 C3.8989999999999996,10.787 3.9959999999999996,10.883000000000001 3.9959999999999996,10.883000000000001 C4.074,10.961 4.202999999999999,10.961 4.281,10.883000000000001z" style="fill: rgb(163, 223, 235); fill-opacity: 1;"></path></g><g transform="matrix(1.08,0,0,1.08,247.37537436388672,243.84270519027172)" style="user-select: none;"><path d=" M-19.817999999999998,7.915 C-19.817999999999998,17.768 -27.68,34.923 -37.533,34.923 C-47.385999999999996,34.923 -55.5,17.768 -55.5,7.915 C-55.5,-1.9379999999999997 -47.512,-9.926000000000002 -37.659,-9.926000000000002 C-27.805999999999997,-9.926000000000002 -19.817999999999998,-1.9379999999999997 -19.817999999999998,7.915z" style="fill: rgb(255, 255, 255); fill-opacity: 1;"></path></g><g transform="matrix(0.96,0,0,0.96,243.70000000000002,242.39926424890638)" style="user-select: none;"><path d=" M-38.625,20.75 C-36.4863875,20.75 -34.75,22.4863875 -34.75,24.625 C-34.75,26.7636125 -36.4863875,28.5 -38.625,28.5 C-40.7636125,28.5 -42.5,26.7636125 -42.5,24.625 C-42.5,22.4863875 -40.7636125,20.75 -38.625,20.75z M-38.625,20.75 C-36.4863875,20.75 -34.75,22.4863875 -34.75,24.625 C-34.75,26.7636125 -36.4863875,28.5 -38.625,28.5 C-40.7636125,28.5 -42.5,26.7636125 -42.5,24.625 C-42.5,22.4863875 -40.7636125,20.75 -38.625,20.75z" style="fill: rgb(255, 255, 255); fill-opacity: 1; display: block;"></path></g><g style="user-select: none;"><path style="fill: rgb(255, 255, 255); fill-opacity: 1; display: none;"></path></g><g style="user-select: none;"><path style="fill: rgb(255, 255, 255); fill-opacity: 1; display: none;"></path></g><g style="user-select: none;"><path style="fill: rgb(255, 255, 255); fill-opacity: 1; display: none;"></path></g><g style="user-select: none;"><path style="fill: rgb(255, 255, 255); fill-opacity: 1; display: none;"></path></g><g style="user-select: none;"><path style="fill: rgb(255, 255, 255); fill-opacity: 1; display: none;"></path></g><g style="user-select: none;"><path style="fill: rgb(255, 255, 255); fill-opacity: 1; display: none;"></path></g><g style="user-select: none;"><path style="fill: rgb(255, 255, 255); fill-opacity: 1; display: none;"></path></g><g style="user-select: none;"><path style="fill: rgb(255, 255, 255); fill-opacity: 1; display: none;"></path></g><g style="user-select: none;"><path style="fill: rgb(255, 255, 255); fill-opacity: 1; display: none;"></path></g><g style="user-select: none;"><path style="fill: rgb(255, 255, 255); fill-opacity: 1; display: none;"></path></g><g style="user-select: none;"><path style="fill: rgb(255, 255, 255); fill-opacity: 1; display: none;"></path></g><g style="user-select: none;"><path style="fill: rgb(255, 255, 255); fill-opacity: 1; display: none;"></path></g><g style="user-select: none;"><path style="fill: rgb(255, 255, 255); fill-opacity: 1; display: none;"></path></g><g style="user-select: none;"><path style="fill: rgb(255, 255, 255); fill-opacity: 1; display: none;"></path></g><g style="user-select: none;"><path style="fill: rgb(255, 255, 255); fill-opacity: 1; display: none;"></path></g><g style="user-select: none;"><path style="fill: rgb(255, 255, 255); fill-opacity: 1; display: none;"></path></g><g style="user-select: none;"><path style="fill: rgb(255, 255, 255); fill-opacity: 1; display: none;"></path></g><g style="user-select: none;"><path style="fill: rgb(255, 255, 255); fill-opacity: 1; display: none;"></path></g><g style="user-select: none;"><path style="fill: rgb(255, 255, 255); fill-opacity: 1; display: none;"></path></g><g style="user-select: none;"><path style="fill: rgb(255, 255, 255); fill-opacity: 1; display: none;"></path></g><g style="user-select: none;"><path style="fill: rgb(255, 255, 255); fill-opacity: 1; display: none;"></path></g><g style="user-select: none;"><path style="fill: rgb(255, 255, 255); fill-opacity: 1; display: none;"></path></g><g style="user-select: none;"><path style="fill: rgb(255, 255, 255); fill-opacity: 1; display: none;"></path></g><g style="user-select: none;"><path style="fill: rgb(255, 255, 255); fill-opacity: 1; display: none;"></path></g><g style="user-select: none;"><path style="fill: rgb(255, 255, 255); fill-opacity: 1; display: none;"></path></g><g style="user-select: none;"><path style="fill: rgb(255, 255, 255); fill-opacity: 1; display: none;"></path></g><g style="user-select: none;"><path style="fill: rgb(255, 255, 255); fill-opacity: 1; display: none;"></path></g><g style="user-select: none;"><path style="fill: rgb(255, 255, 255); fill-opacity: 1; display: none;"></path></g><g style="user-select: none;"><path style="fill: rgb(255, 255, 255); fill-opacity: 1; display: none;"></path></g><g style="user-select: none;"><path style="fill: rgb(255, 255, 255); fill-opacity: 1; display: none;"></path></g><g style="user-select: none;"><path style="fill: rgb(255, 255, 255); fill-opacity: 1; display: none;"></path></g><g style="user-select: none;"><path style="fill: rgb(255, 255, 255); fill-opacity: 1; display: none;"></path></g><g style="user-select: none;"><path style="fill: rgb(255, 255, 255); fill-opacity: 1; display: none;"></path></g><g style="user-select: none;"><path style="fill: rgb(255, 255, 255); fill-opacity: 1; display: none;"></path></g><g clip-path="url(#8HwhbtwWkk)" transform="matrix(1.2,0,0,1.2,-50,-29.90696187871821)" opacity="1" style="user-select: none;"><g transform="matrix(1,0,0,1,129.736,159.01600000000002)" style="user-select: none;"><path d=" M9.042,87.481 C9.042,87.481 3.3710000000000004,84.18599999999999 3.3710000000000004,84.18599999999999 C1.8210000000000002,83.285 1.045,82.099 1.0410000000000004,80.91199999999999 C1.0410000000000004,80.91199999999999 1.0510000000000002,84.192 1.0510000000000002,84.192 C1.0540000000000003,85.379 1.83,86.564 3.3810000000000002,87.465 C3.3810000000000002,87.465 9.051,90.76 9.051,90.76 C9.051,90.76 9.042,87.481 9.042,87.481z" style="fill: rgb(189, 189, 189); fill-opacity: 1;"></path><path d=" M134.23000000000002,2.064 C137.365,0.2539999999999978 142.488,0.25 145.609,2.064 C145.609,2.064 151.382,5.419000000000004 151.382,5.419000000000004 C151.382,5.419000000000004 9.042000000000002,87.48 9.042000000000002,87.48 C9.042000000000002,87.48 3.2150000000000034,84.498 3.2150000000000034,84.498 C0.0940000000000083,82.684 0.2669999999999959,79.408 3.4080000000000013,77.594 C3.4080000000000013,77.594 134.23000000000002,2.064 134.23000000000002,2.064z" style="fill: rgb(255, 255, 255); fill-opacity: 1;"></path><path d=" M151.279,5.359999999999999 C151.279,5.359999999999999 237.197,55.29 237.197,55.29 C240.36200000000002,57.129999999999995 240.339,60.141 237.153,61.980999999999995 C237.153,61.980999999999995 106.50999999999999,137.40699999999998 106.50999999999999,137.40699999999998 C103.305,139.25799999999998 98.138,139.25799999999998 94.96,137.411 C94.96,137.411 9.042000000000002,87.481 9.042000000000002,87.481 C9.042000000000002,87.481 151.279,5.359999999999999 151.279,5.359999999999999z" style="fill: rgb(92, 116, 255); fill-opacity: 1;"></path><path d=" M239.558,58.24999999999999 C239.15300000000002,60.608999999999995 237.41500000000002,61.71999999999999 235.563,62.788999999999994 C233.536,63.959999999999994 231.508,65.131 229.48000000000002,66.30199999999999 C221.871,70.695 214.262,75.088 206.65300000000002,79.481 C196.26100000000002,85.481 185.868,91.481 175.476,97.481 C164.856,103.613 154.235,109.744 143.615,115.875 C135.154,120.75999999999999 126.694,125.64599999999999 118.233,130.531 C114.363,132.765 110.522,135.058 106.62100000000001,137.23499999999999 C102.83500000000001,139.34699999999998 98.037,139.089 94.348,136.945 C92.179,135.685 90.511,134.17499999999998 88.343,132.915 C79.37100000000001,127.701 69.96100000000001,122.55 60.989000000000004,117.336 C60.989000000000004,117.336 29.49900000000001,98.73899999999999 29.49900000000001,98.73899999999999 C29.49900000000001,98.73899999999999 9.857,87.22999999999999 9.857,87.22999999999999 C9.543999999999997,87.048 9.356000000000009,87.663 9.043000000000006,87.481 C9.043000000000006,87.481 8.954000000000008,90.70299999999999 8.954000000000008,90.70299999999999 C8.954000000000008,90.70299999999999 24.843000000000004,99.765 24.843000000000004,99.765 C33.35900000000001,104.714 41.821,109.663 50.337,114.612 C60.649,120.60499999999999 70.935,126.598 81.24700000000001,132.59 C84.631,134.557 88.001,136.523 91.386,138.49 C92.952,139.401 94.53800000000001,140.524 96.238,141.179 C96.70100000000001,141.358 97.165,141.503 97.635,141.619 C97.635,141.619 97.638,141.62199999999999 97.638,141.62199999999999 C97.638,141.62199999999999 97.63300000000001,141.62 97.63300000000001,141.62 C101.006,142.456 104.512,141.737 107.515,140.004 C109.409,138.91 111.304,137.816 113.19800000000001,136.72199999999998 C120.83800000000001,132.31099999999998 128.477,127.901 136.116,123.49 C146.698,117.38 157.281,111.27099999999999 167.863,105.161 C178.756,98.872 189.64999999999998,92.582 200.54399999999998,86.29299999999999 C209.119,81.342 217.69400000000002,76.39099999999999 226.269,71.44 C229.894,69.348 233.55900000000003,67.31299999999999 237.14800000000002,65.15899999999999 C237.835,64.74699999999999 238.477,64.25399999999999 238.94299999999998,63.590999999999994 C239.982,62.114 239.568,59.965999999999994 239.558,58.24999999999999z" style="fill: rgb(82, 104, 227); fill-opacity: 1;"></path></g><g transform="matrix(1,0,0,1,129.736,159.01600000000002)" style="user-select: none;"><path d=" M9.042,87.481 C9.042,87.481 3.3710000000000004,84.18599999999999 3.3710000000000004,84.18599999999999 C1.8210000000000002,83.285 1.045,82.099 1.0410000000000004,80.91199999999999 C1.0410000000000004,80.91199999999999 1.0510000000000002,84.192 1.0510000000000002,84.192 C1.0540000000000003,85.379 1.83,86.564 3.3810000000000002,87.465 C3.3810000000000002,87.465 9.051,90.76 9.051,90.76 C9.051,90.76 9.042,87.481 9.042,87.481z" style="fill: rgb(189, 189, 189); fill-opacity: 1;"></path><path d=" M134.23000000000002,2.064 C137.365,0.2539999999999978 142.488,0.25 145.609,2.064 C145.609,2.064 151.382,5.419000000000004 151.382,5.419000000000004 C151.382,5.419000000000004 9.042000000000002,87.48 9.042000000000002,87.48 C9.042000000000002,87.48 3.2150000000000034,84.498 3.2150000000000034,84.498 C0.0940000000000083,82.684 0.2669999999999959,79.408 3.4080000000000013,77.594 C3.4080000000000013,77.594 134.23000000000002,2.064 134.23000000000002,2.064z" style="fill: rgb(255, 255, 255); fill-opacity: 1;"></path><path d=" M151.279,5.359999999999999 C151.279,5.359999999999999 237.197,55.29 237.197,55.29 C240.36200000000002,57.129999999999995 240.339,60.141 237.153,61.980999999999995 C237.153,61.980999999999995 106.50999999999999,137.40699999999998 106.50999999999999,137.40699999999998 C103.305,139.25799999999998 98.138,139.25799999999998 94.96,137.411 C94.96,137.411 9.042000000000002,87.481 9.042000000000002,87.481 C9.042000000000002,87.481 151.279,5.359999999999999 151.279,5.359999999999999z" style="fill: rgb(92, 116, 255); fill-opacity: 1;"></path><path d=" M239.558,58.24999999999999 C239.15300000000002,60.608999999999995 237.41500000000002,61.71999999999999 235.563,62.788999999999994 C233.536,63.959999999999994 231.508,65.131 229.48000000000002,66.30199999999999 C221.871,70.695 214.262,75.088 206.65300000000002,79.481 C196.26100000000002,85.481 185.868,91.481 175.476,97.481 C164.856,103.613 154.235,109.744 143.615,115.875 C135.154,120.75999999999999 126.694,125.64599999999999 118.233,130.531 C114.363,132.765 110.522,135.058 106.62100000000001,137.23499999999999 C102.83500000000001,139.34699999999998 98.037,139.089 94.348,136.945 C92.179,135.685 90.511,134.17499999999998 88.343,132.915 C79.37100000000001,127.701 69.96100000000001,122.55 60.989000000000004,117.336 C60.989000000000004,117.336 29.49900000000001,98.73899999999999 29.49900000000001,98.73899999999999 C29.49900000000001,98.73899999999999 9.857,87.22999999999999 9.857,87.22999999999999 C9.543999999999997,87.048 9.356000000000009,87.663 9.043000000000006,87.481 C9.043000000000006,87.481 8.954000000000008,90.70299999999999 8.954000000000008,90.70299999999999 C8.954000000000008,90.70299999999999 24.843000000000004,99.765 24.843000000000004,99.765 C33.35900000000001,104.714 41.821,109.663 50.337,114.612 C60.649,120.60499999999999 70.935,126.598 81.24700000000001,132.59 C84.631,134.557 88.001,136.523 91.386,138.49 C92.952,139.401 94.53800000000001,140.524 96.238,141.179 C96.70100000000001,141.358 97.165,141.503 97.635,141.619 C97.635,141.619 97.638,141.62199999999999 97.638,141.62199999999999 C97.638,141.62199999999999 97.63300000000001,141.62 97.63300000000001,141.62 C101.006,142.456 104.512,141.737 107.515,140.004 C109.409,138.91 111.304,137.816 113.19800000000001,136.72199999999998 C120.83800000000001,132.31099999999998 128.477,127.901 136.116,123.49 C146.698,117.38 157.281,111.27099999999999 167.863,105.161 C178.756,98.872 189.64999999999998,92.582 200.54399999999998,86.29299999999999 C209.119,81.342 217.69400000000002,76.39099999999999 226.269,71.44 C229.894,69.348 233.55900000000003,67.31299999999999 237.14800000000002,65.15899999999999 C237.835,64.74699999999999 238.477,64.25399999999999 238.94299999999998,63.590999999999994 C239.982,62.114 239.568,59.965999999999994 239.558,58.24999999999999z" style="fill: rgb(82, 104, 227); fill-opacity: 1;"></path></g><g transform="matrix(1,0,0,1,139.119,236.184)" style="user-select: none;"><path d=" M1.2440000000000002,0.8399999999999999 C0.25,1.4249999999999998 0.266,2.368 1.2770000000000001,2.944 C2.2910000000000004,3.5220000000000002 3.914,3.513 4.908,2.9269999999999996 C5.899,2.344 5.8870000000000005,1.4049999999999998 4.873,0.827 C3.862,0.2510000000000001 2.2350000000000003,0.256 1.2440000000000002,0.8399999999999999z" style="fill: rgb(209, 209, 209); fill-opacity: 1;"></path></g><g transform="matrix(1,0,0,1,145.656,232.335)" style="user-select: none;"><path d=" M1.2440000000000002,0.8399999999999999 C0.25,1.4249999999999998 0.266,2.368 1.2770000000000001,2.944 C2.2910000000000004,3.5220000000000002 3.914,3.513 4.908,2.9269999999999996 C5.899,2.344 5.8870000000000005,1.4049999999999998 4.873,0.827 C3.862,0.2510000000000001 2.2350000000000003,0.256 1.2440000000000002,0.8399999999999999z" style="fill: rgb(209, 209, 209); fill-opacity: 1;"></path></g><g transform="matrix(1,0,0,1,152.192,228.485)" style="user-select: none;"><path d=" M1.2440000000000002,0.8400000000000001 C0.25,1.425 0.26900000000000013,2.367 1.2800000000000002,2.942 C2.2940000000000005,3.5199999999999996 3.914,3.513 4.908,2.927 C5.899,2.3440000000000003 5.8870000000000005,1.4049999999999998 4.873,0.827 C3.862,0.2510000000000001 2.2350000000000003,0.256 1.2440000000000002,0.8400000000000001z" style="fill: rgb(209, 209, 209); fill-opacity: 1;"></path></g><g transform="matrix(1,0,0,1,191.808,236.654)" style="user-select: none;"><path d=" M35.756,4.705 C28.04,0.25 15.580000000000002,0.25 7.915000000000001,4.705 C0.24900000000000233,9.16 0.2839999999999989,16.381 7.9990000000000006,20.835 C15.715,25.29 28.189,25.29 35.854,20.835 C43.519000000000005,16.381 43.472,9.16 35.756,4.705z" style="fill: rgb(70, 88, 191); fill-opacity: 1;"></path></g><g transform="matrix(1,0,0,1,229.971,214.61999999999998)" style="user-select: none;"><path d=" M35.756,4.705 C28.04,0.25 15.581,0.25 7.916,4.705 C0.25,9.16 0.2839999999999989,16.381 7.9990000000000006,20.835 C15.715,25.29 28.189,25.29 35.854,20.835 C43.519000000000005,16.381 43.472,9.16 35.756,4.705z" style="fill: rgb(70, 88, 191); fill-opacity: 1;"></path></g><g transform="matrix(1,0,0,1,268.133,192.58499999999998)" style="user-select: none;"><path d=" M35.756,4.705 C28.04,0.25 15.580000000000002,0.2510000000000012 7.915000000000001,4.705 C0.24900000000000233,9.16 0.2839999999999989,16.381 7.9990000000000006,20.835 C15.715,25.29 28.189,25.29 35.854,20.835 C43.519000000000005,16.381 43.472,9.16 35.756,4.705z" style="fill: rgb(70, 88, 191); fill-opacity: 1;"></path></g><g transform="matrix(1,0,0,1,161.044,226.064)" style="user-select: none;"><path d=" M8.054,7.334 C8.054,11.245999999999999 4.152,14.418 4.152,14.418 C4.152,14.418 0.25,11.245999999999999 0.25,7.334 C0.25,3.4219999999999997 1.9970000000000003,0.25 4.152,0.25 C6.307,0.25 8.054,3.4219999999999997 8.054,7.334z" style="fill: rgb(249, 115, 115); fill-opacity: 1;"></path><path d=" M7.631,19.78 C7.631,20.402 6.078,20.907 4.165,20.907 C2.2510000000000003,20.907 0.6989999999999998,20.402 0.6989999999999998,19.78 C0.6989999999999998,19.158 2.2510000000000003,18.653000000000002 4.165,18.653000000000002 C6.078,18.653000000000002 7.631,19.158 7.631,19.78z" style="fill: rgb(83, 104, 227); fill-opacity: 1;"></path><path d=" M4.224,19.832 C4.224,19.832 4.08,19.832 4.08,19.832 C3.964,19.832 3.87,19.737000000000002 3.87,19.622 C3.87,19.622 3.87,3.766000000000001 3.87,3.766000000000001 C3.87,3.6500000000000004 3.964,3.556000000000001 4.08,3.556000000000001 C4.08,3.556000000000001 4.224,3.556000000000001 4.224,3.556000000000001 C4.34,3.556000000000001 4.434,3.6500000000000004 4.434,3.766000000000001 C4.434,3.766000000000001 4.434,19.622 4.434,19.622 C4.434,19.737000000000002 4.34,19.832 4.224,19.832z" style="fill: rgb(163, 223, 235); fill-opacity: 1;"></path><path d=" M4.024,7.482 C4.024,7.482 2.1149999999999998,5.574 2.1149999999999998,5.574 C2.037,5.496 2.037,5.368 2.1149999999999998,5.29 C2.1149999999999998,5.29 2.2119999999999997,5.194 2.2119999999999997,5.194 C2.2909999999999995,5.116 2.4179999999999997,5.116 2.4959999999999996,5.194 C2.4959999999999996,5.194 4.404999999999999,7.102 4.404999999999999,7.102 C4.483,7.18 4.483,7.308 4.404999999999999,7.386 C4.404999999999999,7.386 4.308,7.482 4.308,7.482 C4.2299999999999995,7.5600000000000005 4.101999999999999,7.5600000000000005 4.024,7.482z" style="fill: rgb(163, 223, 235); fill-opacity: 1;"></path><path d=" M4.024,11.682 C4.024,11.682 2.1149999999999998,9.774000000000001 2.1149999999999998,9.774000000000001 C2.037,9.696 2.037,9.568 2.1149999999999998,9.49 C2.1149999999999998,9.49 2.2119999999999997,9.394 2.2119999999999997,9.394 C2.2909999999999995,9.316 2.4179999999999997,9.316 2.4959999999999996,9.394 C2.4959999999999996,9.394 4.404999999999999,11.302 4.404999999999999,11.302 C4.483,11.38 4.483,11.508000000000001 4.404999999999999,11.586 C4.404999999999999,11.586 4.308,11.682 4.308,11.682 C4.2299999999999995,11.76 4.101999999999999,11.76 4.024,11.682z" style="fill: rgb(163, 223, 235); fill-opacity: 1;"></path><path d=" M4.281,6.682 C4.281,6.682 6.189,4.774 6.189,4.774 C6.2669999999999995,4.696000000000001 6.2669999999999995,4.5680000000000005 6.189,4.49 C6.189,4.49 6.092,4.394 6.092,4.394 C6.013,4.316000000000001 5.885999999999999,4.316000000000001 5.808,4.394 C5.808,4.394 3.8989999999999996,6.3020000000000005 3.8989999999999996,6.3020000000000005 C3.8209999999999997,6.38 3.8209999999999997,6.508 3.8989999999999996,6.586 C3.8989999999999996,6.586 3.9959999999999996,6.682 3.9959999999999996,6.682 C4.074,6.76 4.202999999999999,6.76 4.281,6.682z" style="fill: rgb(163, 223, 235); fill-opacity: 1;"></path><path d=" M4.281,10.883000000000001 C4.281,10.883000000000001 6.189,8.975000000000001 6.189,8.975000000000001 C6.2669999999999995,8.897 6.2669999999999995,8.769 6.189,8.691 C6.189,8.691 6.092,8.595 6.092,8.595 C6.013,8.517000000000001 5.885999999999999,8.517000000000001 5.808,8.595 C5.808,8.595 3.8989999999999996,10.503 3.8989999999999996,10.503 C3.8209999999999997,10.581000000000001 3.8209999999999997,10.709000000000001 3.8989999999999996,10.787 C3.8989999999999996,10.787 3.9959999999999996,10.883000000000001 3.9959999999999996,10.883000000000001 C4.074,10.961 4.202999999999999,10.961 4.281,10.883000000000001z" style="fill: rgb(163, 223, 235); fill-opacity: 1;"></path></g><g transform="matrix(1,0,0,1,229.177,267.271)" style="user-select: none;"><path d=" M8.054,7.334 C8.054,11.245999999999999 4.152,14.418 4.152,14.418 C4.152,14.418 0.25,11.245999999999999 0.25,7.334 C0.25,3.4219999999999997 1.9970000000000003,0.25 4.152,0.25 C6.307,0.25 8.054,3.4219999999999997 8.054,7.334z" style="fill: rgb(249, 115, 115); fill-opacity: 1;"></path><path d=" M7.631,19.78 C7.631,20.402 6.078,20.907 4.165,20.907 C2.2510000000000003,20.907 0.6989999999999998,20.402 0.6989999999999998,19.78 C0.6989999999999998,19.158 2.2510000000000003,18.653000000000002 4.165,18.653000000000002 C6.078,18.653000000000002 7.631,19.158 7.631,19.78z" style="fill: rgb(83, 104, 227); fill-opacity: 1;"></path><path d=" M4.224,19.832 C4.224,19.832 4.08,19.832 4.08,19.832 C3.964,19.832 3.87,19.737000000000002 3.87,19.622 C3.87,19.622 3.87,3.766000000000001 3.87,3.766000000000001 C3.87,3.6500000000000004 3.964,3.556000000000001 4.08,3.556000000000001 C4.08,3.556000000000001 4.224,3.556000000000001 4.224,3.556000000000001 C4.34,3.556000000000001 4.434,3.6500000000000004 4.434,3.766000000000001 C4.434,3.766000000000001 4.434,19.622 4.434,19.622 C4.434,19.737000000000002 4.34,19.832 4.224,19.832z" style="fill: rgb(163, 223, 235); fill-opacity: 1;"></path><path d=" M4.024,7.4830000000000005 C4.024,7.4830000000000005 2.1149999999999998,5.574 2.1149999999999998,5.574 C2.037,5.496 2.037,5.368 2.1149999999999998,5.29 C2.1149999999999998,5.29 2.2119999999999997,5.193 2.2119999999999997,5.193 C2.2909999999999995,5.115 2.4179999999999997,5.115 2.4959999999999996,5.193 C2.4959999999999996,5.193 4.404999999999999,7.102 4.404999999999999,7.102 C4.483,7.18 4.483,7.308 4.404999999999999,7.386 C4.404999999999999,7.386 4.308,7.4830000000000005 4.308,7.4830000000000005 C4.2299999999999995,7.561 4.101999999999999,7.561 4.024,7.4830000000000005z" style="fill: rgb(163, 223, 235); fill-opacity: 1;"></path><path d=" M4.024,11.683 C4.024,11.683 2.1149999999999998,9.774000000000001 2.1149999999999998,9.774000000000001 C2.037,9.696 2.037,9.568 2.1149999999999998,9.49 C2.1149999999999998,9.49 2.2119999999999997,9.393 2.2119999999999997,9.393 C2.2909999999999995,9.315 2.4179999999999997,9.315 2.4959999999999996,9.393 C2.4959999999999996,9.393 4.404999999999999,11.302 4.404999999999999,11.302 C4.483,11.38 4.483,11.508000000000001 4.404999999999999,11.586 C4.404999999999999,11.586 4.308,11.683 4.308,11.683 C4.2299999999999995,11.761000000000001 4.101999999999999,11.761000000000001 4.024,11.683z" style="fill: rgb(163, 223, 235); fill-opacity: 1;"></path><path d=" M4.281,6.683 C4.281,6.683 6.189,4.774 6.189,4.774 C6.2669999999999995,4.696000000000001 6.2669999999999995,4.5680000000000005 6.189,4.49 C6.189,4.49 6.092,4.393000000000001 6.092,4.393000000000001 C6.013999999999999,4.315 5.885999999999999,4.315 5.808,4.393000000000001 C5.808,4.393000000000001 3.8989999999999996,6.3020000000000005 3.8989999999999996,6.3020000000000005 C3.8209999999999997,6.38 3.8209999999999997,6.508 3.8989999999999996,6.586 C3.8989999999999996,6.586 3.9959999999999996,6.683 3.9959999999999996,6.683 C4.074,6.761 4.202999999999999,6.761 4.281,6.683z" style="fill: rgb(163, 223, 235); fill-opacity: 1;"></path><path d=" M4.281,10.884 C4.281,10.884 6.189,8.975000000000001 6.189,8.975000000000001 C6.2669999999999995,8.897 6.2669999999999995,8.769 6.189,8.691 C6.189,8.691 6.092,8.594000000000001 6.092,8.594000000000001 C6.013999999999999,8.516 5.885999999999999,8.516 5.808,8.594000000000001 C5.808,8.594000000000001 3.8989999999999996,10.503 3.8989999999999996,10.503 C3.8209999999999997,10.581000000000001 3.8209999999999997,10.709000000000001 3.8989999999999996,10.787 C3.8989999999999996,10.787 3.9959999999999996,10.884 3.9959999999999996,10.884 C4.074,10.962000000000002 4.202999999999999,10.962000000000002 4.281,10.884z" style="fill: rgb(163, 223, 235); fill-opacity: 1;"></path></g><g transform="matrix(1,0,0,1,291.969,216.81099999999998)" style="user-select: none;"><path d=" M8.054,7.334 C8.054,11.245999999999999 4.152,14.418 4.152,14.418 C4.152,14.418 0.25,11.245999999999999 0.25,7.334 C0.25,3.4219999999999997 1.9970000000000003,0.25 4.152,0.25 C6.307,0.25 8.054,3.4219999999999997 8.054,7.334z" style="fill: rgb(249, 115, 115); fill-opacity: 1;"></path><path d=" M7.631,19.78 C7.631,20.402 6.078,20.907 4.165,20.907 C2.2510000000000003,20.907 0.6989999999999998,20.402 0.6989999999999998,19.78 C0.6989999999999998,19.158 2.2510000000000003,18.653000000000002 4.165,18.653000000000002 C6.078,18.653000000000002 7.631,19.158 7.631,19.78z" style="fill: rgb(83, 104, 227); fill-opacity: 1;"></path><path d=" M4.224,19.832 C4.224,19.832 4.08,19.832 4.08,19.832 C3.964,19.832 3.87,19.737000000000002 3.87,19.622 C3.87,19.622 3.87,3.766000000000001 3.87,3.766000000000001 C3.87,3.6500000000000004 3.964,3.556000000000001 4.08,3.556000000000001 C4.08,3.556000000000001 4.224,3.556000000000001 4.224,3.556000000000001 C4.34,3.556000000000001 4.434,3.6500000000000004 4.434,3.766000000000001 C4.434,3.766000000000001 4.434,19.622 4.434,19.622 C4.434,19.737000000000002 4.34,19.832 4.224,19.832z" style="fill: rgb(163, 223, 235); fill-opacity: 1;"></path><path d=" M4.024,7.482 C4.024,7.482 2.1149999999999998,5.574 2.1149999999999998,5.574 C2.037,5.496 2.037,5.368 2.1149999999999998,5.29 C2.1149999999999998,5.29 2.213,5.194 2.213,5.194 C2.291,5.116 2.4189999999999996,5.116 2.497,5.194 C2.497,5.194 4.404999999999999,7.102 4.404999999999999,7.102 C4.483,7.18 4.483,7.308 4.404999999999999,7.386 C4.404999999999999,7.386 4.308,7.482 4.308,7.482 C4.2299999999999995,7.5600000000000005 4.101999999999999,7.5600000000000005 4.024,7.482z" style="fill: rgb(163, 223, 235); fill-opacity: 1;"></path><path d=" M4.024,11.682 C4.024,11.682 2.1149999999999998,9.774000000000001 2.1149999999999998,9.774000000000001 C2.037,9.696 2.037,9.568 2.1149999999999998,9.49 C2.1149999999999998,9.49 2.213,9.394 2.213,9.394 C2.291,9.316 2.4189999999999996,9.316 2.497,9.394 C2.497,9.394 4.404999999999999,11.302 4.404999999999999,11.302 C4.483,11.38 4.483,11.508000000000001 4.404999999999999,11.586 C4.404999999999999,11.586 4.308,11.682 4.308,11.682 C4.2299999999999995,11.76 4.101999999999999,11.76 4.024,11.682z" style="fill: rgb(163, 223, 235); fill-opacity: 1;"></path><path d=" M4.281,6.682 C4.281,6.682 6.189,4.774 6.189,4.774 C6.2669999999999995,4.696000000000001 6.2669999999999995,4.5680000000000005 6.189,4.49 C6.189,4.49 6.090999999999999,4.394 6.090999999999999,4.394 C6.013,4.316000000000001 5.885,4.316000000000001 5.8069999999999995,4.394 C5.8069999999999995,4.394 3.8989999999999996,6.3020000000000005 3.8989999999999996,6.3020000000000005 C3.8209999999999997,6.38 3.8209999999999997,6.508 3.8989999999999996,6.586 C3.8989999999999996,6.586 3.9959999999999996,6.682 3.9959999999999996,6.682 C4.074,6.76 4.202999999999999,6.76 4.281,6.682z" style="fill: rgb(163, 223, 235); fill-opacity: 1;"></path><path d=" M4.281,10.883000000000001 C4.281,10.883000000000001 6.189,8.975000000000001 6.189,8.975000000000001 C6.2669999999999995,8.897 6.2669999999999995,8.769 6.189,8.691 C6.189,8.691 6.090999999999999,8.595 6.090999999999999,8.595 C6.013,8.517000000000001 5.885,8.517000000000001 5.8069999999999995,8.595 C5.8069999999999995,8.595 3.8989999999999996,10.503 3.8989999999999996,10.503 C3.8209999999999997,10.581000000000001 3.8209999999999997,10.709000000000001 3.8989999999999996,10.787 C3.8989999999999996,10.787 3.9959999999999996,10.883000000000001 3.9959999999999996,10.883000000000001 C4.074,10.961 4.202999999999999,10.961 4.281,10.883000000000001z" style="fill: rgb(163, 223, 235); fill-opacity: 1;"></path></g><g transform="matrix(1,0,0,1,280.765,161.634)" style="user-select: none;"><path d=" M8.054,7.334 C8.054,11.245999999999999 4.152,14.418 4.152,14.418 C4.152,14.418 0.25,11.245999999999999 0.25,7.334 C0.25,3.4219999999999997 1.9970000000000003,0.25 4.152,0.25 C6.307,0.25 8.054,3.4219999999999997 8.054,7.334z" style="fill: rgb(249, 115, 115); fill-opacity: 1;"></path><path d=" M7.631,19.78 C7.631,20.402 6.078,20.907 4.165,20.907 C2.2510000000000003,20.907 0.6989999999999998,20.402 0.6989999999999998,19.78 C0.6989999999999998,19.158 2.2510000000000003,18.653000000000002 4.165,18.653000000000002 C6.078,18.653000000000002 7.631,19.158 7.631,19.78z" style="fill: rgb(83, 104, 227); fill-opacity: 1;"></path><path d=" M4.224,19.832 C4.224,19.832 4.08,19.832 4.08,19.832 C3.964,19.832 3.87,19.737000000000002 3.87,19.622 C3.87,19.622 3.87,3.766000000000001 3.87,3.766000000000001 C3.87,3.6500000000000004 3.964,3.556000000000001 4.08,3.556000000000001 C4.08,3.556000000000001 4.224,3.556000000000001 4.224,3.556000000000001 C4.34,3.556000000000001 4.434,3.6500000000000004 4.434,3.766000000000001 C4.434,3.766000000000001 4.434,19.622 4.434,19.622 C4.434,19.737000000000002 4.34,19.832 4.224,19.832z" style="fill: rgb(163, 223, 235); fill-opacity: 1;"></path><path d=" M4.024,7.482 C4.024,7.482 2.1149999999999998,5.574 2.1149999999999998,5.574 C2.037,5.496 2.037,5.368 2.1149999999999998,5.29 C2.1149999999999998,5.29 2.213,5.194 2.213,5.194 C2.292,5.116 2.4189999999999996,5.116 2.497,5.194 C2.497,5.194 4.404999999999999,7.102 4.404999999999999,7.102 C4.483,7.18 4.483,7.308 4.404999999999999,7.386 C4.404999999999999,7.386 4.308,7.482 4.308,7.482 C4.2299999999999995,7.5600000000000005 4.101999999999999,7.5600000000000005 4.024,7.482z" style="fill: rgb(163, 223, 235); fill-opacity: 1;"></path><path d=" M4.024,11.682 C4.024,11.682 2.1149999999999998,9.774000000000001 2.1149999999999998,9.774000000000001 C2.037,9.696 2.037,9.568 2.1149999999999998,9.49 C2.1149999999999998,9.49 2.213,9.394 2.213,9.394 C2.292,9.316 2.4189999999999996,9.316 2.497,9.394 C2.497,9.394 4.404999999999999,11.302 4.404999999999999,11.302 C4.483,11.38 4.483,11.508000000000001 4.404999999999999,11.586 C4.404999999999999,11.586 4.308,11.682 4.308,11.682 C4.2299999999999995,11.76 4.101999999999999,11.76 4.024,11.682z" style="fill: rgb(163, 223, 235); fill-opacity: 1;"></path><path d=" M4.281,6.682 C4.281,6.682 6.189,4.774 6.189,4.774 C6.2669999999999995,4.696000000000001 6.2669999999999995,4.5680000000000005 6.189,4.49 C6.189,4.49 6.090999999999999,4.394 6.090999999999999,4.394 C6.012,4.316000000000001 5.885,4.316000000000001 5.8069999999999995,4.394 C5.8069999999999995,4.394 3.8989999999999996,6.3020000000000005 3.8989999999999996,6.3020000000000005 C3.8209999999999997,6.38 3.8209999999999997,6.508 3.8989999999999996,6.586 C3.8989999999999996,6.586 3.9959999999999996,6.682 3.9959999999999996,6.682 C4.074,6.76 4.202999999999999,6.76 4.281,6.682z" style="fill: rgb(163, 223, 235); fill-opacity: 1;"></path><path d=" M4.281,10.883000000000001 C4.281,10.883000000000001 6.189,8.975000000000001 6.189,8.975000000000001 C6.2669999999999995,8.897 6.2669999999999995,8.769 6.189,8.691 C6.189,8.691 6.090999999999999,8.595 6.090999999999999,8.595 C6.012,8.517000000000001 5.885,8.517000000000001 5.8069999999999995,8.595 C5.8069999999999995,8.595 3.8989999999999996,10.503 3.8989999999999996,10.503 C3.8209999999999997,10.581000000000001 3.8209999999999997,10.709000000000001 3.8989999999999996,10.787 C3.8989999999999996,10.787 3.9959999999999996,10.883000000000001 3.9959999999999996,10.883000000000001 C4.074,10.961 4.202999999999999,10.961 4.281,10.883000000000001z" style="fill: rgb(163, 223, 235); fill-opacity: 1;"></path></g><g transform="matrix(1,0,0,1,207.798,194.671)" style="user-select: none;"><path d=" M8.054,7.334 C8.054,11.245999999999999 4.152,14.418 4.152,14.418 C4.152,14.418 0.25,11.245999999999999 0.25,7.334 C0.25,3.4219999999999997 1.9970000000000003,0.25 4.152,0.25 C6.307,0.25 8.054,3.4219999999999997 8.054,7.334z" style="fill: rgb(249, 115, 115); fill-opacity: 1;"></path><path d=" M7.631,19.78 C7.631,20.402 6.078,20.907 4.165,20.907 C2.2510000000000003,20.907 0.6989999999999998,20.402 0.6989999999999998,19.78 C0.6989999999999998,19.158 2.2510000000000003,18.653000000000002 4.165,18.653000000000002 C6.078,18.653000000000002 7.631,19.158 7.631,19.78z" style="fill: rgb(83, 104, 227); fill-opacity: 1;"></path><path d=" M4.224,19.832 C4.224,19.832 4.08,19.832 4.08,19.832 C3.964,19.832 3.87,19.737000000000002 3.87,19.622 C3.87,19.622 3.87,3.766000000000001 3.87,3.766000000000001 C3.87,3.6500000000000004 3.964,3.556000000000001 4.08,3.556000000000001 C4.08,3.556000000000001 4.224,3.556000000000001 4.224,3.556000000000001 C4.34,3.556000000000001 4.434,3.6500000000000004 4.434,3.766000000000001 C4.434,3.766000000000001 4.434,19.622 4.434,19.622 C4.434,19.737000000000002 4.34,19.832 4.224,19.832z" style="fill: rgb(163, 223, 235); fill-opacity: 1;"></path><path d=" M4.024,7.482 C4.024,7.482 2.1149999999999998,5.574 2.1149999999999998,5.574 C2.037,5.496 2.037,5.368 2.1149999999999998,5.29 C2.1149999999999998,5.29 2.213,5.194 2.213,5.194 C2.292,5.116 2.4189999999999996,5.116 2.497,5.194 C2.497,5.194 4.404999999999999,7.102 4.404999999999999,7.102 C4.483,7.18 4.483,7.308 4.404999999999999,7.386 C4.404999999999999,7.386 4.308,7.482 4.308,7.482 C4.2299999999999995,7.5600000000000005 4.101999999999999,7.5600000000000005 4.024,7.482z" style="fill: rgb(163, 223, 235); fill-opacity: 1;"></path><path d=" M4.024,11.682 C4.024,11.682 2.1149999999999998,9.774000000000001 2.1149999999999998,9.774000000000001 C2.037,9.696 2.037,9.568 2.1149999999999998,9.49 C2.1149999999999998,9.49 2.213,9.394 2.213,9.394 C2.292,9.316 2.4189999999999996,9.316 2.497,9.394 C2.497,9.394 4.404999999999999,11.302 4.404999999999999,11.302 C4.483,11.38 4.483,11.508000000000001 4.404999999999999,11.586 C4.404999999999999,11.586 4.308,11.682 4.308,11.682 C4.2299999999999995,11.76 4.101999999999999,11.76 4.024,11.682z" style="fill: rgb(163, 223, 235); fill-opacity: 1;"></path><path d=" M4.281,6.682 C4.281,6.682 6.189,4.774 6.189,4.774 C6.2669999999999995,4.696000000000001 6.2669999999999995,4.5680000000000005 6.189,4.49 C6.189,4.49 6.090999999999999,4.394 6.090999999999999,4.394 C6.012,4.316000000000001 5.885,4.316000000000001 5.8069999999999995,4.394 C5.8069999999999995,4.394 3.8989999999999996,6.3020000000000005 3.8989999999999996,6.3020000000000005 C3.8209999999999997,6.38 3.8209999999999997,6.508 3.8989999999999996,6.586 C3.8989999999999996,6.586 3.9959999999999996,6.682 3.9959999999999996,6.682 C4.074,6.76 4.202999999999999,6.76 4.281,6.682z" style="fill: rgb(163, 223, 235); fill-opacity: 1;"></path><path d=" M4.281,10.883000000000001 C4.281,10.883000000000001 6.189,8.975000000000001 6.189,8.975000000000001 C6.2669999999999995,8.897 6.2669999999999995,8.769 6.189,8.691 C6.189,8.691 6.090999999999999,8.595 6.090999999999999,8.595 C6.012,8.517000000000001 5.885,8.517000000000001 5.8069999999999995,8.595 C5.8069999999999995,8.595 3.8989999999999996,10.503 3.8989999999999996,10.503 C3.8209999999999997,10.581000000000001 3.8209999999999997,10.709000000000001 3.8989999999999996,10.787 C3.8989999999999996,10.787 3.9959999999999996,10.883000000000001 3.9959999999999996,10.883000000000001 C4.074,10.961 4.202999999999999,10.961 4.281,10.883000000000001z" style="fill: rgb(163, 223, 235); fill-opacity: 1;"></path></g><g transform="matrix(1,0,0,1,337.969,205.405)" style="user-select: none;"><path d=" M8.054,7.334 C8.054,11.245999999999999 4.152,14.418 4.152,14.418 C4.152,14.418 0.25,11.245999999999999 0.25,7.334 C0.25,3.4219999999999997 1.9970000000000003,0.25 4.152,0.25 C6.307,0.25 8.054,3.4219999999999997 8.054,7.334z" style="fill: rgb(249, 115, 115); fill-opacity: 1;"></path><path d=" M7.631,19.78 C7.631,20.402 6.078,20.907 4.165,20.907 C2.2510000000000003,20.907 0.6989999999999998,20.402 0.6989999999999998,19.78 C0.6989999999999998,19.158 2.2510000000000003,18.653000000000002 4.165,18.653000000000002 C6.078,18.653000000000002 7.631,19.158 7.631,19.78z" style="fill: rgb(83, 104, 227); fill-opacity: 1;"></path><path d=" M4.224,19.832 C4.224,19.832 4.08,19.832 4.08,19.832 C3.964,19.832 3.87,19.737000000000002 3.87,19.622 C3.87,19.622 3.87,3.766000000000001 3.87,3.766000000000001 C3.87,3.6500000000000004 3.964,3.556000000000001 4.08,3.556000000000001 C4.08,3.556000000000001 4.224,3.556000000000001 4.224,3.556000000000001 C4.34,3.556000000000001 4.434,3.6500000000000004 4.434,3.766000000000001 C4.434,3.766000000000001 4.434,19.622 4.434,19.622 C4.434,19.737000000000002 4.34,19.832 4.224,19.832z" style="fill: rgb(163, 223, 235); fill-opacity: 1;"></path><path d=" M4.024,7.482 C4.024,7.482 2.1149999999999998,5.574 2.1149999999999998,5.574 C2.037,5.496 2.037,5.368 2.1149999999999998,5.29 C2.1149999999999998,5.29 2.213,5.194 2.213,5.194 C2.291,5.116 2.4189999999999996,5.116 2.497,5.194 C2.497,5.194 4.404999999999999,7.102 4.404999999999999,7.102 C4.483,7.18 4.483,7.308 4.404999999999999,7.386 C4.404999999999999,7.386 4.308,7.482 4.308,7.482 C4.2299999999999995,7.5600000000000005 4.101999999999999,7.5600000000000005 4.024,7.482z" style="fill: rgb(163, 223, 235); fill-opacity: 1;"></path><path d=" M4.024,11.682 C4.024,11.682 2.1149999999999998,9.774000000000001 2.1149999999999998,9.774000000000001 C2.037,9.696 2.037,9.568 2.1149999999999998,9.49 C2.1149999999999998,9.49 2.213,9.394 2.213,9.394 C2.291,9.316 2.4189999999999996,9.316 2.497,9.394 C2.497,9.394 4.404999999999999,11.302 4.404999999999999,11.302 C4.483,11.38 4.483,11.508000000000001 4.404999999999999,11.586 C4.404999999999999,11.586 4.308,11.682 4.308,11.682 C4.2299999999999995,11.76 4.101999999999999,11.76 4.024,11.682z" style="fill: rgb(163, 223, 235); fill-opacity: 1;"></path><path d=" M4.281,6.682 C4.281,6.682 6.189,4.774 6.189,4.774 C6.2669999999999995,4.696000000000001 6.2669999999999995,4.5680000000000005 6.189,4.49 C6.189,4.49 6.090999999999999,4.394 6.090999999999999,4.394 C6.013,4.316000000000001 5.885,4.316000000000001 5.8069999999999995,4.394 C5.8069999999999995,4.394 3.8989999999999996,6.3020000000000005 3.8989999999999996,6.3020000000000005 C3.8209999999999997,6.38 3.8209999999999997,6.508 3.8989999999999996,6.586 C3.8989999999999996,6.586 3.9959999999999996,6.682 3.9959999999999996,6.682 C4.074,6.76 4.202999999999999,6.76 4.281,6.682z" style="fill: rgb(163, 223, 235); fill-opacity: 1;"></path><path d=" M4.281,10.883000000000001 C4.281,10.883000000000001 6.189,8.975000000000001 6.189,8.975000000000001 C6.2669999999999995,8.897 6.2669999999999995,8.769 6.189,8.691 C6.189,8.691 6.090999999999999,8.595 6.090999999999999,8.595 C6.013,8.517000000000001 5.885,8.517000000000001 5.8069999999999995,8.595 C5.8069999999999995,8.595 3.8989999999999996,10.503 3.8989999999999996,10.503 C3.8209999999999997,10.581000000000001 3.8209999999999997,10.709000000000001 3.8989999999999996,10.787 C3.8989999999999996,10.787 3.9959999999999996,10.883000000000001 3.9959999999999996,10.883000000000001 C4.074,10.961 4.202999999999999,10.961 4.281,10.883000000000001z" style="fill: rgb(163, 223, 235); fill-opacity: 1;"></path></g></g><g transform="matrix(1.2,0,0,1.2,250,270.0930381212818)" style="user-select: none;"><path d=" M-59.75,29.875 C-59.75,29.875 -56,46.75 -56,46.75 C-56,46.75 -25.125,50.125 -25.125,50.125 C-25.125,50.125 -59.75,29.875 -59.75,29.875z" style="fill: rgb(108, 201, 164); fill-opacity: 1;"></path></g></g></svg>