<svg xmlns="http://www.w3.org/2000/svg" width="900" height="700" viewBox="0 0 900 700" preserveAspectRatio="xMidYMid meet"><defs><clipPath id="animationMask_kifSeRt5Qz"><rect width="900" height="700" x="0" y="0"></rect></clipPath></defs><g clip-path="url(#animationMask_kifSeRt5Qz)" style="user-select: none;"><g transform="matrix(1,0,0,1,450,350)" style="user-select: none;"><path d=" M974,-542 C974,-542 974,550 974,550 C974,550 974,550 974,550 C974,550 -962,550 -962,550 C-962,550 -962,550 -962,550 C-962,550 -962,-542 -962,-542 C-962,-542 -962,-542 -962,-542 C-962,-542 974,-542 974,-542 C974,-542 974,-542 974,-542z" style="fill: rgb(247, 108, 108); fill-opacity: 1;"></path></g><g transform="matrix(0.70652,0,0,0.986,623.3634400000001,346.648)" style="user-select: none;"><path d=" M-155,-326 C-155,-326 -155,333 -155,333 C-155,333 -155,333 -155,333 C-155,333 -340,333 -340,333 C-340,333 -340,333 -340,333 C-340,333 -340,-326 -340,-326 C-340,-326 -340,-326 -340,-326 C-340,-326 -155,-326 -155,-326 C-155,-326 -155,-326 -155,-326z" style="fill: rgb(248, 123, 123); fill-opacity: 1; display: none;"></path></g><g transform="matrix(0.70652,0,0,0.986,623.3634400000001,346.648)" style="user-select: none;"><path d=" M-466.385,-326.22 C-466.385,-326.22 -155,129.606 -155,129.606 C-155,129.606 -155,333 -155,333 C-155,333 -340,333 -340,333 C-340,333 -726.4,-326.242 -726.4,-326.242 C-726.4,-326.242 -466.385,-326.22 -466.385,-326.22z" style="fill: rgb(248, 123, 123); fill-opacity: 1; display: block;"></path></g><g transform="matrix(-0.71296,0,0,0.986,272.75188,346.648)" style="user-select: none;"><path d=" M-466.385,-326.22 C-466.385,-326.22 -155,129.606 -155,129.606 C-155,129.606 -155,333 -155,333 C-155,333 -340,333 -340,333 C-340,333 -726.4,-326.242 -726.4,-326.242 C-726.4,-326.242 -466.385,-326.22 -466.385,-326.22z" style="fill: rgb(248, 123, 123); fill-opacity: 1; display: block;"></path></g><g transform="matrix(1.25,0,0,0,450.9375,25)" style="user-select: none;"><path d=" M207.5,-325 C207.5,-325 -238.3,-325 -238.3,-325 C-238.3,-325 -232.7,-268 -232.7,-268 C-232.7,-268 -202.257,-275.29 -202.257,-275.79 C-202.257,-276.29 -161.087,-245.87099999999998 -87.079,-264.597 C-13.392999999999986,-283.241 122.902,-249.71 122.902,-249.71 C122.902,-249.71 207.5,-259 207.5,-259 C207.5,-259 207.5,-325 207.5,-325z" style="fill: rgb(248, 123, 123); fill-opacity: 1; display: block;"></path></g><g transform="matrix(1.25,0,0,0,450,138.5)" style="user-select: none;"><path d=" M50,-239 C-10.5,-245 -183.75,-219.5 -183.75,-219.5 C-183.75,-219.5 -169.5,-172.5 -169.5,-172.5 C-169.5,-172.5 -116.4,-177 -98.5,-183 C-94.028,-184.499 -92,-174.5 -60.5,-182.5 C-48.385,-185.577 -20.806,-191.348 1,-181.5 C32,-167.5 103.6,-175 103.6,-175 C103.6,-175 194.469,-191.5 194.469,-191.5 C194.469,-191.5 219.075,-240 126.5,-234 C100.554,-232.318 110.5,-233 50,-239z" style="fill: rgb(248, 123, 123); fill-opacity: 1; display: block;"></path></g><g transform="matrix(1.25,0,0,0,450,213.5)" style="user-select: none;"><path d=" M-153.5,-166 C-153.5,-166 -156.375,-158 -162.375,-143.5 C-168.375,-129 -146.063,-106.5 -146.063,-106.5 C-146.063,-106.5 -46.8,-107.5 -31,-112.5 C-13.812000000000001,-117.939 1.6759999999999984,-127.388 31,-115.5 C38.4,-112.5 59.7,-110 65.2,-111.5 C70.7,-113 138.125,-105.5 138.125,-105.5 C138.125,-105.5 176.719,-158 159.219,-162 C141.719,-166 70.5,-160.5 68,-160.5 C65.5,-160.5 51.5,-159 31.5,-154.5 C11.5,-150 -45,-155 -53.5,-160.5 C-62,-166 -153.5,-166 -153.5,-166z" style="fill: rgb(248, 123, 123); fill-opacity: 1; display: block;"></path></g><g transform="matrix(1.25,0,0,0,420.578,276.125)" style="user-select: none;"><path d=" M-87.5,-70.75 C-87.5,-70.75 -147.818,-78.825 -110.141,-58.5 C-99.86800000000001,-52.958 -30.5,-61 -1,-60.5 C28.5,-60 24.5,-68 43.5,-64.5 C62.5,-61 86.5,-68.5 86.5,-68.5 C86.5,-68.5 36.5,-71 31.5,-71.5 C26.5,-72 6.5,-73 -15,-67 C-36.5,-61 -87.5,-70.75 -87.5,-70.75z" style="fill: rgb(248, 123, 123); fill-opacity: 1; display: block;"></path></g><g transform="matrix(1.25,0,0,0,450,299)" style="user-select: none;"><path d=" M13,-51 C13,-51 -31,-50.5 -31,-50.5 C-31,-50.5 -8,-44.5 -8,-44.5 C-8,-44.5 47.5,-49 47.5,-49 C47.5,-49 13,-51 13,-51z" style="fill: rgb(248, 123, 123); fill-opacity: 1; display: block;"></path></g><g transform="matrix(0,0,0,0,575.5,90.5)" style="user-select: none;"><path d=" M161.5,-282.5 C129.5,-280.5 120.478,-286.082 119,-275 C118,-267.5 101.5,-256.5 130.5,-258.5 C159.5,-260.5 134,-250.5 159,-248.5 C184,-246.5 193.5,-284.5 161.5,-282.5z" style="fill: rgb(248, 123, 123); fill-opacity: 1; display: block;"></path></g><g transform="matrix(0,0,0,0,393.5,195)" style="user-select: none;"><path d=" M161.5,-282.5 C129.5,-280.5 120.478,-286.082 119,-275 C118,-267.5 101.5,-256.5 130.5,-258.5 C159.5,-260.5 134,-250.5 159,-248.5 C184,-246.5 193.5,-284.5 161.5,-282.5z" style="fill: rgb(248, 123, 123); fill-opacity: 1; display: block;"></path></g><g transform="matrix(0,0,0,0,402.5,255)" style="user-select: none;"><path d=" M161.5,-282.5 C129.5,-280.5 120.478,-286.082 119,-275 C118,-267.5 101.5,-256.5 130.5,-258.5 C159.5,-260.5 134,-250.5 159,-248.5 C184,-246.5 193.5,-284.5 161.5,-282.5z" style="fill: rgb(248, 123, 123); fill-opacity: 1; display: block;"></path></g><g transform="matrix(0,0,0,0,538.5,241)" style="user-select: none;"><path d=" M161.5,-282.5 C129.5,-280.5 120.478,-286.082 119,-275 C118,-267.5 101.5,-256.5 130.5,-258.5 C159.5,-260.5 134,-250.5 159,-248.5 C184,-246.5 193.5,-284.5 161.5,-282.5z" style="fill: rgb(248, 123, 123); fill-opacity: 1; display: block;"></path></g><g transform="matrix(1.29,0,0,0.6885,429.71001,398.6906565)" style="user-select: none;"><path d=" M-24,-218.61599999999999 C-19.64,-217.783 -21.422,-213.955 -21.422,-211.194 C-21.422,-208.433 -17.46,-205.612 -20.221,-205.612 C-22.982,-205.612 -23.283,-208.286 -23.283,-211.047 C-23.283,-213.808 -26.712,-219.13400000000001 -24,-218.61599999999999z" style="fill: rgb(248, 123, 123); fill-opacity: 1; display: block;"></path></g><g transform="matrix(-5.06301,0,0,1.29,429.08170330999997,455.19001)" style="user-select: none;"><path d=" M-24,-218.61599999999999 C-19.64,-217.783 -21.422,-213.955 -21.422,-211.194 C-21.422,-208.433 -17.46,-205.612 -20.221,-205.612 C-22.982,-205.612 -23.283,-208.286 -23.283,-211.047 C-23.283,-213.808 -26.712,-219.13400000000001 -24,-218.61599999999999z" style="fill: rgb(248, 123, 123); fill-opacity: 1; display: block;"></path></g></g></svg>