<svg xmlns="http://www.w3.org/2000/svg" width="500" height="500" viewBox="0 0 500 500" preserveAspectRatio="xMidYMid meet"><defs><clipPath id="animationMask_iId47xDBM6"><rect width="500" height="500" x="0" y="0"></rect></clipPath></defs><g clip-path="url(#animationMask_iId47xDBM6)" style="user-select: none;"><g transform="matrix(1,0,0,1,80.00500000000001,193.28565388752895)" style="user-select: none;"><path d=" M56.478,7.253 C56.478,7.253 56.719,92.72200000000001 56.719,92.72200000000001 C56.723,93.93299999999999 55.838,95.11099999999999 54.784000000000006,95.72 C54.784000000000006,95.72 3.8290000000000006,125.138 3.8290000000000006,125.138 C2.775000000000002,125.747 1.8200000000000038,125.525 1.8160000000000025,124.314 C1.8160000000000025,124.314 1.5749999999999993,38.846000000000004 1.5749999999999993,38.846000000000004 C1.5749999999999993,38.846000000000004 56.478,7.253 56.478,7.253z" style="fill: rgb(226, 226, 226); fill-opacity: 1;"></path><path d=" M1.938,124.35 C1.938,124.35 1.6949999999999998,38.882000000000005 1.6949999999999998,38.882000000000005 C1.6949999999999998,38.882000000000005 0.2809999999999999,38.06 0.2809999999999999,38.06 C0.2809999999999999,38.06 0.5239999999999999,123.529 0.5239999999999999,123.529 C0.5249999999999999,124.059 0.6859999999999999,124.393 0.955,124.549 C0.955,124.549 2.3689999999999998,125.37 2.3689999999999998,125.37 C2.1,125.214 1.94,124.881 1.938,124.35z" style="fill: rgb(191, 191, 191); fill-opacity: 1;"></path><path d=" M54.434,1.5180000000000007 C55.531,0.8850000000000016 56.459,1.4909999999999997 56.462,2.751999999999999 C56.462,2.751999999999999 56.477999999999994,8.219 56.477999999999994,8.219 C56.477999999999994,8.219 1.695999999999998,39.847 1.695999999999998,39.847 C1.695999999999998,39.847 1.325999999999997,34.323 1.325999999999997,34.323 C1.3219999999999956,33.062 2.320999999999998,31.114 3.4179999999999993,30.481 C3.4179999999999993,30.481 54.434,1.5180000000000007 54.434,1.5180000000000007z" style="fill: rgb(252, 252, 252); fill-opacity: 1;"></path><path d=" M0.28200000000000003,39.025999999999996 C0.28200000000000003,39.025999999999996 1.6950000000000003,39.848 1.6950000000000003,39.848 C1.6950000000000003,39.848 1.6799999999999997,34.379999999999995 1.6799999999999997,34.379999999999995 C1.6799999999999997,34.379999999999995 2.2719999999999985,31.634 3.6389999999999993,30.845 C5.006999999999998,30.055 54.443,1.5410000000000004 54.443,1.5410000000000004 C54.443,1.5410000000000004 55.19,1.0299999999999976 55.96,1.4959999999999987 C55.96,1.4959999999999987 54.417,0.5869999999999997 54.417,0.5869999999999997 C54.417,0.5869999999999997 53.795,0.25 53.019999999999996,0.6969999999999992 C52.245000000000005,1.1439999999999984 2.225999999999999,30.024 2.225999999999999,30.024 C2.225999999999999,30.024 0.28200000000000003,31.183999999999997 0.2660000000000018,33.559 C0.25000000000000355,36.116 0.28200000000000003,39.025999999999996 0.28200000000000003,39.025999999999996z" style="fill: rgb(230, 230, 230); fill-opacity: 1;"></path><path d=" M48.155,78.876 C48.155,78.876 32.958999999999996,87.64999999999999 32.958999999999996,87.64999999999999 C32.646,87.831 32.397,88.261 32.397999999999996,88.613 C32.397999999999996,88.613 32.399,88.958 32.399,88.958 C32.4,89.317 32.65,89.459 32.962999999999994,89.279 C32.962999999999994,89.279 48.159,80.506 48.159,80.506 C48.471,80.325 48.72,79.895 48.718999999999994,79.536 C48.718999999999994,79.536 48.718999999999994,79.191 48.718999999999994,79.191 C48.717999999999996,78.839 48.467999999999996,78.695 48.155,78.876z" style="fill: rgb(255, 255, 255); fill-opacity: 1;"></path><path d=" M48.165000000000006,82.13300000000001 C48.165000000000006,82.13300000000001 32.969,90.907 32.969,90.907 C32.656000000000006,91.08800000000001 32.407000000000004,91.518 32.408,91.87700000000001 C32.408,91.87700000000001 32.409000000000006,92.22200000000001 32.409000000000006,92.22200000000001 C32.410000000000004,92.574 32.660000000000004,92.71600000000001 32.973,92.536 C32.973,92.536 48.169000000000004,83.763 48.169000000000004,83.763 C48.481,83.58200000000001 48.730000000000004,83.15100000000001 48.729,82.799 C48.729,82.799 48.729,82.455 48.729,82.455 C48.728,82.096 48.478,81.952 48.165000000000006,82.13300000000001z" style="fill: rgb(255, 255, 255); fill-opacity: 1;"></path><path d=" M48.17400000000001,85.391 C48.17400000000001,85.391 32.978,94.165 32.978,94.165 C32.665000000000006,94.346 32.416000000000004,94.783 32.417,95.135 C32.417,95.135 32.418000000000006,95.48 32.418000000000006,95.48 C32.419000000000004,95.83200000000001 32.669000000000004,95.982 32.982,95.801 C32.982,95.801 48.178000000000004,87.027 48.178000000000004,87.027 C48.49,86.846 48.739000000000004,86.409 48.738,86.057 C48.738,86.057 48.738,85.71300000000001 48.738,85.71300000000001 C48.737,85.361 48.487,85.21000000000001 48.17400000000001,85.391z" style="fill: rgb(255, 255, 255); fill-opacity: 1;"></path><path d=" M47.61,39.994 C47.61,39.994 29.732,50.315 29.732,50.315 C29.183,50.632 28.744,51.4 28.746000000000002,52.031 C28.746000000000002,52.031 28.782,64.422 28.782,64.422 C28.783,65.053 29.224,65.305 29.774,64.988 C29.774,64.988 47.650999999999996,54.667 47.650999999999996,54.667 C48.2,54.35 48.646,53.586 48.644,52.955 C48.644,52.955 48.608000000000004,40.563 48.608000000000004,40.563 C48.606,39.933 48.159,39.677 47.61,39.994z" style="fill: rgb(255, 255, 255); fill-opacity: 1;"></path><path d=" M47.665,59.56099999999999 C47.665,59.56099999999999 11.343,80.532 11.343,80.532 C10.794,80.84899999999999 10.354999999999997,81.61699999999999 10.355999999999998,82.24 C10.355999999999998,82.24 10.390999999999998,94.63199999999999 10.390999999999998,94.63199999999999 C10.392999999999997,95.262 10.835,95.52199999999999 11.384,95.205 C11.384,95.205 47.706999999999994,74.234 47.706999999999994,74.234 C48.256,73.917 48.70099999999999,73.145 48.699,72.514 C48.699,72.514 48.664,60.12299999999999 48.664,60.12299999999999 C48.662,59.49999999999999 48.214,59.244 47.665,59.56099999999999z" style="fill: rgb(255, 255, 255); fill-opacity: 1;"></path><path d=" M29.105,29.448999999999998 C29.105,29.448999999999998 11.227000000000002,39.769999999999996 11.227000000000002,39.769999999999996 C10.678000000000003,40.086999999999996 10.239,40.855 10.241000000000001,41.486 C10.241000000000001,41.486 10.277000000000001,53.876999999999995 10.277000000000001,53.876999999999995 C10.278,54.507999999999996 10.719000000000001,54.76 11.269000000000002,54.443 C11.269000000000002,54.443 29.147000000000002,44.122 29.147000000000002,44.122 C29.696,43.805 30.141000000000002,43.041 30.139000000000003,42.41 C30.139000000000003,42.41 30.103,30.017999999999997 30.103,30.017999999999997 C30.101,29.387999999999998 29.654,29.131999999999998 29.105,29.448999999999998z" style="fill: rgb(255, 255, 255); fill-opacity: 1;"></path><path d=" M47.983999999999995,18.548000000000002 C47.983999999999995,18.548000000000002 32.788,27.322 32.788,27.322 C32.475,27.503 32.226,27.939999999999998 32.227,28.292 C32.227,28.292 32.227999999999994,28.637 32.227999999999994,28.637 C32.229,28.989 32.479,29.139 32.792,28.958 C32.792,28.958 47.988,20.184 47.988,20.184 C48.3,20.003 48.549,19.566000000000003 48.548,19.214 C48.548,19.214 48.548,18.87 48.548,18.87 C48.547,18.518 48.297,18.367 47.983999999999995,18.548000000000002z" style="fill: rgb(255, 255, 255); fill-opacity: 1;"></path><path d=" M47.995999999999995,22.285 C47.995999999999995,22.285 32.8,31.059 32.8,31.059 C32.487,31.240000000000002 32.238,31.67 32.239,32.022 C32.239,32.022 32.239999999999995,32.374 32.239999999999995,32.374 C32.241,32.726 32.491,32.868 32.804,32.688 C32.804,32.688 48,23.915 48,23.915 C48.312,23.734 48.561,23.303 48.56,22.951 C48.56,22.951 48.56,22.6 48.56,22.6 C48.559,22.248 48.309,22.104 47.995999999999995,22.285z" style="fill: rgb(255, 255, 255); fill-opacity: 1;"></path><path d=" M48.004999999999995,25.884999999999998 C48.004999999999995,25.884999999999998 32.809,34.659 32.809,34.659 C32.496,34.84 32.247,35.277 32.248,35.629 C32.248,35.629 32.248999999999995,35.974000000000004 32.248999999999995,35.974000000000004 C32.25,36.326 32.5,36.476 32.813,36.295 C32.813,36.295 48.009,27.521 48.009,27.521 C48.321,27.34 48.57,26.903 48.569,26.551000000000002 C48.569,26.551000000000002 48.569,26.207 48.569,26.207 C48.568,25.855 48.318,25.704 48.004999999999995,25.884999999999998z" style="fill: rgb(255, 255, 255); fill-opacity: 1;"></path><path d=" M29.274,88.955 C29.274,88.955 11.396000000000003,99.276 11.396000000000003,99.276 C10.847000000000003,99.593 10.408000000000001,100.361 10.410000000000002,100.992 C10.410000000000002,100.992 10.446000000000002,113.383 10.446000000000002,113.383 C10.447000000000001,114.014 10.888000000000002,114.26599999999999 11.438000000000002,113.949 C11.438000000000002,113.949 29.316000000000003,103.628 29.316000000000003,103.628 C29.865000000000002,103.31099999999999 30.310000000000002,102.547 30.308,101.916 C30.308,101.916 30.272000000000002,89.524 30.272000000000002,89.524 C30.270000000000003,88.893 29.823,88.638 29.274,88.955z" style="fill: rgb(255, 255, 255); fill-opacity: 1;"></path><path d=" M26.055,52.437999999999995 C26.055,52.437999999999995 10.853,61.216 10.853,61.216 C10.547,61.393 10.298,61.823 10.299,62.182 C10.299,62.182 10.299999999999999,62.527 10.299999999999999,62.527 C10.300999999999998,62.879 10.550999999999998,63.021 10.858,62.845 C10.858,62.845 26.06,54.067 26.06,54.067 C26.366,53.89 26.613999999999997,53.46 26.613,53.108 C26.613,53.108 26.612000000000002,52.763 26.612000000000002,52.763 C26.611,52.403 26.361,52.260999999999996 26.055,52.437999999999995z" style="fill: rgb(255, 255, 255); fill-opacity: 1;"></path><path d=" M26.064,55.702999999999996 C26.064,55.702999999999996 10.862,64.481 10.862,64.481 C10.556000000000001,64.658 10.307,65.088 10.308,65.44 C10.308,65.44 10.309,65.785 10.309,65.785 C10.309999999999999,66.144 10.559999999999999,66.286 10.867,66.109 C10.867,66.109 26.069,57.332 26.069,57.332 C26.375,57.155 26.622999999999998,56.725 26.622,56.364999999999995 C26.622,56.364999999999995 26.621000000000002,56.021 26.621000000000002,56.021 C26.62,55.668 26.37,55.525999999999996 26.064,55.702999999999996z" style="fill: rgb(255, 255, 255); fill-opacity: 1;"></path><path d=" M26.074,58.961 C26.074,58.961 10.872000000000002,67.739 10.872000000000002,67.739 C10.566000000000003,67.916 10.317000000000002,68.346 10.318000000000001,68.705 C10.318000000000001,68.705 10.319,69.05 10.319,69.05 C10.32,69.402 10.57,69.544 10.877000000000002,69.367 C10.877000000000002,69.367 26.079,60.59 26.079,60.59 C26.385,60.413000000000004 26.633000000000003,59.983000000000004 26.632,59.631 C26.632,59.631 26.631,59.286 26.631,59.286 C26.630000000000003,58.926 26.380000000000003,58.784 26.074,58.961z" style="fill: rgb(255, 255, 255); fill-opacity: 1;"></path></g><g transform="matrix(1,0,0,1,112.5,255.16065388752895)" style="user-select: none;"><g style="stroke-linecap: round; stroke-linejoin: round; fill-opacity: 0; stroke: rgb(255, 255, 255); stroke-opacity: 1; stroke-width: 2;"><path d=" M5,5 C5,5 56,5 56,5"></path></g></g><g transform="matrix(1,0,0,1,163.5,189.16065388752895)" style="user-select: none;"><g style="stroke-linecap: round; stroke-linejoin: round; fill-opacity: 0; stroke: rgb(255, 255, 255); stroke-opacity: 1; stroke-width: 2;"><path d=" M5,5 C5,5 5,133 5,133"></path></g></g><g transform="matrix(1,0,0,1,163.5,186.16065388752895)" style="user-select: none;"><g style="stroke-linecap: round; stroke-linejoin: round; fill-opacity: 0; stroke: rgb(255, 255, 255); stroke-opacity: 1; stroke-width: 2;"><path d=" M5,136.347 C5,137.952 6.274999999999999,139 7.879999999999999,139 C7.879999999999999,139 58,139 58,139"></path></g><g style="stroke-linecap: round; stroke-linejoin: round; fill-opacity: 0; stroke: rgb(255, 255, 255); stroke-opacity: 1; stroke-width: 2;"><path d=" M60,5 C60,5 8.849,5 8.849,5 C6.709,5 5,6.342 5,8.482"></path></g></g><g transform="matrix(1,0,0,1,194.005,118.28565388752895)" style="user-select: none;"><path d=" M56.478,7.253 C56.478,7.253 56.719,92.72200000000001 56.719,92.72200000000001 C56.723,93.93299999999999 55.838,95.11099999999999 54.784000000000006,95.72 C54.784000000000006,95.72 3.8290000000000006,125.138 3.8290000000000006,125.138 C2.775000000000002,125.747 1.8200000000000038,125.525 1.8160000000000025,124.314 C1.8160000000000025,124.314 1.5749999999999993,38.846000000000004 1.5749999999999993,38.846000000000004 C1.5749999999999993,38.846000000000004 56.478,7.253 56.478,7.253z" style="fill: rgb(226, 226, 226); fill-opacity: 1;"></path><path d=" M1.938,124.35 C1.938,124.35 1.6949999999999998,38.882000000000005 1.6949999999999998,38.882000000000005 C1.6949999999999998,38.882000000000005 0.2809999999999999,38.06 0.2809999999999999,38.06 C0.2809999999999999,38.06 0.5239999999999999,123.529 0.5239999999999999,123.529 C0.5249999999999999,124.059 0.6859999999999999,124.393 0.955,124.549 C0.955,124.549 2.3689999999999998,125.37 2.3689999999999998,125.37 C2.1,125.214 1.94,124.881 1.938,124.35z" style="fill: rgb(191, 191, 191); fill-opacity: 1;"></path><path d=" M54.434,1.5180000000000007 C55.531,0.8850000000000016 56.459,1.4909999999999997 56.462,2.751999999999999 C56.462,2.751999999999999 56.477999999999994,8.219 56.477999999999994,8.219 C56.477999999999994,8.219 1.695999999999998,39.847 1.695999999999998,39.847 C1.695999999999998,39.847 1.325999999999997,34.323 1.325999999999997,34.323 C1.3219999999999956,33.062 2.320999999999998,31.114 3.4179999999999993,30.481 C3.4179999999999993,30.481 54.434,1.5180000000000007 54.434,1.5180000000000007z" style="fill: rgb(252, 252, 252); fill-opacity: 1;"></path><path d=" M0.28200000000000003,39.025999999999996 C0.28200000000000003,39.025999999999996 1.6950000000000003,39.848 1.6950000000000003,39.848 C1.6950000000000003,39.848 1.6799999999999997,34.379999999999995 1.6799999999999997,34.379999999999995 C1.6799999999999997,34.379999999999995 2.2719999999999985,31.634 3.6389999999999993,30.845 C5.006999999999998,30.055 54.443,1.541999999999998 54.443,1.541999999999998 C54.443,1.541999999999998 55.19,1.0299999999999976 55.96,1.4959999999999987 C55.96,1.4959999999999987 54.417,0.5869999999999997 54.417,0.5869999999999997 C54.417,0.5869999999999997 53.795,0.2510000000000012 53.019999999999996,0.6980000000000004 C52.245000000000005,1.1449999999999996 2.225999999999999,30.024 2.225999999999999,30.024 C2.225999999999999,30.024 0.28200000000000003,31.185 0.26699999999999946,33.56 C0.25,36.117 0.28200000000000003,39.025999999999996 0.28200000000000003,39.025999999999996z" style="fill: rgb(230, 230, 230); fill-opacity: 1;"></path><path d=" M30.16,48.199 C30.16,48.199 12.283000000000001,58.519999999999996 12.283000000000001,58.519999999999996 C11.734000000000002,58.836999999999996 11.288,59.602 11.290000000000001,60.233 C11.290000000000001,60.233 11.325000000000001,72.624 11.325000000000001,72.624 C11.327000000000002,73.255 11.775,73.50999999999999 12.325000000000001,73.193 C12.325000000000001,73.193 30.201999999999998,62.872 30.201999999999998,62.872 C30.750999999999998,62.555 31.19,61.787 31.188000000000002,61.156 C31.188000000000002,61.156 31.153,48.765 31.153,48.765 C31.151,48.134 30.709,47.882 30.16,48.199z" style="fill: rgb(255, 255, 255); fill-opacity: 1;"></path><path d=" M49.039,37.297999999999995 C49.039,37.297999999999995 33.836999999999996,46.074999999999996 33.836999999999996,46.074999999999996 C33.531,46.251999999999995 33.282,46.683 33.283,47.035 C33.283,47.035 33.284,47.379999999999995 33.284,47.379999999999995 C33.285,47.739 33.535,47.881 33.842,47.704 C33.842,47.704 49.044,38.928 49.044,38.928 C49.349999999999994,38.751 49.598,38.321 49.596999999999994,37.961 C49.596999999999994,37.961 49.596,37.617 49.596,37.617 C49.595,37.263999999999996 49.345,37.120999999999995 49.039,37.297999999999995z" style="fill: rgb(255, 255, 255); fill-opacity: 1;"></path><path d=" M49.051,41.37 C49.051,41.37 33.849,50.147 33.849,50.147 C33.543,50.324 33.294,50.754 33.295,51.113 C33.295,51.113 33.296,51.458 33.296,51.458 C33.297,51.81 33.547,51.953 33.854,51.776 C33.854,51.776 49.056,43 49.056,43 C49.361999999999995,42.823 49.61,42.392 49.608999999999995,42.04 C49.608999999999995,42.04 49.608,41.695 49.608,41.695 C49.607,41.335 49.357,41.193 49.051,41.37z" style="fill: rgb(255, 255, 255); fill-opacity: 1;"></path><path d=" M49.06,44.635 C49.06,44.635 33.858,53.412 33.858,53.412 C33.552,53.589 33.303,54.02 33.304,54.372 C33.304,54.372 33.305,54.717 33.305,54.717 C33.306,55.076 33.556,55.217 33.863,55.041000000000004 C33.863,55.041000000000004 49.065,46.265 49.065,46.265 C49.370999999999995,46.088 49.619,45.658 49.617999999999995,45.298 C49.617999999999995,45.298 49.617,44.954 49.617,44.954 C49.616,44.601 49.366,44.458 49.06,44.635z" style="fill: rgb(255, 255, 255); fill-opacity: 1;"></path><path d=" M49.149,75.61000000000001 C49.149,75.61000000000001 11.957,97.08200000000001 11.957,97.08200000000001 C11.645,97.263 11.395999999999997,97.69300000000001 11.396999999999998,98.045 C11.396999999999998,98.045 11.398,98.397 11.398,98.397 C11.399000000000001,98.74900000000001 11.649000000000001,98.891 11.962,98.71100000000001 C11.962,98.71100000000001 49.153999999999996,77.239 49.153999999999996,77.239 C49.46,77.06200000000001 49.708,76.632 49.707,76.28 C49.707,76.28 49.706,75.92800000000001 49.706,75.92800000000001 C49.705,75.575 49.455,75.433 49.149,75.61000000000001z" style="fill: rgb(255, 255, 255); fill-opacity: 1;"></path><path d=" M49.16,79.274 C49.16,79.274 11.968,100.746 11.968,100.746 C11.655999999999999,100.92699999999999 11.406999999999996,101.364 11.407999999999998,101.716 C11.407999999999998,101.716 11.408999999999999,102.06099999999999 11.408999999999999,102.06099999999999 C11.41,102.413 11.66,102.563 11.972999999999999,102.382 C11.972999999999999,102.382 49.165,80.91 49.165,80.91 C49.471000000000004,80.733 49.719,80.29599999999999 49.718,79.944 C49.718,79.944 49.717,79.599 49.717,79.599 C49.715999999999994,79.247 49.466,79.097 49.16,79.274z" style="fill: rgb(255, 255, 255); fill-opacity: 1;"></path><path d=" M49.169,82.946 C49.169,82.946 11.977,104.418 11.977,104.418 C11.665,104.599 11.415999999999997,105.029 11.416999999999998,105.381 C11.416999999999998,105.381 11.418,105.733 11.418,105.733 C11.419,106.08500000000001 11.669,106.227 11.982,106.047 C11.982,106.047 49.174,84.575 49.174,84.575 C49.480000000000004,84.39800000000001 49.728,83.968 49.727000000000004,83.616 C49.727000000000004,83.616 49.726,83.26400000000001 49.726,83.26400000000001 C49.724999999999994,82.911 49.475,82.769 49.169,82.946z" style="fill: rgb(255, 255, 255); fill-opacity: 1;"></path><path d=" M49.181,86.611 C49.181,86.611 11.989,108.083 11.989,108.083 C11.677,108.264 11.427999999999997,108.701 11.428999999999998,109.053 C11.428999999999998,109.053 11.43,109.398 11.43,109.398 C11.431000000000001,109.75 11.681000000000001,109.9 11.994,109.719 C11.994,109.719 49.186,88.247 49.186,88.247 C49.492000000000004,88.07000000000001 49.74,87.63300000000001 49.739000000000004,87.281 C49.739000000000004,87.281 49.738,86.936 49.738,86.936 C49.736999999999995,86.584 49.487,86.434 49.181,86.611z" style="fill: rgb(255, 255, 255); fill-opacity: 1;"></path><path d=" M49.19,90.28299999999999 C49.19,90.28299999999999 11.998000000000001,111.755 11.998000000000001,111.755 C11.686,111.93599999999999 11.436999999999998,112.36599999999999 11.437999999999999,112.71799999999999 C11.437999999999999,112.71799999999999 11.439,113.07 11.439,113.07 C11.440000000000001,113.422 11.690000000000001,113.564 12.003,113.38399999999999 C12.003,113.38399999999999 49.195,91.91199999999999 49.195,91.91199999999999 C49.501000000000005,91.735 49.749,91.30499999999999 49.748000000000005,90.95299999999999 C49.748000000000005,90.95299999999999 49.747,90.601 49.747,90.601 C49.745999999999995,90.24799999999999 49.496,90.106 49.19,90.28299999999999z" style="fill: rgb(255, 255, 255); fill-opacity: 1;"></path><path d=" M48.172,19.833 C48.172,19.833 12.608,40.366 12.608,40.366 C11.849,40.805 11.238000000000003,41.862 11.240000000000002,42.735 C11.240000000000002,42.735 11.273,54.254000000000005 11.273,54.254000000000005 C11.274999999999999,55.127 11.89,55.478 12.650000000000002,55.039 C12.650000000000002,55.039 48.214,34.506 48.214,34.506 C48.973,34.067 49.584,33.01 49.582,32.137 C49.582,32.137 49.54900000000001,20.618 49.54900000000001,20.618 C49.547000000000004,19.744999999999997 48.932,19.394 48.172,19.833z" style="fill: rgb(255, 255, 255); fill-opacity: 1;"></path><path d=" M22.174999999999997,71.58399999999999 C22.174999999999997,71.58399999999999 11.855999999999998,77.541 11.855999999999998,77.541 C11.568999999999999,77.707 11.34,78.104 11.341,78.434 C11.341,78.434 11.375,90.28899999999999 11.375,90.28899999999999 C11.375,90.61999999999999 11.605999999999998,90.752 11.892999999999999,90.586 C11.892999999999999,90.586 22.211,84.62899999999999 22.211,84.62899999999999 C22.497999999999998,84.463 22.727,84.06599999999999 22.726,83.735 C22.726,83.735 22.694,71.88 22.694,71.88 C22.692999999999998,71.55 22.462,71.41799999999999 22.174999999999997,71.58399999999999z" style="fill: rgb(255, 255, 255); fill-opacity: 1;"></path><path d=" M35.653,63.802 C35.653,63.802 25.334,69.759 25.334,69.759 C25.047,69.925 24.818,70.322 24.819000000000003,70.652 C24.819000000000003,70.652 24.853,82.507 24.853,82.507 C24.853,82.838 25.084,82.97 25.371000000000002,82.804 C25.371000000000002,82.804 35.689,76.847 35.689,76.847 C35.976,76.681 36.205,76.28399999999999 36.204,75.953 C36.204,75.953 36.172,64.09899999999999 36.172,64.09899999999999 C36.171,63.769 35.94,63.635999999999996 35.653,63.802z" style="fill: rgb(255, 255, 255); fill-opacity: 1;"></path><path d=" M48.422999999999995,56.43 C48.422999999999995,56.43 38.104,62.387 38.104,62.387 C37.81699999999999,62.553 37.587999999999994,62.949999999999996 37.589,63.28 C37.589,63.28 37.623,75.13499999999999 37.623,75.13499999999999 C37.623,75.466 37.854,75.598 38.141,75.432 C38.141,75.432 48.458999999999996,69.475 48.458999999999996,69.475 C48.745999999999995,69.309 48.974999999999994,68.91199999999999 48.974,68.581 C48.974,68.581 48.94199999999999,56.727 48.94199999999999,56.727 C48.940999999999995,56.397 48.709999999999994,56.263999999999996 48.422999999999995,56.43z" style="fill: rgb(255, 255, 255); fill-opacity: 1;"></path><path d=" M19.648000000000003,86.92399999999999 C19.648000000000003,86.92399999999999 15.178,89.50399999999999 15.178,89.50399999999999 C15.037,89.585 14.929000000000002,89.78099999999999 14.930000000000001,89.935 C14.930000000000001,89.935 14.930000000000001,90.17699999999999 14.930000000000001,90.17699999999999 C14.931000000000001,90.339 15.040000000000001,90.39999999999999 15.180000000000001,90.31899999999999 C15.180000000000001,90.31899999999999 19.650000000000002,87.73899999999999 19.650000000000002,87.73899999999999 C19.784000000000002,87.66199999999999 19.898000000000003,87.47 19.898000000000003,87.30799999999999 C19.898000000000003,87.30799999999999 19.898000000000003,87.067 19.898000000000003,87.067 C19.897000000000002,86.913 19.782,86.847 19.648000000000003,86.92399999999999z" style="fill: rgb(255, 255, 255); fill-opacity: 1;"></path><path d=" M33.126,79.143 C33.126,79.143 28.656,81.723 28.656,81.723 C28.515,81.804 28.407,82 28.408,82.154 C28.408,82.154 28.408,82.396 28.408,82.396 C28.409,82.558 28.518,82.619 28.658,82.538 C28.658,82.538 33.128,79.958 33.128,79.958 C33.262,79.881 33.376,79.68900000000001 33.376,79.527 C33.376,79.527 33.376,79.286 33.376,79.286 C33.375,79.132 33.26,79.066 33.126,79.143z" style="fill: rgb(255, 255, 255); fill-opacity: 1;"></path><path d=" M46.604,71.361 C46.604,71.361 42.134,73.941 42.134,73.941 C41.992999999999995,74.022 41.885,74.218 41.885999999999996,74.37200000000001 C41.885999999999996,74.37200000000001 41.885999999999996,74.614 41.885999999999996,74.614 C41.887,74.77600000000001 41.995999999999995,74.837 42.135999999999996,74.756 C42.135999999999996,74.756 46.605999999999995,72.176 46.605999999999995,72.176 C46.739999999999995,72.099 46.854,71.90700000000001 46.854,71.745 C46.854,71.745 46.854,71.504 46.854,71.504 C46.852999999999994,71.35000000000001 46.738,71.284 46.604,71.361z" style="fill: rgb(255, 255, 255); fill-opacity: 1;"></path></g><g transform="matrix(1,0,0,1,194.005,254.28565388752895)" style="user-select: none;"><path d=" M56.478,7.253 C56.478,7.253 56.719,92.72200000000001 56.719,92.72200000000001 C56.723,93.93299999999999 55.838,95.11099999999999 54.784000000000006,95.72 C54.784000000000006,95.72 3.8290000000000006,125.138 3.8290000000000006,125.138 C2.775000000000002,125.747 1.8200000000000038,125.525 1.8160000000000025,124.314 C1.8160000000000025,124.314 1.5749999999999993,38.846000000000004 1.5749999999999993,38.846000000000004 C1.5749999999999993,38.846000000000004 56.478,7.253 56.478,7.253z" style="fill: rgb(226, 226, 226); fill-opacity: 1;"></path><path d=" M1.938,124.35 C1.938,124.35 1.6949999999999998,38.882000000000005 1.6949999999999998,38.882000000000005 C1.6949999999999998,38.882000000000005 0.2809999999999999,38.06 0.2809999999999999,38.06 C0.2809999999999999,38.06 0.5239999999999999,123.529 0.5239999999999999,123.529 C0.5249999999999999,124.059 0.6859999999999999,124.393 0.955,124.549 C0.955,124.549 2.3689999999999998,125.37 2.3689999999999998,125.37 C2.1,125.214 1.94,124.881 1.938,124.35z" style="fill: rgb(191, 191, 191); fill-opacity: 1;"></path><path d=" M54.434,1.5180000000000007 C55.531,0.8850000000000016 56.459,1.4909999999999997 56.462,2.751999999999999 C56.462,2.751999999999999 56.477999999999994,8.219 56.477999999999994,8.219 C56.477999999999994,8.219 1.695999999999998,39.847 1.695999999999998,39.847 C1.695999999999998,39.847 1.325999999999997,34.323 1.325999999999997,34.323 C1.3219999999999956,33.062 2.320999999999998,31.114 3.4179999999999993,30.481 C3.4179999999999993,30.481 54.434,1.5180000000000007 54.434,1.5180000000000007z" style="fill: rgb(252, 252, 252); fill-opacity: 1;"></path><path d=" M0.28200000000000003,39.025999999999996 C0.28200000000000003,39.025999999999996 1.6950000000000003,39.848 1.6950000000000003,39.848 C1.6950000000000003,39.848 1.6799999999999997,34.379999999999995 1.6799999999999997,34.379999999999995 C1.6799999999999997,34.379999999999995 2.2719999999999985,31.634 3.6389999999999993,30.845 C5.006999999999998,30.055 54.443,1.5410000000000004 54.443,1.5410000000000004 C54.443,1.5410000000000004 55.19,1.0299999999999976 55.96,1.4959999999999987 C55.96,1.4959999999999987 54.417,0.5869999999999997 54.417,0.5869999999999997 C54.417,0.5869999999999997 53.795,0.25 53.019999999999996,0.6969999999999992 C52.245000000000005,1.1439999999999984 2.225999999999999,30.024 2.225999999999999,30.024 C2.225999999999999,30.024 0.28200000000000003,31.183999999999997 0.26699999999999946,33.559 C0.25,36.116 0.28200000000000003,39.025999999999996 0.28200000000000003,39.025999999999996z" style="fill: rgb(230, 230, 230); fill-opacity: 1;"></path><path d=" M30.160999999999998,48.106 C30.160999999999998,48.106 12.283999999999999,58.427 12.283999999999999,58.427 C11.735,58.744 11.288999999999998,59.509 11.290999999999999,60.14 C11.290999999999999,60.14 11.325999999999999,72.531 11.325999999999999,72.531 C11.328,73.162 11.775999999999998,73.417 12.325999999999999,73.1 C12.325999999999999,73.1 30.202999999999996,62.779 30.202999999999996,62.779 C30.751999999999995,62.462 31.191,61.694 31.189,61.063 C31.189,61.063 31.153999999999996,48.672000000000004 31.153999999999996,48.672000000000004 C31.151999999999997,48.041000000000004 30.709999999999997,47.789 30.160999999999998,48.106z" style="fill: rgb(255, 255, 255); fill-opacity: 1;"></path><path d=" M49.041,37.205 C49.041,37.205 33.839,45.983000000000004 33.839,45.983000000000004 C33.533,46.160000000000004 33.284,46.59 33.285,46.942 C33.285,46.942 33.286,47.287 33.286,47.287 C33.287,47.646 33.537,47.788000000000004 33.844,47.612 C33.844,47.612 49.046,38.834 49.046,38.834 C49.352000000000004,38.657000000000004 49.6,38.227000000000004 49.599000000000004,37.867000000000004 C49.599000000000004,37.867000000000004 49.598,37.523 49.598,37.523 C49.597,37.17 49.347,37.028 49.041,37.205z" style="fill: rgb(255, 255, 255); fill-opacity: 1;"></path><path d=" M49.05,40.462999999999994 C49.05,40.462999999999994 33.848,49.241 33.848,49.241 C33.542,49.418 33.293,49.848 33.294,50.206999999999994 C33.294,50.206999999999994 33.295,50.552 33.295,50.552 C33.296,50.903999999999996 33.546,51.046 33.853,50.87 C33.853,50.87 49.055,42.092 49.055,42.092 C49.361000000000004,41.915 49.609,41.485 49.608000000000004,41.132999999999996 C49.608000000000004,41.132999999999996 49.607,40.788 49.607,40.788 C49.606,40.428 49.356,40.285999999999994 49.05,40.462999999999994z" style="fill: rgb(255, 255, 255); fill-opacity: 1;"></path><path d=" M49.059,43.727 C49.059,43.727 33.857,52.505 33.857,52.505 C33.551,52.682 33.302,53.112 33.303,53.464 C33.303,53.464 33.304,53.809 33.304,53.809 C33.305,54.168 33.555,54.31 33.862,54.134 C33.862,54.134 49.064,45.356 49.064,45.356 C49.370000000000005,45.179 49.618,44.749 49.617000000000004,44.388999999999996 C49.617000000000004,44.388999999999996 49.616,44.045 49.616,44.045 C49.615,43.692 49.365,43.55 49.059,43.727z" style="fill: rgb(255, 255, 255); fill-opacity: 1;"></path><path d=" M49.150000000000006,75.517 C49.150000000000006,75.517 11.958000000000002,96.989 11.958000000000002,96.989 C11.646,97.17 11.396999999999998,97.60000000000001 11.398,97.959 C11.398,97.959 11.399000000000001,98.304 11.399000000000001,98.304 C11.400000000000002,98.656 11.650000000000002,98.798 11.963000000000001,98.618 C11.963000000000001,98.618 49.155,77.146 49.155,77.146 C49.461,76.96900000000001 49.709,76.539 49.708,76.187 C49.708,76.187 49.707,75.842 49.707,75.842 C49.706,75.482 49.456,75.34 49.150000000000006,75.517z" style="fill: rgb(255, 255, 255); fill-opacity: 1;"></path><path d=" M49.159000000000006,79.181 C49.159000000000006,79.181 11.967000000000002,100.65299999999999 11.967000000000002,100.65299999999999 C11.655000000000001,100.83399999999999 11.405999999999999,101.27099999999999 11.407,101.62299999999999 C11.407,101.62299999999999 11.408000000000001,101.96799999999999 11.408000000000001,101.96799999999999 C11.409000000000002,102.32 11.659000000000002,102.47 11.972000000000001,102.28899999999999 C11.972000000000001,102.28899999999999 49.164,80.817 49.164,80.817 C49.47,80.64 49.718,80.203 49.717,79.851 C49.717,79.851 49.716,79.506 49.716,79.506 C49.715,79.154 49.465,79.00399999999999 49.159000000000006,79.181z" style="fill: rgb(255, 255, 255); fill-opacity: 1;"></path><path d=" M49.17,82.85300000000001 C49.17,82.85300000000001 11.978000000000002,104.325 11.978000000000002,104.325 C11.666,104.506 11.416999999999998,104.936 11.418,105.295 C11.418,105.295 11.419,105.64 11.419,105.64 C11.420000000000002,105.992 11.670000000000002,106.134 11.983,105.95400000000001 C11.983,105.95400000000001 49.175,84.482 49.175,84.482 C49.481,84.305 49.729,83.875 49.728,83.523 C49.728,83.523 49.727000000000004,83.178 49.727000000000004,83.178 C49.726,82.818 49.476,82.676 49.17,82.85300000000001z" style="fill: rgb(255, 255, 255); fill-opacity: 1;"></path><path d=" M49.18,86.518 C49.18,86.518 11.988,107.99 11.988,107.99 C11.675999999999998,108.17099999999999 11.426999999999996,108.608 11.427999999999997,108.96 C11.427999999999997,108.96 11.428999999999998,109.30499999999999 11.428999999999998,109.30499999999999 C11.43,109.657 11.68,109.807 11.992999999999999,109.626 C11.992999999999999,109.626 49.185,88.154 49.185,88.154 C49.491,87.977 49.739000000000004,87.53999999999999 49.738,87.188 C49.738,87.188 49.736999999999995,86.843 49.736999999999995,86.843 C49.736,86.491 49.486000000000004,86.341 49.18,86.518z" style="fill: rgb(255, 255, 255); fill-opacity: 1;"></path><path d=" M49.191,90.19 C49.191,90.19 11.999000000000002,111.662 11.999000000000002,111.662 C11.687000000000001,111.843 11.437999999999999,112.27300000000001 11.439,112.632 C11.439,112.632 11.440000000000001,112.977 11.440000000000001,112.977 C11.441000000000003,113.32900000000001 11.691000000000003,113.471 12.004000000000001,113.291 C12.004000000000001,113.291 49.196,91.819 49.196,91.819 C49.502,91.64200000000001 49.75,91.212 49.749,90.86 C49.749,90.86 49.748000000000005,90.515 49.748000000000005,90.515 C49.747,90.155 49.497,90.013 49.191,90.19z" style="fill: rgb(255, 255, 255); fill-opacity: 1;"></path><path d=" M48.171,18.924999999999997 C48.171,18.924999999999997 12.607,39.458 12.607,39.458 C11.847999999999999,39.897 11.237000000000002,40.954 11.239,41.827 C11.239,41.827 11.271999999999998,53.345 11.271999999999998,53.345 C11.273999999999997,54.218 11.889,54.569 12.649000000000001,54.129999999999995 C12.649000000000001,54.129999999999995 48.213,33.598 48.213,33.598 C48.972,33.159 49.583,32.102 49.581,31.229 C49.581,31.229 49.548,19.709999999999997 49.548,19.709999999999997 C49.54600000000001,18.836999999999996 48.931,18.485999999999997 48.171,18.924999999999997z" style="fill: rgb(255, 255, 255); fill-opacity: 1;"></path><path d=" M48.658,55.387 C48.658,55.387 12.335,76.358 12.335,76.358 C11.786000000000001,76.675 11.34,77.446 11.341999999999999,78.077 C11.341999999999999,78.077 11.376999999999999,90.46900000000001 11.376999999999999,90.46900000000001 C11.378999999999998,91.099 11.826999999999998,91.348 12.375999999999998,91.031 C12.375999999999998,91.031 48.7,70.06 48.7,70.06 C49.248999999999995,69.74300000000001 49.688,68.982 49.686,68.351 C49.686,68.351 49.650999999999996,55.96000000000001 49.650999999999996,55.96000000000001 C49.649,55.32900000000001 49.206999999999994,55.07000000000001 48.658,55.387z" style="fill: rgb(255, 255, 255); fill-opacity: 1;"></path></g><g transform="matrix(1,0,0,1,220.5,186.16065388752895)" style="user-select: none;"><g style="stroke-linecap: round; stroke-linejoin: round; fill-opacity: 0; stroke: rgb(255, 255, 255); stroke-opacity: 1; stroke-width: 2;"><path d=" M5,5 C5,5 53,5 53,5"></path></g><g style="stroke-linecap: round; stroke-linejoin: round; fill-opacity: 0; stroke: rgb(255, 255, 255); stroke-opacity: 1; stroke-width: 2;"><path d=" M5,140 C5,140 53,140 53,140"></path></g></g><g transform="matrix(1,0,0,1,269.5,152.16065388752895)" style="user-select: none;"><g style="stroke-linecap: round; stroke-linejoin: round; fill-opacity: 0; stroke: rgb(255, 255, 255); stroke-opacity: 1; stroke-width: 2;"><path d=" M5,218 C5,218 5,5 5,5"></path></g></g><g transform="matrix(1,0,0,1,269.5,149.16065388752895)" style="user-select: none;"><g style="stroke-linecap: round; stroke-linejoin: round; fill-opacity: 0; stroke: rgb(255, 255, 255); stroke-opacity: 1; stroke-width: 2;"><path d=" M5,7.936 C5,6.5489999999999995 5.862000000000002,5 7.466000000000001,5 C7.466000000000001,5 47,5 47,5"></path></g><g style="stroke-linecap: round; stroke-linejoin: round; fill-opacity: 0; stroke: rgb(255, 255, 255); stroke-opacity: 1; stroke-width: 2;"><path d=" M49,223 C49,223 7.466000000000001,223 7.466000000000001,223 C5.862000000000002,223 5,221.96699999999998 5,220.57999999999998"></path></g><g style="stroke-linecap: round; stroke-linejoin: round; fill-opacity: 0; stroke: rgb(255, 255, 255); stroke-opacity: 1; stroke-width: 2;"><path d=" M5,110 C5,110 49,110 49,110"></path></g></g><g transform="matrix(1,0,0,1,295.606,97.60465388752895)" style="user-select: none;"><path d=" M41.183,5.347999999999999 C41.183,5.347999999999999 41.359,67.57 41.359,67.57 C41.362,68.451 40.717,69.309 39.95,69.752 C39.95,69.752 2.8550000000000004,91.169 2.8550000000000004,91.169 C2.088000000000001,91.612 1.3919999999999995,91.44999999999999 1.3900000000000006,90.56899999999999 C1.3900000000000006,90.56899999999999 1.2139999999999986,28.347999999999995 1.2139999999999986,28.347999999999995 C1.2139999999999986,28.347999999999995 41.183,5.347999999999999 41.183,5.347999999999999z" style="fill: rgb(226, 226, 226); fill-opacity: 1;"></path><path d=" M1.4789999999999999,90.595 C1.4789999999999999,90.595 1.302,28.374000000000002 1.302,28.374000000000002 C1.302,28.374000000000002 0.2729999999999999,27.776000000000003 0.2729999999999999,27.776000000000003 C0.2729999999999999,27.776000000000003 0.44899999999999995,89.997 0.44899999999999995,89.997 C0.44999999999999996,90.38300000000001 0.567,90.626 0.7629999999999999,90.74000000000001 C0.7629999999999999,90.74000000000001 1.793,91.338 1.793,91.338 C1.597,91.224 1.48,90.981 1.4789999999999999,90.595z" style="fill: rgb(191, 191, 191); fill-opacity: 1;"></path><path d=" M39.696,1.1739999999999995 C40.495,0.7129999999999992 41.17,1.154 41.173,2.071999999999999 C41.173,2.071999999999999 41.183,6.052 41.183,6.052 C41.183,6.052 1.3030000000000008,29.076999999999998 1.3030000000000008,29.076999999999998 C1.3030000000000008,29.076999999999998 1.032,25.055999999999997 1.032,25.055999999999997 C1.0300000000000011,24.137999999999998 1.7579999999999991,22.72 2.5569999999999986,22.259 C2.5569999999999986,22.259 39.696,1.1739999999999995 39.696,1.1739999999999995z" style="fill: rgb(252, 252, 252); fill-opacity: 1;"></path><path d=" M0.2729999999999997,28.479 C0.2729999999999997,28.479 1.3019999999999996,29.076999999999998 1.3019999999999996,29.076999999999998 C1.3019999999999996,29.076999999999998 1.2910000000000004,25.097 1.2910000000000004,25.097 C1.2910000000000004,25.097 1.721,23.098 2.7169999999999987,22.523 C3.7119999999999997,21.948 39.702,1.190999999999999 39.702,1.190999999999999 C39.702,1.190999999999999 40.245999999999995,0.8179999999999996 40.806,1.157 C40.806,1.157 39.683,0.4969999999999999 39.683,0.4969999999999999 C39.683,0.4969999999999999 39.230000000000004,0.25 38.666,0.5749999999999993 C38.102000000000004,0.9009999999999998 1.6879999999999988,21.925 1.6879999999999988,21.925 C1.6879999999999988,21.925 0.2729999999999997,22.770000000000003 0.26200000000000045,24.499000000000002 C0.25,26.361 0.2729999999999997,28.479 0.2729999999999997,28.479z" style="fill: rgb(230, 230, 230); fill-opacity: 1;"></path><path d=" M34.161,13.963 C34.161,13.963 8.480999999999998,28.79 8.480999999999998,28.79 C7.931999999999999,29.107 7.485999999999997,29.878 7.487999999999998,30.502 C7.487999999999998,30.502 7.511999999999999,38.821 7.511999999999999,38.821 C7.512999999999998,39.451 7.962,39.707 8.511,39.39 C8.511,39.39 34.191,24.564 34.191,24.564 C34.739999999999995,24.247 35.185,23.477 35.183,22.846 C35.183,22.846 35.16,14.525 35.16,14.525 C35.158,13.902000000000001 34.709999999999994,13.645999999999999 34.161,13.963z" style="fill: rgb(255, 255, 255); fill-opacity: 1;"></path><path d=" M15.663,37.708 C15.663,37.708 7.899000000000001,42.191 7.899000000000001,42.191 C7.689,42.313 7.523000000000001,42.599000000000004 7.524000000000001,42.833000000000006 C7.524000000000001,42.833000000000006 7.547000000000001,50.949000000000005 7.547000000000001,50.949000000000005 C7.547000000000001,51.183 7.714,51.278000000000006 7.925000000000001,51.157000000000004 C7.925000000000001,51.157000000000004 15.688,46.674 15.688,46.674 C15.899000000000001,46.553000000000004 16.065,46.266000000000005 16.064,46.031 C16.064,46.031 16.041,37.916000000000004 16.041,37.916000000000004 C16.04,37.681000000000004 15.874,37.586 15.663,37.708z" style="fill: rgb(255, 255, 255); fill-opacity: 1;"></path><path d=" M25.598000000000003,31.973 C25.598000000000003,31.973 17.827,36.46 17.827,36.46 C17.623,36.577999999999996 17.458000000000002,36.864 17.459000000000003,37.098 C17.459000000000003,37.098 17.481,45.214 17.481,45.214 C17.481,45.448 17.648000000000003,45.543 17.852,45.425 C17.852,45.425 25.623,40.939 25.623,40.939 C25.828000000000003,40.821 25.993000000000002,40.535 25.993000000000002,40.3 C25.993000000000002,40.3 25.968000000000004,32.184999999999995 25.968000000000004,32.184999999999995 C25.968000000000004,31.949999999999996 25.802,31.854999999999997 25.598000000000003,31.973z" style="fill: rgb(255, 255, 255); fill-opacity: 1;"></path><path d=" M34.817,26.650000000000002 C34.817,26.650000000000002 27.053,31.133000000000003 27.053,31.133000000000003 C26.843,31.255000000000003 26.677,31.541000000000004 26.678,31.775000000000002 C26.678,31.775000000000002 26.701,39.891000000000005 26.701,39.891000000000005 C26.701,40.125 26.868000000000002,40.22 27.079,40.099000000000004 C27.079,40.099000000000004 34.842,35.616 34.842,35.616 C35.053,35.495000000000005 35.219,35.208000000000006 35.218,34.973 C35.218,34.973 35.195,26.858000000000004 35.195,26.858000000000004 C35.194,26.623 35.028,26.528000000000002 34.817,26.650000000000002z" style="fill: rgb(255, 255, 255); fill-opacity: 1;"></path><path d=" M13.757,48.605000000000004 C13.757,48.605000000000004 10.571,50.444 10.571,50.444 C10.469,50.503 10.392,50.643 10.392,50.753 C10.392,50.753 10.393999999999998,51.157000000000004 10.393999999999998,51.157000000000004 C10.393999999999998,51.274 10.469999999999999,51.318000000000005 10.572,51.259 C10.572,51.259 13.758,49.419000000000004 13.758,49.419000000000004 C13.86,49.36 13.937999999999999,49.228 13.937999999999999,49.111000000000004 C13.937999999999999,49.111000000000004 13.934999999999999,48.707 13.934999999999999,48.707 C13.934999999999999,48.597 13.859,48.546 13.757,48.605000000000004z" style="fill: rgb(255, 255, 255); fill-opacity: 1;"></path><path d=" M22.982,43.278999999999996 C22.982,43.278999999999996 19.79,45.122 19.79,45.122 C19.694,45.177 19.611,45.321 19.611,45.431 C19.611,45.431 19.613,45.833999999999996 19.613,45.833999999999996 C19.613,45.952 19.696,45.992 19.792,45.936 C19.792,45.936 22.984,44.092999999999996 22.984,44.092999999999996 C23.080000000000002,44.038 23.163,43.901999999999994 23.162,43.785 C23.162,43.785 23.161,43.381 23.161,43.381 C23.161,43.270999999999994 23.078,43.224 22.982,43.278999999999996z" style="fill: rgb(255, 255, 255); fill-opacity: 1;"></path><path d=" M32.911,37.547000000000004 C32.911,37.547000000000004 29.724999999999998,39.386 29.724999999999998,39.386 C29.622999999999998,39.445 29.546,39.585 29.546,39.695 C29.546,39.695 29.548,40.099000000000004 29.548,40.099000000000004 C29.548,40.216 29.624,40.260000000000005 29.726,40.201 C29.726,40.201 32.912,38.361000000000004 32.912,38.361000000000004 C33.013999999999996,38.302 33.092,38.17 33.092,38.053000000000004 C33.092,38.053000000000004 33.089,37.649 33.089,37.649 C33.089,37.539 33.013,37.488 32.911,37.547000000000004z" style="fill: rgb(255, 255, 255); fill-opacity: 1;"></path><path d=" M15.7,50.751999999999995 C15.7,50.751999999999995 7.936,55.235 7.936,55.235 C7.725999999999999,55.357 7.56,55.643 7.561,55.877 C7.561,55.877 7.584,63.993 7.584,63.993 C7.584,64.227 7.7509999999999994,64.322 7.962,64.201 C7.962,64.201 15.725,59.717999999999996 15.725,59.717999999999996 C15.936,59.597 16.102,59.31 16.101,59.074999999999996 C16.101,59.074999999999996 16.078,50.96 16.078,50.96 C16.076999999999998,50.725 15.911,50.629999999999995 15.7,50.751999999999995z" style="fill: rgb(255, 255, 255); fill-opacity: 1;"></path><path d=" M25.635,45.017 C25.635,45.017 17.864,49.504000000000005 17.864,49.504000000000005 C17.66,49.622 17.495,49.908 17.496000000000002,50.142 C17.496000000000002,50.142 17.518,58.258 17.518,58.258 C17.518,58.492000000000004 17.685000000000002,58.587 17.889,58.469 C17.889,58.469 25.66,53.983000000000004 25.66,53.983000000000004 C25.865000000000002,53.865 26.03,53.579 26.03,53.344 C26.03,53.344 26.005000000000003,45.229 26.005000000000003,45.229 C26.005000000000003,44.994 25.839,44.899 25.635,45.017z" style="fill: rgb(255, 255, 255); fill-opacity: 1;"></path><path d=" M34.854,39.694 C34.854,39.694 27.09,44.177 27.09,44.177 C26.88,44.299 26.714,44.585 26.715,44.819 C26.715,44.819 26.738,52.935 26.738,52.935 C26.738,53.169 26.905,53.263999999999996 27.116,53.143 C27.116,53.143 34.879,48.66 34.879,48.66 C35.09,48.539 35.256,48.252 35.254999999999995,48.016999999999996 C35.254999999999995,48.016999999999996 35.232,39.902 35.232,39.902 C35.231,39.667 35.065,39.572 34.854,39.694z" style="fill: rgb(255, 255, 255); fill-opacity: 1;"></path><path d=" M13.796000000000001,62.464 C13.796000000000001,62.464 10.610000000000001,64.303 10.610000000000001,64.303 C10.508000000000001,64.362 10.431000000000001,64.502 10.431000000000001,64.612 C10.431000000000001,64.612 10.433,65.01599999999999 10.433,65.01599999999999 C10.433,65.133 10.509,65.17699999999999 10.611,65.118 C10.611,65.118 13.797,63.278 13.797,63.278 C13.899000000000001,63.218999999999994 13.977,63.086999999999996 13.977,62.97 C13.977,62.97 13.974,62.565999999999995 13.974,62.565999999999995 C13.974,62.455999999999996 13.898000000000001,62.404999999999994 13.796000000000001,62.464z" style="fill: rgb(255, 255, 255); fill-opacity: 1;"></path><path d=" M23.020999999999997,57.137 C23.020999999999997,57.137 19.828999999999997,58.980000000000004 19.828999999999997,58.980000000000004 C19.732999999999997,59.035000000000004 19.65,59.179 19.65,59.289 C19.65,59.289 19.651999999999997,59.692 19.651999999999997,59.692 C19.651999999999997,59.81 19.735,59.85 19.831,59.794000000000004 C19.831,59.794000000000004 23.023,57.951 23.023,57.951 C23.119,57.896 23.201999999999998,57.76 23.200999999999997,57.643 C23.200999999999997,57.643 23.2,57.239000000000004 23.2,57.239000000000004 C23.2,57.129 23.116999999999997,57.082 23.020999999999997,57.137z" style="fill: rgb(255, 255, 255); fill-opacity: 1;"></path><path d=" M32.95,51.405 C32.95,51.405 29.764,53.244 29.764,53.244 C29.662,53.303 29.585,53.443 29.585,53.553 C29.585,53.553 29.587,53.957 29.587,53.957 C29.587,54.074 29.663,54.118 29.765,54.059 C29.765,54.059 32.951,52.219 32.951,52.219 C33.053,52.16 33.131,52.028 33.131,51.911 C33.131,51.911 33.128,51.507 33.128,51.507 C33.128,51.397 33.052,51.346 32.95,51.405z" style="fill: rgb(255, 255, 255); fill-opacity: 1;"></path><path d=" M15.738999999999999,64.61099999999999 C15.738999999999999,64.61099999999999 7.975,69.094 7.975,69.094 C7.764999999999999,69.216 7.598999999999999,69.502 7.6,69.73599999999999 C7.6,69.73599999999999 7.622999999999999,77.85199999999999 7.622999999999999,77.85199999999999 C7.622999999999999,78.086 7.789999999999999,78.181 8.001,78.05999999999999 C8.001,78.05999999999999 15.764,73.577 15.764,73.577 C15.975,73.45599999999999 16.141,73.169 16.14,72.934 C16.14,72.934 16.116999999999997,64.81899999999999 16.116999999999997,64.81899999999999 C16.116,64.58399999999999 15.95,64.48899999999999 15.738999999999999,64.61099999999999z" style="fill: rgb(255, 255, 255); fill-opacity: 1;"></path><path d=" M25.674,58.875 C25.674,58.875 17.903,63.362 17.903,63.362 C17.698999999999998,63.48 17.534,63.766 17.534999999999997,64 C17.534999999999997,64 17.557,72.116 17.557,72.116 C17.557,72.35 17.723999999999997,72.445 17.927999999999997,72.327 C17.927999999999997,72.327 25.698999999999998,67.841 25.698999999999998,67.841 C25.903999999999996,67.723 26.069,67.437 26.069,67.202 C26.069,67.202 26.043999999999997,59.086999999999996 26.043999999999997,59.086999999999996 C26.043999999999997,58.852 25.878,58.757 25.674,58.875z" style="fill: rgb(255, 255, 255); fill-opacity: 1;"></path><path d=" M34.893,53.55200000000001 C34.893,53.55200000000001 27.129,58.035000000000004 27.129,58.035000000000004 C26.919,58.157000000000004 26.753,58.443000000000005 26.754,58.67700000000001 C26.754,58.67700000000001 26.777,66.793 26.777,66.793 C26.777,67.027 26.944000000000003,67.122 27.155,67.001 C27.155,67.001 34.918,62.518 34.918,62.518 C35.129000000000005,62.397000000000006 35.295,62.11000000000001 35.294,61.875 C35.294,61.875 35.271,53.760000000000005 35.271,53.760000000000005 C35.27,53.525000000000006 35.104,53.43000000000001 34.893,53.55200000000001z" style="fill: rgb(255, 255, 255); fill-opacity: 1;"></path><path d=" M13.835,76.322 C13.835,76.322 10.649000000000001,78.161 10.649000000000001,78.161 C10.547,78.22 10.47,78.36 10.47,78.47 C10.47,78.47 10.472000000000001,78.874 10.472000000000001,78.874 C10.472000000000001,78.991 10.548,79.035 10.65,78.976 C10.65,78.976 13.836,77.136 13.836,77.136 C13.938,77.077 14.016,76.94500000000001 14.016,76.828 C14.016,76.828 14.013,76.424 14.013,76.424 C14.013,76.31400000000001 13.937000000000001,76.263 13.835,76.322z" style="fill: rgb(255, 255, 255); fill-opacity: 1;"></path><path d=" M23.061,70.99600000000001 C23.061,70.99600000000001 19.869,72.839 19.869,72.839 C19.773,72.894 19.69,73.038 19.69,73.148 C19.69,73.148 19.692,73.551 19.692,73.551 C19.692,73.669 19.775000000000002,73.709 19.871000000000002,73.653 C19.871000000000002,73.653 23.063000000000002,71.81 23.063000000000002,71.81 C23.159000000000002,71.75500000000001 23.242,71.619 23.241,71.50200000000001 C23.241,71.50200000000001 23.240000000000002,71.098 23.240000000000002,71.098 C23.240000000000002,70.988 23.157,70.941 23.061,70.99600000000001z" style="fill: rgb(255, 255, 255); fill-opacity: 1;"></path><path d=" M32.989,65.264 C32.989,65.264 29.802999999999997,67.103 29.802999999999997,67.103 C29.700999999999997,67.16199999999999 29.624,67.30199999999999 29.624,67.41199999999999 C29.624,67.41199999999999 29.625999999999998,67.81599999999999 29.625999999999998,67.81599999999999 C29.625999999999998,67.93299999999999 29.701999999999998,67.97699999999999 29.804,67.91799999999999 C29.804,67.91799999999999 32.989999999999995,66.07799999999999 32.989999999999995,66.07799999999999 C33.092,66.01899999999999 33.17,65.887 33.17,65.77 C33.17,65.77 33.167,65.366 33.167,65.366 C33.167,65.256 33.091,65.205 32.989,65.264z" style="fill: rgb(255, 255, 255); fill-opacity: 1;"></path></g><g transform="matrix(1,0,0,1,295.606,207.26365388752896)" style="user-select: none;"><path d=" M41.183,5.347999999999999 C41.183,5.347999999999999 41.359,67.57 41.359,67.57 C41.362,68.451 40.717,69.30799999999999 39.95,69.751 C39.95,69.751 2.8550000000000004,91.169 2.8550000000000004,91.169 C2.088000000000001,91.612 1.3919999999999995,91.44999999999999 1.3900000000000006,90.56899999999999 C1.3900000000000006,90.56899999999999 1.2139999999999986,28.347999999999995 1.2139999999999986,28.347999999999995 C1.2139999999999986,28.347999999999995 41.183,5.347999999999999 41.183,5.347999999999999z" style="fill: rgb(226, 226, 226); fill-opacity: 1;"></path><path d=" M1.4789999999999999,90.595 C1.4789999999999999,90.595 1.302,28.374000000000002 1.302,28.374000000000002 C1.302,28.374000000000002 0.2729999999999999,27.776000000000003 0.2729999999999999,27.776000000000003 C0.2729999999999999,27.776000000000003 0.44899999999999995,89.997 0.44899999999999995,89.997 C0.44999999999999996,90.38300000000001 0.567,90.626 0.7629999999999999,90.74000000000001 C0.7629999999999999,90.74000000000001 1.793,91.338 1.793,91.338 C1.597,91.224 1.48,90.981 1.4789999999999999,90.595z" style="fill: rgb(191, 191, 191); fill-opacity: 1;"></path><path d=" M39.696,1.173 C40.495,0.7119999999999997 41.17,1.1530000000000005 41.173,2.0709999999999997 C41.173,2.0709999999999997 41.183,6.051 41.183,6.051 C41.183,6.051 1.3030000000000008,29.078 1.3030000000000008,29.078 C1.3030000000000008,29.078 1.032,25.055999999999997 1.032,25.055999999999997 C1.0300000000000011,24.137999999999998 1.7579999999999991,22.72 2.5569999999999986,22.259 C2.5569999999999986,22.259 39.696,1.173 39.696,1.173z" style="fill: rgb(252, 252, 252); fill-opacity: 1;"></path><path d=" M0.2729999999999997,28.479 C0.2729999999999997,28.479 1.3019999999999996,29.076999999999998 1.3019999999999996,29.076999999999998 C1.3019999999999996,29.076999999999998 1.2910000000000004,25.098 1.2910000000000004,25.098 C1.2910000000000004,25.098 1.721,23.098 2.7169999999999987,22.523 C3.7119999999999997,21.948 39.702,1.190999999999999 39.702,1.190999999999999 C39.702,1.190999999999999 40.245999999999995,0.8179999999999996 40.806,1.157 C40.806,1.157 39.683,0.4969999999999999 39.683,0.4969999999999999 C39.683,0.4969999999999999 39.230000000000004,0.25 38.666,0.5749999999999993 C38.102000000000004,0.9009999999999998 1.6879999999999988,21.926 1.6879999999999988,21.926 C1.6879999999999988,21.926 0.2729999999999997,22.770000000000003 0.26200000000000045,24.499000000000002 C0.25,26.361 0.2729999999999997,28.479 0.2729999999999997,28.479z" style="fill: rgb(230, 230, 230); fill-opacity: 1;"></path><path d=" M34.473,28.187999999999995 C34.473,28.187999999999995 21.723,35.549 21.723,35.549 C21.326999999999998,35.778 21.000999999999998,36.339999999999996 21.003,36.794999999999995 C21.003,36.794999999999995 21.028999999999996,45.738 21.028999999999996,45.738 C21.029999999999998,46.193 21.357,46.379 21.753,46.15 C21.753,46.15 34.503,38.788999999999994 34.503,38.788999999999994 C34.899,38.561 35.222,37.998999999999995 35.221,37.544 C35.221,37.544 35.196999999999996,28.599999999999994 35.196999999999996,28.599999999999994 C35.196,28.145999999999994 34.869,27.958999999999996 34.473,28.187999999999995z" style="fill: rgb(255, 255, 255); fill-opacity: 1;"></path><path d=" M19.246,41.881 C19.246,41.881 7.893999999999999,48.435 7.893999999999999,48.435 C7.695999999999999,48.549 7.536999999999999,48.825 7.537999999999999,49.052 C7.537999999999999,49.272 7.6979999999999995,49.364 7.896,49.249 C7.896,49.249 19.247999999999998,42.695 19.247999999999998,42.695 C19.439999999999998,42.585 19.599,42.309 19.598,42.089 C19.598,41.862 19.438,41.77 19.246,41.881z" style="fill: rgb(255, 255, 255); fill-opacity: 1;"></path><path d=" M19.239,39.438 C19.239,39.438 7.887,45.992000000000004 7.887,45.992000000000004 C7.688999999999999,46.106 7.529999999999999,46.382000000000005 7.531,46.602000000000004 C7.531,46.829 7.691,46.921 7.889,46.806000000000004 C7.889,46.806000000000004 19.241,40.252 19.241,40.252 C19.433,40.142 19.592,39.866 19.591,39.639 C19.591,39.419000000000004 19.431,39.327000000000005 19.239,39.438z" style="fill: rgb(255, 255, 255); fill-opacity: 1;"></path><path d=" M19.232,36.987 C19.232,36.987 7.88,43.541000000000004 7.88,43.541000000000004 C7.6819999999999995,43.655 7.523,43.931000000000004 7.524,44.158 C7.524,44.386 7.684,44.47 7.882000000000001,44.355000000000004 C7.882000000000001,44.355000000000004 19.234,37.801 19.234,37.801 C19.426000000000002,37.691 19.585,37.423 19.584,37.195 C19.584,36.968 19.424,36.876000000000005 19.232,36.987z" style="fill: rgb(255, 255, 255); fill-opacity: 1;"></path><path d=" M34.915,55.695 C34.915,55.695 7.959,71.258 7.959,71.258 C7.760999999999999,71.372 7.6019999999999985,71.648 7.602999999999998,71.875 C7.602999999999998,72.095 7.762999999999998,72.187 7.9609999999999985,72.072 C7.9609999999999985,72.072 34.917,56.509 34.917,56.509 C35.114999999999995,56.395 35.274,56.119 35.274,55.899 C35.272999999999996,55.672 35.113,55.581 34.915,55.695z" style="fill: rgb(255, 255, 255); fill-opacity: 1;"></path><path d=" M34.922,58.342 C34.922,58.342 7.966000000000001,73.905 7.966000000000001,73.905 C7.768000000000001,74.01899999999999 7.609,74.29599999999999 7.609999999999999,74.523 C7.609999999999999,74.751 7.77,74.842 7.968,74.728 C7.968,74.728 34.924,59.165 34.924,59.165 C35.122,59.05 35.281,58.775 35.281,58.547 C35.28,58.31999999999999 35.120000000000005,58.227999999999994 34.922,58.342z" style="fill: rgb(255, 255, 255); fill-opacity: 1;"></path><path d=" M34.929,60.996 C34.929,60.996 7.9730000000000025,76.559 7.9730000000000025,76.559 C7.775000000000002,76.673 7.616000000000001,76.949 7.617000000000001,77.169 C7.617000000000001,77.396 7.777000000000001,77.488 7.975000000000001,77.373 C7.975000000000001,77.373 34.931,61.81 34.931,61.81 C35.129000000000005,61.696000000000005 35.288000000000004,61.421 35.288000000000004,61.193000000000005 C35.287000000000006,60.973 35.127,60.882000000000005 34.929,60.996z" style="fill: rgb(255, 255, 255); fill-opacity: 1;"></path><path d=" M34.935,63.645999999999994 C34.935,63.645999999999994 7.978999999999999,79.20899999999999 7.978999999999999,79.20899999999999 C7.780999999999999,79.323 7.621999999999998,79.59899999999999 7.6229999999999976,79.826 C7.6229999999999976,80.04599999999999 7.782999999999998,80.13799999999999 7.980999999999998,80.023 C7.980999999999998,80.023 34.937,64.46 34.937,64.46 C35.135,64.34599999999999 35.294,64.07 35.294,63.849999999999994 C35.293,63.62299999999999 35.132999999999996,63.532 34.935,63.645999999999994z" style="fill: rgb(255, 255, 255); fill-opacity: 1;"></path><path d=" M34.945,66.297 C34.945,66.297 7.989000000000001,81.86 7.989000000000001,81.86 C7.791,81.974 7.632,82.24300000000001 7.632999999999999,82.47 C7.632999999999999,82.697 7.792999999999999,82.789 7.991,82.674 C7.991,82.674 34.947,67.111 34.947,67.111 C35.144999999999996,66.997 35.304,66.721 35.304,66.494 C35.303,66.26700000000001 35.143,66.183 34.945,66.297z" style="fill: rgb(255, 255, 255); fill-opacity: 1;"></path><path d=" M21.032,49.013999999999996 C21.032,49.013999999999996 8.282,56.375 8.282,56.375 C7.885999999999999,56.604 7.56,57.159 7.561999999999999,57.620999999999995 C7.561999999999999,57.620999999999995 7.587999999999999,66.564 7.587999999999999,66.564 C7.5889999999999995,67.019 7.9159999999999995,67.205 8.312,66.977 C8.312,66.977 21.061999999999998,59.614999999999995 21.061999999999998,59.614999999999995 C21.458,59.387 21.781,58.824999999999996 21.78,58.37 C21.78,58.37 21.756,49.425999999999995 21.756,49.425999999999995 C21.753999999999998,48.964 21.427999999999997,48.785 21.032,49.013999999999996z" style="fill: rgb(255, 255, 255); fill-opacity: 1;"></path><path d=" M34.873,41.022 C34.873,41.022 23.521,47.577 23.521,47.577 C23.330000000000002,47.687999999999995 23.17,47.963 23.171,48.190999999999995 C23.172,48.411 23.332,48.501999999999995 23.523,48.391 C23.523,48.391 34.875,41.836999999999996 34.875,41.836999999999996 C35.073,41.723 35.232,41.446 35.232,41.226 C35.231,40.998999999999995 35.071,40.908 34.873,41.022z" style="fill: rgb(255, 255, 255); fill-opacity: 1;"></path><path d=" M34.879999999999995,43.466 C34.879999999999995,43.466 23.528,50.02 23.528,50.02 C23.337,50.131 23.177,50.406 23.177999999999997,50.634 C23.179,50.861000000000004 23.339,50.952 23.529999999999998,50.842 C23.529999999999998,50.842 34.882,44.288000000000004 34.882,44.288000000000004 C35.08,44.173 35.239,43.898 35.239,43.67 C35.238,43.443 35.077999999999996,43.352000000000004 34.879999999999995,43.466z" style="fill: rgb(255, 255, 255); fill-opacity: 1;"></path><path d=" M34.887,45.916 C34.887,45.916 23.535,52.471 23.535,52.471 C23.344,52.581999999999994 23.183999999999997,52.857 23.185,53.077 C23.186,53.305 23.346,53.395999999999994 23.537,53.285 C23.537,53.285 34.889,46.730999999999995 34.889,46.730999999999995 C35.087,46.617 35.246,46.340999999999994 35.246,46.113 C35.245,45.892999999999994 35.085,45.802 34.887,45.916z" style="fill: rgb(255, 255, 255); fill-opacity: 1;"></path><path d=" M34.433,14.330000000000002 C34.433,14.330000000000002 8.205,29.473000000000003 8.205,29.473000000000003 C7.808999999999999,29.701 7.483999999999998,30.264000000000003 7.485999999999999,30.718000000000004 C7.485999999999999,30.718000000000004 7.510999999999999,39.662000000000006 7.510999999999999,39.662000000000006 C7.511999999999999,40.124 7.838999999999999,40.303 8.235,40.074 C8.235,40.074 34.463,24.931 34.463,24.931 C34.859,24.703000000000003 35.184,24.148000000000003 35.182,23.686 C35.182,23.686 35.157,14.742 35.157,14.742 C35.156,14.288 34.829,14.101000000000003 34.433,14.330000000000002z" style="fill: rgb(255, 255, 255); fill-opacity: 1;"></path></g><g transform="matrix(1,0,0,1,295.606,325.40065388752896)" style="user-select: none;"><path d=" M41.183,5.347999999999999 C41.183,5.347999999999999 41.359,67.57 41.359,67.57 C41.362,68.451 40.717,69.30799999999999 39.95,69.751 C39.95,69.751 2.8550000000000004,91.169 2.8550000000000004,91.169 C2.088000000000001,91.612 1.3919999999999995,91.44999999999999 1.3900000000000006,90.56899999999999 C1.3900000000000006,90.56899999999999 1.2139999999999986,28.346999999999998 1.2139999999999986,28.346999999999998 C1.2139999999999986,28.346999999999998 41.183,5.347999999999999 41.183,5.347999999999999z" style="fill: rgb(226, 226, 226); fill-opacity: 1;"></path><path d=" M1.4789999999999999,90.595 C1.4789999999999999,90.595 1.302,28.374000000000002 1.302,28.374000000000002 C1.302,28.374000000000002 0.2729999999999999,27.776000000000003 0.2729999999999999,27.776000000000003 C0.2729999999999999,27.776000000000003 0.44899999999999995,89.997 0.44899999999999995,89.997 C0.44999999999999996,90.38300000000001 0.567,90.626 0.7629999999999999,90.74000000000001 C0.7629999999999999,90.74000000000001 1.793,91.338 1.793,91.338 C1.597,91.224 1.48,90.981 1.4789999999999999,90.595z" style="fill: rgb(191, 191, 191); fill-opacity: 1;"></path><path d=" M39.696,1.173 C40.495,0.7119999999999997 41.17,1.1530000000000005 41.173,2.0709999999999997 C41.173,2.0709999999999997 41.183,6.051 41.183,6.051 C41.183,6.051 1.3030000000000008,29.076 1.3030000000000008,29.076 C1.3030000000000008,29.076 1.032,25.055 1.032,25.055 C1.0300000000000011,24.137 1.7579999999999991,22.719 2.5569999999999986,22.258 C2.5569999999999986,22.258 39.696,1.173 39.696,1.173z" style="fill: rgb(252, 252, 252); fill-opacity: 1;"></path><path d=" M0.2729999999999997,28.479 C0.2729999999999997,28.479 1.3019999999999996,29.076999999999998 1.3019999999999996,29.076999999999998 C1.3019999999999996,29.076999999999998 1.2910000000000004,25.098 1.2910000000000004,25.098 C1.2910000000000004,25.098 1.721,23.098 2.7169999999999987,22.523 C3.7119999999999997,21.948 39.702,1.190999999999999 39.702,1.190999999999999 C39.702,1.190999999999999 40.245999999999995,0.8179999999999996 40.806,1.157 C40.806,1.157 39.683,0.4969999999999999 39.683,0.4969999999999999 C39.683,0.4969999999999999 39.230000000000004,0.25 38.666,0.5749999999999993 C38.102000000000004,0.9009999999999998 1.6879999999999988,21.926 1.6879999999999988,21.926 C1.6879999999999988,21.926 0.2729999999999997,22.770000000000003 0.26200000000000045,24.499000000000002 C0.25,26.361 0.2729999999999997,28.479 0.2729999999999997,28.479z" style="fill: rgb(230, 230, 230); fill-opacity: 1;"></path><path d=" M20.994,34.925999999999995 C20.994,34.925999999999995 8.244,42.287 8.244,42.287 C7.847999999999999,42.516 7.521999999999999,43.077999999999996 7.523999999999999,43.532999999999994 C7.523999999999999,43.532999999999994 7.549999999999999,52.476 7.549999999999999,52.476 C7.550999999999999,52.931 7.877999999999999,53.117 8.274,52.888999999999996 C8.274,52.888999999999996 21.024,45.526999999999994 21.024,45.526999999999994 C21.419999999999998,45.299 21.743,44.736999999999995 21.741999999999997,44.282 C21.741999999999997,44.282 21.718,35.337999999999994 21.718,35.337999999999994 C21.717,34.88399999999999 21.39,34.696999999999996 20.994,34.925999999999995z" style="fill: rgb(255, 255, 255); fill-opacity: 1;"></path><path d=" M34.835,26.933 C34.835,26.933 23.483,33.488 23.483,33.488 C23.292,33.599 23.131999999999998,33.874 23.133,34.102 C23.134,34.329 23.294,34.413 23.485,34.302 C23.485,34.302 34.837,27.748 34.837,27.748 C35.035000000000004,27.634 35.194,27.365 35.194,27.137 C35.193,26.91 35.033,26.819 34.835,26.933z" style="fill: rgb(255, 255, 255); fill-opacity: 1;"></path><path d=" M34.842,29.384 C34.842,29.384 23.490000000000002,35.939 23.490000000000002,35.939 C23.299000000000003,36.05 23.139000000000003,36.325 23.14,36.545 C23.141000000000002,36.773 23.301000000000002,36.864 23.492,36.753 C23.492,36.753 34.844,30.199 34.844,30.199 C35.042,30.085 35.201,29.808 35.201,29.581 C35.2,29.361 35.04,29.27 34.842,29.384z" style="fill: rgb(255, 255, 255); fill-opacity: 1;"></path><path d=" M34.849,31.826999999999998 C34.849,31.826999999999998 23.497,38.382 23.497,38.382 C23.306,38.492999999999995 23.146,38.768 23.147,38.995999999999995 C23.148,39.216 23.308,39.306999999999995 23.499,39.196 C23.499,39.196 34.851,32.641999999999996 34.851,32.641999999999996 C35.049,32.528 35.208,32.251 35.208,32.031 C35.207,31.804 35.047,31.712999999999997 34.849,31.826999999999998z" style="fill: rgb(255, 255, 255); fill-opacity: 1;"></path><path d=" M34.914,54.651 C34.914,54.651 7.958000000000002,70.214 7.958000000000002,70.214 C7.760000000000002,70.328 7.601000000000001,70.604 7.602,70.831 C7.602,71.051 7.7620000000000005,71.143 7.960000000000001,71.028 C7.960000000000001,71.028 34.916,55.465 34.916,55.465 C35.114000000000004,55.351000000000006 35.273,55.075 35.273,54.855000000000004 C35.272000000000006,54.628 35.112,54.537000000000006 34.914,54.651z" style="fill: rgb(255, 255, 255); fill-opacity: 1;"></path><path d=" M34.92,57.297 C34.92,57.297 7.964000000000002,72.86 7.964000000000002,72.86 C7.766000000000002,72.97399999999999 7.607000000000001,73.25099999999999 7.6080000000000005,73.478 C7.6080000000000005,73.70599999999999 7.768000000000001,73.797 7.966000000000001,73.68299999999999 C7.966000000000001,73.68299999999999 34.922,58.12 34.922,58.12 C35.120000000000005,58.004999999999995 35.279,57.73 35.279,57.501999999999995 C35.278000000000006,57.27499999999999 35.118,57.18299999999999 34.92,57.297z" style="fill: rgb(255, 255, 255); fill-opacity: 1;"></path><path d=" M34.927,59.951 C34.927,59.951 7.971,75.514 7.971,75.514 C7.773,75.628 7.613999999999999,75.904 7.614999999999998,76.124 C7.614999999999998,76.351 7.774999999999999,76.443 7.972999999999999,76.328 C7.972999999999999,76.328 34.929,60.765 34.929,60.765 C35.126999999999995,60.651 35.286,60.375 35.286,60.148 C35.285,59.928 35.125,59.837 34.927,59.951z" style="fill: rgb(255, 255, 255); fill-opacity: 1;"></path><path d=" M34.937,62.601000000000006 C34.937,62.601000000000006 7.981000000000002,78.164 7.981000000000002,78.164 C7.783000000000001,78.278 7.6240000000000006,78.554 7.625,78.781 C7.625,79.001 7.785,79.093 7.9830000000000005,78.97800000000001 C7.9830000000000005,78.97800000000001 34.939,63.415000000000006 34.939,63.415000000000006 C35.137,63.30100000000001 35.296,63.025000000000006 35.296,62.80500000000001 C35.295,62.578 35.135000000000005,62.48700000000001 34.937,62.601000000000006z" style="fill: rgb(255, 255, 255); fill-opacity: 1;"></path><path d=" M34.944,65.25200000000001 C34.944,65.25200000000001 7.9879999999999995,80.815 7.9879999999999995,80.815 C7.789999999999999,80.929 7.6309999999999985,81.19800000000001 7.631999999999998,81.425 C7.631999999999998,81.652 7.791999999999998,81.744 7.989999999999998,81.629 C7.989999999999998,81.629 34.946,66.066 34.946,66.066 C35.144,65.952 35.303,65.676 35.303,65.449 C35.302,65.22200000000001 35.141999999999996,65.138 34.944,65.25200000000001z" style="fill: rgb(255, 255, 255); fill-opacity: 1;"></path><path d=" M34.16,14.265999999999998 C34.16,14.265999999999998 8.48,29.092 8.48,29.092 C7.931000000000001,29.409 7.484999999999999,30.173 7.487,30.804 C7.487,30.804 7.511000000000001,39.123999999999995 7.511000000000001,39.123999999999995 C7.5120000000000005,39.747 7.961000000000002,40.003 8.510000000000002,39.686 C8.510000000000002,39.686 34.19,24.86 34.19,24.86 C34.739000000000004,24.543 35.184,23.771 35.182,23.148 C35.182,23.148 35.159,14.828 35.159,14.828 C35.157,14.197 34.709,13.948999999999998 34.16,14.265999999999998z" style="fill: rgb(255, 255, 255); fill-opacity: 1;"></path><path d=" M15.699,51.047 C15.699,51.047 7.9350000000000005,55.529 7.9350000000000005,55.529 C7.725,55.651 7.559,55.938 7.5600000000000005,56.172000000000004 C7.5600000000000005,56.172000000000004 7.583,64.287 7.583,64.287 C7.583,64.521 7.75,64.617 7.961,64.496 C7.961,64.496 15.724,60.013 15.724,60.013 C15.935,59.892 16.101,59.604 16.1,59.369 C16.1,59.369 16.076999999999998,51.255 16.076999999999998,51.255 C16.076,51.02 15.91,50.925 15.699,51.047z" style="fill: rgb(255, 255, 255); fill-opacity: 1;"></path><path d=" M25.634,45.311 C25.634,45.311 17.863,49.797 17.863,49.797 C17.659,49.915 17.494,50.202 17.494999999999997,50.436 C17.494999999999997,50.436 17.517,58.551 17.517,58.551 C17.517,58.785 17.683999999999997,58.879999999999995 17.887999999999998,58.762 C17.887999999999998,58.762 25.659,54.277 25.659,54.277 C25.863999999999997,54.159 26.029,53.872 26.029,53.637 C26.029,53.637 26.003999999999998,45.522999999999996 26.003999999999998,45.522999999999996 C26.003999999999998,45.288 25.838,45.193 25.634,45.311z" style="fill: rgb(255, 255, 255); fill-opacity: 1;"></path><path d=" M34.853,39.989000000000004 C34.853,39.989000000000004 27.089000000000002,44.471000000000004 27.089000000000002,44.471000000000004 C26.879,44.593 26.713,44.88 26.714000000000002,45.114000000000004 C26.714000000000002,45.114000000000004 26.737000000000002,53.229 26.737000000000002,53.229 C26.737000000000002,53.463 26.904000000000003,53.559 27.115000000000002,53.438 C27.115000000000002,53.438 34.878,48.955 34.878,48.955 C35.089,48.833 35.255,48.547000000000004 35.254000000000005,48.312 C35.254000000000005,48.312 35.231,40.197 35.231,40.197 C35.230000000000004,39.962 35.064,39.867000000000004 34.853,39.989000000000004z" style="fill: rgb(255, 255, 255); fill-opacity: 1;"></path><path d=" M13.795,62.766000000000005 C13.795,62.766000000000005 10.609,64.605 10.609,64.605 C10.507,64.664 10.43,64.797 10.43,64.914 C10.43,64.914 10.431999999999999,65.318 10.431999999999999,65.318 C10.431999999999999,65.428 10.508,65.479 10.61,65.42 C10.61,65.42 13.796,63.580000000000005 13.796,63.580000000000005 C13.898,63.521 13.975999999999999,63.382000000000005 13.975999999999999,63.272000000000006 C13.975999999999999,63.272000000000006 13.972999999999999,62.868 13.972999999999999,62.868 C13.972999999999999,62.751000000000005 13.897,62.707 13.795,62.766000000000005z" style="fill: rgb(255, 255, 255); fill-opacity: 1;"></path><path d=" M23.02,57.439 C23.02,57.439 19.828,59.282000000000004 19.828,59.282000000000004 C19.732,59.337 19.649,59.473 19.649,59.591 C19.649,59.591 19.651,59.994 19.651,59.994 C19.651,60.104 19.734,60.152 19.830000000000002,60.096000000000004 C19.830000000000002,60.096000000000004 23.022000000000002,58.253 23.022000000000002,58.253 C23.118000000000002,58.198 23.201,58.055 23.2,57.945 C23.2,57.945 23.199,57.541000000000004 23.199,57.541000000000004 C23.199,57.424 23.116,57.384 23.02,57.439z" style="fill: rgb(255, 255, 255); fill-opacity: 1;"></path><path d=" M32.948,51.707 C32.948,51.707 29.762,53.546 29.762,53.546 C29.66,53.605 29.583000000000002,53.738 29.584000000000003,53.855 C29.584000000000003,53.855 29.585,54.259 29.585,54.259 C29.585,54.369 29.662000000000003,54.42 29.764000000000003,54.361 C29.764000000000003,54.361 32.95,52.521 32.95,52.521 C33.052,52.461999999999996 33.129000000000005,52.323 33.129000000000005,52.213 C33.129000000000005,52.213 33.127,51.809 33.127,51.809 C33.127,51.692 33.050000000000004,51.647999999999996 32.948,51.707z" style="fill: rgb(255, 255, 255); fill-opacity: 1;"></path></g><g transform="matrix(1,0,0,1,313.5,149.16065388752895)" style="user-select: none;"><g style="stroke-linecap: round; stroke-linejoin: round; fill-opacity: 0; stroke: rgb(255, 255, 255); stroke-opacity: 1; stroke-width: 2;"><path d=" M45,7.156000000000001 C45,5.765000000000001 43.535,5 41.93,5 C41.93,5 7,5 7,5"></path></g><g style="stroke-linecap: round; stroke-linejoin: round; fill-opacity: 0; stroke: rgb(255, 255, 255); stroke-opacity: 1; stroke-width: 2;"><path d=" M5,223 C5,223 41.93,223 41.93,223 C43.535,223 45,221.82500000000002 45,220.43400000000003"></path></g></g><g transform="matrix(1,0,0,1,353.5,151.16065388752895)" style="user-select: none;"><g style="stroke-linecap: round; stroke-linejoin: round; fill-opacity: 0; stroke: rgb(255, 255, 255); stroke-opacity: 1; stroke-width: 2;"><path d=" M5,218 C5,218 5,5 5,5"></path></g></g><g transform="matrix(1,0,0,1,353.5,221.16065388752895)" style="user-select: none;"><g style="stroke-linecap: round; stroke-linejoin: round; fill-opacity: 0; stroke: rgb(255, 255, 255); stroke-opacity: 1; stroke-width: 2;"><path d=" M5,5 C5,5 41,5 41,5"></path></g></g><g transform="matrix(1,0,0,1,353.5,294.16065388752895)" style="user-select: none;"><g style="stroke-linecap: round; stroke-linejoin: round; fill-opacity: 0; stroke: rgb(255, 255, 255); stroke-opacity: 1; stroke-width: 2;"><path d=" M5,5 C5,5 41,5 41,5"></path></g></g><g transform="matrix(1,0,0,1,383.69100000000003,188.89565388752894)" style="user-select: none;"><path d=" M27.239,3.612000000000002 C27.239,3.612000000000002 27.355,44.638000000000005 27.355,44.638000000000005 C27.357,45.219 26.932000000000002,45.784000000000006 26.426000000000002,46.077 C26.426000000000002,46.077 1.9670000000000005,60.197 1.9670000000000005,60.197 C1.4610000000000003,60.49 1.0030000000000001,60.383 1.0020000000000007,59.80200000000001 C1.0020000000000007,59.80200000000001 0.8849999999999998,18.776000000000003 0.8849999999999998,18.776000000000003 C0.8849999999999998,18.776000000000003 27.239,3.612000000000002 27.239,3.612000000000002z" style="fill: rgb(226, 226, 226); fill-opacity: 1;"></path><path d=" M1.06,59.818 C1.06,59.818 0.944,18.793 0.944,18.793 C0.944,18.793 0.265,18.4 0.265,18.4 C0.265,18.4 0.382,59.424 0.382,59.424 C0.382,59.678 0.46,59.84 0.589,59.915 C0.589,59.915 1.267,60.308 1.267,60.308 C1.138,60.233000000000004 1.061,60.07299999999999 1.06,59.818z" style="fill: rgb(191, 191, 191); fill-opacity: 1;"></path><path d=" M26.258,0.859 C26.784999999999997,0.5549999999999997 27.229999999999997,0.8460000000000001 27.232,1.4510000000000005 C27.232,1.4510000000000005 27.238999999999997,4.075 27.238999999999997,4.075 C27.238999999999997,4.075 0.9429999999999996,19.257 0.9429999999999996,19.257 C0.9429999999999996,19.257 0.766,16.605 0.766,16.605 C0.7639999999999993,16 1.2439999999999998,15.065000000000001 1.770999999999999,14.761000000000001 C1.770999999999999,14.761000000000001 26.258,0.859 26.258,0.859z" style="fill: rgb(252, 252, 252); fill-opacity: 1;"></path><path d=" M0.2649999999999988,18.863 C0.2649999999999988,18.863 0.9429999999999996,19.258 0.9429999999999996,19.258 C0.9429999999999996,19.258 0.9359999999999999,16.634 0.9359999999999999,16.634 C0.9359999999999999,16.634 1.2199999999999989,15.315999999999999 1.8759999999999994,14.937 C2.5329999999999995,14.558 26.262,0.8699999999999992 26.262,0.8699999999999992 C26.262,0.8699999999999992 26.621,0.6249999999999982 26.99,0.847999999999999 C26.99,0.847999999999999 26.25,0.41199999999999903 26.25,0.41199999999999903 C26.25,0.41199999999999903 25.951,0.25 25.579,0.46499999999999986 C25.207,0.6799999999999997 1.1979999999999986,14.542 1.1979999999999986,14.542 C1.1979999999999986,14.542 0.2649999999999988,15.1 0.2579999999999991,16.24 C0.25,17.467 0.2649999999999988,18.863 0.2649999999999988,18.863z" style="fill: rgb(230, 230, 230); fill-opacity: 1;"></path><path d=" M22.796000000000003,38.601 C22.796000000000003,38.601 15.530000000000001,42.797 15.530000000000001,42.797 C15.377000000000002,42.885 15.262000000000002,43.090999999999994 15.263000000000002,43.26 C15.263000000000002,43.26 15.264000000000001,43.458 15.264000000000001,43.458 C15.264000000000001,43.626999999999995 15.379000000000001,43.699999999999996 15.533000000000001,43.611 C15.533000000000001,43.611 22.798000000000002,39.415 22.798000000000002,39.415 C22.945,39.330999999999996 23.066000000000003,39.120999999999995 23.066000000000003,38.952 C23.066000000000003,38.952 23.065,38.754 23.065,38.754 C23.065,38.586 22.943,38.516 22.796000000000003,38.601z" style="fill: rgb(255, 255, 255); fill-opacity: 1;"></path><path d=" M22.8,40.230000000000004 C22.8,40.230000000000004 15.533999999999999,44.426 15.533999999999999,44.426 C15.381,44.514 15.266,44.72 15.267,44.889 C15.267,44.889 15.267999999999999,45.087 15.267999999999999,45.087 C15.267999999999999,45.256 15.383,45.329 15.536999999999999,45.24 C15.536999999999999,45.24 22.802,41.044000000000004 22.802,41.044000000000004 C22.948999999999998,40.96 23.07,40.75 23.07,40.581 C23.07,40.581 23.069,40.383 23.069,40.383 C23.069,40.215 22.947,40.145 22.8,40.230000000000004z" style="fill: rgb(255, 255, 255); fill-opacity: 1;"></path><path d=" M22.805,41.858000000000004 C22.805,41.858000000000004 15.537999999999998,46.054 15.537999999999998,46.054 C15.384999999999998,46.142 15.270999999999997,46.348 15.270999999999997,46.517 C15.270999999999997,46.517 15.272999999999998,46.715 15.272999999999998,46.715 C15.272999999999998,46.891000000000005 15.387999999999998,46.957 15.541999999999998,46.868 C15.541999999999998,46.868 22.805999999999997,42.672000000000004 22.805999999999997,42.672000000000004 C22.953,42.588 23.075,42.385000000000005 23.075,42.209 C23.075,42.209 23.072999999999997,42.011 23.072999999999997,42.011 C23.072999999999997,41.843 22.951999999999998,41.773 22.805,41.858000000000004z" style="fill: rgb(255, 255, 255); fill-opacity: 1;"></path><path d=" M22.532,19.971000000000004 C22.532,19.971000000000004 13.555,25.155 13.555,25.155 C13.293000000000001,25.306 13.077000000000002,25.680000000000003 13.078000000000001,25.98 C13.078000000000001,25.98 13.093,31.402 13.093,31.402 C13.094000000000001,31.71 13.312000000000001,31.827 13.574000000000002,31.676000000000002 C13.574000000000002,31.676000000000002 22.55,26.493000000000002 22.55,26.493000000000002 C22.812,26.342000000000002 23.029,25.975 23.028,25.666 C23.028,25.666 23.012,20.245 23.012,20.245 C23.012,19.944000000000003 22.794,19.82 22.532,19.971000000000004z" style="fill: rgb(255, 255, 255); fill-opacity: 1;"></path><path d=" M22.56,29.756999999999998 C22.56,29.756999999999998 5.071999999999999,39.852999999999994 5.071999999999999,39.852999999999994 C4.8039999999999985,40.007999999999996 4.593,40.372 4.593999999999999,40.672999999999995 C4.593999999999999,40.672999999999995 4.610999999999999,46.102 4.610999999999999,46.102 C4.610999999999999,46.403 4.821999999999999,46.522999999999996 5.09,46.367999999999995 C5.09,46.367999999999995 22.576999999999998,36.272999999999996 22.576999999999998,36.272999999999996 C22.839,36.122 23.055999999999997,35.753 23.055,35.452 C23.055,35.452 23.039,30.022999999999996 23.039,30.022999999999996 C23.039,29.723 22.822,29.605999999999998 22.56,29.756999999999998z" style="fill: rgb(255, 255, 255); fill-opacity: 1;"></path><path d=" M13.992999999999999,15.105 C13.992999999999999,15.105 5.015999999999999,20.289 5.015999999999999,20.289 C4.747999999999999,20.444000000000003 4.537999999999999,20.806 4.539,21.114 C4.539,21.114 4.553999999999999,26.536 4.553999999999999,26.536 C4.555,26.837 4.765999999999999,26.965 5.034999999999999,26.810000000000002 C5.034999999999999,26.810000000000002 14.011,21.627000000000002 14.011,21.627000000000002 C14.273,21.476 14.489999999999998,21.101 14.488999999999999,20.8 C14.488999999999999,20.8 14.472999999999999,15.379000000000001 14.472999999999999,15.379000000000001 C14.472999999999999,15.071000000000002 14.254999999999999,14.954 13.992999999999999,15.105z" style="fill: rgb(255, 255, 255); fill-opacity: 1;"></path><path d=" M22.715,10.069 C22.715,10.069 15.447999999999999,14.265 15.447999999999999,14.265 C15.294999999999998,14.353000000000002 15.180999999999997,14.559000000000001 15.180999999999997,14.728000000000002 C15.180999999999997,14.728000000000002 15.182999999999998,14.926 15.182999999999998,14.926 C15.182999999999998,15.095 15.297999999999998,15.168000000000001 15.451999999999998,15.079 C15.451999999999998,15.079 22.715999999999998,10.883000000000001 22.715999999999998,10.883000000000001 C22.863,10.799 22.985,10.589 22.985,10.42 C22.985,10.42 22.982999999999997,10.222000000000001 22.982999999999997,10.222000000000001 C22.982999999999997,10.054 22.862,9.984 22.715,10.069z" style="fill: rgb(255, 255, 255); fill-opacity: 1;"></path><path d=" M22.719,11.698 C22.719,11.698 15.453,15.894 15.453,15.894 C15.3,15.982 15.185,16.188 15.186,16.357 C15.186,16.357 15.187,16.555 15.187,16.555 C15.187,16.724 15.302,16.797 15.456,16.708 C15.456,16.708 22.721,12.512 22.721,12.512 C22.868,12.428 22.989,12.218 22.989,12.049 C22.989,12.049 22.988,11.850999999999999 22.988,11.850999999999999 C22.988,11.683 22.866,11.613 22.719,11.698z" style="fill: rgb(255, 255, 255); fill-opacity: 1;"></path><path d=" M22.724,13.327 C22.724,13.327 15.457999999999998,17.523 15.457999999999998,17.523 C15.305,17.611 15.19,17.817 15.190999999999999,17.986 C15.190999999999999,17.986 15.191999999999998,18.184 15.191999999999998,18.184 C15.191999999999998,18.36 15.306999999999999,18.426 15.460999999999999,18.337 C15.460999999999999,18.337 22.726,14.141 22.726,14.141 C22.872999999999998,14.056999999999999 22.994,13.854 22.994,13.677999999999999 C22.994,13.677999999999999 22.993,13.48 22.993,13.48 C22.993,13.312 22.871,13.241999999999999 22.724,13.327z" style="fill: rgb(255, 255, 255); fill-opacity: 1;"></path><path d=" M14.074000000000002,43.635999999999996 C14.074000000000002,43.635999999999996 5.097,48.82 5.097,48.82 C4.829000000000001,48.975 4.619000000000001,49.338 4.620000000000001,49.639 C4.620000000000001,49.639 4.635000000000001,55.067 4.635000000000001,55.067 C4.636000000000001,55.368 4.848000000000001,55.496 5.1160000000000005,55.341 C5.1160000000000005,55.341 14.092,50.158 14.092,50.158 C14.354000000000001,50.007 14.571000000000002,49.632 14.57,49.331 C14.57,49.331 14.554,43.902 14.554,43.902 C14.554,43.602 14.336,43.485 14.074000000000002,43.635999999999996z" style="fill: rgb(255, 255, 255); fill-opacity: 1;"></path><path d=" M12.099,25.994 C12.099,25.994 4.833,30.189999999999998 4.833,30.189999999999998 C4.686000000000001,30.275 4.565000000000001,30.483999999999998 4.566000000000001,30.653 C4.566000000000001,30.653 4.567,30.851 4.567,30.851 C4.567,31.026999999999997 4.689000000000001,31.089 4.836,31.003999999999998 C4.836,31.003999999999998 12.101,26.808 12.101,26.808 C12.248000000000001,26.724 12.369,26.520999999999997 12.369,26.345 C12.369,26.345 12.368,26.147 12.368,26.147 C12.368,25.979 12.246,25.909 12.099,25.994z" style="fill: rgb(255, 255, 255); fill-opacity: 1;"></path><path d=" M12.104,27.623 C12.104,27.623 4.837999999999999,31.818 4.837999999999999,31.818 C4.691,31.903 4.57,32.112 4.571,32.281 C4.571,32.281 4.571999999999999,32.486 4.571999999999999,32.486 C4.571999999999999,32.655 4.694,32.724000000000004 4.840999999999999,32.64 C4.840999999999999,32.64 12.106,28.445 12.106,28.445 C12.253,28.36 12.373999999999999,28.15 12.373999999999999,27.982 C12.373999999999999,27.982 12.373,27.776 12.373,27.776 C12.373,27.608 12.251,27.538 12.104,27.623z" style="fill: rgb(255, 255, 255); fill-opacity: 1;"></path><path d=" M12.108,29.258000000000003 C12.108,29.258000000000003 4.8420000000000005,33.454 4.8420000000000005,33.454 C4.695000000000001,33.539 4.574000000000002,33.741 4.575000000000001,33.917 C4.575000000000001,33.917 4.5760000000000005,34.115 4.5760000000000005,34.115 C4.5760000000000005,34.284 4.698000000000001,34.353 4.845000000000001,34.268 C4.845000000000001,34.268 12.110000000000001,30.072000000000003 12.110000000000001,30.072000000000003 C12.257000000000001,29.988000000000003 12.378,29.778000000000002 12.378,29.609 C12.378,29.609 12.377,29.411 12.377,29.411 C12.377,29.235000000000003 12.255,29.173000000000002 12.108,29.258000000000003z" style="fill: rgb(255, 255, 255); fill-opacity: 1;"></path></g><g transform="matrix(1,0,0,1,383.69100000000003,261.89565388752897)" style="user-select: none;"><path d=" M27.239,3.612000000000002 C27.239,3.612000000000002 27.355,44.638000000000005 27.355,44.638000000000005 C27.357,45.219 26.932000000000002,45.784000000000006 26.426000000000002,46.077 C26.426000000000002,46.077 1.9670000000000005,60.197 1.9670000000000005,60.197 C1.4610000000000003,60.49 1.0030000000000001,60.383 1.0020000000000007,59.80200000000001 C1.0020000000000007,59.80200000000001 0.8849999999999998,18.776000000000003 0.8849999999999998,18.776000000000003 C0.8849999999999998,18.776000000000003 27.239,3.612000000000002 27.239,3.612000000000002z" style="fill: rgb(226, 226, 226); fill-opacity: 1;"></path><path d=" M1.06,59.818 C1.06,59.818 0.944,18.793 0.944,18.793 C0.944,18.793 0.265,18.4 0.265,18.4 C0.265,18.4 0.382,59.424 0.382,59.424 C0.382,59.678 0.46,59.84 0.589,59.915 C0.589,59.915 1.267,60.308 1.267,60.308 C1.138,60.233000000000004 1.061,60.07299999999999 1.06,59.818z" style="fill: rgb(191, 191, 191); fill-opacity: 1;"></path><path d=" M26.258,0.859 C26.784999999999997,0.5549999999999997 27.229999999999997,0.8460000000000001 27.232,1.4510000000000005 C27.232,1.4510000000000005 27.238999999999997,4.075 27.238999999999997,4.075 C27.238999999999997,4.075 0.9429999999999996,19.257 0.9429999999999996,19.257 C0.9429999999999996,19.257 0.766,16.605 0.766,16.605 C0.7639999999999993,16 1.2439999999999998,15.065000000000001 1.770999999999999,14.761000000000001 C1.770999999999999,14.761000000000001 26.258,0.859 26.258,0.859z" style="fill: rgb(252, 252, 252); fill-opacity: 1;"></path><path d=" M0.2649999999999988,18.863 C0.2649999999999988,18.863 0.9429999999999996,19.258 0.9429999999999996,19.258 C0.9429999999999996,19.258 0.9359999999999999,16.634 0.9359999999999999,16.634 C0.9359999999999999,16.634 1.2199999999999989,15.315999999999999 1.8759999999999994,14.937 C2.5329999999999995,14.558 26.262,0.8699999999999992 26.262,0.8699999999999992 C26.262,0.8699999999999992 26.621,0.6249999999999982 26.99,0.847999999999999 C26.99,0.847999999999999 26.25,0.41199999999999903 26.25,0.41199999999999903 C26.25,0.41199999999999903 25.951,0.25 25.579,0.46499999999999986 C25.207,0.6799999999999997 1.1979999999999986,14.542 1.1979999999999986,14.542 C1.1979999999999986,14.542 0.2649999999999988,15.1 0.2579999999999991,16.24 C0.25,17.467 0.2649999999999988,18.863 0.2649999999999988,18.863z" style="fill: rgb(230, 230, 230); fill-opacity: 1;"></path><path d=" M23.326,10.108999999999998 C23.326,10.108999999999998 6.202,19.994999999999997 6.202,19.994999999999997 C5.832000000000001,20.209 5.5390000000000015,20.715999999999998 5.540000000000001,21.134 C5.540000000000001,21.134 5.557,26.961 5.557,26.961 C5.558,27.378999999999998 5.8530000000000015,27.546 6.223000000000001,27.332 C6.223000000000001,27.332 23.347,17.445999999999998 23.347,17.445999999999998 C23.711000000000002,17.236 24.003,16.727999999999998 24.002000000000002,16.31 C24.002000000000002,16.31 23.986,10.485 23.986,10.485 C23.985,10.067 23.69,9.898999999999997 23.326,10.108999999999998z" style="fill: rgb(255, 255, 255); fill-opacity: 1;"></path><path d=" M7,35.048 C7,35.048 9.132,33.817 9.132,33.817 C9.132,33.817 7,35.048 7,35.048z M10.991,26.211 C10.991,26.211 5.813,29.201 5.813,29.201 C5.679,29.278 5.564,29.476 5.5649999999999995,29.63 C5.5649999999999995,29.63 5.581999999999999,35.58 5.581999999999999,35.58 C5.581999999999999,35.742 5.696999999999999,35.8 5.831999999999999,35.723 C5.831999999999999,35.723 11.009,32.733 11.009,32.733 C11.149999999999999,32.652 11.258,32.465 11.258,32.303 C11.258,32.303 11.241,26.353 11.241,26.353 C11.24,26.198999999999998 11.131,26.13 10.991,26.211z" style="fill: rgb(255, 255, 255); fill-opacity: 1;"></path><path d=" M13.385,31.360999999999997 C13.385,31.360999999999997 15.517,30.13 15.517,30.13 C15.517,30.13 13.385,31.360999999999997 13.385,31.360999999999997z M17.375999999999998,22.524 C17.375999999999998,22.524 12.198,25.514 12.198,25.514 C12.064,25.590999999999998 11.949,25.788999999999998 11.95,25.942999999999998 C11.95,25.942999999999998 11.966999999999999,31.893 11.966999999999999,31.893 C11.966999999999999,32.055 12.081999999999999,32.113 12.216999999999999,32.036 C12.216999999999999,32.036 17.394,29.046 17.394,29.046 C17.535,28.965 17.643,28.778 17.643,28.616 C17.643,28.616 17.625999999999998,22.665999999999997 17.625999999999998,22.665999999999997 C17.625,22.512 17.516,22.442999999999998 17.375999999999998,22.524z" style="fill: rgb(255, 255, 255); fill-opacity: 1;"></path><path d=" M19.77,27.674999999999997 C19.77,27.674999999999997 21.902,26.444 21.902,26.444 C21.902,26.444 19.77,27.674999999999997 19.77,27.674999999999997z M23.761000000000003,18.838 C23.761000000000003,18.838 18.583000000000002,21.828 18.583000000000002,21.828 C18.449,21.904999999999998 18.334,22.102999999999998 18.335,22.256999999999998 C18.335,22.256999999999998 18.352,28.207 18.352,28.207 C18.352,28.369 18.467,28.427 18.602,28.349999999999998 C18.602,28.349999999999998 23.779,25.36 23.779,25.36 C23.92,25.279 24.028000000000002,25.092 24.028000000000002,24.93 C24.028000000000002,24.93 24.011000000000003,18.979999999999997 24.011000000000003,18.979999999999997 C24.01,18.826 23.901,18.756999999999998 23.761000000000003,18.838z" style="fill: rgb(255, 255, 255); fill-opacity: 1;"></path><path d=" M9.133000000000001,33.816 C9.133000000000001,33.816 7.001,35.048 7.001,35.048 C7.001,35.048 9.133000000000001,33.816 9.133000000000001,33.816z" style="fill: rgb(255, 255, 255); fill-opacity: 1;"></path><path d=" M15.517000000000001,30.13 C15.517000000000001,30.13 13.385,31.362 13.385,31.362 C13.385,31.362 15.517000000000001,30.13 15.517000000000001,30.13z" style="fill: rgb(255, 255, 255); fill-opacity: 1;"></path><path d=" M21.901999999999997,26.444 C21.901999999999997,26.444 19.77,27.676 19.77,27.676 C19.77,27.676 21.901999999999997,26.444 21.901999999999997,26.444z" style="fill: rgb(255, 255, 255); fill-opacity: 1;"></path><path d=" M7.026,44.013 C7.026,44.013 9.158,42.782 9.158,42.782 C9.158,42.782 7.026,44.013 7.026,44.013z M11.017,35.176 C11.017,35.176 5.8389999999999995,38.166 5.8389999999999995,38.166 C5.705,38.243 5.59,38.441 5.590999999999999,38.595 C5.590999999999999,38.595 5.607999999999999,44.545 5.607999999999999,44.545 C5.607999999999999,44.707 5.722999999999999,44.765 5.857999999999999,44.688 C5.857999999999999,44.688 11.035,41.698 11.035,41.698 C11.175999999999998,41.617 11.283999999999999,41.43 11.283999999999999,41.268 C11.283999999999999,41.268 11.267,35.318 11.267,35.318 C11.266,35.164 11.157,35.095 11.017,35.176z" style="fill: rgb(255, 255, 255); fill-opacity: 1;"></path><path d=" M13.41,40.327 C13.41,40.327 15.542,39.096 15.542,39.096 C15.542,39.096 13.41,40.327 13.41,40.327z M17.401,31.490000000000002 C17.401,31.490000000000002 12.222999999999999,34.48 12.222999999999999,34.48 C12.089,34.557 11.974,34.755 11.975,34.909 C11.975,34.909 11.991999999999999,40.859 11.991999999999999,40.859 C11.991999999999999,41.021 12.107,41.079 12.241999999999999,41.002 C12.241999999999999,41.002 17.419,38.012 17.419,38.012 C17.56,37.931 17.668,37.744 17.668,37.582 C17.668,37.582 17.651,31.631999999999998 17.651,31.631999999999998 C17.65,31.478 17.541,31.409 17.401,31.490000000000002z" style="fill: rgb(255, 255, 255); fill-opacity: 1;"></path><path d=" M19.794999999999998,36.64 C19.794999999999998,36.64 21.927,35.409 21.927,35.409 C21.927,35.409 19.794999999999998,36.64 19.794999999999998,36.64z M23.786,27.803000000000004 C23.786,27.803000000000004 18.608,30.793000000000003 18.608,30.793000000000003 C18.474,30.87 18.358999999999998,31.068 18.36,31.222 C18.36,31.222 18.377,37.172000000000004 18.377,37.172000000000004 C18.377,37.334 18.491999999999997,37.392 18.627,37.315000000000005 C18.627,37.315000000000005 23.804,34.325 23.804,34.325 C23.945,34.244 24.053,34.057 24.053,33.895 C24.053,33.895 24.036,27.945 24.036,27.945 C24.035,27.791000000000004 23.926,27.722 23.786,27.803000000000004z" style="fill: rgb(255, 255, 255); fill-opacity: 1;"></path><path d=" M9.158000000000001,42.781 C9.158000000000001,42.781 7.026000000000001,44.013 7.026000000000001,44.013 C7.026000000000001,44.013 9.158000000000001,42.781 9.158000000000001,42.781z" style="fill: rgb(255, 255, 255); fill-opacity: 1;"></path><path d=" M15.543000000000001,39.095 C15.543000000000001,39.095 13.411,40.327 13.411,40.327 C13.411,40.327 15.543000000000001,39.095 15.543000000000001,39.095z" style="fill: rgb(255, 255, 255); fill-opacity: 1;"></path><path d=" M21.927,35.409 C21.927,35.409 19.795,36.641 19.795,36.641 C19.795,36.641 21.927,35.409 21.927,35.409z" style="fill: rgb(255, 255, 255); fill-opacity: 1;"></path><path d=" M7.051,52.985 C7.051,52.985 9.183,51.754 9.183,51.754 C9.183,51.754 7.051,52.985 7.051,52.985z M11.042,44.148 C11.042,44.148 5.864,47.138 5.864,47.138 C5.73,47.215 5.615,47.406 5.616,47.567 C5.616,47.567 5.632999999999999,53.517 5.632999999999999,53.517 C5.632999999999999,53.671 5.747999999999999,53.737 5.882999999999999,53.660000000000004 C5.882999999999999,53.660000000000004 11.059999999999999,50.67 11.059999999999999,50.67 C11.201,50.589 11.309,50.394 11.309,50.24 C11.309,50.24 11.292,44.29 11.292,44.29 C11.291,44.129000000000005 11.182,44.067 11.042,44.148z" style="fill: rgb(255, 255, 255); fill-opacity: 1;"></path><path d=" M13.436,49.299 C13.436,49.299 15.568,48.068 15.568,48.068 C15.568,48.068 13.436,49.299 13.436,49.299z M17.427,40.462 C17.427,40.462 12.248999999999999,43.452 12.248999999999999,43.452 C12.115,43.529 12,43.72 12.001,43.881 C12.001,43.881 12.017999999999999,49.831 12.017999999999999,49.831 C12.017999999999999,49.985 12.133,50.051 12.267999999999999,49.974000000000004 C12.267999999999999,49.974000000000004 17.445,46.984 17.445,46.984 C17.586,46.903 17.694,46.708 17.694,46.554 C17.694,46.554 17.677,40.604 17.677,40.604 C17.676,40.443 17.567,40.381 17.427,40.462z" style="fill: rgb(255, 255, 255); fill-opacity: 1;"></path><path d=" M19.82,45.613 C19.82,45.613 21.952,44.382 21.952,44.382 C21.952,44.382 19.82,45.613 19.82,45.613z M23.811,36.776 C23.811,36.776 18.633000000000003,39.766 18.633000000000003,39.766 C18.499000000000002,39.843 18.384,40.034 18.385,40.195 C18.385,40.195 18.402,46.145 18.402,46.145 C18.402,46.299 18.517000000000003,46.365 18.652,46.288000000000004 C18.652,46.288000000000004 23.829,43.298 23.829,43.298 C23.970000000000002,43.217 24.078000000000003,43.022 24.078000000000003,42.868 C24.078000000000003,42.868 24.061,36.918 24.061,36.918 C24.060000000000002,36.757000000000005 23.951,36.695 23.811,36.776z" style="fill: rgb(255, 255, 255); fill-opacity: 1;"></path><path d=" M9.184000000000001,51.754 C9.184000000000001,51.754 7.0520000000000005,52.986 7.0520000000000005,52.986 C7.0520000000000005,52.986 9.184000000000001,51.754 9.184000000000001,51.754z" style="fill: rgb(255, 255, 255); fill-opacity: 1;"></path><path d=" M15.568000000000001,48.067 C15.568000000000001,48.067 13.436,49.299 13.436,49.299 C13.436,49.299 15.568000000000001,48.067 15.568000000000001,48.067z" style="fill: rgb(255, 255, 255); fill-opacity: 1;"></path><path d=" M21.953,44.381 C21.953,44.381 19.821,45.613 19.821,45.613 C19.821,45.613 21.953,44.381 21.953,44.381z" style="fill: rgb(255, 255, 255); fill-opacity: 1;"></path></g></g></svg>