<svg xmlns="http://www.w3.org/2000/svg" width="500" height="500" viewBox="0 0 500 500" preserveAspectRatio="xMidYMid meet"><defs><clipPath id="animationMask_h0O0xv8oq7"><rect width="500" height="500" x="0" y="0"></rect></clipPath><clipPath id="CdOIp2nhI1"><path fill="#ffffff" clip-rule="nonzero"></path></clipPath><clipPath id="VcaLFxrQ7d"><path fill="#ffffff" clip-rule="nonzero"></path></clipPath><clipPath id="ZbkV3NFxDE"><path fill="#ffffff" clip-rule="nonzero" d=" M53.5,192 C53.5,192 0,500 0,500 C0,500 500,500 500,500 C500,500 362.5,13 362.5,13 C362.5,13 53.5,192 53.5,192"></path><path fill="#ffffff" clip-rule="nonzero" d=" M222.5,405.5 C222.5,405.5 0,500 0,500 C0,500 500,500 500,500 C500,500 468,284 468,284 C468,284 222.5,405.5 222.5,405.5"></path></clipPath><clipPath id="tp8TAGmR1q"><path fill="#ffffff" clip-rule="nonzero"></path></clipPath></defs><g clip-path="url(#animationMask_h0O0xv8oq7)" style="user-select: none;"><g transform="matrix(1,0,0,1,89.233,189.74)" style="user-select: none;"><path d=" M183.877,2.0529999999999973 C183.877,2.0529999999999973 2.2779999999999916,106.899 2.2779999999999916,106.899 C0.41399999999998727,107.976 0.25,109.9 2.0960000000000036,110.972 C2.0960000000000036,110.972 11.357,116.354 11.357,116.354 C11.357,116.354 137.846,189.862 137.846,189.862 C139.793,190.993 142.56900000000002,190.83100000000002 144.529,189.7 C144.529,189.7 243.899,132.328 243.899,132.328 C243.899,132.328 327.60900000000004,83.998 327.60900000000004,83.998 C329.991,82.623 329.901,80.39699999999999 327.54200000000003,79.025 C327.54200000000003,79.025 202.187,6.177999999999997 202.187,6.177999999999997 C202.187,6.177999999999997 195.204,2.1189999999999998 195.204,2.1189999999999998 C192.102,0.31699999999999307 186.999,0.25 183.877,2.0529999999999973z" style="fill: rgb(145, 186, 209); fill-opacity: 1;"></path></g><g style="user-select: none;"><path style="fill: rgb(237, 237, 237); fill-opacity: 1; display: none;"></path><path style="fill: rgb(243, 243, 243); fill-opacity: 1; display: none;"></path><path style="fill: rgb(173, 231, 255); fill-opacity: 1; display: none;"></path></g><g style="user-select: none;"><path style="fill: rgb(237, 237, 237); fill-opacity: 1; display: none;"></path><path style="fill: rgb(243, 243, 243); fill-opacity: 1; display: none;"></path><path style="fill: rgb(243, 173, 97); fill-opacity: 1; display: none;"></path></g><g style="user-select: none;"><path style="fill: rgb(237, 237, 237); fill-opacity: 1; display: none;"></path><path style="fill: rgb(243, 243, 243); fill-opacity: 1; display: none;"></path><path style="fill: rgb(243, 214, 125); fill-opacity: 1; display: none;"></path></g><g style="user-select: none;"><path style="fill: rgb(237, 237, 237); fill-opacity: 1; display: none;"></path><path style="fill: rgb(243, 243, 243); fill-opacity: 1; display: none;"></path><path style="fill: rgb(153, 243, 168); fill-opacity: 1; display: none;"></path></g><g style="user-select: none;"><path style="fill: rgb(237, 237, 237); fill-opacity: 1; display: none;"></path><path style="fill: rgb(243, 243, 243); fill-opacity: 1; display: none;"></path><path style="fill: rgb(166, 187, 255); fill-opacity: 1; display: none;"></path></g><g style="user-select: none;"><path style="fill: rgb(237, 237, 237); fill-opacity: 1; display: none;"></path><path style="fill: rgb(243, 243, 243); fill-opacity: 1; display: none;"></path><path style="fill: rgb(214, 173, 255); fill-opacity: 1; display: none;"></path></g><g style="user-select: none;"><path style="fill: rgb(237, 237, 237); fill-opacity: 1; display: none;"></path><path style="fill: rgb(243, 243, 243); fill-opacity: 1; display: none;"></path><path style="fill: rgb(255, 206, 206); fill-opacity: 1; display: none;"></path></g><g style="user-select: none;"><path style="fill: rgb(237, 237, 237); fill-opacity: 1; display: none;"></path><path style="fill: rgb(243, 243, 243); fill-opacity: 1; display: none;"></path><path style="fill: rgb(96, 96, 96); fill-opacity: 1; display: none;"></path></g><g style="user-select: none;"><path style="fill: rgb(237, 237, 237); fill-opacity: 1; display: none;"></path><path style="fill: rgb(243, 243, 243); fill-opacity: 1; display: none;"></path><path style="fill: rgb(205, 205, 205); fill-opacity: 1; display: none;"></path></g><g style="user-select: none;"><path style="fill: rgb(237, 237, 237); fill-opacity: 1; display: none;"></path><path style="fill: rgb(243, 243, 243); fill-opacity: 1; display: none;"></path><path style="fill: rgb(243, 89, 89); fill-opacity: 1; display: none;"></path></g><g transform="matrix(1,0,0,1,190.67700000000002,109.229)" style="user-select: none;"><path d=" M39.593,6.497 C39.589,5.356000000000002 39.397999999999996,4.3770000000000024 39.068,3.553000000000001 C39.068,3.553000000000001 40.716,4.3919999999999995 40.716,4.3919999999999995 C40.716,4.3919999999999995 38.323,1.9420000000000002 38.323,1.9420000000000002 C38.323,1.9420000000000002 38.323,1.9430000000000014 38.323,1.9430000000000014 C36.323,0.41300000000000026 34.277,0.25 31.539,1.8320000000000007 C31.539,1.8320000000000007 8.43,15.135000000000002 8.43,15.135000000000002 C3.9289999999999985,17.734 0.25,24.057000000000002 0.26399999999999935,29.222 C0.26399999999999935,29.222 0.31200000000000117,51.716 0.31200000000000117,51.716 C0.31200000000000117,51.716 0.2839999999999989,56.239000000000004 0.2839999999999989,56.239000000000004 C0.29100000000000037,58.775999999999996 1.394000000000002,60.636 2.7270000000000003,61.699 C2.7270000000000003,61.699 4.904,63.28 4.904,63.28 C4.904,63.28 5.92,61.488 5.92,61.488 C6.497,61.339 7.097000000000001,61.111000000000004 7.720000000000001,60.775999999999996 C7.807,60.729 7.894000000000002,60.681 7.982000000000001,60.629999999999995 C7.982000000000001,60.629999999999995 32.065,46.726 32.065,46.726 C32.141000000000005,46.681 32.218,46.635 32.294,46.589 C36.427,44.063 39.733999999999995,38.249 39.72,33.465 C39.72,33.465 39.656,28.990000000000002 39.656,28.990000000000002 C39.656,28.990000000000002 39.593,6.497 39.593,6.497z M16.915,42.120000000000005 C16.915,42.120000000000005 38.225,4.584 38.225,4.584 C38.484,5.283000000000001 38.632000000000005,6.103999999999999 38.635000000000005,7.050000000000001 C38.635000000000005,7.050000000000001 38.699,29.543 38.699,29.543 C38.699,29.543 16.915,42.120000000000005 16.915,42.120000000000005z" style="fill: rgb(237, 237, 237); fill-opacity: 1;"></path><path d=" M42.407,31.427999999999997 C42.407,31.427999999999997 42.343,8.934999999999999 42.343,8.934999999999999 C42.328,3.7699999999999996 38.658,1.6699999999999982 34.157000000000004,4.268999999999998 C34.157000000000004,4.268999999999998 11.115000000000002,17.572999999999997 11.115000000000002,17.572999999999997 C6.613000000000003,20.171999999999997 2.9670000000000023,26.494999999999997 2.982000000000003,31.659999999999997 C2.982000000000003,31.659999999999997 3.0450000000000017,54.153 3.0450000000000017,54.153 C3.0450000000000017,54.153 3.026,58.67699999999999 3.026,58.67699999999999 C3.039999999999999,63.44799999999999 6.344999999999999,65.435 10.47,63.212999999999994 C10.557,63.166 10.644000000000002,63.117999999999995 10.732000000000001,63.06699999999999 C10.732000000000001,63.06699999999999 34.815,49.164 34.815,49.164 C34.891000000000005,49.12 34.968,49.074 35.044000000000004,49.027 C39.17700000000001,46.501999999999995 42.483000000000004,40.686 42.47,35.903 C42.47,35.903 42.407,31.427999999999997 42.407,31.427999999999997z M4.003,53.599999999999994 C4.003,53.599999999999994 3.939,31.105999999999998 3.939,31.105999999999998 C3.9259999999999984,26.549999999999997 7.146000000000003,20.973999999999997 11.118000000000002,18.680999999999997 C11.118000000000002,18.680999999999997 34.160000000000004,5.376999999999999 34.160000000000004,5.376999999999999 C38.131,3.0839999999999996 41.372,4.931999999999995 41.385000000000005,9.487999999999996 C41.385000000000005,9.487999999999996 41.449,31.979999999999997 41.449,31.979999999999997 C41.449,31.979999999999997 4.003,53.599999999999994 4.003,53.599999999999994z" style="fill: rgb(243, 243, 243); fill-opacity: 1;"></path><path d=" M34.160000000000004,5.376999999999999 C38.131,3.0839999999999996 41.372,4.930999999999997 41.385000000000005,9.486999999999998 C41.385000000000005,9.486999999999998 41.449,31.980999999999998 41.449,31.980999999999998 C41.449,31.980999999999998 4.0020000000000024,53.599999999999994 4.0020000000000024,53.599999999999994 C4.0020000000000024,53.599999999999994 3.9380000000000024,31.107 3.9380000000000024,31.107 C3.9250000000000007,26.551 7.146000000000001,20.973 11.117,18.68 C11.117,18.68 34.160000000000004,5.376999999999999 34.160000000000004,5.376999999999999z" style="fill: rgb(222, 222, 222); fill-opacity: 1;"></path><path d=" M17.461000000000002,24.263 C17.461000000000002,24.263 15.712000000000002,29.815 15.712000000000002,29.815 C15.712000000000002,29.815 11.416,32.817 11.416,32.817 C11.416,32.817 14.637,34.285000000000004 14.637,34.285000000000004 C14.637,34.285000000000004 13.751000000000001,39.663000000000004 13.751000000000001,39.663000000000004 C13.751000000000001,39.663000000000004 17.491,35.018 17.491,35.018 C17.491,35.018 21.240000000000002,35.339 21.240000000000002,35.339 C21.240000000000002,35.339 20.332,30.998 20.332,30.998 C20.332,30.998 23.528000000000002,25.824 23.528000000000002,25.824 C23.528000000000002,25.824 19.23,27.784 19.23,27.784 C19.23,27.784 17.461000000000002,24.263 17.461000000000002,24.263z" style="fill: rgb(255, 255, 255); fill-opacity: 1;"></path><path d=" M29.686,18.917 C27.33,20.277 25.421,23.577 25.429,26.291 C25.436,28.998 27.358,30.093 29.714,28.733 C32.076,27.369 33.979,24.066 33.971,21.359 C33.964,18.645 32.048,17.553 29.686,18.917z" style="fill: rgb(255, 255, 255); fill-opacity: 1;"></path></g><g transform="matrix(1,0,0,1,352.375,211.875)" style="user-select: none;"><g style="stroke-linecap: butt; stroke-linejoin: miter; fill-opacity: 0; stroke-miterlimit: 4; stroke: rgb(221, 221, 221); stroke-opacity: 1; stroke-width: 1.5;"><path d=" M-154.5,-44.875 C-154.5,-44.875 -139.375,-53.25 -139.375,-53.25"></path></g></g><g transform="matrix(1,0,0,1,139.41000000000003,138.495)" style="user-select: none;"><path d=" M39.555,6.497 C39.551,5.356000000000002 39.36,4.3770000000000024 39.03,3.553000000000001 C39.03,3.553000000000001 40.83,4.3919999999999995 40.83,4.3919999999999995 C40.83,4.3919999999999995 38.59,1.9420000000000002 38.59,1.9420000000000002 C38.59,1.9420000000000002 38.59,1.9430000000000014 38.59,1.9430000000000014 C36.59,0.41300000000000026 34.391,0.25 31.653,1.8320000000000007 C31.653,1.8320000000000007 8.468,15.135000000000002 8.468,15.135000000000002 C3.9669999999999987,17.734 0.25,24.057000000000002 0.26399999999999935,29.222 C0.26399999999999935,29.222 0.29299999999999926,51.716 0.29299999999999926,51.716 C0.29299999999999926,51.716 0.2560000000000002,56.239000000000004 0.2560000000000002,56.239000000000004 C0.2630000000000017,58.775999999999996 1.3610000000000007,60.636 2.693999999999999,61.699 C2.693999999999999,61.699 4.8679999999999986,63.28 4.8679999999999986,63.28 C4.8679999999999986,63.28 5.883999999999999,61.488 5.883999999999999,61.488 C6.459999999999999,61.339 7.0600000000000005,61.111000000000004 7.683,60.775999999999996 C7.77,60.729 7.856,60.681 7.943999999999999,60.629999999999995 C7.943999999999999,60.629999999999995 32.027,46.726 32.027,46.726 C32.103,46.681 32.18,46.635 32.256,46.589 C36.388999999999996,44.063 39.696,38.249 39.682,33.465 C39.682,33.465 39.617999999999995,28.990000000000002 39.617999999999995,28.990000000000002 C39.617999999999995,28.990000000000002 39.555,6.497 39.555,6.497z M16.877,42.120000000000005 C16.877,42.120000000000005 38.187,4.584 38.187,4.584 C38.446,5.283000000000001 38.593999999999994,6.103999999999999 38.596999999999994,7.050000000000001 C38.596999999999994,7.050000000000001 38.661,29.543 38.661,29.543 C38.661,29.543 16.877,42.120000000000005 16.877,42.120000000000005z" style="fill: rgb(237, 237, 237); fill-opacity: 1;"></path><path d=" M42.369,31.427999999999997 C42.369,31.427999999999997 42.305,8.934999999999999 42.305,8.934999999999999 C42.29,3.7699999999999996 38.620000000000005,1.6699999999999982 34.119,4.268999999999998 C34.119,4.268999999999998 11.077000000000002,17.572999999999997 11.077000000000002,17.572999999999997 C6.575000000000003,20.171999999999997 2.929000000000002,26.494999999999997 2.9440000000000026,31.659999999999997 C2.9440000000000026,31.659999999999997 3.0070000000000014,54.153 3.0070000000000014,54.153 C3.0070000000000014,54.153 2.9879999999999995,58.67699999999999 2.9879999999999995,58.67699999999999 C3.001999999999999,63.44799999999999 6.306999999999999,65.435 10.432,63.212999999999994 C10.519,63.166 10.606000000000002,63.117999999999995 10.694,63.06699999999999 C10.694,63.06699999999999 34.777,49.164 34.777,49.164 C34.853,49.12 34.93,49.074 35.006,49.027 C39.139,46.501999999999995 42.44500000000001,40.686 42.432,35.903 C42.432,35.903 42.369,31.427999999999997 42.369,31.427999999999997z M3.965,53.599999999999994 C3.965,53.599999999999994 3.901,31.105999999999998 3.901,31.105999999999998 C3.887999999999998,26.549999999999997 7.108000000000002,20.973999999999997 11.080000000000002,18.680999999999997 C11.080000000000002,18.680999999999997 34.122,5.376999999999999 34.122,5.376999999999999 C38.093,3.0839999999999996 41.334,4.931999999999995 41.347,9.487999999999996 C41.347,9.487999999999996 41.411,31.979999999999997 41.411,31.979999999999997 C41.411,31.979999999999997 3.965,53.599999999999994 3.965,53.599999999999994z" style="fill: rgb(243, 243, 243); fill-opacity: 1;"></path><path d=" M34.122,5.376999999999999 C38.093,3.0839999999999996 41.334,4.930999999999997 41.347,9.486999999999998 C41.347,9.486999999999998 41.411,31.980999999999998 41.411,31.980999999999998 C41.411,31.980999999999998 3.964000000000002,53.599999999999994 3.964000000000002,53.599999999999994 C3.964000000000002,53.599999999999994 3.900000000000002,31.107 3.900000000000002,31.107 C3.8870000000000005,26.551 7.1080000000000005,20.973 11.079,18.68 C11.079,18.68 34.122,5.376999999999999 34.122,5.376999999999999z" style="fill: rgb(169, 221, 222); fill-opacity: 1;"></path><path d=" M15.323,33.128 C15.323,33.128 17.522000000000002,25.928 17.522000000000002,25.928 C17.522000000000002,25.928 19.703000000000003,30.6 19.703000000000003,30.6 C19.703000000000003,30.6 15.323,33.128 15.323,33.128z M18.19,22.177 C18.19,22.177 17.864,22.366 17.864,22.366 C17.864,22.366 13.409000000000002,37.018 13.409000000000002,37.018 C13.023000000000001,38.299 12.674000000000001,39.207 12.355,39.736000000000004 C12.196000000000002,40.004000000000005 11.853000000000002,40.343 11.323,40.759 C11.323,40.759 11.323,41.155 11.323,41.155 C11.323,41.155 15.339000000000002,38.836 15.339000000000002,38.836 C15.339000000000002,38.836 15.338000000000001,38.44 15.338000000000001,38.44 C14.719000000000001,38.746 14.323,38.864000000000004 14.138000000000002,38.802 C13.952000000000002,38.74 13.855,38.598 13.854000000000001,38.371 C13.853000000000002,38.092 13.962000000000002,37.604 14.177000000000001,36.914 C14.177000000000001,36.914 15.032000000000002,34.098 15.032000000000002,34.098 C15.032000000000002,34.098 19.968,31.247 19.968,31.247 C19.968,31.247 20.746000000000002,32.915 20.746000000000002,32.915 C20.996000000000002,33.454 21.127000000000002,33.879 21.127000000000002,34.194 C21.128,34.436 21.038,34.686 20.86,34.958 C20.682000000000002,35.223 20.338,35.524 19.834,35.845 C19.834,35.845 19.834,36.241 19.834,36.241 C19.834,36.241 24.865000000000002,33.336 24.865000000000002,33.336 C24.865000000000002,33.336 24.864,32.94 24.864,32.94 C24.34,33.206 23.938000000000002,33.268 23.643,33.152 C23.349000000000004,33.028 23.029,32.575 22.668,31.806 C22.668,31.806 18.19,22.177 18.19,22.177z" style="fill: rgb(255, 255, 255); fill-opacity: 1;"></path><path d=" M28.259,30.326 C27.907999999999998,30.528000000000002 27.596,30.54 27.326,30.35 C27.051,30.171 26.915999999999997,29.816000000000003 26.913999999999998,29.295 C26.913,28.884 27.019,28.447000000000003 27.229,27.981 C27.445,27.503 27.794999999999998,26.970000000000002 28.293,26.367 C28.567,26.033 29.18,25.371000000000002 30.122999999999998,24.392 C30.122999999999998,24.392 30.134,28.163 30.134,28.163 C29.357,29.332 28.732,30.053 28.259,30.326z M28.796,20.86 C27.799999999999997,21.435000000000002 27.022,22.142000000000003 26.474,22.979 C25.927,23.817 25.647,24.544 25.648999999999997,25.168 C25.65,25.491 25.726999999999997,25.703 25.875,25.802 C26.022,25.908 26.214,25.893 26.444,25.76 C26.68,25.624000000000002 26.878,25.414 27.023999999999997,25.153000000000002 C27.169999999999998,24.885 27.24,24.595000000000002 27.238999999999997,24.257 C27.238999999999997,24.257 27.218,23.645 27.218,23.645 C27.217,23.329 27.337999999999997,22.973000000000003 27.573,22.595000000000002 C27.808999999999997,22.216 28.121,21.911 28.517,21.682000000000002 C29.034,21.384 29.429,21.339 29.705,21.547 C29.980999999999998,21.755000000000003 30.116999999999997,22.353 30.119,23.343 C30.119,23.343 30.121,23.732 30.121,23.732 C28.641,25.204 27.59,26.34 26.953,27.142 C26.316,27.943 25.869999999999997,28.663 25.616,29.302 C25.432,29.761000000000003 25.337,30.235 25.339,30.712 C25.340999999999998,31.482 25.534,31.988 25.924999999999997,32.225 C26.308999999999997,32.473 26.802,32.424 27.395,32.081 C27.778,31.86 28.136,31.566000000000003 28.474,31.187 C28.703,30.937 29.256999999999998,30.161 30.136,28.868000000000002 C30.144,29.451 30.241,29.814 30.421,29.96 C30.605999999999998,30.095 30.848,30.080000000000002 31.154999999999998,29.903000000000002 C31.793,29.534 32.463,28.604 33.162,27.12 C33.162,27.12 33.16,26.512 33.16,26.512 C32.791,27.158 32.537,27.57 32.403,27.743000000000002 C32.327,27.838 32.244,27.908 32.141999999999996,27.967000000000002 C32.046,28.022000000000002 31.962999999999997,28.034000000000002 31.892,28.001 C31.822,27.975 31.762999999999998,27.862000000000002 31.737,27.664 C31.704,27.469 31.683999999999997,26.901 31.680999999999997,25.962 C31.680999999999997,25.962 31.671999999999997,22.602 31.671999999999997,22.602 C31.669999999999998,21.641000000000002 31.608999999999998,21.043 31.5,20.79 C31.32,20.424 31.044999999999998,20.23 30.680999999999997,20.213 C30.188,20.203000000000003 29.561999999999998,20.418 28.796,20.86z" style="fill: rgb(255, 255, 255); fill-opacity: 1;"></path></g><g transform="matrix(1,0,0,1,300.5,241.875)" style="user-select: none;"><g style="stroke-linecap: butt; stroke-linejoin: miter; fill-opacity: 0; stroke-miterlimit: 4; stroke: rgb(221, 221, 221); stroke-opacity: 1; stroke-width: 1.5;"><path d=" M-154.5,-44.875 C-154.5,-44.875 -139.375,-53.25 -139.375,-53.25"></path></g></g><g transform="matrix(1,0,0,1,88.122,167.76100000000002)" style="user-select: none;"><path d=" M39.54,6.497 C39.536,5.356000000000002 39.345,4.3770000000000024 39.015,3.553000000000001 C39.015,3.553000000000001 40.967,4.3919999999999995 40.967,4.3919999999999995 C40.967,4.3919999999999995 38.879000000000005,1.9420000000000002 38.879000000000005,1.9420000000000002 C38.879000000000005,1.9420000000000002 38.879000000000005,1.9430000000000014 38.879000000000005,1.9430000000000014 C36.879000000000005,0.41300000000000026 34.528999999999996,0.25 31.79,1.8320000000000007 C31.79,1.8320000000000007 8.529,15.135000000000002 8.529,15.135000000000002 C4.027000000000001,17.734 0.272000000000002,24.057000000000002 0.28600000000000136,29.222 C0.28600000000000136,29.222 0.2959999999999994,51.716 0.2959999999999994,51.716 C0.2959999999999994,51.716 0.24899999999999878,56.239000000000004 0.24899999999999878,56.239000000000004 C0.2560000000000002,58.775999999999996 1.3510000000000026,60.636 2.684000000000001,61.699 C2.684000000000001,61.699 4.855,63.28 4.855,63.28 C4.855,63.28 5.869,61.488 5.869,61.488 C6.446,61.339 7.045,61.111000000000004 7.667,60.775999999999996 C7.754,60.729 7.841000000000001,60.681 7.929,60.629999999999995 C7.929,60.629999999999995 32.012,46.726 32.012,46.726 C32.089,46.681 32.165,46.635 32.241,46.589 C36.373999999999995,44.063 39.681,38.249 39.667,33.465 C39.667,33.465 39.603,28.990000000000002 39.603,28.990000000000002 C39.603,28.990000000000002 39.54,6.497 39.54,6.497z M16.861,42.120000000000005 C16.861,42.120000000000005 38.172,4.584 38.172,4.584 C38.431,5.283000000000001 38.578,6.103999999999999 38.581,7.050000000000001 C38.581,7.050000000000001 38.646,29.543 38.646,29.543 C38.646,29.543 16.861,42.120000000000005 16.861,42.120000000000005z" style="fill: rgb(237, 237, 237); fill-opacity: 1;"></path><path d=" M42.354,31.427999999999997 C42.354,31.427999999999997 42.289,8.934999999999999 42.289,8.934999999999999 C42.274,3.7699999999999996 38.605000000000004,1.6699999999999982 34.104,4.268999999999998 C34.104,4.268999999999998 11.061,17.572999999999997 11.061,17.572999999999997 C6.559000000000001,20.171999999999997 2.9140000000000015,26.494999999999997 2.929000000000002,31.659999999999997 C2.929000000000002,31.659999999999997 2.992000000000001,54.153 2.992000000000001,54.153 C2.992000000000001,54.153 2.9720000000000013,58.67699999999999 2.9720000000000013,58.67699999999999 C2.9860000000000007,63.44799999999999 6.291,65.435 10.416,63.212999999999994 C10.503,63.166 10.591000000000001,63.117999999999995 10.679,63.06699999999999 C10.679,63.06699999999999 34.762,49.164 34.762,49.164 C34.838,49.12 34.915,49.074 34.991,49.027 C39.124,46.501999999999995 42.43000000000001,40.686 42.417,35.903 C42.417,35.903 42.354,31.427999999999997 42.354,31.427999999999997z M3.9490000000000016,53.599999999999994 C3.9490000000000016,53.599999999999994 3.8859999999999992,31.105999999999998 3.8859999999999992,31.105999999999998 C3.8729999999999976,26.549999999999997 7.093000000000002,20.973999999999997 11.065000000000001,18.680999999999997 C11.065000000000001,18.680999999999997 34.107,5.376999999999999 34.107,5.376999999999999 C38.078,3.0839999999999996 41.319,4.931999999999995 41.332,9.487999999999996 C41.332,9.487999999999996 41.394999999999996,31.979999999999997 41.394999999999996,31.979999999999997 C41.394999999999996,31.979999999999997 3.9490000000000016,53.599999999999994 3.9490000000000016,53.599999999999994z" style="fill: rgb(243, 243, 243); fill-opacity: 1;"></path><path d=" M34.107,5.376999999999999 C38.078,3.0839999999999996 41.318,4.930999999999997 41.331,9.486999999999998 C41.331,9.486999999999998 41.394999999999996,31.980999999999998 41.394999999999996,31.980999999999998 C41.394999999999996,31.980999999999998 3.9499999999999993,53.599999999999994 3.9499999999999993,53.599999999999994 C3.9499999999999993,53.599999999999994 3.8859999999999992,31.107 3.8859999999999992,31.107 C3.8729999999999976,26.551 7.093999999999999,20.973 11.065,18.68 C11.065,18.68 34.107,5.376999999999999 34.107,5.376999999999999z" style="fill: rgb(141, 202, 252); fill-opacity: 1;"></path></g><g style="user-select: none;"><path style="fill: rgb(237, 237, 237); fill-opacity: 1; display: none;"></path><path style="fill: rgb(243, 243, 243); fill-opacity: 1; display: none;"></path><path style="fill: rgb(255, 206, 206); fill-opacity: 1; display: none;"></path></g><g transform="matrix(1,0,0,1,249.75,270.375)" style="user-select: none;"><g style="stroke-linecap: butt; stroke-linejoin: miter; fill-opacity: 0; stroke-miterlimit: 4; stroke: rgb(221, 221, 221); stroke-opacity: 1; stroke-width: 1.5;"><path d=" M-154.5,-44.875 C-154.5,-44.875 -139.375,-53.25 -139.375,-53.25"></path></g></g><g transform="matrix(1.1259625084804472,0,0,1.1259625084804472,303.50451927913673,229.7739331352275)" style="user-select: none;"><path d=" M-167.75,-29.25 C-163.196825,-29.25 -159.5,-25.553175 -159.5,-21 C-159.5,-16.446825 -163.196825,-12.75 -167.75,-12.75 C-172.303175,-12.75 -176,-16.446825 -176,-21 C-176,-25.553175 -172.303175,-29.25 -167.75,-29.25z M-167.75,-29.25 C-163.196825,-29.25 -159.5,-25.553175 -159.5,-21 C-159.5,-16.446825 -163.196825,-12.75 -167.75,-12.75 C-172.303175,-12.75 -176,-16.446825 -176,-21 C-176,-25.553175 -172.303175,-29.25 -167.75,-29.25z" style="fill: rgb(0, 0, 0); fill-opacity: 0.1;"></path></g><g transform="matrix(1.1259625084804472,0,0,1.1259625084804472,303.50451927913673,228.0207060490885)" style="user-select: none;"><path d=" M-167.75,-29.5 C-163.196825,-29.5 -159.5,-25.803175 -159.5,-21.25 C-159.5,-16.696825 -163.196825,-13 -167.75,-13 C-172.303175,-13 -176,-16.696825 -176,-21.25 C-176,-25.803175 -172.303175,-29.5 -167.75,-29.5z M-167.75,-29.5 C-163.196825,-29.5 -159.5,-25.803175 -159.5,-21.25 C-159.5,-16.696825 -163.196825,-13 -167.75,-13 C-172.303175,-13 -176,-16.696825 -176,-21.25 C-176,-25.803175 -172.303175,-29.5 -167.75,-29.5z" style="fill: rgb(255, 255, 255); fill-opacity: 1;"></path></g><g clip-path="url(#CdOIp2nhI1)" style="user-select: none;"><g style="user-select: none;"><path style="fill: rgb(206, 206, 206); fill-opacity: 1; display: none;"></path><path style="fill: rgb(255, 255, 255); fill-opacity: 1; display: none;"></path><path style="fill: rgb(208, 208, 208); fill-opacity: 1; display: none;"></path><path style="fill: rgb(255, 255, 255); fill-opacity: 1; display: none;"></path><path style="fill: rgb(139, 200, 251); fill-opacity: 1; display: none;"></path><path style="fill: rgb(127, 182, 227); fill-opacity: 1; display: none;"></path></g><g clip-path="url(#VcaLFxrQ7d)" style="user-select: none;"><g style="user-select: none;"><path style="fill: rgb(206, 206, 206); fill-opacity: 1; display: none;"></path><path style="fill: rgb(255, 255, 255); fill-opacity: 1; display: none;"></path><path style="fill: rgb(208, 208, 208); fill-opacity: 1; display: none;"></path><path style="fill: rgb(255, 255, 255); fill-opacity: 1; display: none;"></path><path style="fill: rgb(254, 204, 205); fill-opacity: 1; display: none;"></path><path style="fill: rgb(205, 166, 167); fill-opacity: 1; display: none;"></path></g></g><g style="user-select: none;"><path style="fill: rgb(255, 194, 194); fill-opacity: 1; display: none;"></path><path style="fill: rgb(255, 194, 194); fill-opacity: 1; display: none;"></path><path style="fill: rgb(255, 194, 194); fill-opacity: 1; display: none;"></path></g><g style="user-select: none;"><path style="fill: rgb(252, 192, 192); fill-opacity: 1; display: none;"></path><path style="fill: rgb(252, 192, 192); fill-opacity: 1; display: none;"></path><path style="fill: rgb(252, 192, 192); fill-opacity: 1; display: none;"></path></g><g style="user-select: none;"><path style="fill: rgb(251, 191, 191); fill-opacity: 1; display: none;"></path><path style="fill: rgb(251, 191, 191); fill-opacity: 1; display: none;"></path><path style="fill: rgb(251, 191, 191); fill-opacity: 1; display: none;"></path><path style="fill: rgb(251, 191, 191); fill-opacity: 1; display: none;"></path><path style="fill: rgb(251, 191, 191); fill-opacity: 1; display: none;"></path><path style="fill: rgb(251, 191, 191); fill-opacity: 1; display: none;"></path><path style="fill: rgb(251, 191, 191); fill-opacity: 1; display: none;"></path><path style="fill: rgb(251, 191, 191); fill-opacity: 1; display: none;"></path><path style="fill: rgb(251, 191, 191); fill-opacity: 1; display: none;"></path><path style="fill: rgb(251, 191, 191); fill-opacity: 1; display: none;"></path><path style="fill: rgb(251, 191, 191); fill-opacity: 1; display: none;"></path><path style="fill: rgb(251, 191, 191); fill-opacity: 1; display: none;"></path><path style="fill: rgb(251, 191, 191); fill-opacity: 1; display: none;"></path><path style="fill: rgb(251, 191, 191); fill-opacity: 1; display: none;"></path><path style="fill: rgb(251, 191, 191); fill-opacity: 1; display: none;"></path><path style="fill: rgb(251, 191, 191); fill-opacity: 1; display: none;"></path><path style="fill: rgb(251, 191, 191); fill-opacity: 1; display: none;"></path><path style="fill: rgb(251, 191, 191); fill-opacity: 1; display: none;"></path><path style="fill: rgb(251, 191, 191); fill-opacity: 1; display: none;"></path><path style="fill: rgb(251, 191, 191); fill-opacity: 1; display: none;"></path><path style="fill: rgb(251, 191, 191); fill-opacity: 1; display: none;"></path><path style="fill: rgb(251, 191, 191); fill-opacity: 1; display: none;"></path><path style="fill: rgb(251, 191, 191); fill-opacity: 1; display: none;"></path><path style="fill: rgb(251, 191, 191); fill-opacity: 1; display: none;"></path><path style="fill: rgb(251, 191, 191); fill-opacity: 1; display: none;"></path><path style="fill: rgb(251, 191, 191); fill-opacity: 1; display: none;"></path><path style="fill: rgb(251, 191, 191); fill-opacity: 1; display: none;"></path><path style="fill: rgb(251, 191, 191); fill-opacity: 1; display: none;"></path><path style="fill: rgb(251, 191, 191); fill-opacity: 1; display: none;"></path><path style="fill: rgb(251, 191, 191); fill-opacity: 1; display: none;"></path><path style="fill: rgb(251, 191, 191); fill-opacity: 1; display: none;"></path><path style="fill: rgb(251, 191, 191); fill-opacity: 1; display: none;"></path><path style="fill: rgb(251, 191, 191); fill-opacity: 1; display: none;"></path><path style="fill: rgb(251, 191, 191); fill-opacity: 1; display: none;"></path><path style="fill: rgb(251, 191, 191); fill-opacity: 1; display: none;"></path><path style="fill: rgb(251, 191, 191); fill-opacity: 1; display: none;"></path><path style="fill: rgb(251, 191, 191); fill-opacity: 1; display: none;"></path><path style="fill: rgb(251, 191, 191); fill-opacity: 1; display: none;"></path><path style="fill: rgb(251, 191, 191); fill-opacity: 1; display: none;"></path><path style="fill: rgb(251, 191, 191); fill-opacity: 1; display: none;"></path><path style="fill: rgb(251, 191, 191); fill-opacity: 1; display: none;"></path><path style="fill: rgb(251, 191, 191); fill-opacity: 1; display: none;"></path><path style="fill: rgb(251, 191, 191); fill-opacity: 1; display: none;"></path><path style="fill: rgb(251, 191, 191); fill-opacity: 1; display: none;"></path><path style="fill: rgb(251, 191, 191); fill-opacity: 1; display: none;"></path><path style="fill: rgb(251, 191, 191); fill-opacity: 1; display: none;"></path><path style="fill: rgb(251, 191, 191); fill-opacity: 1; display: none;"></path><path style="fill: rgb(251, 191, 191); fill-opacity: 1; display: none;"></path><path style="fill: rgb(251, 191, 191); fill-opacity: 1; display: none;"></path><path style="fill: rgb(251, 191, 191); fill-opacity: 1; display: none;"></path><path style="fill: rgb(251, 191, 191); fill-opacity: 1; display: none;"></path><path style="fill: rgb(251, 191, 191); fill-opacity: 1; display: none;"></path><path style="fill: rgb(251, 191, 191); fill-opacity: 1; display: none;"></path><path style="fill: rgb(251, 191, 191); fill-opacity: 1; display: none;"></path><path style="fill: rgb(251, 191, 191); fill-opacity: 1; display: none;"></path><path style="fill: rgb(251, 191, 191); fill-opacity: 1; display: none;"></path><path style="fill: rgb(251, 191, 191); fill-opacity: 1; display: none;"></path><path style="fill: rgb(251, 191, 191); fill-opacity: 1; display: none;"></path><path style="fill: rgb(251, 191, 191); fill-opacity: 1; display: none;"></path><path style="fill: rgb(251, 191, 191); fill-opacity: 1; display: none;"></path><path style="fill: rgb(251, 191, 191); fill-opacity: 1; display: none;"></path><path style="fill: rgb(251, 191, 191); fill-opacity: 1; display: none;"></path><path style="fill: rgb(251, 191, 191); fill-opacity: 1; display: none;"></path><path style="fill: rgb(251, 191, 191); fill-opacity: 1; display: none;"></path><path style="fill: rgb(251, 191, 191); fill-opacity: 1; display: none;"></path><path style="fill: rgb(251, 191, 191); fill-opacity: 1; display: none;"></path><path style="fill: rgb(251, 191, 191); fill-opacity: 1; display: none;"></path><path style="fill: rgb(251, 191, 191); fill-opacity: 1; display: none;"></path><path style="fill: rgb(251, 191, 191); fill-opacity: 1; display: none;"></path><path style="fill: rgb(251, 191, 191); fill-opacity: 1; display: none;"></path><path style="fill: rgb(251, 191, 191); fill-opacity: 1; display: none;"></path><path style="fill: rgb(251, 191, 191); fill-opacity: 1; display: none;"></path><path style="fill: rgb(251, 191, 191); fill-opacity: 1; display: none;"></path><path style="fill: rgb(251, 191, 191); fill-opacity: 1; display: none;"></path><path style="fill: rgb(251, 191, 191); fill-opacity: 1; display: none;"></path><path style="fill: rgb(251, 191, 191); fill-opacity: 1; display: none;"></path><path style="fill: rgb(251, 191, 191); fill-opacity: 1; display: none;"></path><path style="fill: rgb(251, 191, 191); fill-opacity: 1; display: none;"></path><path style="fill: rgb(251, 191, 191); fill-opacity: 1; display: none;"></path><path style="fill: rgb(251, 191, 191); fill-opacity: 1; display: none;"></path><path style="fill: rgb(251, 191, 191); fill-opacity: 1; display: none;"></path><path style="fill: rgb(251, 191, 191); fill-opacity: 1; display: none;"></path><path style="fill: rgb(251, 191, 191); fill-opacity: 1; display: none;"></path><path style="fill: rgb(251, 191, 191); fill-opacity: 1; display: none;"></path><path style="fill: rgb(251, 191, 191); fill-opacity: 1; display: none;"></path><path style="fill: rgb(251, 191, 191); fill-opacity: 1; display: none;"></path><path style="fill: rgb(251, 191, 191); fill-opacity: 1; display: none;"></path><path style="fill: rgb(251, 191, 191); fill-opacity: 1; display: none;"></path><path style="fill: rgb(251, 191, 191); fill-opacity: 1; display: none;"></path><path style="fill: rgb(251, 191, 191); fill-opacity: 1; display: none;"></path><path style="fill: rgb(251, 191, 191); fill-opacity: 1; display: none;"></path><path style="fill: rgb(251, 191, 191); fill-opacity: 1; display: none;"></path><path style="fill: rgb(251, 191, 191); fill-opacity: 1; display: none;"></path><path style="fill: rgb(251, 191, 191); fill-opacity: 1; display: none;"></path><path style="fill: rgb(251, 191, 191); fill-opacity: 1; display: none;"></path><path style="fill: rgb(251, 191, 191); fill-opacity: 1; display: none;"></path><path style="fill: rgb(251, 191, 191); fill-opacity: 1; display: none;"></path><path style="fill: rgb(251, 191, 191); fill-opacity: 1; display: none;"></path><path style="fill: rgb(251, 191, 191); fill-opacity: 1; display: none;"></path><path style="fill: rgb(251, 191, 191); fill-opacity: 1; display: none;"></path><path style="fill: rgb(251, 191, 191); fill-opacity: 1; display: none;"></path><path style="fill: rgb(251, 191, 191); fill-opacity: 1; display: none;"></path><path style="fill: rgb(251, 191, 191); fill-opacity: 1; display: none;"></path><path style="fill: rgb(251, 191, 191); fill-opacity: 1; display: none;"></path><path style="fill: rgb(251, 191, 191); fill-opacity: 1; display: none;"></path><path style="fill: rgb(251, 191, 191); fill-opacity: 1; display: none;"></path><path style="fill: rgb(251, 191, 191); fill-opacity: 1; display: none;"></path><path style="fill: rgb(251, 191, 191); fill-opacity: 1; display: none;"></path><path style="fill: rgb(251, 191, 191); fill-opacity: 1; display: none;"></path><path style="fill: rgb(251, 191, 191); fill-opacity: 1; display: none;"></path><path style="fill: rgb(251, 191, 191); fill-opacity: 1; display: none;"></path><path style="fill: rgb(251, 191, 191); fill-opacity: 1; display: none;"></path><path style="fill: rgb(251, 191, 191); fill-opacity: 1; display: none;"></path><path style="fill: rgb(251, 191, 191); fill-opacity: 1; display: none;"></path><path style="fill: rgb(251, 191, 191); fill-opacity: 1; display: none;"></path><path style="fill: rgb(251, 191, 191); fill-opacity: 1; display: none;"></path><path style="fill: rgb(251, 191, 191); fill-opacity: 1; display: none;"></path><path style="fill: rgb(251, 191, 191); fill-opacity: 1; display: none;"></path><path style="fill: rgb(251, 191, 191); fill-opacity: 1; display: none;"></path><path style="fill: rgb(251, 191, 191); fill-opacity: 1; display: none;"></path><path style="fill: rgb(251, 191, 191); fill-opacity: 1; display: none;"></path><path style="fill: rgb(251, 191, 191); fill-opacity: 1; display: none;"></path><path style="fill: rgb(251, 191, 191); fill-opacity: 1; display: none;"></path><path style="fill: rgb(251, 191, 191); fill-opacity: 1; display: none;"></path><path style="fill: rgb(251, 191, 191); fill-opacity: 1; display: none;"></path><path style="fill: rgb(251, 191, 191); fill-opacity: 1; display: none;"></path><path style="fill: rgb(251, 191, 191); fill-opacity: 1; display: none;"></path><path style="fill: rgb(251, 191, 191); fill-opacity: 1; display: none;"></path><path style="fill: rgb(251, 191, 191); fill-opacity: 1; display: none;"></path><path style="fill: rgb(251, 191, 191); fill-opacity: 1; display: none;"></path><path style="fill: rgb(251, 191, 191); fill-opacity: 1; display: none;"></path><path style="fill: rgb(251, 191, 191); fill-opacity: 1; display: none;"></path><path style="fill: rgb(251, 191, 191); fill-opacity: 1; display: none;"></path><path style="fill: rgb(251, 191, 191); fill-opacity: 1; display: none;"></path><path style="fill: rgb(251, 191, 191); fill-opacity: 1; display: none;"></path><path style="fill: rgb(251, 191, 191); fill-opacity: 1; display: none;"></path><path style="fill: rgb(251, 191, 191); fill-opacity: 1; display: none;"></path><path style="fill: rgb(251, 191, 191); fill-opacity: 1; display: none;"></path><path style="fill: rgb(251, 191, 191); fill-opacity: 1; display: none;"></path><path style="fill: rgb(251, 191, 191); fill-opacity: 1; display: none;"></path><path style="fill: rgb(251, 191, 191); fill-opacity: 1; display: none;"></path><path style="fill: rgb(251, 191, 191); fill-opacity: 1; display: none;"></path><path style="fill: rgb(251, 191, 191); fill-opacity: 1; display: none;"></path><path style="fill: rgb(251, 191, 191); fill-opacity: 1; display: none;"></path><path style="fill: rgb(251, 191, 191); fill-opacity: 1; display: none;"></path><path style="fill: rgb(251, 191, 191); fill-opacity: 1; display: none;"></path><path style="fill: rgb(251, 191, 191); fill-opacity: 1; display: none;"></path><path style="fill: rgb(251, 191, 191); fill-opacity: 1; display: none;"></path><path style="fill: rgb(251, 191, 191); fill-opacity: 1; display: none;"></path><path style="fill: rgb(251, 191, 191); fill-opacity: 1; display: none;"></path><path style="fill: rgb(251, 191, 191); fill-opacity: 1; display: none;"></path><path style="fill: rgb(251, 191, 191); fill-opacity: 1; display: none;"></path><path style="fill: rgb(251, 191, 191); fill-opacity: 1; display: none;"></path><path style="fill: rgb(251, 191, 191); fill-opacity: 1; display: none;"></path><path style="fill: rgb(251, 191, 191); fill-opacity: 1; display: none;"></path><path style="fill: rgb(251, 191, 191); fill-opacity: 1; display: none;"></path><path style="fill: rgb(251, 191, 191); fill-opacity: 1; display: none;"></path><path style="fill: rgb(251, 191, 191); fill-opacity: 1; display: none;"></path><path style="fill: rgb(251, 191, 191); fill-opacity: 1; display: none;"></path><path style="fill: rgb(251, 191, 191); fill-opacity: 1; display: none;"></path><path style="fill: rgb(251, 191, 191); fill-opacity: 1; display: none;"></path><path style="fill: rgb(251, 191, 191); fill-opacity: 1; display: none;"></path><path style="fill: rgb(251, 191, 191); fill-opacity: 1; display: none;"></path><path style="fill: rgb(251, 191, 191); fill-opacity: 1; display: none;"></path><path style="fill: rgb(251, 191, 191); fill-opacity: 1; display: none;"></path><path style="fill: rgb(251, 191, 191); fill-opacity: 1; display: none;"></path><path style="fill: rgb(251, 191, 191); fill-opacity: 1; display: none;"></path><path style="fill: rgb(251, 191, 191); fill-opacity: 1; display: none;"></path><path style="fill: rgb(251, 191, 191); fill-opacity: 1; display: none;"></path><path style="fill: rgb(251, 191, 191); fill-opacity: 1; display: none;"></path><path style="fill: rgb(251, 191, 191); fill-opacity: 1; display: none;"></path><path style="fill: rgb(251, 191, 191); fill-opacity: 1; display: none;"></path><path style="fill: rgb(251, 191, 191); fill-opacity: 1; display: none;"></path><path style="fill: rgb(251, 191, 191); fill-opacity: 1; display: none;"></path><path style="fill: rgb(251, 191, 191); fill-opacity: 1; display: none;"></path><path style="fill: rgb(251, 191, 191); fill-opacity: 1; display: none;"></path><path style="fill: rgb(251, 191, 191); fill-opacity: 1; display: none;"></path><path style="fill: rgb(251, 191, 191); fill-opacity: 1; display: none;"></path><path style="fill: rgb(251, 191, 191); fill-opacity: 1; display: none;"></path><path style="fill: rgb(251, 191, 191); fill-opacity: 1; display: none;"></path><path style="fill: rgb(251, 191, 191); fill-opacity: 1; display: none;"></path><path style="fill: rgb(251, 191, 191); fill-opacity: 1; display: none;"></path><path style="fill: rgb(251, 191, 191); fill-opacity: 1; display: none;"></path><path style="fill: rgb(251, 191, 191); fill-opacity: 1; display: none;"></path><path style="fill: rgb(251, 191, 191); fill-opacity: 1; display: none;"></path><path style="fill: rgb(251, 191, 191); fill-opacity: 1; display: none;"></path><path style="fill: rgb(251, 191, 191); fill-opacity: 1; display: none;"></path><path style="fill: rgb(251, 191, 191); fill-opacity: 1; display: none;"></path><path style="fill: rgb(251, 191, 191); fill-opacity: 1; display: none;"></path><path style="fill: rgb(251, 191, 191); fill-opacity: 1; display: none;"></path><path style="fill: rgb(251, 191, 191); fill-opacity: 1; display: none;"></path><path style="fill: rgb(251, 191, 191); fill-opacity: 1; display: none;"></path><path style="fill: rgb(251, 191, 191); fill-opacity: 1; display: none;"></path><path style="fill: rgb(251, 191, 191); fill-opacity: 1; display: none;"></path><path style="fill: rgb(251, 191, 191); fill-opacity: 1; display: none;"></path><path style="fill: rgb(251, 191, 191); fill-opacity: 1; display: none;"></path><path style="fill: rgb(251, 191, 191); fill-opacity: 1; display: none;"></path><path style="fill: rgb(251, 191, 191); fill-opacity: 1; display: none;"></path><path style="fill: rgb(251, 191, 191); fill-opacity: 1; display: none;"></path><path style="fill: rgb(251, 191, 191); fill-opacity: 1; display: none;"></path><path style="fill: rgb(251, 191, 191); fill-opacity: 1; display: none;"></path><path style="fill: rgb(251, 191, 191); fill-opacity: 1; display: none;"></path><path style="fill: rgb(251, 191, 191); fill-opacity: 1; display: none;"></path><path style="fill: rgb(251, 191, 191); fill-opacity: 1; display: none;"></path><path style="fill: rgb(251, 191, 191); fill-opacity: 1; display: none;"></path><path style="fill: rgb(251, 191, 191); fill-opacity: 1; display: none;"></path><path style="fill: rgb(251, 191, 191); fill-opacity: 1; display: none;"></path><path style="fill: rgb(251, 191, 191); fill-opacity: 1; display: none;"></path><path style="fill: rgb(251, 191, 191); fill-opacity: 1; display: none;"></path><path style="fill: rgb(251, 191, 191); fill-opacity: 1; display: none;"></path><path style="fill: rgb(251, 191, 191); fill-opacity: 1; display: none;"></path><path style="fill: rgb(251, 191, 191); fill-opacity: 1; display: none;"></path><path style="fill: rgb(251, 191, 191); fill-opacity: 1; display: none;"></path><path style="fill: rgb(251, 191, 191); fill-opacity: 1; display: none;"></path><path style="fill: rgb(251, 191, 191); fill-opacity: 1; display: none;"></path><path style="fill: rgb(251, 191, 191); fill-opacity: 1; display: none;"></path></g><g style="user-select: none;"><g style="stroke-linecap: round; stroke-linejoin: round; fill-opacity: 0; stroke: rgb(255, 255, 255); stroke-opacity: 1; stroke-width: 1.062; display: none;"><path></path></g><path style="fill: rgb(255, 254, 28); fill-opacity: 1; display: none;"></path><path style="fill: rgb(252, 252, 252); fill-opacity: 1; display: none;"></path><g style="stroke-linecap: round; stroke-linejoin: round; fill-opacity: 0; stroke: rgb(255, 255, 255); stroke-opacity: 1; stroke-width: 1.062; display: none;"><path></path></g><path style="fill: rgb(255, 254, 28); fill-opacity: 1; display: none;"></path><path style="fill: rgb(252, 252, 252); fill-opacity: 1; display: none;"></path><path style="fill: rgb(252, 252, 252); fill-opacity: 1; display: none;"></path><path style="fill: rgb(63, 135, 255); fill-opacity: 1; display: none;"></path><path style="fill: rgb(63, 135, 255); fill-opacity: 1; display: none;"></path><path style="fill: rgb(55, 119, 224); fill-opacity: 1; display: none;"></path><path style="fill: rgb(55, 119, 224); fill-opacity: 1; display: none;"></path><g style="stroke-linecap: round; stroke-linejoin: round; fill-opacity: 0; stroke: rgb(255, 255, 255); stroke-opacity: 1; stroke-width: 1; display: none;"><path></path></g><g style="stroke-linecap: round; stroke-linejoin: round; fill-opacity: 0; stroke: rgb(255, 255, 255); stroke-opacity: 1; stroke-width: 1; display: none;"><path></path></g><path style="fill: rgb(240, 240, 240); fill-opacity: 1; display: none;"></path></g><g style="user-select: none;"><g style="stroke-linecap: round; stroke-linejoin: round; fill-opacity: 0; stroke: rgb(255, 255, 255); stroke-opacity: 1; stroke-width: 1.062; display: none;"><path></path></g><path style="fill: rgb(255, 254, 28); fill-opacity: 1; display: none;"></path><path style="fill: rgb(252, 252, 252); fill-opacity: 1; display: none;"></path><g style="stroke-linecap: round; stroke-linejoin: round; fill-opacity: 0; stroke: rgb(255, 255, 255); stroke-opacity: 1; stroke-width: 1.062; display: none;"><path></path></g><path style="fill: rgb(255, 254, 28); fill-opacity: 1; display: none;"></path><path style="fill: rgb(252, 252, 252); fill-opacity: 1; display: none;"></path><path style="fill: rgb(252, 252, 252); fill-opacity: 1; display: none;"></path><path style="fill: rgb(240, 178, 178); fill-opacity: 1; display: none;"></path><path style="fill: rgb(240, 178, 178); fill-opacity: 1; display: none;"></path><path style="fill: rgb(235, 162, 162); fill-opacity: 1; display: none;"></path><path style="fill: rgb(235, 162, 162); fill-opacity: 1; display: none;"></path><g style="stroke-linecap: round; stroke-linejoin: round; fill-opacity: 0; stroke: rgb(255, 255, 255); stroke-opacity: 1; stroke-width: 1; display: none;"><path></path></g><g style="stroke-linecap: round; stroke-linejoin: round; fill-opacity: 0; stroke: rgb(255, 255, 255); stroke-opacity: 1; stroke-width: 1; display: none;"><path></path></g><path style="fill: rgb(240, 240, 240); fill-opacity: 1; display: none;"></path></g><g style="user-select: none;"><path style="fill: rgb(132, 167, 255); fill-opacity: 1; display: none;"></path><path style="fill: rgb(255, 255, 255); fill-opacity: 1; display: none;"></path></g><g style="user-select: none;"><g style="stroke-linecap: butt; stroke-linejoin: miter; fill-opacity: 0; stroke-miterlimit: 4; stroke: rgb(238, 238, 238); stroke-opacity: 1; stroke-width: 2; display: none;"><path></path></g></g><g style="user-select: none;"><g style="stroke-linecap: butt; stroke-linejoin: miter; fill-opacity: 0; stroke-miterlimit: 4; stroke: rgb(238, 238, 238); stroke-opacity: 1; stroke-width: 2; display: none;"><path></path></g></g><g style="user-select: none;"><g style="stroke-linecap: butt; stroke-linejoin: miter; fill-opacity: 0; stroke-miterlimit: 4; stroke: rgb(238, 238, 238); stroke-opacity: 1; stroke-width: 2; display: none;"><path></path></g></g><g style="user-select: none;"><g style="stroke-linecap: butt; stroke-linejoin: miter; fill-opacity: 0; stroke-miterlimit: 4; stroke: rgb(238, 238, 238); stroke-opacity: 1; stroke-width: 2; display: none;"><path></path></g></g><g style="user-select: none;"><path style="fill: rgb(219, 219, 219); fill-opacity: 1; display: none;"></path><path style="fill: rgb(219, 219, 219); fill-opacity: 1; display: none;"></path><path style="fill: rgb(219, 219, 219); fill-opacity: 1; display: none;"></path><path style="fill: rgb(219, 219, 219); fill-opacity: 1; display: none;"></path></g><g style="user-select: none;"><path style="fill: rgb(219, 219, 219); fill-opacity: 1; display: none;"></path><path style="fill: rgb(219, 219, 219); fill-opacity: 1; display: none;"></path><path style="fill: rgb(219, 219, 219); fill-opacity: 1; display: none;"></path><path style="fill: rgb(219, 219, 219); fill-opacity: 1; display: none;"></path></g><g style="user-select: none;"><path style="fill: rgb(219, 219, 219); fill-opacity: 1; display: none;"></path><path style="fill: rgb(219, 219, 219); fill-opacity: 1; display: none;"></path><path style="fill: rgb(219, 219, 219); fill-opacity: 1; display: none;"></path></g><g style="user-select: none;"><path style="fill: rgb(0, 0, 0); fill-opacity: 1; display: none;"></path></g><g style="user-select: none;"><path style="fill: rgb(255, 255, 255); fill-opacity: 1; display: none;"></path></g><g style="user-select: none;"><path style="fill: rgb(0, 0, 0); fill-opacity: 1; display: none;"></path></g><g style="user-select: none;"><path style="fill: rgb(255, 255, 255); fill-opacity: 1; display: none;"></path></g><g style="user-select: none;"><path style="fill: rgb(0, 0, 0); fill-opacity: 1; display: none;"></path></g><g style="user-select: none;"><path style="fill: rgb(255, 255, 255); fill-opacity: 1; display: none;"></path></g></g><g style="user-select: none;"><path style="fill: rgb(237, 237, 237); fill-opacity: 1; display: none;"></path><path style="fill: rgb(243, 243, 243); fill-opacity: 1; display: none;"></path><path style="fill: rgb(141, 202, 252); fill-opacity: 1; display: none;"></path></g><g style="user-select: none;"><g style="stroke-linecap: butt; stroke-linejoin: miter; fill-opacity: 0; stroke-miterlimit: 4; stroke: rgb(221, 221, 221); stroke-opacity: 1; stroke-width: 1.5; display: none;"><path></path></g></g><g clip-path="url(#ZbkV3NFxDE)" transform="matrix(1,0,0,1,0,0.1354494992745856)" opacity="1" style="user-select: none;"><g transform="matrix(1,0,0,1,89.049,154.857)" style="user-select: none;"><path d=" M11.262,116.299 C11.262,116.299 2.096,110.97200000000001 2.096,110.97200000000001 C1.218,110.462 0.7939999999999996,109.759 0.7919999999999998,109.047 C0.7919999999999998,109.047 0.798,112.053 0.798,112.053 C0.8010000000000002,112.766 1.2240000000000002,113.46900000000001 2.1020000000000003,113.979 C2.1020000000000003,113.979 11.268,119.305 11.268,119.305 C11.268,119.305 11.262,116.299 11.262,116.299z" style="fill: rgb(206, 206, 206); fill-opacity: 0.99;"></path><path d=" M183.877,2.0529999999999973 C186.999,0.25 192.10899999999998,0.32099999999999795 195.211,2.1229999999999976 C195.211,2.1229999999999976 202.813,6.552999999999997 202.813,6.552999999999997 C202.813,6.552999999999997 113.88799999999999,57.158 113.88799999999999,57.158 C113.88799999999999,57.158 12.262,116.799 12.262,116.799 C12.262,116.799 2.0959999999999894,110.97200000000001 2.0959999999999894,110.97200000000001 C0.2499999999999858,109.9 0.41399999999998727,107.976 2.2779999999999916,106.899 C2.2779999999999916,106.899 183.877,2.0529999999999973 183.877,2.0529999999999973z" style="fill: rgb(255, 255, 255); fill-opacity: 0.99;"></path><path d=" M329.363,84.561 C329.363,84.561 329.35699999999997,81.555 329.35699999999997,81.555 C329.36,82.441 328.788,83.325 327.616,84.00200000000001 C327.616,84.00200000000001 243.57399999999998,132.523 243.57399999999998,132.523 C243.57399999999998,132.523 243.57999999999998,135.529 243.57999999999998,135.529 C243.57999999999998,135.529 327.621,87.00800000000001 327.621,87.00800000000001 C328.207,86.67 328.644,86.28 328.933,85.863 C329.222,85.447 329.364,85.004 329.363,84.561z" style="fill: rgb(208, 208, 208); fill-opacity: 0.99;"></path><path d=" M202.18900000000002,6.177999999999997 C202.18900000000002,6.177999999999997 327.54200000000003,79.027 327.54200000000003,79.027 C329.901,80.398 329.99800000000005,82.628 327.616,84.003 C327.616,84.003 243.57500000000002,132.524 243.57500000000002,132.524 C243.57500000000002,132.524 113.51400000000001,56.971 113.51400000000001,56.971 C113.51400000000001,56.971 202.18900000000002,6.177999999999997 202.18900000000002,6.177999999999997z" style="fill: rgb(255, 255, 255); fill-opacity: 0.99;"></path><path d=" M113.91799999999999,56.602999999999994 C113.91799999999999,56.602999999999994 243.574,132.524 243.574,132.524 C243.574,132.524 144.865,189.89499999999998 144.865,189.89499999999998 C142.905,191.027 139.736,191.027 137.795,189.899 C137.795,189.899 11.203999999999994,116.333 11.203999999999994,116.333 C11.203999999999994,116.333 113.91799999999999,56.602999999999994 113.91799999999999,56.602999999999994z" style="fill: rgb(139, 200, 251); fill-opacity: 0.99;"></path><path d=" M243.574,132.523 C243.574,132.523 144.865,189.89499999999998 144.865,189.89499999999998 C142.905,191.026 139.736,191.026 137.795,189.898 C137.795,189.898 11.203999999999994,116.332 11.203999999999994,116.332 C11.203999999999994,116.332 11.209999999999994,119.339 11.209999999999994,119.339 C11.209999999999994,119.339 137.79999999999998,192.905 137.79999999999998,192.905 C139.74099999999999,194.033 142.911,194.033 144.87099999999998,192.901 C144.87099999999998,192.901 243.57999999999998,135.529 243.57999999999998,135.529 C243.57999999999998,135.529 243.574,132.523 243.574,132.523z" style="fill: rgb(127, 182, 227); fill-opacity: 0.99;"></path></g><g clip-path="url(#tp8TAGmR1q)" style="user-select: none;"><g style="user-select: none;"><path style="fill: rgb(206, 206, 206); fill-opacity: 1; display: none;"></path><path style="fill: rgb(255, 255, 255); fill-opacity: 1; display: none;"></path><path style="fill: rgb(208, 208, 208); fill-opacity: 1; display: none;"></path><path style="fill: rgb(255, 255, 255); fill-opacity: 1; display: none;"></path><path style="fill: rgb(254, 204, 205); fill-opacity: 1; display: none;"></path><path style="fill: rgb(205, 166, 167); fill-opacity: 1; display: none;"></path></g></g><g transform="matrix(1,0,0,1,100.06099999999999,217.654)" style="user-select: none;"><path d=" M113.009,0.24899999999999523 C113.009,0.24899999999999523 78.156,98.842 78.156,98.842 C78.156,98.842 120.958,123.717 120.958,123.717 C120.958,123.717 149.938,21.711 149.938,21.711 C149.938,21.711 113.009,0.24899999999999523 113.009,0.24899999999999523z" style="fill: rgb(255, 194, 194); fill-opacity: 0;"></path><path d=" M83.296,5.555 C83.296,5.555 50.949000000000005,83.03299999999999 50.949000000000005,83.03299999999999 C50.949000000000005,83.03299999999999 0.25,53.501999999999995 0.25,53.501999999999995 C0.25,53.501999999999995 83.296,5.555 83.296,5.555z" style="fill: rgb(255, 194, 194); fill-opacity: 0;"></path><path d=" M183.211,41.04600000000001 C183.211,41.04600000000001 167.723,107.414 167.723,107.414 C167.723,107.414 232.563,69.727 232.563,69.727 C232.563,69.727 183.211,41.04600000000001 183.211,41.04600000000001z" style="fill: rgb(255, 194, 194); fill-opacity: 0;"></path></g><g style="user-select: none;"><path style="fill: rgb(252, 192, 192); fill-opacity: 1; display: none;"></path><path style="fill: rgb(252, 192, 192); fill-opacity: 1; display: none;"></path><path style="fill: rgb(252, 192, 192); fill-opacity: 1; display: none;"></path></g><g style="user-select: none;"><path style="fill: rgb(251, 191, 191); fill-opacity: 1; display: none;"></path><path style="fill: rgb(251, 191, 191); fill-opacity: 1; display: none;"></path><path style="fill: rgb(251, 191, 191); fill-opacity: 1; display: none;"></path><path style="fill: rgb(251, 191, 191); fill-opacity: 1; display: none;"></path><path style="fill: rgb(251, 191, 191); fill-opacity: 1; display: none;"></path><path style="fill: rgb(251, 191, 191); fill-opacity: 1; display: none;"></path><path style="fill: rgb(251, 191, 191); fill-opacity: 1; display: none;"></path><path style="fill: rgb(251, 191, 191); fill-opacity: 1; display: none;"></path><path style="fill: rgb(251, 191, 191); fill-opacity: 1; display: none;"></path><path style="fill: rgb(251, 191, 191); fill-opacity: 1; display: none;"></path><path style="fill: rgb(251, 191, 191); fill-opacity: 1; display: none;"></path><path style="fill: rgb(251, 191, 191); fill-opacity: 1; display: none;"></path><path style="fill: rgb(251, 191, 191); fill-opacity: 1; display: none;"></path><path style="fill: rgb(251, 191, 191); fill-opacity: 1; display: none;"></path><path style="fill: rgb(251, 191, 191); fill-opacity: 1; display: none;"></path><path style="fill: rgb(251, 191, 191); fill-opacity: 1; display: none;"></path><path style="fill: rgb(251, 191, 191); fill-opacity: 1; display: none;"></path><path style="fill: rgb(251, 191, 191); fill-opacity: 1; display: none;"></path><path style="fill: rgb(251, 191, 191); fill-opacity: 1; display: none;"></path><path style="fill: rgb(251, 191, 191); fill-opacity: 1; display: none;"></path><path style="fill: rgb(251, 191, 191); fill-opacity: 1; display: none;"></path><path style="fill: rgb(251, 191, 191); fill-opacity: 1; display: none;"></path><path style="fill: rgb(251, 191, 191); fill-opacity: 1; display: none;"></path><path style="fill: rgb(251, 191, 191); fill-opacity: 1; display: none;"></path><path style="fill: rgb(251, 191, 191); fill-opacity: 1; display: none;"></path><path style="fill: rgb(251, 191, 191); fill-opacity: 1; display: none;"></path><path style="fill: rgb(251, 191, 191); fill-opacity: 1; display: none;"></path><path style="fill: rgb(251, 191, 191); fill-opacity: 1; display: none;"></path><path style="fill: rgb(251, 191, 191); fill-opacity: 1; display: none;"></path><path style="fill: rgb(251, 191, 191); fill-opacity: 1; display: none;"></path><path style="fill: rgb(251, 191, 191); fill-opacity: 1; display: none;"></path><path style="fill: rgb(251, 191, 191); fill-opacity: 1; display: none;"></path><path style="fill: rgb(251, 191, 191); fill-opacity: 1; display: none;"></path><path style="fill: rgb(251, 191, 191); fill-opacity: 1; display: none;"></path><path style="fill: rgb(251, 191, 191); fill-opacity: 1; display: none;"></path><path style="fill: rgb(251, 191, 191); fill-opacity: 1; display: none;"></path><path style="fill: rgb(251, 191, 191); fill-opacity: 1; display: none;"></path><path style="fill: rgb(251, 191, 191); fill-opacity: 1; display: none;"></path><path style="fill: rgb(251, 191, 191); fill-opacity: 1; display: none;"></path><path style="fill: rgb(251, 191, 191); fill-opacity: 1; display: none;"></path><path style="fill: rgb(251, 191, 191); fill-opacity: 1; display: none;"></path><path style="fill: rgb(251, 191, 191); fill-opacity: 1; display: none;"></path><path style="fill: rgb(251, 191, 191); fill-opacity: 1; display: none;"></path><path style="fill: rgb(251, 191, 191); fill-opacity: 1; display: none;"></path><path style="fill: rgb(251, 191, 191); fill-opacity: 1; display: none;"></path><path style="fill: rgb(251, 191, 191); fill-opacity: 1; display: none;"></path><path style="fill: rgb(251, 191, 191); fill-opacity: 1; display: none;"></path><path style="fill: rgb(251, 191, 191); fill-opacity: 1; display: none;"></path><path style="fill: rgb(251, 191, 191); fill-opacity: 1; display: none;"></path><path style="fill: rgb(251, 191, 191); fill-opacity: 1; display: none;"></path><path style="fill: rgb(251, 191, 191); fill-opacity: 1; display: none;"></path><path style="fill: rgb(251, 191, 191); fill-opacity: 1; display: none;"></path><path style="fill: rgb(251, 191, 191); fill-opacity: 1; display: none;"></path><path style="fill: rgb(251, 191, 191); fill-opacity: 1; display: none;"></path><path style="fill: rgb(251, 191, 191); fill-opacity: 1; display: none;"></path><path style="fill: rgb(251, 191, 191); fill-opacity: 1; display: none;"></path><path style="fill: rgb(251, 191, 191); fill-opacity: 1; display: none;"></path><path style="fill: rgb(251, 191, 191); fill-opacity: 1; display: none;"></path><path style="fill: rgb(251, 191, 191); fill-opacity: 1; display: none;"></path><path style="fill: rgb(251, 191, 191); fill-opacity: 1; display: none;"></path><path style="fill: rgb(251, 191, 191); fill-opacity: 1; display: none;"></path><path style="fill: rgb(251, 191, 191); fill-opacity: 1; display: none;"></path><path style="fill: rgb(251, 191, 191); fill-opacity: 1; display: none;"></path><path style="fill: rgb(251, 191, 191); fill-opacity: 1; display: none;"></path><path style="fill: rgb(251, 191, 191); fill-opacity: 1; display: none;"></path><path style="fill: rgb(251, 191, 191); fill-opacity: 1; display: none;"></path><path style="fill: rgb(251, 191, 191); fill-opacity: 1; display: none;"></path><path style="fill: rgb(251, 191, 191); fill-opacity: 1; display: none;"></path><path style="fill: rgb(251, 191, 191); fill-opacity: 1; display: none;"></path><path style="fill: rgb(251, 191, 191); fill-opacity: 1; display: none;"></path><path style="fill: rgb(251, 191, 191); fill-opacity: 1; display: none;"></path><path style="fill: rgb(251, 191, 191); fill-opacity: 1; display: none;"></path><path style="fill: rgb(251, 191, 191); fill-opacity: 1; display: none;"></path><path style="fill: rgb(251, 191, 191); fill-opacity: 1; display: none;"></path><path style="fill: rgb(251, 191, 191); fill-opacity: 1; display: none;"></path><path style="fill: rgb(251, 191, 191); fill-opacity: 1; display: none;"></path><path style="fill: rgb(251, 191, 191); fill-opacity: 1; display: none;"></path><path style="fill: rgb(251, 191, 191); fill-opacity: 1; display: none;"></path><path style="fill: rgb(251, 191, 191); fill-opacity: 1; display: none;"></path><path style="fill: rgb(251, 191, 191); fill-opacity: 1; display: none;"></path><path style="fill: rgb(251, 191, 191); fill-opacity: 1; display: none;"></path><path style="fill: rgb(251, 191, 191); fill-opacity: 1; display: none;"></path><path style="fill: rgb(251, 191, 191); fill-opacity: 1; display: none;"></path><path style="fill: rgb(251, 191, 191); fill-opacity: 1; display: none;"></path><path style="fill: rgb(251, 191, 191); fill-opacity: 1; display: none;"></path><path style="fill: rgb(251, 191, 191); fill-opacity: 1; display: none;"></path><path style="fill: rgb(251, 191, 191); fill-opacity: 1; display: none;"></path><path style="fill: rgb(251, 191, 191); fill-opacity: 1; display: none;"></path><path style="fill: rgb(251, 191, 191); fill-opacity: 1; display: none;"></path><path style="fill: rgb(251, 191, 191); fill-opacity: 1; display: none;"></path><path style="fill: rgb(251, 191, 191); fill-opacity: 1; display: none;"></path><path style="fill: rgb(251, 191, 191); fill-opacity: 1; display: none;"></path><path style="fill: rgb(251, 191, 191); fill-opacity: 1; display: none;"></path><path style="fill: rgb(251, 191, 191); fill-opacity: 1; display: none;"></path><path style="fill: rgb(251, 191, 191); fill-opacity: 1; display: none;"></path><path style="fill: rgb(251, 191, 191); fill-opacity: 1; display: none;"></path><path style="fill: rgb(251, 191, 191); fill-opacity: 1; display: none;"></path><path style="fill: rgb(251, 191, 191); fill-opacity: 1; display: none;"></path><path style="fill: rgb(251, 191, 191); fill-opacity: 1; display: none;"></path><path style="fill: rgb(251, 191, 191); fill-opacity: 1; display: none;"></path><path style="fill: rgb(251, 191, 191); fill-opacity: 1; display: none;"></path><path style="fill: rgb(251, 191, 191); fill-opacity: 1; display: none;"></path><path style="fill: rgb(251, 191, 191); fill-opacity: 1; display: none;"></path><path style="fill: rgb(251, 191, 191); fill-opacity: 1; display: none;"></path><path style="fill: rgb(251, 191, 191); fill-opacity: 1; display: none;"></path><path style="fill: rgb(251, 191, 191); fill-opacity: 1; display: none;"></path><path style="fill: rgb(251, 191, 191); fill-opacity: 1; display: none;"></path><path style="fill: rgb(251, 191, 191); fill-opacity: 1; display: none;"></path><path style="fill: rgb(251, 191, 191); fill-opacity: 1; display: none;"></path><path style="fill: rgb(251, 191, 191); fill-opacity: 1; display: none;"></path><path style="fill: rgb(251, 191, 191); fill-opacity: 1; display: none;"></path><path style="fill: rgb(251, 191, 191); fill-opacity: 1; display: none;"></path><path style="fill: rgb(251, 191, 191); fill-opacity: 1; display: none;"></path><path style="fill: rgb(251, 191, 191); fill-opacity: 1; display: none;"></path><path style="fill: rgb(251, 191, 191); fill-opacity: 1; display: none;"></path><path style="fill: rgb(251, 191, 191); fill-opacity: 1; display: none;"></path><path style="fill: rgb(251, 191, 191); fill-opacity: 1; display: none;"></path><path style="fill: rgb(251, 191, 191); fill-opacity: 1; display: none;"></path><path style="fill: rgb(251, 191, 191); fill-opacity: 1; display: none;"></path><path style="fill: rgb(251, 191, 191); fill-opacity: 1; display: none;"></path><path style="fill: rgb(251, 191, 191); fill-opacity: 1; display: none;"></path><path style="fill: rgb(251, 191, 191); fill-opacity: 1; display: none;"></path><path style="fill: rgb(251, 191, 191); fill-opacity: 1; display: none;"></path><path style="fill: rgb(251, 191, 191); fill-opacity: 1; display: none;"></path><path style="fill: rgb(251, 191, 191); fill-opacity: 1; display: none;"></path><path style="fill: rgb(251, 191, 191); fill-opacity: 1; display: none;"></path><path style="fill: rgb(251, 191, 191); fill-opacity: 1; display: none;"></path><path style="fill: rgb(251, 191, 191); fill-opacity: 1; display: none;"></path><path style="fill: rgb(251, 191, 191); fill-opacity: 1; display: none;"></path><path style="fill: rgb(251, 191, 191); fill-opacity: 1; display: none;"></path><path style="fill: rgb(251, 191, 191); fill-opacity: 1; display: none;"></path><path style="fill: rgb(251, 191, 191); fill-opacity: 1; display: none;"></path><path style="fill: rgb(251, 191, 191); fill-opacity: 1; display: none;"></path><path style="fill: rgb(251, 191, 191); fill-opacity: 1; display: none;"></path><path style="fill: rgb(251, 191, 191); fill-opacity: 1; display: none;"></path><path style="fill: rgb(251, 191, 191); fill-opacity: 1; display: none;"></path><path style="fill: rgb(251, 191, 191); fill-opacity: 1; display: none;"></path><path style="fill: rgb(251, 191, 191); fill-opacity: 1; display: none;"></path><path style="fill: rgb(251, 191, 191); fill-opacity: 1; display: none;"></path><path style="fill: rgb(251, 191, 191); fill-opacity: 1; display: none;"></path><path style="fill: rgb(251, 191, 191); fill-opacity: 1; display: none;"></path><path style="fill: rgb(251, 191, 191); fill-opacity: 1; display: none;"></path><path style="fill: rgb(251, 191, 191); fill-opacity: 1; display: none;"></path><path style="fill: rgb(251, 191, 191); fill-opacity: 1; display: none;"></path><path style="fill: rgb(251, 191, 191); fill-opacity: 1; display: none;"></path><path style="fill: rgb(251, 191, 191); fill-opacity: 1; display: none;"></path><path style="fill: rgb(251, 191, 191); fill-opacity: 1; display: none;"></path><path style="fill: rgb(251, 191, 191); fill-opacity: 1; display: none;"></path><path style="fill: rgb(251, 191, 191); fill-opacity: 1; display: none;"></path><path style="fill: rgb(251, 191, 191); fill-opacity: 1; display: none;"></path><path style="fill: rgb(251, 191, 191); fill-opacity: 1; display: none;"></path><path style="fill: rgb(251, 191, 191); fill-opacity: 1; display: none;"></path><path style="fill: rgb(251, 191, 191); fill-opacity: 1; display: none;"></path><path style="fill: rgb(251, 191, 191); fill-opacity: 1; display: none;"></path><path style="fill: rgb(251, 191, 191); fill-opacity: 1; display: none;"></path><path style="fill: rgb(251, 191, 191); fill-opacity: 1; display: none;"></path><path style="fill: rgb(251, 191, 191); fill-opacity: 1; display: none;"></path><path style="fill: rgb(251, 191, 191); fill-opacity: 1; display: none;"></path><path style="fill: rgb(251, 191, 191); fill-opacity: 1; display: none;"></path><path style="fill: rgb(251, 191, 191); fill-opacity: 1; display: none;"></path><path style="fill: rgb(251, 191, 191); fill-opacity: 1; display: none;"></path><path style="fill: rgb(251, 191, 191); fill-opacity: 1; display: none;"></path><path style="fill: rgb(251, 191, 191); fill-opacity: 1; display: none;"></path><path style="fill: rgb(251, 191, 191); fill-opacity: 1; display: none;"></path><path style="fill: rgb(251, 191, 191); fill-opacity: 1; display: none;"></path><path style="fill: rgb(251, 191, 191); fill-opacity: 1; display: none;"></path><path style="fill: rgb(251, 191, 191); fill-opacity: 1; display: none;"></path><path style="fill: rgb(251, 191, 191); fill-opacity: 1; display: none;"></path><path style="fill: rgb(251, 191, 191); fill-opacity: 1; display: none;"></path><path style="fill: rgb(251, 191, 191); fill-opacity: 1; display: none;"></path><path style="fill: rgb(251, 191, 191); fill-opacity: 1; display: none;"></path><path style="fill: rgb(251, 191, 191); fill-opacity: 1; display: none;"></path><path style="fill: rgb(251, 191, 191); fill-opacity: 1; display: none;"></path><path style="fill: rgb(251, 191, 191); fill-opacity: 1; display: none;"></path><path style="fill: rgb(251, 191, 191); fill-opacity: 1; display: none;"></path><path style="fill: rgb(251, 191, 191); fill-opacity: 1; display: none;"></path><path style="fill: rgb(251, 191, 191); fill-opacity: 1; display: none;"></path><path style="fill: rgb(251, 191, 191); fill-opacity: 1; display: none;"></path><path style="fill: rgb(251, 191, 191); fill-opacity: 1; display: none;"></path><path style="fill: rgb(251, 191, 191); fill-opacity: 1; display: none;"></path><path style="fill: rgb(251, 191, 191); fill-opacity: 1; display: none;"></path><path style="fill: rgb(251, 191, 191); fill-opacity: 1; display: none;"></path><path style="fill: rgb(251, 191, 191); fill-opacity: 1; display: none;"></path><path style="fill: rgb(251, 191, 191); fill-opacity: 1; display: none;"></path><path style="fill: rgb(251, 191, 191); fill-opacity: 1; display: none;"></path><path style="fill: rgb(251, 191, 191); fill-opacity: 1; display: none;"></path><path style="fill: rgb(251, 191, 191); fill-opacity: 1; display: none;"></path><path style="fill: rgb(251, 191, 191); fill-opacity: 1; display: none;"></path><path style="fill: rgb(251, 191, 191); fill-opacity: 1; display: none;"></path><path style="fill: rgb(251, 191, 191); fill-opacity: 1; display: none;"></path><path style="fill: rgb(251, 191, 191); fill-opacity: 1; display: none;"></path><path style="fill: rgb(251, 191, 191); fill-opacity: 1; display: none;"></path><path style="fill: rgb(251, 191, 191); fill-opacity: 1; display: none;"></path><path style="fill: rgb(251, 191, 191); fill-opacity: 1; display: none;"></path><path style="fill: rgb(251, 191, 191); fill-opacity: 1; display: none;"></path><path style="fill: rgb(251, 191, 191); fill-opacity: 1; display: none;"></path><path style="fill: rgb(251, 191, 191); fill-opacity: 1; display: none;"></path><path style="fill: rgb(251, 191, 191); fill-opacity: 1; display: none;"></path><path style="fill: rgb(251, 191, 191); fill-opacity: 1; display: none;"></path><path style="fill: rgb(251, 191, 191); fill-opacity: 1; display: none;"></path><path style="fill: rgb(251, 191, 191); fill-opacity: 1; display: none;"></path><path style="fill: rgb(251, 191, 191); fill-opacity: 1; display: none;"></path><path style="fill: rgb(251, 191, 191); fill-opacity: 1; display: none;"></path><path style="fill: rgb(251, 191, 191); fill-opacity: 1; display: none;"></path><path style="fill: rgb(251, 191, 191); fill-opacity: 1; display: none;"></path><path style="fill: rgb(251, 191, 191); fill-opacity: 1; display: none;"></path><path style="fill: rgb(251, 191, 191); fill-opacity: 1; display: none;"></path><path style="fill: rgb(251, 191, 191); fill-opacity: 1; display: none;"></path><path style="fill: rgb(251, 191, 191); fill-opacity: 1; display: none;"></path><path style="fill: rgb(251, 191, 191); fill-opacity: 1; display: none;"></path><path style="fill: rgb(251, 191, 191); fill-opacity: 1; display: none;"></path><path style="fill: rgb(251, 191, 191); fill-opacity: 1; display: none;"></path><path style="fill: rgb(251, 191, 191); fill-opacity: 1; display: none;"></path><path style="fill: rgb(251, 191, 191); fill-opacity: 1; display: none;"></path><path style="fill: rgb(251, 191, 191); fill-opacity: 1; display: none;"></path><path style="fill: rgb(251, 191, 191); fill-opacity: 1; display: none;"></path></g><g transform="matrix(1,0,0,1,153.858,228.74200000000002)" style="user-select: none;"><g style="stroke-linecap: round; stroke-linejoin: round; fill-opacity: 0; stroke: rgb(255, 255, 255); stroke-opacity: 1; stroke-width: 1.062;"><path d=" M100.232,21.533 C100.232,21.533 68.612,3.7169999999999987 68.612,3.7169999999999987 C68.612,3.7169999999999987 65.734,2.6549999999999994 63.653999999999996,5.842"></path></g><path d=" M98.333,23.924000000000003 C98.333,23.924000000000003 98.333,23.924000000000003 98.333,23.924000000000003 C97.813,23.557000000000002 97.688,22.831000000000003 98.055,22.312 C98.055,22.312 98.847,21.188000000000002 98.847,21.188000000000002 C99.214,20.668000000000003 99.94,20.543000000000003 100.459,20.91 C100.979,21.276000000000003 101.104,22.001 100.738,22.521 C100.738,22.521 99.94500000000001,23.646 99.94500000000001,23.646 C99.57900000000001,24.165000000000003 98.853,24.291 98.333,23.924000000000003z" style="fill: rgb(255, 254, 28); fill-opacity: 1;"></path><path d=" M41.218,71.944 C41.218,71.944 37.864,70.371 37.309,64.17399999999999 C37.257999999999996,63.33 36.985,58.851 37.987,55.911 C38.99,52.972 39.44,51.164 42.877,46.077999999999996 C46.314,40.992999999999995 50.967,37.649 53.721,36.664 C56.475,35.679 59.367,35.081999999999994 61.754999999999995,36.599 C61.754999999999995,36.599 59.12,34.209999999999994 55.03,34.858999999999995 C50.939,35.507 47.045,38.241 43.484,42.217999999999996 C39.924,46.195 37.937,50.516 36.579,54.745999999999995 C35.221,58.976 35.474,63.113 35.793,64.943 C36.111,66.773 37.278,70.646 41.218,71.944z" style="fill: rgb(252, 252, 252); fill-opacity: 1;"></path><g style="stroke-linecap: round; stroke-linejoin: round; fill-opacity: 0; stroke: rgb(255, 255, 255); stroke-opacity: 1; stroke-width: 1.062;"><path d=" M35.232,59.533 C35.232,59.533 7.612000000000002,42.717 7.612000000000002,42.717 C7.612000000000002,42.717 4.734,41.655 2.654,44.842"></path></g><path d=" M35.214999999999996,61.464 C35.214999999999996,61.464 35.214999999999996,61.464 35.214999999999996,61.464 C34.593999999999994,61.327 34.196999999999996,60.708 34.333,60.087 C34.333,60.087 34.629,58.743 34.629,58.743 C34.765,58.122 35.385,57.726 36.006,57.863 C36.626999999999995,57.999 37.025,58.619 36.888,59.24 C36.888,59.24 36.592999999999996,60.583 36.592999999999996,60.583 C36.455999999999996,61.204 35.836,61.601 35.214999999999996,61.464z" style="fill: rgb(255, 254, 28); fill-opacity: 1;"></path><path d=" M63.836000000000006,39.272999999999996 C63.836000000000006,39.272999999999996 67.762,34.775999999999996 71.18700000000001,35.58 C71.18700000000001,35.58 72.988,37.245 72.988,37.245 C72.988,37.245 72.361,38.476 72.361,38.476 C72.361,38.476 68.302,37.101 65.277,42.054 C65.277,42.054 63.836000000000006,39.272999999999996 63.836000000000006,39.272999999999996z" style="fill: rgb(252, 252, 252); fill-opacity: 1;"></path><path d=" M76.218,51.944 C76.218,51.944 72.864,50.370999999999995 72.309,44.174 C72.258,43.33 71.985,38.851 72.987,35.911 C73.99,32.972 74.44,31.163999999999998 77.877,26.078 C81.314,20.993 85.967,17.648999999999997 88.721,16.663999999999998 C91.475,15.678999999999998 94.367,15.081999999999997 96.755,16.598999999999997 C96.755,16.598999999999997 94.12,14.209999999999997 90.03,14.858999999999998 C85.939,15.506999999999998 82.045,18.241 78.484,22.217999999999996 C74.924,26.195 72.937,30.516 71.579,34.745999999999995 C70.221,38.976 70.474,43.113 70.793,44.943 C71.111,46.772999999999996 72.278,50.646 76.218,51.944z" style="fill: rgb(252, 252, 252); fill-opacity: 1;"></path><path d=" M86.042,19.313 C89.649,17.229999999999997 92.911,17.029999999999998 95.275,18.377 C97.64500000000001,19.727999999999998 99.111,22.628999999999998 99.129,26.762999999999998 C99.129,26.762999999999998 99.88300000000001,26.329 99.88300000000001,26.329 C99.88300000000001,26.329 99.129,26.762999999999998 99.129,26.762999999999998 C99.135,30.912 97.69,35.488 95.33500000000001,39.566 C92.98700000000001,43.641 89.73400000000001,47.193 86.12700000000001,49.275999999999996 C82.52600000000001,51.355000000000004 79.265,51.562 76.90100000000001,50.208 C74.531,48.857 73.059,45.966 73.047,41.821 C73.035,37.683 74.487,33.098 76.84100000000001,29.019 C79.19,24.951999999999998 82.441,21.392 86.042,19.313z" style="fill: rgb(63, 135, 255); fill-opacity: 1;"></path><path d=" M51.443000000000005,39.238 C55.057,37.152 58.330000000000005,36.944 60.707,38.29900000000001 C63.083,39.660000000000004 64.556,42.565000000000005 64.568,46.717000000000006 C64.568,46.717000000000006 65.27600000000001,46.30800000000001 65.27600000000001,46.30800000000001 C65.27600000000001,46.30800000000001 64.568,46.717000000000006 64.568,46.717000000000006 C64.58,50.870000000000005 63.128,55.470000000000006 60.767,59.56 C58.406000000000006,63.649 55.142,67.21600000000001 51.528000000000006,69.303 C47.914,71.38900000000001 44.641000000000005,71.596 42.264,70.242 C39.888000000000005,68.888 38.415000000000006,65.976 38.403000000000006,61.823 C38.392,57.67100000000001 39.843,53.078 42.204,48.981 C44.565000000000005,44.892 47.829,41.324000000000005 51.443000000000005,39.238z" style="fill: rgb(63, 135, 255); fill-opacity: 1;"></path><path d=" M40.510000000000005,68.664 C40.510000000000005,68.664 49.988,61.71 52.715,58.589 C56.079,54.738 58.386,48.408 63.83,42.388 C63.83,42.388 66.196,48.212 62.176,56.819 C58.054,65.643 51.253,70.872 45.766000000000005,71.026 C42.303,71.124 40.510000000000005,68.664 40.510000000000005,68.664z" style="fill: rgb(55, 119, 224); fill-opacity: 1;"></path><path d=" M75.12599999999999,48.684999999999995 C75.12599999999999,48.684999999999995 84.604,41.730999999999995 87.33099999999999,38.61 C90.695,34.759 92.997,28.436 98.44099999999999,22.416999999999998 C98.44099999999999,22.416999999999998 100.812,28.232999999999997 96.792,36.839 C92.66999999999999,45.663999999999994 85.83,50.789 80.38199999999999,51.047 C77.014,51.206999999999994 75.12599999999999,48.684999999999995 75.12599999999999,48.684999999999995z" style="fill: rgb(55, 119, 224); fill-opacity: 1;"></path><g style="stroke-linecap: round; stroke-linejoin: round; fill-opacity: 0; stroke: rgb(255, 255, 255); stroke-opacity: 1; stroke-width: 1;"><path d=" M44.267,51.883 C44.267,51.883 46.142,47.915 49.767,45.836999999999996"></path></g><g style="stroke-linecap: round; stroke-linejoin: round; fill-opacity: 0; stroke: rgb(255, 255, 255); stroke-opacity: 1; stroke-width: 1;"><path d=" M79.267,30.883 C79.267,30.883 81.142,26.915 84.767,24.837"></path></g><path d=" M86.037,17.581999999999997 C79.625,21.284999999999997 74.19500000000001,29.196999999999996 72.279,36.933 C72.437,36.952 72.598,36.983 72.759,37.018 C72.598,36.983 72.437,36.952 72.279,36.933 C70.968,36.782 69.73700000000001,37.173 68.655,37.797 C67.151,38.665 65.934,39.986 65.184,40.931 C64.663,41.586 64.366,42.061 64.35600000000001,42.077999999999996 C64.063,42.555 64.039,43.090999999999994 64.308,43.274 C64.336,43.294 64.375,43.288 64.407,43.299 C64.375,43.288 64.336,43.294 64.308,43.274 C64.039,43.090999999999994 64.063,42.555 64.35600000000001,42.077999999999996 C64.366,42.061 64.662,41.586 65.183,40.931 C63.207,35.522 57.793000000000006,33.94 51.438,37.608999999999995 C43.432,42.232 36.959,53.44199999999999 36.985,62.641999999999996 C37.012,71.84899999999999 43.526,75.554 51.532000000000004,70.931 C59.539,66.309 66.011,55.105999999999995 65.985,45.899 C65.98100000000001,44.602999999999994 65.848,43.416 65.601,42.345 C66.083,41.668 67.166,40.312 68.614,39.476 C69.566,38.925999999999995 70.677,38.602 71.878,38.842999999999996 C71.914,38.849999999999994 71.95,38.858 71.986,38.866 C71.95,38.858 71.914,38.849999999999994 71.878,38.842999999999996 C71.654,40.147999999999996 71.537,41.439 71.54,42.692 C71.566,51.928999999999995 78.1,55.644999999999996 86.132,51.007 C94.17,46.366 100.661,35.131 100.635,25.894 C100.60900000000001,16.665 94.075,12.941999999999997 86.037,17.581999999999997z M60.767,59.559999999999995 C58.406000000000006,63.649 55.141000000000005,67.216 51.528000000000006,69.303 C47.914,71.389 44.64,71.596 42.264,70.24199999999999 C39.887,68.888 38.415000000000006,65.976 38.403000000000006,61.82299999999999 C38.391000000000005,57.67099999999999 39.843,53.077999999999996 42.204,48.980999999999995 C44.565,44.891999999999996 47.829,41.324 51.443,39.238 C55.056,37.152 58.330000000000005,36.943999999999996 60.706,38.297999999999995 C63.083000000000006,39.66 64.555,42.565 64.56700000000001,46.717 C64.57900000000001,50.87 63.128,55.47 60.767,59.559999999999995z M73.058,37.162 C73.04,37.138999999999996 73.00800000000001,37.134 72.986,37.117 C73.00800000000001,37.134 73.04,37.138999999999996 73.058,37.162z M86.12700000000001,49.275999999999996 C82.52600000000001,51.355 79.26400000000001,51.562 76.9,50.208 C74.53,48.857 73.059,45.967 73.047,41.821999999999996 C73.035,37.684 74.48700000000001,33.099 76.84100000000001,29.019999999999996 C79.19,24.952999999999996 82.441,21.392999999999997 86.042,19.313999999999997 C89.649,17.230999999999995 92.91,17.030999999999995 95.274,18.377999999999997 C97.644,19.728999999999996 99.11,22.629999999999995 99.128,26.763999999999996 C99.134,30.912999999999997 97.688,35.488 95.333,39.565999999999995 C92.985,43.641 89.73400000000001,47.193 86.12700000000001,49.275999999999996z" style="fill: rgb(240, 240, 240); fill-opacity: 1;"></path></g><g style="user-select: none;"><g style="stroke-linecap: round; stroke-linejoin: round; fill-opacity: 0; stroke: rgb(255, 255, 255); stroke-opacity: 1; stroke-width: 1.062; display: none;"><path></path></g><path style="fill: rgb(255, 254, 28); fill-opacity: 1; display: none;"></path><path style="fill: rgb(252, 252, 252); fill-opacity: 1; display: none;"></path><g style="stroke-linecap: round; stroke-linejoin: round; fill-opacity: 0; stroke: rgb(255, 255, 255); stroke-opacity: 1; stroke-width: 1.062; display: none;"><path></path></g><path style="fill: rgb(255, 254, 28); fill-opacity: 1; display: none;"></path><path style="fill: rgb(252, 252, 252); fill-opacity: 1; display: none;"></path><path style="fill: rgb(252, 252, 252); fill-opacity: 1; display: none;"></path><path style="fill: rgb(240, 178, 178); fill-opacity: 1; display: none;"></path><path style="fill: rgb(240, 178, 178); fill-opacity: 1; display: none;"></path><path style="fill: rgb(235, 162, 162); fill-opacity: 1; display: none;"></path><path style="fill: rgb(235, 162, 162); fill-opacity: 1; display: none;"></path><g style="stroke-linecap: round; stroke-linejoin: round; fill-opacity: 0; stroke: rgb(255, 255, 255); stroke-opacity: 1; stroke-width: 1; display: none;"><path></path></g><g style="stroke-linecap: round; stroke-linejoin: round; fill-opacity: 0; stroke: rgb(255, 255, 255); stroke-opacity: 1; stroke-width: 1; display: none;"><path></path></g><path style="fill: rgb(240, 240, 240); fill-opacity: 1; display: none;"></path></g><g transform="matrix(1.2,0,0,1.2,295.6896,226.9694)" style="user-select: none;"><path d=" M22.536,1.2779999999999996 C22.536,1.2779999999999996 2.0340000000000007,13.114999999999998 2.0340000000000007,13.114999999999998 C0.2530000000000001,14.143999999999998 0.2500000000000018,15.827 2.014000000000001,16.852 C2.014000000000001,16.852 2.4190000000000005,17.089 2.4190000000000005,17.089 C4.189,18.118000000000002 7.091000000000001,18.118000000000002 8.872,17.089 C8.872,17.089 29.373,5.252999999999999 29.373,5.252999999999999 C31.154000000000003,4.223999999999999 31.164,2.5429999999999993 29.394,1.5149999999999997 C29.394,1.5149999999999997 28.988,1.2779999999999996 28.988,1.2779999999999996 C27.225,0.2530000000000001 24.317,0.25 22.536,1.2779999999999996z" style="fill: rgb(132, 167, 255); fill-opacity: 1;"></path><path d=" M20.675,5.237 C20.675,5.237 11.270000000000001,10.667 11.270000000000001,10.667 C11.015,10.814 11.014000000000003,11.05 11.267000000000003,11.198 C11.267000000000003,11.198 11.318000000000001,11.227 11.318000000000001,11.227 C11.572000000000001,11.373999999999999 11.979000000000003,11.375 12.235000000000003,11.227 C12.235000000000003,11.227 21.639000000000003,5.797000000000001 21.639000000000003,5.797000000000001 C21.888,5.654 21.89,5.418 21.636000000000003,5.27 C21.636000000000003,5.27 21.585,5.241 21.585,5.241 C21.331000000000003,5.093 20.924,5.093 20.675,5.237z" style="fill: rgb(255, 255, 255); fill-opacity: 1;"></path></g><g transform="matrix(1,0,0,1,263.5,258.875)" style="user-select: none;"><g style="stroke-linecap: butt; stroke-linejoin: miter; fill-opacity: 0; stroke-miterlimit: 4; stroke: rgb(238, 238, 238); stroke-opacity: 1; stroke-width: 2;"><path d=" M27.375,-18.375 C27.375,-18.375 54.593,-33.711 54.593,-33.711"></path></g></g><g transform="matrix(1,0,0,1,259.125,255.875)" style="user-select: none;"><g style="stroke-linecap: butt; stroke-linejoin: miter; fill-opacity: 0; stroke-miterlimit: 4; stroke: rgb(238, 238, 238); stroke-opacity: 1; stroke-width: 2;"><path d=" M27.375,-18.375 C27.375,-18.375 78.75,-48.625 78.75,-48.625"></path></g></g><g transform="matrix(1,0,0,1,255,252.5)" style="user-select: none;"><g style="stroke-linecap: butt; stroke-linejoin: miter; fill-opacity: 0; stroke-miterlimit: 4; stroke: rgb(238, 238, 238); stroke-opacity: 1; stroke-width: 2;"><path d=" M27.375,-18.375 C27.375,-18.375 78.75,-48.625 78.75,-48.625"></path></g></g><g transform="matrix(1,0,0,1,250,250)" style="user-select: none;"><g style="stroke-linecap: butt; stroke-linejoin: miter; fill-opacity: 0; stroke-miterlimit: 4; stroke: rgb(238, 238, 238); stroke-opacity: 1; stroke-width: 2;"><path d=" M27.375,-18.375 C27.375,-18.375 78.75,-48.625 78.75,-48.625"></path></g></g><g transform="matrix(1.2,0,0,1.2,250.2668,190.825)" style="user-select: none;"><path d=" M11.538,11.968 C11.538,11.968 7.962999999999999,14.032 7.962999999999999,14.032 C7.962999999999999,14.032 12.815,16.852 12.815,16.852 C12.815,16.852 8.677999999999999,19.241 8.677999999999999,19.241 C8.677999999999999,19.241 3.8249999999999993,16.421 3.8249999999999993,16.421 C3.8249999999999993,16.421 0.25,18.485 0.25,18.485 C0.25,18.485 13.335999999999999,26.09 13.335999999999999,26.09 C13.335999999999999,26.09 16.911,24.026 16.911,24.026 C16.911,24.026 11.577,20.926 11.577,20.926 C11.577,20.926 15.713999999999999,18.537 15.713999999999999,18.537 C15.713999999999999,18.537 21.049,21.637 21.049,21.637 C21.049,21.637 24.624,19.573 24.624,19.573 C24.624,19.573 11.538,11.968 11.538,11.968z" style="fill: rgb(219, 219, 219); fill-opacity: 1;"></path><path d=" M23.714,12.765 C23.207,12.418 22.967,12.086 22.988,11.773 C23.009,11.46 23.22,11.184000000000001 23.634999999999998,10.945 C24.082,10.687 24.592,10.56 25.146,10.579 C25.712,10.597 26.238999999999997,10.741 26.741,11.017 C26.741,11.017 23.714,12.765 23.714,12.765z M21.128999999999998,9.635 C19.514,10.568000000000001 18.725,11.552 18.777,12.588000000000001 C18.822,13.620000000000001 19.701,14.634 21.413,15.629 C23.069,16.591 24.816,17.067 26.648999999999997,17.045 C28.488999999999997,17.027 30.261,16.526 31.959,15.545 C32.775999999999996,15.073 33.421,14.634 33.900999999999996,14.232 C34.381,13.83 34.765,13.388 35.035,12.908 C35.035,12.908 32.516999999999996,11.446 32.516999999999996,11.446 C32.196,11.962 31.83,12.4 31.427,12.765 C31.024,13.13 30.512999999999998,13.498 29.9,13.852 C29.217,14.246 28.516,14.461 27.802999999999997,14.498000000000001 C27.09,14.542 26.435,14.405 25.845,14.084 C25.845,14.084 32.14,10.45 32.14,10.45 C32.14,10.45 30.586,9.547 30.586,9.547 C29.089,8.677 27.52,8.253 25.884,8.271 C24.255,8.293 22.668,8.747 21.128999999999998,9.635z" style="fill: rgb(219, 219, 219); fill-opacity: 1;"></path><path d=" M37.741,0.25 C37.741,0.25 34.153,2.322 34.153,2.322 C34.153,2.322 38.214,6.7379999999999995 38.214,6.7379999999999995 C38.429,6.973999999999999 38.714,7.228 39.081,7.492999999999999 C39.081,7.492999999999999 39.011,7.534 39.011,7.534 C38.548,7.302 38.122,7.1209999999999996 37.735,6.992 C37.735,6.992 30.188000000000002,4.611 30.188000000000002,4.611 C30.188000000000002,4.611 26.478,6.752 26.478,6.752 C26.478,6.752 40.491,10.243 40.491,10.243 C40.788,10.645 40.957,10.958 41,11.190999999999999 C41.044,11.416 41.005,11.629 40.89,11.835999999999999 C40.78,12.039 40.562,12.23 40.249,12.411 C39.84,12.646999999999998 39.445,12.838 39.056,12.982 C39.056,12.982 41.802,14.578 41.802,14.578 C42.402,14.35 42.931,14.103 43.397,13.834 C44.611000000000004,13.133 45.309,12.399999999999999 45.498000000000005,11.637 C45.681,10.87 45.349000000000004,9.937 44.489000000000004,8.846 C44.489000000000004,8.846 37.741,0.25 37.741,0.25z" style="fill: rgb(219, 219, 219); fill-opacity: 1;"></path><path d=" M46.972,2.959 C46.346000000000004,3.3200000000000003 46.013,3.682 45.986000000000004,4.043 C45.958,4.404 46.217,4.747 46.763,5.064 C47.308,5.381 47.899,5.525 48.536,5.503 C49.179,5.477 49.797,5.296 50.397,4.95 C50.972,4.618 51.273,4.268 51.3,3.906 C51.322,3.541 51.069,3.202 50.53,2.8890000000000002 C49.984,2.572 49.4,2.4170000000000003 48.782000000000004,2.428 C48.165,2.439 47.566,2.616 46.972,2.959z" style="fill: rgb(219, 219, 219); fill-opacity: 1;"></path></g><g transform="matrix(1.19,0,0,1.19,250.17893000000004,193.01664)" style="user-select: none;"><path d=" M14.508000000000001,8.665 C13.882,9.07 12.866,9.68 11.461,10.491 C10.044,11.309 8.939,11.925 8.148,12.337 C8.148,12.337 8.516,12.550999999999998 8.516,12.550999999999998 C8.924,12.337 9.25,12.201 9.511,12.146 C9.766,12.087 10.02,12.102 10.293,12.186 C10.567,12.271 10.935,12.448 11.391,12.713 C11.391,12.713 15.718,15.225999999999999 15.718,15.225999999999999 C15.718,15.225999999999999 11.567,17.622 11.567,17.622 C11.567,17.622 7.2410000000000005,15.109 7.2410000000000005,15.109 C6.785,14.844 6.4799999999999995,14.629999999999999 6.335,14.472 C6.189,14.312999999999999 6.165,14.166 6.267,14.018 C6.364000000000001,13.867 6.607,13.675999999999998 6.9830000000000005,13.436 C6.9830000000000005,13.436 6.6160000000000005,13.222 6.6160000000000005,13.222 C5.932,13.661 4.923,14.265 3.5890000000000004,15.036 C2.101000000000001,15.895 0.9900000000000002,16.514 0.25,16.897 C0.25,16.897 0.6180000000000003,17.111 0.6180000000000003,17.111 C1.0259999999999998,16.897 1.3520000000000003,16.761 1.6129999999999995,16.706 C1.8680000000000003,16.647 2.1290000000000013,16.658 2.402000000000001,16.742 C2.6750000000000007,16.826999999999998 3.0500000000000007,17 3.5060000000000002,17.266 C3.5060000000000002,17.266 12.596,22.548000000000002 12.596,22.548000000000002 C13.059000000000001,22.817 13.363,23.031 13.502,23.186 C13.648,23.344 13.673,23.499 13.57,23.647 C13.474,23.791 13.237,23.986 12.86,24.226 C12.86,24.226 13.228,24.439 13.228,24.439 C13.892,24.012 14.965,23.369 16.453,22.509999999999998 C17.787,21.740000000000002 18.834,21.159 19.594,20.764 C19.594,20.764 19.227,20.549 19.227,20.549 C18.818,20.762999999999998 18.48,20.901 18.232,20.956 C17.977,21.015 17.71,21 17.43,20.919 C17.163,20.838 16.794,20.661 16.331,20.392 C16.331,20.392 11.929,17.834 11.929,17.834 C11.929,17.834 16.080000000000002,15.437 16.080000000000002,15.437 C16.080000000000002,15.437 20.482,17.996 20.482,17.996 C20.951,18.269 21.256,18.482 21.395,18.637 C21.54,18.796 21.565,18.942999999999998 21.469,19.087 C21.366,19.233999999999998 21.134999999999998,19.425 20.758,19.665 C20.758,19.665 21.126,19.88 21.126,19.88 C21.841,19.422 22.909,18.785 24.326,17.966 C25.737000000000002,17.152 26.79,16.566 27.486,16.208 C27.486,16.208 27.117,15.993 27.117,15.993 C26.702,16.211 26.372,16.344 26.123,16.4 C25.875,16.455 25.606,16.44 25.333,16.355 C25.060000000000002,16.278 24.692,16.101 24.229,15.831999999999999 C24.229,15.831999999999999 15.139,10.549 15.139,10.549 C14.682,10.283 14.378,10.068999999999999 14.233,9.911 C14.087,9.751999999999999 14.064,9.606 14.166,9.459 C14.256,9.311 14.492,9.123000000000001 14.875,8.879999999999999 C14.875,8.879999999999999 14.508000000000001,8.665 14.508000000000001,8.665z" style="fill: rgb(219, 219, 219); fill-opacity: 0;"></path><path d=" M25.188000000000002,10.568 C24.072,9.853 23.362000000000002,9.285 23.04,8.860999999999999 C22.718,8.437 22.726,8.131 23.064,7.936 C23.39,7.747999999999999 23.937,7.792 24.712,8.065 C25.493000000000002,8.341999999999999 26.356,8.761999999999999 27.32,9.337 C27.32,9.337 25.188000000000002,10.568 25.188000000000002,10.568z M22.767,7.607999999999999 C21.841,8.142999999999999 21.201999999999998,8.718 20.854,9.337 C20.495,9.956 20.497,10.600999999999999 20.837,11.271999999999998 C21.183,11.947 21.918,12.61 23.053,13.27 C24.798000000000002,14.283999999999999 26.456,14.796 28.028,14.806999999999999 C29.599,14.826 31.027,14.456999999999999 32.317,13.712 C33.013,13.311 33.473,12.876 33.692,12.404 C33.918,11.927999999999999 33.965,11.459999999999999 33.827,10.995999999999999 C33.684,10.535 33.432,10.093 33.065,9.68 C33.065,9.68 32.632,9.79 32.632,9.79 C32.856,10.609 32.521,11.28 31.627000000000002,11.796 C31.034,12.138 30.276,12.282 29.372,12.231 C28.456,12.178999999999998 27.414,11.809999999999999 26.241,11.128 C25.943,10.955 25.727,10.822 25.6,10.734 C25.6,10.734 30.363,7.984 30.363,7.984 C27.623,6.3919999999999995 25.091,6.265999999999999 22.767,7.607999999999999z" style="fill: rgb(219, 219, 219); fill-opacity: 0;"></path><path d=" M36.033,0.24899999999999967 C35.841,0.4189999999999996 35.388000000000005,0.7029999999999994 34.692,1.1049999999999995 C33.855000000000004,1.5879999999999992 33.185,1.9530000000000003 32.675000000000004,2.189 C32.675000000000004,2.189 33.062000000000005,2.4139999999999997 33.062000000000005,2.4139999999999997 C33.489000000000004,2.1959999999999997 33.991,2.112 34.551,2.1479999999999997 C35.111000000000004,2.1849999999999996 35.683,2.369999999999999 36.254000000000005,2.7009999999999996 C36.818000000000005,3.0289999999999995 37.318000000000005,3.4609999999999994 37.78,4.003 C37.78,4.003 39.361000000000004,5.801 39.361000000000004,5.801 C39.361000000000004,5.801 31.715000000000003,3.9989999999999997 31.715000000000003,3.9989999999999997 C31.563000000000002,3.969 31.442000000000004,3.929 31.353,3.877 C31.169000000000004,3.7699999999999996 31.157000000000004,3.652 31.292,3.516 C31.432000000000002,3.383 31.689000000000004,3.206 32.053000000000004,2.996 C32.053000000000004,2.996 31.666000000000004,2.771 31.666000000000004,2.771 C30.752000000000002,3.38 29.896,3.918 29.098000000000003,4.379 C28.07,4.9719999999999995 27.030000000000005,5.529 25.984,6.052 C25.984,6.052 26.369000000000003,6.277 26.369000000000003,6.277 C26.542,6.177 26.785000000000004,6.111 27.097,6.093 C27.409000000000002,6.067 27.867000000000004,6.117999999999999 28.471000000000004,6.255 C28.471000000000004,6.255 42.224000000000004,9.263 42.224000000000004,9.263 C42.224000000000004,9.263 42.415000000000006,9.491 42.415000000000006,9.491 C43.072,10.242999999999999 42.973,10.866 42.123000000000005,11.357 C41.830000000000005,11.526 41.619,11.64 41.472,11.696 C41.735,11.396999999999998 41.845000000000006,11.113 41.783,10.841000000000001 C41.727000000000004,10.571000000000002 41.550000000000004,10.349 41.258,10.18 C40.814,9.922 40.331,9.812 39.809000000000005,9.849 C39.281000000000006,9.889 38.764,10.055 38.241,10.358 C37.692,10.675 37.385000000000005,10.998999999999999 37.32,11.338000000000001 C37.241,11.677 37.42400000000001,11.968 37.856,12.219 C38.255,12.451 38.712,12.568999999999999 39.227000000000004,12.565999999999999 C39.743,12.562000000000001 40.253,12.488 40.757000000000005,12.33 C41.254000000000005,12.175 41.693000000000005,11.994 42.076,11.773 C42.843,11.331 43.271,10.914000000000001 43.356,10.527000000000001 C43.422000000000004,10.203 43.247,9.79 42.842,9.289 C42.842,9.289 41.400000000000006,7.556 41.400000000000006,7.556 C41.400000000000006,7.556 36.894000000000005,2.2589999999999995 36.894000000000005,2.2589999999999995 C36.533,1.8279999999999994 36.319,1.4740000000000002 36.269000000000005,1.194 C36.207,0.9139999999999997 36.266000000000005,0.6739999999999995 36.42,0.47499999999999964 C36.42,0.47499999999999964 36.033,0.24899999999999967 36.033,0.24899999999999967z" style="fill: rgb(219, 219, 219); fill-opacity: 0;"></path><path d=" M44.098,3.2569999999999997 C43.504,3.5999999999999996 43.184,3.94 43.138,4.2749999999999995 C43.091,4.611 43.331,4.928 43.851,5.2299999999999995 C44.372,5.532 44.918,5.670999999999999 45.497,5.646 C46.077,5.62 46.657,5.432 47.251,5.0889999999999995 C47.838,4.75 48.158,4.412 48.205,4.076 C48.257,3.7369999999999997 48.016999999999996,3.42 47.503,3.122 C46.983,2.819 46.437,2.679 45.851,2.7089999999999996 C45.272,2.735 44.685,2.9179999999999997 44.098,3.2569999999999997z" style="fill: rgb(219, 219, 219); fill-opacity: 0;"></path></g><g transform="matrix(1.2,0,0,1.2,280.96619999999996,166.5172)" style="user-select: none;"><path d=" M6.4559999999999995,0.2490000000000001 C6.4559999999999995,0.2490000000000001 0.2490000000000001,3.833 0.2490000000000001,3.833 C0.2490000000000001,3.833 1.3090000000000002,4.449 1.3090000000000002,4.449 C1.3090000000000002,4.449 7.515000000000001,0.8660000000000001 7.515000000000001,0.8660000000000001 C7.515000000000001,0.8660000000000001 6.4559999999999995,0.2490000000000001 6.4559999999999995,0.2490000000000001z" style="fill: rgb(219, 219, 219); fill-opacity: 1;"></path><path d=" M8.809999999999999,1.617 C8.809999999999999,1.617 2.6029999999999998,5.2010000000000005 2.6029999999999998,5.2010000000000005 C2.6029999999999998,5.2010000000000005 3.663,5.817 3.663,5.817 C3.663,5.817 9.869,2.234 9.869,2.234 C9.869,2.234 8.809999999999999,1.617 8.809999999999999,1.617z" style="fill: rgb(219, 219, 219); fill-opacity: 1;"></path><path d=" M11.169,2.988 C11.169,2.988 4.962000000000001,6.572 4.962000000000001,6.572 C4.962000000000001,6.572 6.022,7.188000000000001 6.022,7.188000000000001 C6.022,7.188000000000001 12.228000000000002,3.605 12.228000000000002,3.605 C12.228000000000002,3.605 11.169,2.988 11.169,2.988z" style="fill: rgb(219, 219, 219); fill-opacity: 1;"></path></g><g style="user-select: none;"><path style="fill: rgb(0, 0, 0); fill-opacity: 1; display: none;"></path></g><g style="user-select: none;"><path style="fill: rgb(255, 255, 255); fill-opacity: 1; display: none;"></path></g><g style="user-select: none;"><path style="fill: rgb(0, 0, 0); fill-opacity: 1; display: none;"></path></g><g style="user-select: none;"><path style="fill: rgb(255, 255, 255); fill-opacity: 1; display: none;"></path></g><g style="user-select: none;"><path style="fill: rgb(0, 0, 0); fill-opacity: 1; display: none;"></path></g><g style="user-select: none;"><path style="fill: rgb(255, 255, 255); fill-opacity: 1; display: none;"></path></g></g></g></svg>