<svg xmlns="http://www.w3.org/2000/svg" width="500" height="500" viewBox="0 0 500 500" preserveAspectRatio="xMidYMid meet"><defs><clipPath id="animationMask_jqKOW6yLwv"><rect width="500" height="500" x="0" y="0"></rect></clipPath></defs><g clip-path="url(#animationMask_jqKOW6yLwv)" style="user-select: none;"><g transform="matrix(1,0,0,1,162.803,141.47968641785417)" style="user-select: none;"><path d=" M152.35,118.423 C152.35,118.423 152.36,121.923 152.36,121.923 C152.36,121.923 16.882000000000005,200.14100000000002 16.882000000000005,200.14100000000002 C16.882000000000005,200.14100000000002 16.872,196.64100000000002 16.872,196.64100000000002 C16.872,196.64100000000002 152.35,118.423 152.35,118.423z" style="fill: rgb(193, 136, 117); fill-opacity: 1;"></path><path d=" M152.06,16.167 C152.06,16.167 152.35000000000002,118.423 152.35000000000002,118.423 C152.35000000000002,118.423 16.872,196.641 16.872,196.641 C16.872,196.641 16.882000000000005,200.141 16.882000000000005,200.141 C16.882000000000005,200.141 152.36,121.923 152.36,121.923 C152.36,121.923 16.882000000000005,200.141 16.882000000000005,200.141 C16.882000000000005,200.141 16.582000000000008,94.38499999999999 16.582000000000008,94.38499999999999 C16.582000000000008,94.38499999999999 152.06,16.167 152.06,16.167z" style="fill: rgb(59, 115, 255); fill-opacity: 1;"></path><path d=" M11.609000000000009,90.789 C11.609000000000009,90.789 156.996,6.849999999999994 156.996,6.849999999999994 C156.996,6.849999999999994 157.351,132.31 157.351,132.31 C157.351,132.31 11.963999999999999,216.25 11.963999999999999,216.25 C11.963999999999999,216.25 11.609000000000009,90.789 11.609000000000009,90.789z M152.35000000000002,118.422 C152.35000000000002,118.422 151.434,17.167 151.434,17.167 C151.434,17.167 17.34700000000001,94.525 17.34700000000001,94.525 C17.34700000000001,94.525 17.131,199.39 17.131,199.39 C17.131,199.39 152.359,121.922 152.359,121.922 C152.359,121.922 152.35000000000002,118.422 152.35000000000002,118.422z" style="fill: rgb(162, 98, 77); fill-opacity: 1;"></path><path d=" M175.834,116.953 C175.834,116.953 175.834,116.951 175.834,116.951 C175.834,116.951 175.834,116.953 175.834,116.953z" style="fill: rgb(255, 255, 255); fill-opacity: 1;"></path><path d=" M11.547000000000011,91.977 C11.547000000000011,91.977 0.2850000000000108,85.072 0.2850000000000108,85.072 C0.2850000000000108,85.072 145.638,0.25 145.638,0.25 C145.638,0.25 156.996,6.976000000000006 156.996,6.976000000000006 C156.996,6.976000000000006 11.547000000000011,91.977 11.547000000000011,91.977z" style="fill: rgb(120, 73, 57); fill-opacity: 1;"></path><path d=" M11.965,216.25 C11.965,216.25 0.6059999999999999,209.649 0.6059999999999999,209.649 C0.6059999999999999,209.649 0.25099999999999945,84.18799999999999 0.25099999999999945,84.18799999999999 C0.25099999999999945,84.18799999999999 11.609,90.78999999999999 11.609,90.78999999999999 C11.609,90.78999999999999 11.965,216.25 11.965,216.25z" style="fill: rgb(116, 70, 55); fill-opacity: 1;"></path></g><g transform="matrix(1,0,0,1,214.9017228565515,204.5521825354795)" style="user-select: none;"><path d=" M65.408,31.612000000000002 C65.387,24.204 65.366,16.795 65.345,9.387 C65.345,9.198999999999998 65.344,9.010000000000005 65.344,8.822000000000003 C65.336,6.239000000000004 64.616,3.1260000000000048 62.06,1.9080000000000013 C62.175,1.9570000000000007 62.288,2.009999999999998 62.399,2.067999999999998 C61.622,1.6159999999999997 60.843,1.0649999999999977 60,0.7419999999999973 C58.72,0.25 57.35,0.3540000000000063 56.056,0.7240000000000038 C54.954,1.0400000000000063 53.955,1.573999999999998 52.97,2.1430000000000007 C50.801,3.395000000000003 48.631,4.649000000000001 46.461,5.901000000000003 C38.881,10.278000000000006 31.3,14.654000000000003 23.719,19.031000000000002 C20.648000000000003,20.804000000000002 17.576,22.578 14.505000000000003,24.352 C12.695000000000004,25.396 10.818000000000001,26.372 9.190000000000001,27.693 C4.368000000000002,31.607 0.5740000000000052,38.026 0.5530000000000044,44.349000000000004 C0.5430000000000064,47.43 0.570999999999998,50.511 0.5799999999999983,53.592 C0.5919999999999987,57.875 0.6039999999999992,62.157 0.6159999999999997,66.44 C0.625,69.804 0.25,73.862 3.529,75.906 C3.817,76.08500000000001 4.117000000000001,76.24799999999999 4.411000000000001,76.418 C4.552,76.5 5.529,77.072 5.135000000000002,76.822 C7.970000000000002,78.61699999999999 11.372999999999998,77.24000000000001 13.982,75.73400000000001 C13.989999999999998,78.64 13.999000000000002,81.54599999999999 14.007000000000001,84.451 C14.011000000000003,86.056 14.015999999999998,87.662 14.02,89.267 C14.021,89.432 13.943999999999999,89.861 14.023,90.017 C14.218,90.404 15.395000000000003,90.815 15.786000000000001,91.042 C19.086000000000002,85.24600000000001 22.385,79.45 25.685000000000002,73.653 C26.571,72.09700000000001 27.457,70.53999999999999 28.344,68.983 C28.73,68.304 29.081,67.324 29.616,66.747 C29.897000000000002,66.445 30.399,66.256 30.758000000000003,66.049 C31.999000000000002,65.333 33.241,64.616 34.483000000000004,63.899 C41.159,60.044 47.836,56.189 54.512,52.335 C58.484,50.041 61.538,46.765 63.479,42.578 C64.682,39.982 65.402,37.17 65.416,34.301 C65.42,33.405 65.411,32.508 65.408,31.612000000000002z M43.045,42.146 C43.04,42.071 43.025000000000006,41.997 43.023,41.922 C43.021,41.835 43.031000000000006,41.97 43.045,42.146z M55.3,2.841000000000001 C55.620000000000005,2.655999999999999 55.622,2.655000000000001 55.3,2.841000000000001z M60.516999999999996,1.4720000000000013 C60.623000000000005,1.4849999999999994 60.730000000000004,1.4960000000000022 60.836,1.5090000000000003 C60.999,1.5420000000000016 60.893,1.5300000000000011 60.516999999999996,1.4720000000000013z M61.32,1.6289999999999978 C61.4,1.652000000000001 61.481,1.6749999999999972 61.561,1.6980000000000004 C61.742000000000004,1.7590000000000003 61.661,1.7349999999999994 61.32,1.6289999999999978z" style="fill: rgb(0, 0, 0); fill-opacity: 0.1;"></path></g><g transform="matrix(1,0,0,1,234.1997228565515,217.17318253547944)" style="user-select: none;"><path d=" M15.847,91.767 C15.847,91.767 14.083,90.742 14.083,90.742 C14.083,90.742 14.037,74.41900000000001 14.037,74.41900000000001 C14.037,74.41900000000001 15.801,75.444 15.801,75.444 C15.801,75.444 15.847,91.767 15.847,91.767z" style="fill: rgb(209, 209, 209); fill-opacity: 1;"></path><path d=" M57.331,2.642000000000003 C58.971000000000004,2.0530000000000044 60.897,1.884999999999998 62.459,2.7929999999999993 C62.459,2.7920000000000016 62.459,2.7920000000000016 62.46,2.7929999999999993 C61.727000000000004,2.3669999999999973 61.004,1.8689999999999998 60.223,1.5360000000000014 C58.902,0.9710000000000036 57.472,1.061 56.118,1.4480000000000004 C55.016000000000005,1.7629999999999981 54.016,2.298000000000002 53.031,2.8670000000000044 C50.861000000000004,4.119000000000007 48.691,5.372 46.522,6.625 C38.968,10.986 31.413,15.348000000000003 23.859,19.709000000000003 C20.777,21.488000000000003 17.695,23.269000000000002 14.613,25.048000000000002 C12.788,26.102000000000004 10.892,27.085 9.251000000000001,28.418000000000003 C4.437000000000001,32.325 0.6340000000000003,38.742000000000004 0.6140000000000008,45.056000000000004 C0.6039999999999992,48.078 0.6310000000000002,51.101 0.6389999999999993,54.124 C0.652000000000001,58.42400000000001 0.6640000000000015,62.723 0.6760000000000019,67.023 C0.6850000000000023,70.311 0.25,74.44800000000001 3.3949999999999996,76.51 C4.024999999999999,76.923 4.7010000000000005,77.27600000000001 5.3530000000000015,77.655 C2.2440000000000033,75.848 2.4510000000000005,72.04 2.442,68.915 C2.431000000000001,65.111 2.4209999999999994,61.30500000000001 2.41,57.5 C2.3999999999999986,54.05500000000001 2.3900000000000006,50.611000000000004 2.3810000000000002,47.166000000000004 C2.3679999999999986,42.641000000000005 3.7390000000000008,38.446000000000005 6.283000000000001,34.689 C8.371000000000002,31.605000000000004 11.033000000000001,29.158 14.240000000000002,27.306000000000004 C14.240000000000002,27.306000000000004 20.719,23.565000000000005 20.719,23.565000000000005 C27.763,19.498000000000005 34.807,15.433000000000003 41.851,11.366000000000003 C46.328,8.781000000000002 50.782,6.149999999999999 55.285,3.6090000000000018 C55.941,3.2379999999999995 56.620000000000005,2.8970000000000056 57.331,2.642000000000003z" style="fill: rgb(209, 209, 209); fill-opacity: 1;"></path><path d=" M55.361000000000004,3.5660000000000025 C61.105000000000004,0.25 65.385,2.936 65.404,9.546 C65.404,9.546 65.477,35.067 65.477,35.067 C65.496,41.677 61.242999999999995,49.208 55.498999999999995,52.525 C55.498999999999995,52.525 29.71,67.413 29.71,67.413 C29.71,67.413 15.847999999999999,91.767 15.847999999999999,91.767 C15.847999999999999,91.767 15.8,75.445 15.8,75.445 C15.8,75.445 13.381,76.842 13.381,76.842 C7.635999999999999,80.15899999999999 2.4689999999999976,78.066 2.4499999999999993,71.456 C2.4499999999999993,71.456 2.378,45.935 2.378,45.935 C2.3590000000000018,39.325 7.497,31.201 13.241,27.885 C13.241,27.885 55.361000000000004,3.5660000000000025 55.361000000000004,3.5660000000000025z" style="fill: rgb(255, 255, 255); fill-opacity: 1;"></path></g><g transform="matrix(1,0,0,1,253.9447228565515,265.72518253547946)" style="user-select: none;"><path d=" M3.759,1.3739999999999997 C1.82,2.4929999999999994 0.2490000000000001,5.215 0.2549999999999999,7.443 C0.2609999999999997,9.679 1.8419999999999999,10.58 3.781,9.461 C5.727,8.337 7.2989999999999995,5.615 7.293,3.379 C7.287000000000001,1.1509999999999998 5.705,0.2499999999999991 3.759,1.3739999999999997z" style="fill: rgb(59, 115, 255); fill-opacity: 1;"></path></g><g transform="matrix(1,0,0,1,267.6947228565515,258.22518253547946)" style="user-select: none;"><path d=" M3.759,1.3739999999999997 C1.82,2.4929999999999994 0.2490000000000001,5.215 0.2549999999999999,7.443 C0.2609999999999997,9.679 1.8419999999999999,10.58 3.781,9.461 C5.727,8.337 7.2989999999999995,5.615 7.293,3.379 C7.287000000000001,1.1509999999999998 5.705,0.2499999999999991 3.759,1.3739999999999997z" style="fill: rgb(59, 115, 255); fill-opacity: 1;"></path></g><g transform="matrix(1,0,0,1,281.4447228565515,250.1001825354795)" style="user-select: none;"><path d=" M3.759,1.3739999999999997 C1.82,2.4929999999999994 0.2490000000000001,5.215 0.2549999999999999,7.443 C0.2609999999999997,9.679 1.8419999999999999,10.58 3.781,9.461 C5.727,8.337 7.2989999999999995,5.615 7.293,3.379 C7.287000000000001,1.1509999999999998 5.705,0.2499999999999991 3.759,1.3739999999999997z" style="fill: rgb(59, 115, 255); fill-opacity: 1;"></path></g><g transform="matrix(0.838670567945424,0.544639035015027,-0.544639035015027,0.838670567945424,348.3984248548571,213.7583685264859)" style="user-select: none;"><path d=" M68.096,53.415 C69.553,54.214 71.399,53.675 72.19800000000001,52.218 C72.997,50.760999999999996 72.459,48.915 71.001,48.116 C71.001,48.116 -4.989999999999995,6.454000000000001 -4.989999999999995,6.454000000000001 C-4.989999999999995,6.454000000000001 -7.893999999999998,11.751000000000001 -7.893999999999998,11.751000000000001" style="fill: rgb(84, 79, 79); fill-opacity: 0.99;"></path><path d=" M-5.2090000000000005,6.454000000000001 C-5.2090000000000005,6.454000000000001 -15.068000000000001,1.0490000000000004 -15.068000000000001,1.0490000000000004 C-16.525,0.25 -18.371000000000002,0.7890000000000006 -19.17,2.2460000000000004 C-19.969,3.7030000000000003 -19.43,5.549 -17.973,6.348000000000001 C-17.973,6.348000000000001 -8.113,11.752 -8.113,11.752 C-8.113,11.752 -5.2090000000000005,6.454000000000001 -5.2090000000000005,6.454000000000001z" style="fill: rgb(255, 255, 255); fill-opacity: 0.99;"></path></g></g></svg>