<svg xmlns="http://www.w3.org/2000/svg" width="560" height="695" viewBox="0 0 560 695" preserveAspectRatio="xMidYMid meet"><defs><clipPath id="animationMask_dimkYDKsjK"><rect width="560" height="695" x="0" y="0"></rect></clipPath></defs><g clip-path="url(#animationMask_dimkYDKsjK)" style="user-select: none;"><g transform="matrix(1,0,0,1,13.848000000000013,536.184)" style="user-select: none;"><path d=" M268.401,155.019 C268.401,155.019 0.33799999999996544,0.25199999999999534 0.33799999999996544,0.25199999999999534 C0.33799999999996544,0.25199999999999534 0.25099999999997635,5.483999999999995 0.25099999999997635,5.483999999999995 C0.25099999999997635,5.483999999999995 265.829,158.816 265.829,158.816 C265.829,158.816 270.78,158.816 270.78,158.816 C270.78,158.816 534.633,5.4809999999999945 534.633,5.4809999999999945 C534.633,5.4809999999999945 534.721,0.25 534.721,0.25 C534.721,0.25 268.401,155.019 268.401,155.019z" style="fill: rgb(32, 43, 84); fill-opacity: 1;"></path></g><g transform="matrix(1,0,0,1,94.47499999999997,116.769)" style="user-select: none;"><path d=" M283.909,356.938 C283.909,356.938 217.24900000000002,318.20000000000005 217.24900000000002,318.20000000000005 C217.24900000000002,318.20000000000005 200.24900000000002,270.09400000000005 200.24900000000002,270.09400000000005 C200.24900000000002,270.09400000000005 266.909,308.833 266.909,308.833 C266.909,308.833 283.909,356.938 283.909,356.938z" style="fill: rgb(171, 71, 73); fill-opacity: 1;"></path><path d=" M192.5,285.472 C192.5,285.472 125.84,246.734 125.84,246.734 C125.84,246.734 181.847,214.398 181.847,214.398 C181.847,214.398 248.506,253.137 248.506,253.137 C248.506,253.137 192.5,285.472 192.5,285.472z" style="fill: rgb(217, 92, 93); fill-opacity: 1;"></path><path d=" M248.50599999999997,253.137 C248.50599999999997,253.137 181.84599999999998,214.399 181.84599999999998,214.399 C181.84599999999998,214.399 154.06,124.32900000000001 154.06,124.32900000000001 C154.06,124.32900000000001 220.719,163.068 220.719,163.068 C220.719,163.068 248.50599999999997,253.137 248.50599999999997,253.137z" style="fill: rgb(171, 71, 73); fill-opacity: 1;"></path><path d=" M183.65900000000002,81.446 C183.65900000000002,81.446 116.99900000000001,42.708 116.99900000000001,42.708 C116.99900000000001,42.708 190.538,0.25 190.538,0.25 C190.538,0.25 257.197,38.989 257.197,38.989 C257.197,38.989 183.65900000000002,81.446 183.65900000000002,81.446z" style="fill: rgb(79, 102, 191); fill-opacity: 1;"></path><path d=" M84.94999999999999,471.807 C84.94999999999999,471.807 18.289999999999992,433.068 18.289999999999992,433.068 C18.289999999999992,433.068 117,42.708 117,42.708 C117,42.708 183.66,81.446 183.66,81.446 C183.66,81.446 84.94999999999999,471.807 84.94999999999999,471.807z" style="fill: rgb(35, 45, 84); fill-opacity: 1;"></path><g style="stroke-linecap: round; stroke-linejoin: round; fill-opacity: 0; stroke: rgb(161, 161, 161); stroke-opacity: 1; stroke-width: 4;"><path d=" M75.188,438.231 C75.188,438.231 83.348,449.398 83.348,449.398"></path></g><g style="stroke-linecap: round; stroke-linejoin: round; fill-opacity: 0; stroke: rgb(219, 219, 219); stroke-opacity: 1; stroke-width: 4;"><path d=" M122.376,49.821 C122.376,49.821 100.93,61.278999999999996 100.93,61.278999999999996"></path></g><g style="stroke-linecap: round; stroke-linejoin: round; fill-opacity: 0; stroke: rgb(219, 219, 219); stroke-opacity: 1; stroke-width: 4;"><path d=" M174.60000000000002,83.066 C174.60000000000002,83.066 153.154,94.524 153.154,94.524"></path></g><path d=" M257.198,38.988 C257.198,38.988 355.731,315.471 355.731,315.471 C355.731,315.471 283.909,356.937 283.909,356.937 C283.909,356.937 266.909,308.832 266.909,308.832 C266.909,308.832 174.12800000000001,362.399 174.12800000000001,362.399 C174.12800000000001,362.399 156.42700000000002,430.539 156.42700000000002,430.539 C156.42700000000002,430.539 84.95100000000002,471.806 84.95100000000002,471.806 C84.95100000000002,471.806 183.659,81.446 183.659,81.446 C183.659,81.446 257.198,38.988 257.198,38.988z M192.5,285.472 C192.5,285.472 248.506,253.137 248.506,253.137 C248.506,253.137 220.72,163.067 220.72,163.067 C220.72,163.067 220.03,163.46499999999997 220.03,163.46499999999997 C220.03,163.46499999999997 192.5,285.472 192.5,285.472z" style="fill: rgb(55, 71, 133); fill-opacity: 1;"></path><path d=" M216.665,103.333 C216.665,103.333 201.284,118.812 201.284,118.812 C201.284,118.812 201.295,125.155 201.295,125.155 C201.295,125.155 216.714,122.845 216.714,122.845 C216.714,122.845 216.69899999999998,117.416 216.69899999999998,117.416 C216.69899999999998,117.416 208.063,119.102 208.063,119.102 C208.063,119.102 208.063,119.036 208.063,119.036 C208.063,119.036 216.679,110.762 216.679,110.762 C216.679,110.762 216.665,105.333 216.665,105.333 C216.665,105.333 216.665,103.333 216.665,103.333z" style="fill: rgb(39, 49, 85); fill-opacity: 1;"></path><path d=" M239.605,92.088 C239.605,92.088 239.619,97.517 239.619,97.517 C239.619,97.517 248.254,95.831 248.254,95.831 C248.254,95.831 248.255,95.89699999999999 248.255,95.89699999999999 C248.255,95.89699999999999 239.638,104.17099999999999 239.638,104.17099999999999 C239.638,104.17099999999999 239.654,110.601 239.654,110.601 C239.654,110.601 255.035,95.128 255.035,95.128 C255.035,95.128 255.022,89.785 255.022,89.785 C255.022,89.785 239.605,92.088 239.605,92.088z" style="fill: rgb(39, 49, 85); fill-opacity: 1;"></path><path d=" M238.546,84.20400000000001 C238.546,84.20400000000001 232.697,87.58200000000001 232.697,87.58200000000001 C232.697,87.58200000000001 215.93200000000002,131.798 215.93200000000002,131.798 C215.93200000000002,131.798 221.775,128.424 221.775,128.424 C221.775,128.424 238.546,84.20400000000001 238.546,84.20400000000001z" style="fill: rgb(39, 49, 85); fill-opacity: 1;"></path><g style="stroke-linecap: round; stroke-linejoin: round; fill-opacity: 0; stroke: rgb(15, 19, 36); stroke-opacity: 1; stroke-width: 1;"><path d=" M201.97400000000002,124.329 C201.97400000000002,124.329 208.078,127.855 208.078,127.855"></path></g><g style="stroke-linecap: round; stroke-linejoin: round; fill-opacity: 0; stroke: rgb(15, 19, 36); stroke-opacity: 1; stroke-width: 1;"><path d=" M201.97400000000002,119.178 C201.97400000000002,119.178 208.078,122.70400000000001 208.078,122.70400000000001"></path></g><g style="stroke-linecap: round; stroke-linejoin: round; fill-opacity: 0; stroke: rgb(15, 19, 36); stroke-opacity: 1; stroke-width: 1;"><path d=" M215.49800000000002,108.00099999999999 C215.49800000000002,108.00099999999999 221.602,111.527 221.602,111.527"></path></g><g style="stroke-linecap: round; stroke-linejoin: round; fill-opacity: 0; stroke: rgb(15, 19, 36); stroke-opacity: 1; stroke-width: 1;"><path d=" M235.494,88.023 C235.494,88.023 241.59799999999998,91.549 241.59799999999998,91.549"></path></g><g style="stroke-linecap: round; stroke-linejoin: round; fill-opacity: 0; stroke: rgb(15, 19, 36); stroke-opacity: 1; stroke-width: 1;"><path d=" M254.145,90.949 C254.145,90.949 260.249,94.47500000000001 260.249,94.47500000000001"></path></g><g style="stroke-linecap: round; stroke-linejoin: round; fill-opacity: 0; stroke: rgb(15, 19, 36); stroke-opacity: 1; stroke-width: 1;"><path d=" M254.145,94.47399999999999 C254.145,94.47399999999999 260.249,98 260.249,98"></path></g><g style="stroke-linecap: round; stroke-linejoin: round; fill-opacity: 0; stroke: rgb(15, 19, 36); stroke-opacity: 1; stroke-width: 1;"><path d=" M241.215,106.01899999999999 C241.215,106.01899999999999 247.319,109.545 247.319,109.545"></path></g><g style="stroke-linecap: round; stroke-linejoin: round; fill-opacity: 0; stroke: rgb(15, 19, 36); stroke-opacity: 1; stroke-width: 1;"><path d=" M241.215,95.021 C241.215,95.021 247.319,98.54700000000001 247.319,98.54700000000001"></path></g><g style="stroke-linecap: round; stroke-linejoin: round; fill-opacity: 0; stroke: rgb(15, 19, 36); stroke-opacity: 1; stroke-width: 1;"><path d=" M220.18300000000002,127.85399999999998 C220.18300000000002,127.85399999999998 226.287,131.38 226.287,131.38"></path></g><g style="stroke-linecap: round; stroke-linejoin: round; fill-opacity: 0; stroke: rgb(15, 19, 36); stroke-opacity: 1; stroke-width: 1;"><path d=" M216.231,120.125 C216.231,120.125 222.33499999999998,123.65100000000001 222.33499999999998,123.65100000000001"></path></g><path d=" M223.185,107.125 C223.185,107.125 207.804,122.604 207.804,122.604 C207.804,122.604 207.815,128.947 207.815,128.947 C207.815,128.947 223.234,126.637 223.234,126.637 C223.234,126.637 223.219,121.208 223.219,121.208 C223.219,121.208 214.583,122.894 214.583,122.894 C214.583,122.894 214.583,122.828 214.583,122.828 C214.583,122.828 223.199,114.554 223.199,114.554 C223.199,114.554 223.185,109.125 223.185,109.125" style="fill: rgb(158, 178, 255); fill-opacity: 1;"></path><path d=" M246.125,95.88 C246.125,95.88 246.139,101.309 246.139,101.309 C246.139,101.309 254.774,99.623 254.774,99.623 C254.774,99.623 254.775,99.689 254.775,99.689 C254.775,99.689 246.15800000000002,107.963 246.15800000000002,107.963 C246.15800000000002,107.963 246.174,114.393 246.174,114.393 C246.174,114.393 261.555,98.92 261.555,98.92 C261.555,98.92 261.54200000000003,93.577 261.54200000000003,93.577 C261.54200000000003,93.577 246.125,95.88 246.125,95.88z" style="fill: rgb(158, 178, 255); fill-opacity: 1;"></path><path d=" M245.06699999999998,87.99600000000001 C245.06699999999998,87.99600000000001 239.218,91.37400000000001 239.218,91.37400000000001 C239.218,91.37400000000001 222.453,135.59 222.453,135.59 C222.453,135.59 228.296,132.216 228.296,132.216 C228.296,132.216 245.06699999999998,87.99600000000001 245.06699999999998,87.99600000000001z" style="fill: rgb(158, 178, 255); fill-opacity: 1;"></path><path d=" M156.42700000000002,430.539 C156.42700000000002,430.539 283.909,356.937 283.909,356.937 C283.909,356.937 233.761,328.12 233.761,328.12 C233.761,328.12 174.12800000000001,362.399 174.12800000000001,362.399 C174.12800000000001,362.399 156.42700000000002,430.539 156.42700000000002,430.539z" style="fill: rgb(28, 39, 81); fill-opacity: 1;"></path><path d=" M67.105,482.356 C67.105,482.356 0.24899999999999523,443.625 0.24899999999999523,443.625 C0.24899999999999523,443.625 99.788,50.057000000000016 99.788,50.057000000000016 C99.788,50.057000000000016 166.446,88.79600000000002 166.446,88.79600000000002 C166.446,88.79600000000002 67.105,482.356 67.105,482.356z" style="fill: rgb(173, 64, 66); fill-opacity: 1;"></path><path d=" M99.787,50.057 C99.787,50.057 102.97400000000002,48.681 102.97400000000002,48.681 C102.97400000000002,48.681 169.63400000000001,87.42 169.63400000000001,87.42 C169.63400000000001,87.42 166.447,88.795 166.447,88.795 C166.447,88.795 99.787,50.057 99.787,50.057z" style="fill: rgb(255, 120, 123); fill-opacity: 1;"></path><path d=" M166.448,88.79499999999999 C166.448,88.79499999999999 67.106,482.355 67.106,482.355 C67.106,482.355 70.293,480.60400000000004 70.293,480.60400000000004 C70.293,480.60400000000004 169.63400000000001,87.41900000000001 169.63400000000001,87.41900000000001 C169.63400000000001,87.41900000000001 166.448,88.79499999999999 166.448,88.79499999999999z" style="fill: rgb(224, 93, 96); fill-opacity: 1;"></path><g style="stroke-linecap: round; stroke-linejoin: round; fill-opacity: 0; stroke: rgb(133, 56, 57); stroke-opacity: 1; stroke-width: 3;"><path d=" M103.527,60.03799999999998 C103.527,60.03799999999998 16.882999999999996,404.969 16.882999999999996,404.969"></path></g><g style="stroke-linecap: round; stroke-linejoin: round; fill-opacity: 0; stroke: rgb(133, 56, 57); stroke-opacity: 1; stroke-width: 3;"><path d=" M160.321,90.95899999999997 C160.321,90.95899999999997 73.67699999999999,435.889 73.67699999999999,435.889"></path></g><g style="stroke-linecap: round; stroke-linejoin: round; fill-opacity: 0; stroke: rgb(219, 219, 219); stroke-opacity: 1; stroke-width: 4;"><path d=" M16.398000000000003,404.73 C16.398000000000003,404.73 12.536000000000001,399.422 12.536000000000001,399.422 C12.536000000000001,399.422 96.027,63.986999999999995 96.027,63.986999999999995 C96.027,63.986999999999995 103.042,59.79999999999998 103.042,59.79999999999998"></path></g><g style="stroke-linecap: round; stroke-linejoin: round; fill-opacity: 0; stroke: rgb(219, 219, 219); stroke-opacity: 1; stroke-width: 4;"><path d=" M73.06800000000001,435.889 C73.06800000000001,435.889 69.206,430.581 69.206,430.581 C69.206,430.581 152.697,95.14599999999999 152.697,95.14599999999999 C152.697,95.14599999999999 159.712,90.95899999999997 159.712,90.95899999999997"></path></g><g style="stroke-linecap: round; stroke-linejoin: round; fill-opacity: 0; stroke: rgb(125, 53, 54); stroke-opacity: 1; stroke-width: 1;"><path d=" M19.349000000000004,454.689 C19.349000000000004,454.689 31.355000000000004,407.865 31.355000000000004,407.865 C31.355000000000004,407.865 52.418000000000006,395.949 52.418000000000006,395.949 C52.418000000000006,395.949 137.418,71.92500000000001 137.418,71.92500000000001 C137.418,71.92500000000001 140.98000000000002,70.18900000000002 140.98000000000002,70.18900000000002"></path></g><g style="stroke-linecap: butt; stroke-linejoin: miter; fill-opacity: 0; stroke-miterlimit: 10; stroke: rgb(125, 53, 54); stroke-opacity: 1; stroke-width: 1;"><path d=" M48.956,392.25399999999996 C48.639,393.40799999999996 47.59,394.126 46.614000000000004,393.85699999999997 C45.638000000000005,393.589 45.103,392.436 45.421,391.282 C45.738,390.128 46.786,389.40999999999997 47.763000000000005,389.679 C48.739000000000004,389.94699999999995 49.273,391.09999999999997 48.956,392.25399999999996z"></path></g><g style="stroke-linecap: butt; stroke-linejoin: miter; fill-opacity: 0; stroke-miterlimit: 10; stroke: rgb(125, 53, 54); stroke-opacity: 1; stroke-width: 1;"><path d=" M142.748,86.836 C142.43099999999998,87.99 141.38199999999998,88.708 140.40599999999998,88.439 C139.42999999999998,88.17099999999999 138.89499999999998,87.018 139.213,85.86399999999999 C139.53,84.71 140.578,83.99199999999999 141.55499999999998,84.261 C142.53099999999998,84.529 143.065,85.68199999999999 142.748,86.836z"></path></g><path d=" M84.94999999999999,471.807 C84.94999999999999,471.807 70.292,480.604 70.292,480.604 C70.292,480.604 74.107,465.50600000000003 74.107,465.50600000000003 C74.107,465.50600000000003 84.94999999999999,471.807 84.94999999999999,471.807z" style="fill: rgb(30, 38, 69); fill-opacity: 1;"></path><g style="stroke-linecap: round; stroke-linejoin: round; fill-opacity: 0; stroke: rgb(125, 53, 54); stroke-opacity: 1; stroke-width: 1;"><path d=" M122.007,88.059 C122.007,88.059 131.763,93.85900000000001 131.763,93.85900000000001"></path></g></g><g transform="matrix(1,0,0,1,271.793,167.565)" style="user-select: none;"><path d=" M-271.793,-167.56400000000002 C-271.793,-167.56400000000002 288.207,-167.56400000000002 288.207,-167.56400000000002 C288.207,-167.56400000000002 288.207,527.436 288.207,527.436 C288.207,527.436 -271.793,527.436 -271.793,527.436 C-271.793,527.436 -271.793,-167.56400000000002 -271.793,-167.56400000000002z M-271.793,527.436 C-271.793,527.436 288.207,527.436 288.207,527.436 C288.207,527.436 288.207,-167.56400000000002 288.207,-167.56400000000002 C288.207,-167.56400000000002 -271.793,-167.56400000000002 -271.793,-167.56400000000002 C-271.793,-167.56400000000002 -271.793,527.436 -271.793,527.436z M10.69,16.676 C8.827,15.599999999999998 5.811999999999999,15.556 3.961,16.631999999999998 C2.795,17.31 2.365,18.227 2.665,19.098 C2.665,19.098 4.0809999999999995,22.887 4.0809999999999995,22.887 C4.141,23.048 4.252000000000001,23.174999999999997 4.398,23.264 C4.91,23.575 6.218,24.262 7.742,24.262 C9.254,24.262 10.524000000000001,23.442999999999998 11.032,23.064 C11.184000000000001,22.95 11.286999999999999,22.875999999999998 11.324,22.689999999999998 C11.324,22.689999999999998 12.087,18.936 12.087,18.936 C12.087,18.936 12.067,18.936 12.067,18.936 C12.167,17.936 11.722999999999999,17.272 10.69,16.676z" style="fill: rgb(255, 255, 255); fill-opacity: 1;"></path><path d=" M-271.79200000000003,-167.56400000000002 C-271.79200000000003,-167.56400000000002 288.20799999999997,-167.56400000000002 288.20799999999997,-167.56400000000002 C288.20799999999997,-167.56400000000002 288.20799999999997,527.436 288.20799999999997,527.436 C288.20799999999997,527.436 -271.79200000000003,527.436 -271.79200000000003,527.436 C-271.79200000000003,527.436 -271.79200000000003,-167.56400000000002 -271.79200000000003,-167.56400000000002z M-271.79200000000003,527.436 C-271.79200000000003,527.436 288.20799999999997,527.436 288.20799999999997,527.436 C288.20799999999997,527.436 288.20799999999997,-167.56400000000002 288.20799999999997,-167.56400000000002 C288.20799999999997,-167.56400000000002 -271.79200000000003,-167.56400000000002 -271.79200000000003,-167.56400000000002 C-271.79200000000003,-167.56400000000002 -271.79200000000003,527.436 -271.79200000000003,527.436z M9.828,16.956000000000003 C8.443999999999999,16.157 6.204,16.157 4.829,16.956000000000003 C3.4479999999999995,17.759 3.4549999999999996,19.056 4.8389999999999995,19.855 C6.228999999999999,20.658 8.469,20.658 9.850999999999999,19.855 C11.225999999999999,19.056 11.218,17.759 9.828,16.956000000000003z" style="fill: rgb(173, 173, 173); fill-opacity: 1;"></path><path d=" M-271.793,-167.564 C-271.793,-167.564 288.207,-167.564 288.207,-167.564 C288.207,-167.564 288.207,527.436 288.207,527.436 C288.207,527.436 -271.793,527.436 -271.793,527.436 C-271.793,527.436 -271.793,-167.564 -271.793,-167.564z M-271.793,527.436 C-271.793,527.436 288.207,527.436 288.207,527.436 C288.207,527.436 288.207,-167.564 288.207,-167.564 C288.207,-167.564 -271.793,-167.564 -271.793,-167.564 C-271.793,-167.564 -271.793,527.436 -271.793,527.436z M10.225000000000001,18.276 C10.225000000000001,18.276 12.902000000000001,6.751000000000001 12.902000000000001,6.751000000000001 C12.902000000000001,6.751000000000001 10.337,13.355 10.337,13.355 C10.337,13.355 11.339,6.896000000000001 11.339,6.896000000000001 C11.339,6.896000000000001 9.477,12.001000000000001 9.477,12.001000000000001 C9.477,12.001000000000001 9.694,2.9170000000000007 9.694,2.9170000000000007 C9.694,2.9170000000000007 8.81,10.92 8.81,10.92 C8.81,10.92 8.61,0.2510000000000012 8.61,0.2510000000000012 C8.61,0.2510000000000012 7.292000000000001,7.671000000000001 6.569000000000001,12.389000000000001 C6.569000000000001,12.389000000000001 5.207000000000001,1.1260000000000012 5.207000000000001,1.1260000000000012 C5.207000000000001,1.1260000000000012 5.207000000000001,13.678 5.207000000000001,13.678 C5.207000000000001,13.678 3.6040000000000005,6.751000000000001 3.6040000000000005,6.751000000000001 C3.6040000000000005,6.751000000000001 4.839,15.780000000000001 4.839,15.780000000000001 C4.839,15.780000000000001 1.7110000000000003,7.636000000000001 1.7110000000000003,7.636000000000001 C1.7110000000000003,7.636000000000001 4.867000000000001,18.799 4.867000000000001,18.799 C4.867000000000001,18.799 4.774000000000001,18.802 4.774000000000001,18.802 C4.774000000000001,18.802 0.25,11.428 0.25,11.428 C0.25,11.428 3.8280000000000003,18.427 3.8280000000000003,18.427 C3.998,19.145000000000003 4.5680000000000005,20.381 7.470000000000001,20.381 C10.373000000000001,20.381 11.041,18.69 11.041,18.69 C11.041,18.69 14.412,9.928 14.412,9.928 C14.412,9.928 10.225000000000001,18.276 10.225000000000001,18.276z" style="fill: rgb(95, 186, 104); fill-opacity: 1;"></path></g><g transform="matrix(1,0,0,1,215.793,136.565)" style="user-select: none;"><path d=" M-215.793,-136.56400000000002 C-215.793,-136.56400000000002 344.207,-136.56400000000002 344.207,-136.56400000000002 C344.207,-136.56400000000002 344.207,558.436 344.207,558.436 C344.207,558.436 -215.793,558.436 -215.793,558.436 C-215.793,558.436 -215.793,-136.56400000000002 -215.793,-136.56400000000002z M-215.793,558.436 C-215.793,558.436 344.207,558.436 344.207,558.436 C344.207,558.436 344.207,-136.56400000000002 344.207,-136.56400000000002 C344.207,-136.56400000000002 -215.793,-136.56400000000002 -215.793,-136.56400000000002 C-215.793,-136.56400000000002 -215.793,558.436 -215.793,558.436z M10.69,16.676 C8.827,15.599999999999998 5.811999999999999,15.556 3.961,16.631999999999998 C2.795,17.31 2.365,18.227 2.665,19.098 C2.665,19.098 4.0809999999999995,22.887 4.0809999999999995,22.887 C4.141,23.048 4.252000000000001,23.174999999999997 4.398,23.264 C4.91,23.575 6.218,24.262 7.742,24.262 C9.254,24.262 10.524000000000001,23.442999999999998 11.032,23.064 C11.184000000000001,22.951 11.286999999999999,22.875999999999998 11.324,22.689999999999998 C11.324,22.689999999999998 12.087,18.936 12.087,18.936 C12.087,18.936 12.067,18.936 12.067,18.936 C12.167,17.936 11.722999999999999,17.272 10.69,16.676z" style="fill: rgb(255, 255, 255); fill-opacity: 1;"></path><path d=" M-215.792,-136.56400000000002 C-215.792,-136.56400000000002 344.20799999999997,-136.56400000000002 344.20799999999997,-136.56400000000002 C344.20799999999997,-136.56400000000002 344.20799999999997,558.436 344.20799999999997,558.436 C344.20799999999997,558.436 -215.792,558.436 -215.792,558.436 C-215.792,558.436 -215.792,-136.56400000000002 -215.792,-136.56400000000002z M-215.792,558.436 C-215.792,558.436 344.20799999999997,558.436 344.20799999999997,558.436 C344.20799999999997,558.436 344.20799999999997,-136.56400000000002 344.20799999999997,-136.56400000000002 C344.20799999999997,-136.56400000000002 -215.792,-136.56400000000002 -215.792,-136.56400000000002 C-215.792,-136.56400000000002 -215.792,558.436 -215.792,558.436z M9.828,16.956000000000003 C8.443999999999999,16.157 6.204,16.157 4.829,16.956000000000003 C3.4479999999999995,17.759 3.4549999999999996,19.057000000000002 4.8389999999999995,19.856 C6.228999999999999,20.659000000000002 8.469,20.659000000000002 9.850999999999999,19.856 C11.225999999999999,19.057000000000002 11.218,17.759 9.828,16.956000000000003z" style="fill: rgb(173, 173, 173); fill-opacity: 1;"></path><path d=" M-215.793,-136.564 C-215.793,-136.564 344.207,-136.564 344.207,-136.564 C344.207,-136.564 344.207,558.436 344.207,558.436 C344.207,558.436 -215.793,558.436 -215.793,558.436 C-215.793,558.436 -215.793,-136.564 -215.793,-136.564z M-215.793,558.436 C-215.793,558.436 344.207,558.436 344.207,558.436 C344.207,558.436 344.207,-136.564 344.207,-136.564 C344.207,-136.564 -215.793,-136.564 -215.793,-136.564 C-215.793,-136.564 -215.793,558.436 -215.793,558.436z M10.225000000000001,18.276 C10.225000000000001,18.276 12.903,6.751000000000001 12.903,6.751000000000001 C12.903,6.751000000000001 10.338000000000001,13.354000000000001 10.338000000000001,13.354000000000001 C10.338000000000001,13.354000000000001 11.339,6.895000000000001 11.339,6.895000000000001 C11.339,6.895000000000001 9.477,12.001000000000001 9.477,12.001000000000001 C9.477,12.001000000000001 9.694,2.9160000000000004 9.694,2.9160000000000004 C9.694,2.9160000000000004 8.81,10.92 8.81,10.92 C8.81,10.92 8.61,0.2510000000000012 8.61,0.2510000000000012 C8.61,0.2510000000000012 7.292000000000001,7.671000000000001 6.569000000000001,12.389000000000001 C6.569000000000001,12.389000000000001 5.207000000000001,1.1260000000000012 5.207000000000001,1.1260000000000012 C5.207000000000001,1.1260000000000012 5.207000000000001,13.677000000000001 5.207000000000001,13.677000000000001 C5.207000000000001,13.677000000000001 3.6040000000000005,6.751000000000001 3.6040000000000005,6.751000000000001 C3.6040000000000005,6.751000000000001 4.839,15.780000000000001 4.839,15.780000000000001 C4.839,15.780000000000001 1.7110000000000003,7.635000000000001 1.7110000000000003,7.635000000000001 C1.7110000000000003,7.635000000000001 4.867000000000001,18.799 4.867000000000001,18.799 C4.867000000000001,18.799 4.774000000000001,18.802 4.774000000000001,18.802 C4.774000000000001,18.802 0.25,11.427000000000001 0.25,11.427000000000001 C0.25,11.427000000000001 3.8280000000000003,18.426000000000002 3.8280000000000003,18.426000000000002 C3.998,19.144 4.5680000000000005,20.381 7.470000000000001,20.381 C10.373000000000001,20.381 11.041,18.69 11.041,18.69 C11.041,18.69 14.412,9.927000000000001 14.412,9.927000000000001 C14.412,9.927000000000001 10.225000000000001,18.276 10.225000000000001,18.276z" style="fill: rgb(95, 186, 104); fill-opacity: 1;"></path></g><g transform="matrix(1,0,0,1,248.052,114.34299999999999)" style="user-select: none;"><path d=" M0.25,32.580000000000005 C0.25,32.580000000000005 35.104,11.830000000000002 35.104,11.830000000000002 C35.104,11.830000000000002 72.414,28.483000000000004 72.414,28.483000000000004 C72.414,28.483000000000004 72.414,44.881 72.414,44.881 C72.414,44.881 47.612,60.33200000000001 47.612,60.33200000000001 C47.612,60.33200000000001 0.25,32.580000000000005 0.25,32.580000000000005z" style="fill: rgb(55, 71, 133); fill-opacity: 1;"></path><path d=" M-248.052,-114.34300000000002 C-248.052,-114.34300000000002 311.94800000000004,-114.34300000000002 311.94800000000004,-114.34300000000002 C311.94800000000004,-114.34300000000002 311.94800000000004,580.657 311.94800000000004,580.657 C311.94800000000004,580.657 -248.052,580.657 -248.052,580.657 C-248.052,580.657 -248.052,-114.34300000000002 -248.052,-114.34300000000002z M-248.052,580.657 C-248.052,580.657 311.94800000000004,580.657 311.94800000000004,580.657 C311.94800000000004,580.657 311.94800000000004,-114.34300000000002 311.94800000000004,-114.34300000000002 C311.94800000000004,-114.34300000000002 -248.052,-114.34300000000002 -248.052,-114.34300000000002 C-248.052,-114.34300000000002 -248.052,580.657 -248.052,580.657z M3.2550000000000003,33.864 C3.2550000000000003,33.864 2.709,33.864 2.709,33.864 C2.342,33.864 2.043,33.564 2.043,33.197 C2.043,33.197 2.043,16.799999999999997 2.043,16.799999999999997 C2.043,16.433999999999997 2.342,16.134 2.709,16.134 C2.709,16.134 3.2550000000000003,16.134 3.2550000000000003,16.134 C3.6220000000000003,16.134 3.9210000000000003,16.433999999999997 3.9210000000000003,16.799999999999997 C3.9210000000000003,16.799999999999997 3.9210000000000003,33.197 3.9210000000000003,33.197 C3.9210000000000003,33.564 3.6220000000000003,33.864 3.2550000000000003,33.864z" style="fill: rgb(235, 184, 147); fill-opacity: 1;"></path><path d=" M-248.052,-114.343 C-248.052,-114.343 311.94800000000004,-114.343 311.94800000000004,-114.343 C311.94800000000004,-114.343 311.94800000000004,580.657 311.94800000000004,580.657 C311.94800000000004,580.657 -248.052,580.657 -248.052,580.657 C-248.052,580.657 -248.052,-114.343 -248.052,-114.343z M-248.052,580.657 C-248.052,580.657 311.94800000000004,580.657 311.94800000000004,580.657 C311.94800000000004,580.657 311.94800000000004,-114.343 311.94800000000004,-114.343 C311.94800000000004,-114.343 -248.052,-114.343 -248.052,-114.343 C-248.052,-114.343 -248.052,580.657 -248.052,580.657z M47.885000000000005,60.332 C47.885000000000005,60.332 47.339,60.332 47.339,60.332 C46.972,60.332 46.673,60.032 46.673,59.665 C46.673,59.665 46.673,43.268 46.673,43.268 C46.673,42.902 46.972,42.602 47.339,42.602 C47.339,42.602 47.885000000000005,42.602 47.885000000000005,42.602 C48.252,42.602 48.551,42.902 48.551,43.268 C48.551,43.268 48.551,59.665 48.551,59.665 C48.551,60.032 48.252,60.332 47.885000000000005,60.332z" style="fill: rgb(235, 184, 147); fill-opacity: 1;"></path><path d=" M-248.052,-114.343 C-248.052,-114.343 311.948,-114.343 311.948,-114.343 C311.948,-114.343 311.948,580.657 311.948,580.657 C311.948,580.657 -248.052,580.657 -248.052,580.657 C-248.052,580.657 -248.052,-114.343 -248.052,-114.343z M-248.052,580.657 C-248.052,580.657 311.948,580.657 311.948,580.657 C311.948,580.657 311.948,-114.343 311.948,-114.343 C311.948,-114.343 -248.052,-114.343 -248.052,-114.343 C-248.052,-114.343 -248.052,580.657 -248.052,580.657z M71.74799999999999,45.547000000000004 C71.74799999999999,45.547000000000004 71.202,45.547000000000004 71.202,45.547000000000004 C70.835,45.547000000000004 70.536,45.247 70.536,44.88 C70.536,44.88 70.536,28.483000000000004 70.536,28.483000000000004 C70.536,28.117000000000004 70.835,27.817 71.202,27.817 C71.202,27.817 71.74799999999999,27.817 71.74799999999999,27.817 C72.115,27.817 72.41399999999999,28.117000000000004 72.41399999999999,28.483000000000004 C72.41399999999999,28.483000000000004 72.41399999999999,44.88 72.41399999999999,44.88 C72.41399999999999,45.247 72.115,45.547000000000004 71.74799999999999,45.547000000000004z" style="fill: rgb(235, 184, 147); fill-opacity: 1;"></path><path d=" M-248.05200000000002,-114.34300000000002 C-248.05200000000002,-114.34300000000002 311.948,-114.34300000000002 311.948,-114.34300000000002 C311.948,-114.34300000000002 311.948,580.6569999999999 311.948,580.6569999999999 C311.948,580.6569999999999 -248.05200000000002,580.6569999999999 -248.05200000000002,580.6569999999999 C-248.05200000000002,580.6569999999999 -248.05200000000002,-114.34300000000002 -248.05200000000002,-114.34300000000002z M-248.05200000000002,580.6569999999999 C-248.05200000000002,580.6569999999999 311.948,580.6569999999999 311.948,580.6569999999999 C311.948,580.6569999999999 311.948,-114.34300000000002 311.948,-114.34300000000002 C311.948,-114.34300000000002 -248.05200000000002,-114.34300000000002 -248.05200000000002,-114.34300000000002 C-248.05200000000002,-114.34300000000002 -248.05200000000002,580.6569999999999 -248.05200000000002,580.6569999999999z M47.619,42.602000000000004 C47.619,42.602000000000004 0.6400000000000006,15.479 0.6400000000000006,15.479 C0.6400000000000006,15.479 0.634999999999998,17.776 0.634999999999998,17.776 C0.634999999999998,17.776 47.611,44.899 47.611,44.899 C47.611,44.899 73.81700000000001,29.67 73.81700000000001,29.67 C73.81700000000001,29.67 73.82300000000001,27.373 73.82300000000001,27.373 C73.82300000000001,27.373 47.619,42.602000000000004 47.619,42.602000000000004z" style="fill: rgb(137, 137, 137); fill-opacity: 1;"></path><path d=" M-248.052,-114.343 C-248.052,-114.343 311.948,-114.343 311.948,-114.343 C311.948,-114.343 311.948,580.657 311.948,580.657 C311.948,580.657 -248.052,580.657 -248.052,580.657 C-248.052,580.657 -248.052,-114.343 -248.052,-114.343z M-248.052,580.657 C-248.052,580.657 311.948,580.657 311.948,580.657 C311.948,580.657 311.948,-114.343 311.948,-114.343 C311.948,-114.343 -248.052,-114.343 -248.052,-114.343 C-248.052,-114.343 -248.052,580.657 -248.052,580.657z M73.824,27.372999999999998 C73.824,27.372999999999998 47.617999999999995,42.602 47.617999999999995,42.602 C47.617999999999995,42.602 0.6400000000000006,15.479 0.6400000000000006,15.479 C0.6400000000000006,15.479 26.845,0.25 26.845,0.25 C26.845,0.25 73.824,27.372999999999998 73.824,27.372999999999998z" style="fill: rgb(214, 214, 214); fill-opacity: 1;"></path></g><g transform="matrix(1,0,0,1,266.87800000000004,132.392)" style="user-select: none;"><path d=" M13.79,11.015 C13.79,11.015 0.25399999999999956,3.15 0.25399999999999956,3.15 C0.25399999999999956,3.15 0.25,2.707 0.25,2.707 C0.25,2.707 13.786,10.572 13.786,10.572 C13.786,10.572 13.79,11.015 13.79,11.015z" style="fill: rgb(233, 233, 233); fill-opacity: 1;"></path><path d=" M13.786000000000001,10.572 C13.786000000000001,10.572 0.2510000000000012,2.7069999999999994 0.2510000000000012,2.7069999999999994 C0.2510000000000012,2.7069999999999994 4.506000000000001,0.25 4.506000000000001,0.25 C4.506000000000001,0.25 18.041,8.116 18.041,8.116 C18.041,8.116 13.786000000000001,10.572 13.786000000000001,10.572z" style="fill: rgb(246, 246, 246); fill-opacity: 1;"></path></g><g transform="matrix(1,0,0,1,252.921,137.097)" style="user-select: none;"><path d=" M-252.921,-137.09699999999998 C-252.921,-137.09699999999998 307.079,-137.09699999999998 307.079,-137.09699999999998 C307.079,-137.09699999999998 307.079,557.903 307.079,557.903 C307.079,557.903 -252.921,557.903 -252.921,557.903 C-252.921,557.903 -252.921,-137.09699999999998 -252.921,-137.09699999999998z M-252.921,557.903 C-252.921,557.903 307.079,557.903 307.079,557.903 C307.079,557.903 307.079,-137.09699999999998 307.079,-137.09699999999998 C307.079,-137.09699999999998 -252.921,-137.09699999999998 -252.921,-137.09699999999998 C-252.921,-137.09699999999998 -252.921,557.903 -252.921,557.903z M22.682,28.738 C20.701,27.874 18.729,26.992 16.747999999999998,26.129 C15.45,25.563 14.168999999999999,24.959 12.857999999999999,24.422 C12.617999999999999,24.324 12.357,24.148 12.111999999999998,24.425 C12.022999999999998,24.589 12.004999999999999,24.771 12.008999999999999,24.951999999999998 C12.081,28.245 11.855,31.534 11.899,34.827 C11.902,35.058 11.881999999999998,35.303 12.078,35.486 C12.129999999999999,35.472 12.186999999999998,35.47 12.232999999999999,35.445 C15.808,33.462 19.381999999999998,31.478 22.957,29.494 C23.079,29.164 22.916999999999998,28.938 22.682,28.738z" style="fill: rgb(55, 71, 133); fill-opacity: 1;"></path><path d=" M-252.921,-137.097 C-252.921,-137.097 307.079,-137.097 307.079,-137.097 C307.079,-137.097 307.079,557.9029999999999 307.079,557.9029999999999 C307.079,557.9029999999999 -252.921,557.9029999999999 -252.921,557.9029999999999 C-252.921,557.9029999999999 -252.921,-137.097 -252.921,-137.097z M-252.921,557.9029999999999 C-252.921,557.9029999999999 307.079,557.9029999999999 307.079,557.9029999999999 C307.079,557.9029999999999 307.079,-137.097 307.079,-137.097 C307.079,-137.097 -252.921,-137.097 -252.921,-137.097 C-252.921,-137.097 -252.921,557.9029999999999 -252.921,557.9029999999999z M10.647,24.548000000000002 C9.661000000000001,25.001 8.719000000000001,25.545 7.761,26.051000000000002 C5.699000000000001,27.141000000000002 3.6109999999999998,28.176000000000002 1.577,29.318 C1.383,29.560000000000002 1.2060000000000004,29.807000000000002 1.2840000000000007,30.145000000000003 C1.4570000000000007,30.12 1.6030000000000006,30.193 1.7460000000000004,30.274 C4.594,31.894000000000002 7.434,33.525000000000006 10.295,35.120000000000005 C10.697,35.345 10.99,35.579 11.084,36.03 C11.315000000000001,35.792 11.257,35.488 11.263,35.204 C11.312000000000001,32.991 11.212,30.777 11.353000000000002,28.562 C11.435,27.263 11.433,25.950000000000003 11.32,24.644000000000002 C11.149000000000001,24.234 10.876000000000001,24.443 10.647,24.548000000000002z" style="fill: rgb(55, 71, 133); fill-opacity: 1;"></path><path d=" M-252.92000000000002,-137.097 C-252.92000000000002,-137.097 307.08,-137.097 307.08,-137.097 C307.08,-137.097 307.08,557.903 307.08,557.903 C307.08,557.903 -252.92000000000002,557.903 -252.92000000000002,557.903 C-252.92000000000002,557.903 -252.92000000000002,-137.097 -252.92000000000002,-137.097z M-252.92000000000002,557.903 C-252.92000000000002,557.903 307.08,557.903 307.08,557.903 C307.08,557.903 307.08,-137.097 307.08,-137.097 C307.08,-137.097 -252.92000000000002,-137.097 -252.92000000000002,-137.097 C-252.92000000000002,-137.097 -252.92000000000002,557.903 -252.92000000000002,557.903z M11.084999999999999,36.03 C11.034999999999998,32.644 11.181999999999999,29.261 11.204999999999998,25.875999999999998 C11.209,25.406 11.190999999999999,24.936999999999998 11.183,24.467 C11.096,24.369 11.042,24.252 11.046,24.125 C11.069999999999999,23.22 10.883999999999999,22.304 11.162999999999998,21.41 C11.545,21.186999999999998 11.928999999999998,21.194 12.315999999999999,21.397 C12.606,22.038 12.418999999999999,22.714 12.456999999999999,23.372999999999998 C12.475999999999999,23.707 12.532,24.066 12.293999999999999,24.365 C12.084,24.869 12.206999999999999,25.397 12.197,25.912 C12.139,28.904 12.100999999999999,31.896 12.058,34.888999999999996 C12.055,35.088 12.071,35.288 12.078,35.487 C12.058,35.591 12.030999999999999,35.692 12.02,35.797 C11.998,36.025999999999996 11.92,36.21 11.673,36.271 C11.418,36.333999999999996 11.222999999999999,36.25 11.084999999999999,36.03z" style="fill: rgb(76, 76, 76); fill-opacity: 1;"></path><path d=" M-252.92000000000002,-137.097 C-252.92000000000002,-137.097 307.08,-137.097 307.08,-137.097 C307.08,-137.097 307.08,557.903 307.08,557.903 C307.08,557.903 -252.92000000000002,557.903 -252.92000000000002,557.903 C-252.92000000000002,557.903 -252.92000000000002,-137.097 -252.92000000000002,-137.097z M-252.92000000000002,557.903 C-252.92000000000002,557.903 307.08,557.903 307.08,557.903 C307.08,557.903 307.08,-137.097 307.08,-137.097 C307.08,-137.097 -252.92000000000002,-137.097 -252.92000000000002,-137.097 C-252.92000000000002,-137.097 -252.92000000000002,557.903 -252.92000000000002,557.903z M18.256,18.493 C18.506,18.279 18.764000000000003,18.083 19.1,18.023 C20.635,21.569 22.17,25.113 23.704,28.659 C23.733,28.725 23.756,28.794 23.786,28.86 C23.900000000000002,29.119 23.986,29.387 23.724,29.602 C23.443,29.831 23.186,29.725 22.958000000000002,29.494999999999997 C22.880000000000003,29.265 22.821,29.026 22.665000000000003,28.831 C22.204,28.278 21.998,27.594 21.725,26.95 C20.628,24.365 19.484,21.8 18.391000000000002,19.214 C18.295,18.986 18.138,18.762999999999998 18.256,18.493z" style="fill: rgb(76, 76, 76); fill-opacity: 1;"></path><path d=" M-252.921,-137.097 C-252.921,-137.097 307.07899999999995,-137.097 307.07899999999995,-137.097 C307.07899999999995,-137.097 307.07899999999995,557.903 307.07899999999995,557.903 C307.07899999999995,557.903 -252.921,557.903 -252.921,557.903 C-252.921,557.903 -252.921,-137.097 -252.921,-137.097z M-252.921,557.903 C-252.921,557.903 307.07899999999995,557.903 307.07899999999995,557.903 C307.07899999999995,557.903 307.07899999999995,-137.097 307.07899999999995,-137.097 C307.07899999999995,-137.097 -252.921,-137.097 -252.921,-137.097 C-252.921,-137.097 -252.921,557.903 -252.921,557.903z M4.529,18.275000000000002 C4.824,18.444000000000003 5.12,18.614 5.415,18.783 C5.468,19.028000000000002 5.375,19.248 5.297,19.469 C4.191,22.589000000000002 3.051,25.697000000000003 1.9609999999999999,28.823 C1.888,29.033 1.78,29.217000000000002 1.621,29.371000000000002 C1.509,29.629 1.3960000000000001,29.887 1.284,30.145000000000003 C1.054,30.301000000000002 0.8129999999999997,30.355 0.5869999999999997,30.157 C0.35599999999999987,29.954 0.42500000000000027,29.708000000000002 0.5150000000000001,29.456000000000003 C1.8550000000000002,25.73 3.192,22.002000000000002 4.529,18.275000000000002z" style="fill: rgb(76, 76, 76); fill-opacity: 1;"></path><path d=" M-252.921,-137.097 C-252.921,-137.097 307.079,-137.097 307.079,-137.097 C307.079,-137.097 307.079,557.903 307.079,557.903 C307.079,557.903 -252.921,557.903 -252.921,557.903 C-252.921,557.903 -252.921,-137.097 -252.921,-137.097z M-252.921,557.903 C-252.921,557.903 307.079,557.903 307.079,557.903 C307.079,557.903 307.079,-137.097 307.079,-137.097 C307.079,-137.097 -252.921,-137.097 -252.921,-137.097 C-252.921,-137.097 -252.921,557.903 -252.921,557.903z M20.846,15.787 C21.968,16.435000000000002 21.974,17.491 20.859,18.139 C20.859,18.139 14.350999999999999,21.921 14.350999999999999,21.921 C13.235999999999999,22.569000000000003 11.413,22.569000000000003 10.291,21.921 C10.291,21.921 3.7399999999999984,18.139 3.7399999999999984,18.139 C2.616999999999999,17.491 2.6119999999999983,16.435000000000002 3.7269999999999985,15.787 C3.7269999999999985,15.787 10.235,12.005 10.235,12.005 C11.35,11.357000000000001 13.172999999999998,11.357000000000001 14.294999999999998,12.005 C14.294999999999998,12.005 20.846,15.787 20.846,15.787z" style="fill: rgb(255, 119, 123); fill-opacity: 1;"></path><path d=" M-252.92100000000002,-137.097 C-252.92100000000002,-137.097 307.07899999999995,-137.097 307.07899999999995,-137.097 C307.07899999999995,-137.097 307.07899999999995,557.903 307.07899999999995,557.903 C307.07899999999995,557.903 -252.92100000000002,557.903 -252.92100000000002,557.903 C-252.92100000000002,557.903 -252.92100000000002,-137.097 -252.92100000000002,-137.097z M-252.92100000000002,557.903 C-252.92100000000002,557.903 307.07899999999995,557.903 307.07899999999995,557.903 C307.07899999999995,557.903 307.07899999999995,-137.097 307.07899999999995,-137.097 C307.07899999999995,-137.097 -252.92100000000002,-137.097 -252.92100000000002,-137.097 C-252.92100000000002,-137.097 -252.92100000000002,557.903 -252.92100000000002,557.903z M9.138,5.473 C10.144,6.054 11.047,7.417 11.148,8.506 C11.148,8.506 11.652000000000001,13.918 11.652000000000001,13.918 C11.751999999999999,14.999 11.014,15.413 10.008,14.832 C10.008,14.832 2.8560000000000003,10.702 2.8560000000000003,10.702 C1.8580000000000005,10.126 0.9550000000000001,8.765 0.8540000000000001,7.684 C0.8540000000000001,7.684 0.351,2.2720000000000002 0.351,2.2720000000000002 C0.25,1.1829999999999998 0.9880000000000004,0.7679999999999998 1.9860000000000007,1.3449999999999998 C1.9860000000000007,1.3449999999999998 9.138,5.473 9.138,5.473z" style="fill: rgb(204, 204, 204); fill-opacity: 1;"></path><path d=" M-252.921,-137.097 C-252.921,-137.097 307.079,-137.097 307.079,-137.097 C307.079,-137.097 307.079,557.903 307.079,557.903 C307.079,557.903 -252.921,557.903 -252.921,557.903 C-252.921,557.903 -252.921,-137.097 -252.921,-137.097z M-252.921,557.903 C-252.921,557.903 307.079,557.903 307.079,557.903 C307.079,557.903 307.079,-137.097 307.079,-137.097 C307.079,-137.097 -252.921,-137.097 -252.921,-137.097 C-252.921,-137.097 -252.921,557.903 -252.921,557.903z M4.019,11.237 C3.9829999999999997,10.331 3.7569999999999997,9.452 3.626,8.559999999999999 C3.586,8.286 3.5759999999999996,8.047 3.804,7.872999999999999 C4.021,7.707999999999999 4.247,7.7989999999999995 4.467,7.9079999999999995 C4.968999999999999,8.155999999999999 5.47,8.408999999999999 5.981,8.637 C6.297,8.777999999999999 6.452,9.001999999999999 6.504,9.336 C6.689,10.530999999999999 6.886,11.724 7.079,12.918 C7.336,14.556 7.5809999999999995,16.195999999999998 7.856,17.831 C7.917,18.198999999999998 7.834,18.477 7.483,18.546 C7.106,18.619999999999997 6.957,18.342 6.902,17.994 C6.6129999999999995,16.197 6.316,14.401 6.022,12.604 C5.918,12.59 5.883,12.51 5.851,12.427 C5.711,11.684 5.627,10.931 5.4879999999999995,10.186 C5.435,9.902999999999999 5.378,9.622 4.968,9.491999999999999 C5.0409999999999995,10.363999999999999 5.189,11.17 5.334,11.977 C5.354,12.336 5.543,12.69 5.359,13.052999999999999 C5.559,14.279 5.76,15.504999999999999 5.958,16.731 C5.9719999999999995,16.82 5.97,16.911 5.979,17.001 C6.009,17.308 5.921,17.548000000000002 5.587,17.606 C5.202999999999999,17.674 5.07,17.411 5.0169999999999995,17.106 C4.887,16.361 4.779999999999999,15.612 4.654999999999999,14.866 C4.588,14.459 4.503,14.054 4.427,13.648 C4.336,12.837 4.237,12.027 4.019,11.237z" style="fill: rgb(76, 76, 76); fill-opacity: 1;"></path><path d=" M-252.921,-137.097 C-252.921,-137.097 307.079,-137.097 307.079,-137.097 C307.079,-137.097 307.079,557.903 307.079,557.903 C307.079,557.903 -252.921,557.903 -252.921,557.903 C-252.921,557.903 -252.921,-137.097 -252.921,-137.097z M-252.921,557.903 C-252.921,557.903 307.079,557.903 307.079,557.903 C307.079,557.903 307.079,-137.097 307.079,-137.097 C307.079,-137.097 -252.921,-137.097 -252.921,-137.097 C-252.921,-137.097 -252.921,557.903 -252.921,557.903z M12.533000000000001,13.299 C12.533000000000001,13.299 12.029,7.8870000000000005 12.029,7.8870000000000005 C12.021,7.806 11.946,6.015000000000001 10.02,4.855 C10.02,4.855 2.8670000000000004,0.7260000000000009 2.8670000000000004,0.7260000000000009 C1.9340000000000002,0.2500000000000009 1.6260000000000003,0.5680000000000005 1.5790000000000006,0.6010000000000009 C1.5790000000000006,0.6010000000000009 0.6980000000000004,1.2200000000000006 0.6980000000000004,1.2200000000000006 C0.7680000000000007,1.1710000000000003 0.8490000000000002,1.1370000000000005 0.9350000000000005,1.1150000000000002 C0.9470000000000001,1.112 0.9580000000000011,1.1100000000000003 0.9700000000000006,1.1070000000000002 C1.1470000000000002,1.069 1.3550000000000004,1.0860000000000003 1.5840000000000005,1.1630000000000003 C1.6060000000000008,1.17 1.6289999999999996,1.181 1.6509999999999998,1.189 C1.7589999999999995,1.2300000000000004 1.870000000000001,1.2780000000000005 1.9860000000000007,1.3450000000000006 C1.9860000000000007,1.3450000000000006 9.137,5.474 9.137,5.474 C9.449,5.6530000000000005 9.746,5.9110000000000005 10.02,6.205 C11.051,7.313000000000001 11.141,8.425 11.149000000000001,8.506 C11.149000000000001,8.506 11.651,13.918 11.651,13.918 C11.698,14.42 11.563,14.779 11.305,14.96 C11.305,14.96 12.187000000000001,14.341000000000001 12.187000000000001,14.341000000000001 C12.445,14.16 12.58,13.801 12.533000000000001,13.299z" style="fill: rgb(255, 255, 255); fill-opacity: 1;"></path><path d=" M-252.92100000000002,-137.097 C-252.92100000000002,-137.097 307.07899999999995,-137.097 307.07899999999995,-137.097 C307.07899999999995,-137.097 307.07899999999995,557.903 307.07899999999995,557.903 C307.07899999999995,557.903 -252.92100000000002,557.903 -252.92100000000002,557.903 C-252.92100000000002,557.903 -252.92100000000002,-137.097 -252.92100000000002,-137.097z M-252.92100000000002,557.903 C-252.92100000000002,557.903 307.07899999999995,557.903 307.07899999999995,557.903 C307.07899999999995,557.903 307.07899999999995,-137.097 307.07899999999995,-137.097 C307.07899999999995,-137.097 -252.92100000000002,-137.097 -252.92100000000002,-137.097 C-252.92100000000002,-137.097 -252.92100000000002,557.903 -252.92100000000002,557.903z M20.86,18.137999999999998 C20.86,18.137999999999998 14.350999999999999,21.919999999999998 14.350999999999999,21.919999999999998 C13.236,22.567999999999998 11.414,22.567999999999998 10.292,21.919999999999998 C10.292,21.919999999999998 3.7409999999999997,18.137999999999998 3.7409999999999997,18.137999999999998 C3.176,17.811999999999998 2.894,17.383 2.8949999999999996,16.953999999999997 C2.8949999999999996,16.953999999999997 2.8930000000000007,17.54 2.8930000000000007,17.54 C2.8920000000000012,17.968999999999998 3.1739999999999995,18.398 3.738999999999999,18.723999999999997 C3.738999999999999,18.723999999999997 10.29,22.506 10.29,22.506 C11.412,23.154 13.235,23.154 14.35,22.506 C14.35,22.506 20.858,18.723999999999997 20.858,18.723999999999997 C21.412,18.401999999999997 21.689999999999998,17.979999999999997 21.691,17.555999999999997 C21.691,17.555999999999997 21.692,16.97 21.692,16.97 C21.691000000000003,17.394 21.414,17.816 20.86,18.137999999999998z" style="fill: rgb(158, 74, 76); fill-opacity: 1;"></path></g><g transform="matrix(1,0,0,1,305.902,56.976000000000006)" style="user-select: none;"><path d=" M-305.902,-56.977000000000004 C-305.902,-56.977000000000004 254.09799999999998,-56.977000000000004 254.09799999999998,-56.977000000000004 C254.09799999999998,-56.977000000000004 254.09799999999998,638.023 254.09799999999998,638.023 C254.09799999999998,638.023 -305.902,638.023 -305.902,638.023 C-305.902,638.023 -305.902,-56.977000000000004 -305.902,-56.977000000000004z M-305.902,638.023 C-305.902,638.023 254.09799999999998,638.023 254.09799999999998,638.023 C254.09799999999998,638.023 254.09799999999998,-56.977000000000004 254.09799999999998,-56.977000000000004 C254.09799999999998,-56.977000000000004 -305.902,-56.977000000000004 -305.902,-56.977000000000004 C-305.902,-56.977000000000004 -305.902,638.023 -305.902,638.023z M40.033,22.643 C40.913,23.151 41.745,24.559 41.742,25.57 C41.742,25.57 41.735,28.256 41.735,28.256 C41.735,28.256 0.5030000000000001,4.4510000000000005 0.5030000000000001,4.4510000000000005 C0.5030000000000001,4.4510000000000005 0.5109999999999992,1.7650000000000006 0.5109999999999992,1.7650000000000006 C0.5139999999999993,0.7540000000000013 1.2459999999999987,0.25 2.128999999999998,0.7590000000000003 C2.128999999999998,0.7590000000000003 40.033,22.643 40.033,22.643z" style="fill: rgb(227, 227, 227); fill-opacity: 0.999897;"></path><path d=" M-305.901,-56.977000000000004 C-305.901,-56.977000000000004 254.099,-56.977000000000004 254.099,-56.977000000000004 C254.099,-56.977000000000004 254.099,638.023 254.099,638.023 C254.099,638.023 -305.901,638.023 -305.901,638.023 C-305.901,638.023 -305.901,-56.977000000000004 -305.901,-56.977000000000004z M-305.901,638.023 C-305.901,638.023 254.099,638.023 254.099,638.023 C254.099,638.023 254.099,-56.977000000000004 254.099,-56.977000000000004 C254.099,-56.977000000000004 -305.901,-56.977000000000004 -305.901,-56.977000000000004 C-305.901,-56.977000000000004 -305.901,638.023 -305.901,638.023z M41.736,28.256 C41.736,28.256 41.486,72.05600000000001 41.486,72.05600000000001 C41.482,73.494 40.351,74.151 39.102000000000004,73.43 C39.102000000000004,73.43 2.5199999999999996,52.309 2.5199999999999996,52.309 C1.2710000000000008,51.588 0.24999999999999645,49.688 0.2539999999999978,48.25 C0.2539999999999978,48.25 0.5030000000000001,4.4510000000000005 0.5030000000000001,4.4510000000000005 C0.5030000000000001,4.4510000000000005 41.736,28.256 41.736,28.256z" style="fill: rgb(68, 73, 75); fill-opacity: 0.999897;"></path><path d=" M-305.902,-56.977 C-305.902,-56.977 254.09799999999998,-56.977 254.09799999999998,-56.977 C254.09799999999998,-56.977 254.09799999999998,638.023 254.09799999999998,638.023 C254.09799999999998,638.023 -305.902,638.023 -305.902,638.023 C-305.902,638.023 -305.902,-56.977 -305.902,-56.977z M-305.902,638.023 C-305.902,638.023 254.09799999999998,638.023 254.09799999999998,638.023 C254.09799999999998,638.023 254.09799999999998,-56.977 254.09799999999998,-56.977 C254.09799999999998,-56.977 -305.902,-56.977 -305.902,-56.977 C-305.902,-56.977 -305.902,638.023 -305.902,638.023z M19.518,19.601 C19.518,19.601 3.428000000000001,10.311 3.428000000000001,10.311 C2.9410000000000007,10.03 2.546000000000001,10.254999999999999 2.5440000000000005,10.812 C2.543000000000001,11.370999999999999 2.9350000000000005,12.050999999999998 3.4220000000000006,12.331 C3.4220000000000006,12.331 19.512,21.621 19.512,21.621 C19.999000000000002,21.902 20.394000000000002,21.677 20.395000000000003,21.118 C20.397000000000002,20.561999999999998 20.004,19.881999999999998 19.518,19.601z" style="fill: rgb(126, 252, 189); fill-opacity: 0.999897;"></path><path d=" M-305.902,-56.976 C-305.902,-56.976 254.098,-56.976 254.098,-56.976 C254.098,-56.976 254.098,638.024 254.098,638.024 C254.098,638.024 -305.902,638.024 -305.902,638.024 C-305.902,638.024 -305.902,-56.976 -305.902,-56.976z M-305.902,638.024 C-305.902,638.024 254.098,638.024 254.098,638.024 C254.098,638.024 254.098,-56.976 254.098,-56.976 C254.098,-56.976 -305.902,-56.976 -305.902,-56.976 C-305.902,-56.976 -305.902,638.024 -305.902,638.024z M24.797,22.649 C24.797,22.649 22.534,21.344 22.534,21.344 C22.05,21.064 21.653,21.288 21.651,21.844 C21.65,22.403000000000002 22.044,23.084000000000003 22.529,23.364 C22.529,23.364 24.791,24.67 24.791,24.67 C25.278,24.951 25.673000000000002,24.726000000000003 25.674,24.167 C25.676000000000002,23.611 25.283,22.93 24.797,22.649z" style="fill: rgb(237, 85, 85); fill-opacity: 0.999897;"></path><path d=" M-305.902,-56.977000000000004 C-305.902,-56.977000000000004 254.098,-56.977000000000004 254.098,-56.977000000000004 C254.098,-56.977000000000004 254.098,638.0229999999999 254.098,638.0229999999999 C254.098,638.0229999999999 -305.902,638.0229999999999 -305.902,638.0229999999999 C-305.902,638.0229999999999 -305.902,-56.977000000000004 -305.902,-56.977000000000004z M-305.902,638.0229999999999 C-305.902,638.0229999999999 254.098,638.0229999999999 254.098,638.0229999999999 C254.098,638.0229999999999 254.098,-56.977000000000004 254.098,-56.977000000000004 C254.098,-56.977000000000004 -305.902,-56.977000000000004 -305.902,-56.977000000000004 C-305.902,-56.977000000000004 -305.902,638.0229999999999 -305.902,638.0229999999999z M37.871,30.197 C37.871,30.197 28.066000000000003,24.535999999999998 28.066000000000003,24.535999999999998 C27.580000000000002,24.256 27.185000000000002,24.480999999999998 27.183,25.037 C27.182000000000002,25.596 27.574,26.276 28.061,26.557 C28.061,26.557 37.865,32.217 37.865,32.217 C38.352000000000004,32.498 38.747,32.272999999999996 38.748000000000005,31.714 C38.75,31.157999999999998 38.358000000000004,30.477999999999998 37.871,30.197z" style="fill: rgb(122, 200, 240); fill-opacity: 0.999897;"></path><path d=" M-305.902,-56.976 C-305.902,-56.976 254.09799999999998,-56.976 254.09799999999998,-56.976 C254.09799999999998,-56.976 254.09799999999998,638.023 254.09799999999998,638.023 C254.09799999999998,638.023 -305.902,638.023 -305.902,638.023 C-305.902,638.023 -305.902,-56.976 -305.902,-56.976z M-305.902,638.023 C-305.902,638.023 254.09799999999998,638.023 254.09799999999998,638.023 C254.09799999999998,638.023 254.09799999999998,-56.976 254.09799999999998,-56.976 C254.09799999999998,-56.976 -305.902,-56.976 -305.902,-56.976 C-305.902,-56.976 -305.902,638.023 -305.902,638.023z M37.859,34.528999999999996 C37.859,34.528999999999996 16.992,22.482 16.992,22.482 C16.505000000000003,22.201 16.11,22.427 16.109,22.986 C16.107,23.545 16.499000000000002,24.224 16.985,24.505 C16.985,24.505 37.852000000000004,36.552 37.852000000000004,36.552 C38.339,36.833 38.734,36.609 38.735,36.05 C38.737,35.491 38.346000000000004,34.81 37.859,34.528999999999996z" style="fill: rgb(237, 85, 85); fill-opacity: 0.999897;"></path><path d=" M-305.90200000000004,-56.976 C-305.90200000000004,-56.976 254.098,-56.976 254.098,-56.976 C254.098,-56.976 254.098,638.024 254.098,638.024 C254.098,638.024 -305.90200000000004,638.024 -305.90200000000004,638.024 C-305.90200000000004,638.024 -305.90200000000004,-56.976 -305.90200000000004,-56.976z M-305.90200000000004,638.024 C-305.90200000000004,638.024 254.098,638.024 254.098,638.024 C254.098,638.024 254.098,-56.976 254.098,-56.976 C254.098,-56.976 -305.90200000000004,-56.976 -305.90200000000004,-56.976 C-305.90200000000004,-56.976 -305.90200000000004,638.024 -305.90200000000004,638.024z M13.975,20.74 C13.975,20.74 11.712,19.435 11.712,19.435 C11.225999999999999,19.154 10.831,19.378999999999998 10.829,19.938 C10.828,20.497 11.219999999999999,21.176 11.707,21.456 C11.707,21.456 13.969,22.762999999999998 13.969,22.762999999999998 C14.454,23.041999999999998 14.849,22.817 14.85,22.258 C14.852,21.698999999999998 14.459,21.02 13.975,20.74z" style="fill: rgb(126, 252, 189); fill-opacity: 0.999897;"></path><path d=" M-305.902,-56.977 C-305.902,-56.977 254.09799999999998,-56.977 254.09799999999998,-56.977 C254.09799999999998,-56.977 254.09799999999998,638.023 254.09799999999998,638.023 C254.09799999999998,638.023 -305.902,638.023 -305.902,638.023 C-305.902,638.023 -305.902,-56.977 -305.902,-56.977z M-305.902,638.023 C-305.902,638.023 254.09799999999998,638.023 254.09799999999998,638.023 C254.09799999999998,638.023 254.09799999999998,-56.977 254.09799999999998,-56.977 C254.09799999999998,-56.977 -305.902,-56.977 -305.902,-56.977 C-305.902,-56.977 -305.902,638.023 -305.902,638.023z M8.443,17.546000000000003 C8.443,17.546000000000003 3.415,14.643 3.415,14.643 C2.9290000000000003,14.362000000000002 2.534,14.587000000000002 2.532,15.146 C2.5300000000000002,15.705000000000002 2.923,16.385 3.4090000000000003,16.666 C3.4090000000000003,16.666 8.437000000000001,19.569000000000003 8.437000000000001,19.569000000000003 C8.924,19.85 9.319,19.625 9.32,19.066000000000003 C9.322,18.507 8.93,17.827 8.443,17.546000000000003z" style="fill: rgb(255, 255, 255); fill-opacity: 0.999897;"></path><path d=" M-305.902,-56.977000000000004 C-305.902,-56.977000000000004 254.09799999999998,-56.977000000000004 254.09799999999998,-56.977000000000004 C254.09799999999998,-56.977000000000004 254.09799999999998,638.023 254.09799999999998,638.023 C254.09799999999998,638.023 -305.902,638.023 -305.902,638.023 C-305.902,638.023 -305.902,-56.977000000000004 -305.902,-56.977000000000004z M-305.902,638.023 C-305.902,638.023 254.09799999999998,638.023 254.09799999999998,638.023 C254.09799999999998,638.023 254.09799999999998,-56.977000000000004 254.09799999999998,-56.977000000000004 C254.09799999999998,-56.977000000000004 -305.902,-56.977000000000004 -305.902,-56.977000000000004 C-305.902,-56.977000000000004 -305.902,638.023 -305.902,638.023z M18.233999999999998,27.829 C18.233999999999998,27.829 3.4019999999999992,19.266000000000002 3.4019999999999992,19.266000000000002 C2.914999999999999,18.985 2.5199999999999996,19.21 2.519,19.769000000000002 C2.5169999999999995,20.328000000000003 2.909,21.008000000000003 3.396,21.288 C3.396,21.288 18.228,29.852 18.228,29.852 C18.715,30.133000000000003 19.11,29.908 19.110999999999997,29.349 C19.113,28.79 18.72,28.11 18.233999999999998,27.829z" style="fill: rgb(122, 200, 240); fill-opacity: 0.999897;"></path><path d=" M-305.902,-56.977000000000004 C-305.902,-56.977000000000004 254.098,-56.977000000000004 254.098,-56.977000000000004 C254.098,-56.977000000000004 254.098,638.0229999999999 254.098,638.0229999999999 C254.098,638.0229999999999 -305.902,638.0229999999999 -305.902,638.0229999999999 C-305.902,638.0229999999999 -305.902,-56.977000000000004 -305.902,-56.977000000000004z M-305.902,638.0229999999999 C-305.902,638.0229999999999 254.098,638.0229999999999 254.098,638.0229999999999 C254.098,638.0229999999999 254.098,-56.977000000000004 254.098,-56.977000000000004 C254.098,-56.977000000000004 -305.902,-56.977000000000004 -305.902,-56.977000000000004 C-305.902,-56.977000000000004 -305.902,638.0229999999999 -305.902,638.0229999999999z M23.516000000000002,30.878 C23.516000000000002,30.878 21.253,29.572999999999997 21.253,29.572999999999997 C20.767000000000003,29.291999999999998 20.372,29.517 20.37,30.075999999999997 C20.369,30.634999999999998 20.761000000000003,31.314 21.248,31.593999999999998 C21.248,31.593999999999998 23.51,32.900999999999996 23.51,32.900999999999996 C23.997,33.181999999999995 24.392000000000003,32.957 24.393,32.397999999999996 C24.395000000000003,31.839 24.003,31.159 23.516000000000002,30.878z" style="fill: rgb(255, 255, 255); fill-opacity: 0.999897;"></path><path d=" M-305.902,-56.977000000000004 C-305.902,-56.977000000000004 254.098,-56.977000000000004 254.098,-56.977000000000004 C254.098,-56.977000000000004 254.098,638.023 254.098,638.023 C254.098,638.023 -305.902,638.023 -305.902,638.023 C-305.902,638.023 -305.902,-56.977000000000004 -305.902,-56.977000000000004z M-305.902,638.023 C-305.902,638.023 254.098,638.023 254.098,638.023 C254.098,638.023 254.098,-56.977000000000004 254.098,-56.977000000000004 C254.098,-56.977000000000004 -305.902,-56.977000000000004 -305.902,-56.977000000000004 C-305.902,-56.977000000000004 -305.902,638.023 -305.902,638.023z M37.846,39.152 C37.846,39.152 26.782999999999998,32.765 26.782999999999998,32.765 C26.296999999999997,32.484 25.901999999999997,32.708999999999996 25.9,33.268 C25.898999999999997,33.827 26.290999999999997,34.507 26.778,34.788 C26.778,34.788 37.839999999999996,41.175 37.839999999999996,41.175 C38.327,41.455999999999996 38.721999999999994,41.231 38.723,40.672 C38.724999999999994,40.113 38.333,39.433 37.846,39.152z" style="fill: rgb(126, 252, 189); fill-opacity: 0.999897;"></path><path d=" M-305.902,-56.97599999999999 C-305.902,-56.97599999999999 254.09799999999998,-56.97599999999999 254.09799999999998,-56.97599999999999 C254.09799999999998,-56.97599999999999 254.09799999999998,638.024 254.09799999999998,638.024 C254.09799999999998,638.024 -305.902,638.024 -305.902,638.024 C-305.902,638.024 -305.902,-56.97599999999999 -305.902,-56.97599999999999z M-305.902,638.024 C-305.902,638.024 254.09799999999998,638.024 254.09799999999998,638.024 C254.09799999999998,638.024 254.09799999999998,-56.97599999999999 254.09799999999998,-56.97599999999999 C254.09799999999998,-56.97599999999999 -305.902,-56.97599999999999 -305.902,-56.97599999999999 C-305.902,-56.97599999999999 -305.902,638.024 -305.902,638.024z M13.949,29.986 C13.949,29.986 11.686,28.681 11.686,28.681 C11.2,28.400000000000002 10.805,28.625 10.803,29.184 C10.802,29.740000000000002 11.193999999999999,30.422 11.681000000000001,30.702 C11.681000000000001,30.702 13.943,32.009 13.943,32.009 C14.428,32.288000000000004 14.823,32.061 14.824,31.504 C14.826,30.945 14.433,30.266000000000002 13.949,29.986z" style="fill: rgb(126, 252, 189); fill-opacity: 0.999897;"></path><path d=" M-305.90200000000004,-56.97699999999999 C-305.90200000000004,-56.97699999999999 254.098,-56.97699999999999 254.098,-56.97699999999999 C254.098,-56.97699999999999 254.098,638.023 254.098,638.023 C254.098,638.023 -305.90200000000004,638.023 -305.90200000000004,638.023 C-305.90200000000004,638.023 -305.90200000000004,-56.97699999999999 -305.90200000000004,-56.97699999999999z M-305.90200000000004,638.023 C-305.90200000000004,638.023 254.098,638.023 254.098,638.023 C254.098,638.023 254.098,-56.97699999999999 254.098,-56.97699999999999 C254.098,-56.97699999999999 -305.90200000000004,-56.97699999999999 -305.90200000000004,-56.97699999999999 C-305.90200000000004,-56.97699999999999 -305.90200000000004,638.023 -305.90200000000004,638.023z M8.417,26.792 C8.417,26.792 3.3880000000000003,23.889 3.3880000000000003,23.889 C2.902,23.608 2.507,23.833 2.5050000000000003,24.392 C2.5040000000000004,24.949 2.896000000000001,25.631 3.3820000000000006,25.912 C3.3820000000000006,25.912 8.41,28.815 8.41,28.815 C8.897,29.096 9.292,28.868000000000002 9.293,28.312 C9.295,27.753 8.904,27.073 8.417,26.792z" style="fill: rgb(255, 255, 255); fill-opacity: 0.999897;"></path><path d=" M-305.90200000000004,-56.977 C-305.90200000000004,-56.977 254.098,-56.977 254.098,-56.977 C254.098,-56.977 254.098,638.023 254.098,638.023 C254.098,638.023 -305.90200000000004,638.023 -305.90200000000004,638.023 C-305.90200000000004,638.023 -305.90200000000004,-56.977 -305.90200000000004,-56.977z M-305.90200000000004,638.023 C-305.90200000000004,638.023 254.098,638.023 254.098,638.023 C254.098,638.023 254.098,-56.977 254.098,-56.977 C254.098,-56.977 -305.90200000000004,-56.977 -305.90200000000004,-56.977 C-305.90200000000004,-56.977 -305.90200000000004,638.023 -305.90200000000004,638.023z M37.782000000000004,61.687 C37.782000000000004,61.687 21.692,52.397 21.692,52.397 C21.205000000000002,52.116 20.810000000000002,52.341 20.808,52.9 C20.807000000000002,53.457 21.199,54.137 21.686,54.417 C21.686,54.417 37.776,63.707 37.776,63.707 C38.263000000000005,63.988 38.658,63.763 38.659000000000006,63.207 C38.661,62.647999999999996 38.269000000000005,61.967999999999996 37.782000000000004,61.687z" style="fill: rgb(126, 252, 189); fill-opacity: 0.999897;"></path><path d=" M-305.902,-56.977000000000004 C-305.902,-56.977000000000004 254.09799999999998,-56.977000000000004 254.09799999999998,-56.977000000000004 C254.09799999999998,-56.977000000000004 254.09799999999998,638.0229999999999 254.09799999999998,638.0229999999999 C254.09799999999998,638.0229999999999 -305.902,638.0229999999999 -305.902,638.0229999999999 C-305.902,638.0229999999999 -305.902,-56.977000000000004 -305.902,-56.977000000000004z M-305.902,638.0229999999999 C-305.902,638.0229999999999 254.09799999999998,638.0229999999999 254.09799999999998,638.0229999999999 C254.09799999999998,638.0229999999999 254.09799999999998,-56.977000000000004 254.09799999999998,-56.977000000000004 C254.09799999999998,-56.977000000000004 -305.902,-56.977000000000004 -305.902,-56.977000000000004 C-305.902,-56.977000000000004 -305.902,638.0229999999999 -305.902,638.0229999999999z M18.675,50.655 C18.675,50.655 16.412,49.349000000000004 16.412,49.349000000000004 C15.926,49.068 15.531,49.293 15.529,49.852000000000004 C15.528,50.408 15.92,51.089 16.407,51.37 C16.407,51.37 18.669,52.675 18.669,52.675 C19.153,52.955 19.551000000000002,52.731 19.552,52.175 C19.554000000000002,51.616 19.159,50.935 18.675,50.655z" style="fill: rgb(237, 85, 85); fill-opacity: 0.999897;"></path><path d=" M-305.901,-56.977 C-305.901,-56.977 254.099,-56.977 254.099,-56.977 C254.099,-56.977 254.099,638.0229999999999 254.099,638.0229999999999 C254.099,638.0229999999999 -305.901,638.0229999999999 -305.901,638.0229999999999 C-305.901,638.0229999999999 -305.901,-56.977 -305.901,-56.977z M-305.901,638.0229999999999 C-305.901,638.0229999999999 254.099,638.0229999999999 254.099,638.0229999999999 C254.099,638.0229999999999 254.099,-56.977 254.099,-56.977 C254.099,-56.977 -305.901,-56.977 -305.901,-56.977 C-305.901,-56.977 -305.901,638.0229999999999 -305.901,638.0229999999999z M13.143,47.461 C13.143,47.461 3.337999999999999,41.801 3.337999999999999,41.801 C2.8519999999999994,41.519999999999996 2.456999999999999,41.745 2.454999999999999,42.303999999999995 C2.453999999999999,42.86 2.845999999999999,43.541 3.3329999999999993,43.821999999999996 C3.3329999999999993,43.821999999999996 13.137,49.480999999999995 13.137,49.480999999999995 C13.623999999999999,49.762 14.018999999999998,49.537 14.02,48.980999999999995 C14.021999999999998,48.422 13.629999999999999,47.742 13.143,47.461z" style="fill: rgb(122, 200, 240); fill-opacity: 0.999897;"></path><path d=" M-305.90200000000004,-56.977 C-305.90200000000004,-56.977 254.098,-56.977 254.098,-56.977 C254.098,-56.977 254.098,638.0229999999999 254.098,638.0229999999999 C254.098,638.0229999999999 -305.90200000000004,638.0229999999999 -305.90200000000004,638.0229999999999 C-305.90200000000004,638.0229999999999 -305.90200000000004,-56.977 -305.90200000000004,-56.977z M-305.90200000000004,638.0229999999999 C-305.90200000000004,638.0229999999999 254.098,638.0229999999999 254.098,638.0229999999999 C254.098,638.0229999999999 254.098,-56.977 254.098,-56.977 C254.098,-56.977 -305.90200000000004,-56.977 -305.90200000000004,-56.977 C-305.90200000000004,-56.977 -305.90200000000004,638.0229999999999 -305.90200000000004,638.0229999999999z M24.219,49.225 C24.219,49.225 3.3520000000000003,37.178 3.3520000000000003,37.178 C2.865,36.897 2.469999999999999,37.123000000000005 2.4689999999999994,37.682 C2.4669999999999987,38.241 2.859,38.92 3.3450000000000006,39.201 C3.3450000000000006,39.201 24.212,51.248000000000005 24.212,51.248000000000005 C24.698999999999998,51.529 25.094,51.305 25.095,50.746 C25.097,50.187 24.706,49.506 24.219,49.225z" style="fill: rgb(237, 85, 85); fill-opacity: 0.999897;"></path><path d=" M-305.90200000000004,-56.97599999999999 C-305.90200000000004,-56.97599999999999 254.098,-56.97599999999999 254.098,-56.97599999999999 C254.098,-56.97599999999999 254.098,638.024 254.098,638.024 C254.098,638.024 -305.90200000000004,638.024 -305.90200000000004,638.024 C-305.90200000000004,638.024 -305.90200000000004,-56.97599999999999 -305.90200000000004,-56.97599999999999z M-305.90200000000004,638.024 C-305.90200000000004,638.024 254.098,638.024 254.098,638.024 C254.098,638.024 254.098,-56.97599999999999 254.098,-56.97599999999999 C254.098,-56.97599999999999 -305.90200000000004,-56.97599999999999 -305.90200000000004,-56.97599999999999 C-305.90200000000004,-56.97599999999999 -305.90200000000004,638.024 -305.90200000000004,638.024z M29.497,52.274 C29.497,52.274 27.234,50.968 27.234,50.968 C26.75,50.688 26.355,50.913000000000004 26.353,51.472 C26.352,52.031000000000006 26.744,52.711000000000006 27.229,52.99 C27.229,52.99 29.491,54.297000000000004 29.491,54.297000000000004 C29.978,54.578 30.373,54.353 30.374000000000002,53.794000000000004 C30.376,53.235 29.983,52.555 29.497,52.274z" style="fill: rgb(126, 252, 189); fill-opacity: 0.999897;"></path><path d=" M-305.902,-56.977 C-305.902,-56.977 254.098,-56.977 254.098,-56.977 C254.098,-56.977 254.098,638.023 254.098,638.023 C254.098,638.023 -305.902,638.023 -305.902,638.023 C-305.902,638.023 -305.902,-56.977 -305.902,-56.977z M-305.902,638.023 C-305.902,638.023 254.098,638.023 254.098,638.023 C254.098,638.023 254.098,-56.977 254.098,-56.977 C254.098,-56.977 -305.902,-56.977 -305.902,-56.977 C-305.902,-56.977 -305.902,638.023 -305.902,638.023z M37.808,52.441 C37.808,52.441 22.976,43.878 22.976,43.878 C22.488999999999997,43.597 22.094,43.822 22.093,44.381 C22.091,44.94 22.483,45.62 22.97,45.9 C22.97,45.9 37.802,54.464 37.802,54.464 C38.289,54.745 38.684,54.519999999999996 38.685,53.961 C38.687,53.402 38.295,52.722 37.808,52.441z" style="fill: rgb(122, 200, 240); fill-opacity: 0.999897;"></path><path d=" M-305.90200000000004,-56.977 C-305.90200000000004,-56.977 254.098,-56.977 254.098,-56.977 C254.098,-56.977 254.098,638.023 254.098,638.023 C254.098,638.023 -305.90200000000004,638.023 -305.90200000000004,638.023 C-305.90200000000004,638.023 -305.90200000000004,-56.977 -305.90200000000004,-56.977z M-305.90200000000004,638.023 C-305.90200000000004,638.023 254.098,638.023 254.098,638.023 C254.098,638.023 254.098,-56.977 254.098,-56.977 C254.098,-56.977 -305.90200000000004,-56.977 -305.90200000000004,-56.977 C-305.90200000000004,-56.977 -305.90200000000004,638.023 -305.90200000000004,638.023z M19.957,42.134 C19.957,42.134 17.694,40.829 17.694,40.829 C17.208000000000002,40.548 16.813,40.773 16.811,41.332 C16.810000000000002,41.891000000000005 17.202,42.57 17.689,42.85 C17.689,42.85 19.951,44.157000000000004 19.951,44.157000000000004 C20.438,44.438 20.833000000000002,44.213 20.834,43.654 C20.836,43.095 20.444,42.415 19.957,42.134z" style="fill: rgb(255, 255, 255); fill-opacity: 0.999897;"></path><path d=" M-305.90200000000004,-56.977 C-305.90200000000004,-56.977 254.098,-56.977 254.098,-56.977 C254.098,-56.977 254.098,638.023 254.098,638.023 C254.098,638.023 -305.90200000000004,638.023 -305.90200000000004,638.023 C-305.90200000000004,638.023 -305.90200000000004,-56.977 -305.90200000000004,-56.977z M-305.90200000000004,638.023 C-305.90200000000004,638.023 254.098,638.023 254.098,638.023 C254.098,638.023 254.098,-56.977 254.098,-56.977 C254.098,-56.977 -305.90200000000004,-56.977 -305.90200000000004,-56.977 C-305.90200000000004,-56.977 -305.90200000000004,638.023 -305.90200000000004,638.023z M14.427,38.942 C14.427,38.942 3.3640000000000008,32.555 3.3640000000000008,32.555 C2.878000000000001,32.274 2.4830000000000005,32.498999999999995 2.4810000000000008,33.058 C2.4800000000000004,33.617 2.8720000000000008,34.297 3.359000000000001,34.577999999999996 C3.359000000000001,34.577999999999996 14.421,40.964999999999996 14.421,40.964999999999996 C14.908000000000001,41.245999999999995 15.303,41.021 15.304,40.461999999999996 C15.306000000000001,39.903 14.914000000000001,39.223 14.427,38.942z" style="fill: rgb(255, 255, 255); fill-opacity: 0.999897;"></path><path d=" M-305.902,-56.977000000000004 C-305.902,-56.977000000000004 254.09799999999998,-56.977000000000004 254.09799999999998,-56.977000000000004 C254.09799999999998,-56.977000000000004 254.09799999999998,638.023 254.09799999999998,638.023 C254.09799999999998,638.023 -305.902,638.023 -305.902,638.023 C-305.902,638.023 -305.902,-56.977000000000004 -305.902,-56.977000000000004z M-305.902,638.023 C-305.902,638.023 254.09799999999998,638.023 254.09799999999998,638.023 C254.09799999999998,638.023 254.09799999999998,-56.977000000000004 254.09799999999998,-56.977000000000004 C254.09799999999998,-56.977000000000004 -305.902,-56.977000000000004 -305.902,-56.977000000000004 C-305.902,-56.977000000000004 -305.902,638.023 -305.902,638.023z M24.244,40.268 C24.244,40.268 3.3770000000000007,28.221 3.3770000000000007,28.221 C2.8900000000000006,27.94 2.494999999999999,28.168 2.4939999999999998,28.725 C2.491999999999999,29.284 2.8840000000000003,29.963 3.370000000000001,30.244 C3.370000000000001,30.244 24.237000000000002,42.291 24.237000000000002,42.291 C24.724,42.572 25.119,42.348 25.12,41.789 C25.122,41.232 24.731,40.549 24.244,40.268z" style="fill: rgb(122, 200, 240); fill-opacity: 0.999897;"></path><path d=" M-305.902,-56.977000000000004 C-305.902,-56.977000000000004 254.098,-56.977000000000004 254.098,-56.977000000000004 C254.098,-56.977000000000004 254.098,638.0229999999999 254.098,638.0229999999999 C254.098,638.0229999999999 -305.902,638.0229999999999 -305.902,638.0229999999999 C-305.902,638.0229999999999 -305.902,-56.977000000000004 -305.902,-56.977000000000004z M-305.902,638.0229999999999 C-305.902,638.0229999999999 254.098,638.0229999999999 254.098,638.0229999999999 C254.098,638.0229999999999 254.098,-56.977000000000004 254.098,-56.977000000000004 C254.098,-56.977000000000004 -305.902,-56.977000000000004 -305.902,-56.977000000000004 C-305.902,-56.977000000000004 -305.902,638.0229999999999 -305.902,638.0229999999999z M29.523,43.315999999999995 C29.523,43.315999999999995 27.26,42.01 27.26,42.01 C26.776,41.73 26.381,41.958 26.379,42.513999999999996 C26.378,43.073 26.77,43.753 27.255,44.032 C27.255,44.032 29.517,45.339 29.517,45.339 C30.004,45.62 30.399,45.394999999999996 30.4,44.836 C30.402,44.278999999999996 30.009,43.596999999999994 29.523,43.315999999999995z" style="fill: rgb(126, 252, 189); fill-opacity: 0.999897;"></path><path d=" M-305.902,-56.977000000000004 C-305.902,-56.977000000000004 254.09799999999998,-56.977000000000004 254.09799999999998,-56.977000000000004 C254.09799999999998,-56.977000000000004 254.09799999999998,638.023 254.09799999999998,638.023 C254.09799999999998,638.023 -305.902,638.023 -305.902,638.023 C-305.902,638.023 -305.902,-56.977000000000004 -305.902,-56.977000000000004z M-305.902,638.023 C-305.902,638.023 254.09799999999998,638.023 254.09799999999998,638.023 C254.09799999999998,638.023 254.09799999999998,-56.977000000000004 254.09799999999998,-56.977000000000004 C254.09799999999998,-56.977000000000004 -305.902,-56.977000000000004 -305.902,-56.977000000000004 C-305.902,-56.977000000000004 -305.902,638.023 -305.902,638.023z M37.82,48.107 C37.82,48.107 32.791999999999994,45.204 32.791999999999994,45.204 C32.306,44.923 31.910999999999998,45.151 31.909,45.707 C31.906999999999996,46.266000000000005 32.3,46.946 32.785999999999994,47.227000000000004 C32.785999999999994,47.227000000000004 37.814,50.13 37.814,50.13 C38.300999999999995,50.411 38.696,50.186 38.696999999999996,49.627 C38.699,49.07 38.306,48.388000000000005 37.82,48.107z" style="fill: rgb(255, 255, 255); fill-opacity: 0.999897;"></path><path d=" M-305.90200000000004,-56.977 C-305.90200000000004,-56.977 254.098,-56.977 254.098,-56.977 C254.098,-56.977 254.098,638.023 254.098,638.023 C254.098,638.023 -305.90200000000004,638.023 -305.90200000000004,638.023 C-305.90200000000004,638.023 -305.90200000000004,-56.977 -305.90200000000004,-56.977z M-305.90200000000004,638.023 C-305.90200000000004,638.023 254.098,638.023 254.098,638.023 C254.098,638.023 254.098,-56.977 254.098,-56.977 C254.098,-56.977 -305.90200000000004,-56.977 -305.90200000000004,-56.977 C-305.90200000000004,-56.977 -305.90200000000004,638.023 -305.90200000000004,638.023z M24.192999999999998,58.18 C24.192999999999998,58.18 3.3260000000000005,46.132 3.3260000000000005,46.132 C2.8390000000000004,45.852 2.443999999999999,46.077 2.4429999999999996,46.635999999999996 C2.440999999999999,47.195 2.833,47.874 3.319000000000001,48.155 C3.319000000000001,48.155 24.186,60.203 24.186,60.203 C24.673000000000002,60.484 25.068,60.259 25.069000000000003,59.7 C25.071,59.141 24.68,58.461 24.192999999999998,58.18z" style="fill: rgb(255, 255, 255); fill-opacity: 0.999897;"></path><path d=" M-305.902,-56.97699999999999 C-305.902,-56.97699999999999 254.09799999999998,-56.97699999999999 254.09799999999998,-56.97699999999999 C254.09799999999998,-56.97699999999999 254.09799999999998,638.023 254.09799999999998,638.023 C254.09799999999998,638.023 -305.902,638.023 -305.902,638.023 C-305.902,638.023 -305.902,-56.97699999999999 -305.902,-56.97699999999999z M-305.902,638.023 C-305.902,638.023 254.09799999999998,638.023 254.09799999999998,638.023 C254.09799999999998,638.023 254.09799999999998,-56.97699999999999 254.09799999999998,-56.97699999999999 C254.09799999999998,-56.97699999999999 -305.902,-56.97699999999999 -305.902,-56.97699999999999 C-305.902,-56.97699999999999 -305.902,638.023 -305.902,638.023z M29.471999999999998,61.228 C29.471999999999998,61.228 27.209,59.922000000000004 27.209,59.922000000000004 C26.724999999999998,59.642 26.33,59.867000000000004 26.328,60.426 C26.326999999999998,60.98500000000001 26.718999999999998,61.665000000000006 27.203999999999997,61.944 C27.203999999999997,61.944 29.465999999999998,63.251000000000005 29.465999999999998,63.251000000000005 C29.953,63.532000000000004 30.348,63.307 30.348999999999997,62.748000000000005 C30.351,62.189 29.958,61.509 29.471999999999998,61.228z" style="fill: rgb(126, 252, 189); fill-opacity: 0.999897;"></path></g><g transform="matrix(1,0,0,1,280,347.5)" style="user-select: none;"><path d=" M26.5,-290.5 C26.5,-290.5 3,-224.75 3,-224.75 C3,-224.75 66.75,-216.5 66.75,-216.5 C66.75,-216.5 67.75,-266.75 67.75,-266.75 C67.75,-266.75 26.5,-290.5 26.5,-290.5z" style="fill: rgb(255, 255, 255); fill-opacity: 0.2;"></path></g><g transform="matrix(1,0,0,1,272.727,107.645)" style="user-select: none;"><path d=" M8.013,23.221000000000004 C8.013,23.221000000000004 3.7939999999999996,25.662000000000003 3.7939999999999996,25.662000000000003 C3.7939999999999996,25.662000000000003 8.549999999999999,28.683 8.549999999999999,28.683 C8.549999999999999,28.683 12.451999999999998,25.784000000000002 12.451999999999998,25.784000000000002 C12.451999999999998,25.784000000000002 8.013,23.221000000000004 8.013,23.221000000000004z" style="fill: rgb(233, 233, 233); fill-opacity: 1;"></path><path d=" M9.628,22.341 C9.628,22.341 7.196999999999999,23.631 7.196999999999999,23.631 C7.196999999999999,23.631 11.954,26.229 11.954,26.229 C11.954,26.229 14.067,24.904 14.067,24.904 C14.067,24.904 9.628,22.341 9.628,22.341z" style="fill: rgb(201, 201, 201); fill-opacity: 1;"></path><path d=" M0.6170000000000009,1.4800000000000004 C0.6170000000000009,1.4800000000000004 0.8979999999999997,16.778000000000002 0.8979999999999997,16.778000000000002 C0.8979999999999997,16.778000000000002 20.871000000000002,28.504 20.871000000000002,28.504 C20.871000000000002,28.504 21.273,25.953000000000003 21.273,25.953000000000003 C21.273,25.953000000000003 21.273,12.855 21.273,12.855 C21.273,12.855 0.6170000000000009,1.4800000000000004 0.6170000000000009,1.4800000000000004z" style="fill: rgb(255, 119, 123); fill-opacity: 1;"></path><path d=" M-272.72700000000003,-107.644 C-272.72700000000003,-107.644 287.27299999999997,-107.644 287.27299999999997,-107.644 C287.27299999999997,-107.644 287.27299999999997,587.356 287.27299999999997,587.356 C287.27299999999997,587.356 -272.72700000000003,587.356 -272.72700000000003,587.356 C-272.72700000000003,587.356 -272.72700000000003,-107.644 -272.72700000000003,-107.644z M-272.72700000000003,587.356 C-272.72700000000003,587.356 287.27299999999997,587.356 287.27299999999997,587.356 C287.27299999999997,587.356 287.27299999999997,-107.644 287.27299999999997,-107.644 C287.27299999999997,-107.644 -272.72700000000003,-107.644 -272.72700000000003,-107.644 C-272.72700000000003,-107.644 -272.72700000000003,587.356 -272.72700000000003,587.356z M22.389000000000003,13.873 C22.391000000000002,13.242999999999999 21.943,12.466 21.385,12.144 C21.385,12.144 1.3330000000000002,0.5670000000000002 1.3330000000000002,0.5670000000000002 C0.7840000000000007,0.25 0.32500000000000107,0.5069999999999997 0.3230000000000004,1.138 C0.3230000000000004,1.138 0.27300000000000146,16.304 0.27300000000000146,16.304 C0.27300000000000146,16.304 0.2890000000000015,16.313 0.2890000000000015,16.313 C0.2890000000000015,16.313 0.3280000000000012,17.926 0.3280000000000012,17.926 C0.3260000000000005,18.412 0.6319999999999997,19.018 1.064,19.267 C1.064,19.267 21.557000000000002,31.099 21.557000000000002,31.099 C21.989,31.348 22.341,31.148 22.343,30.662 C22.343,30.662 22.347,29.039 22.347,29.039 C22.347,29.039 22.345,29.038 22.345,29.038 C22.345,29.038 22.389000000000003,13.873 22.389000000000003,13.873z M1.5360000000000014,2.2379999999999995 C1.5360000000000014,2.2379999999999995 21.184,13.581 21.184,13.581 C21.184,13.581 21.145000000000003,27.237000000000002 21.145000000000003,27.237000000000002 C21.145000000000003,27.237000000000002 1.4969999999999999,15.894 1.4969999999999999,15.894 C1.4969999999999999,15.894 1.5360000000000014,2.2379999999999995 1.5360000000000014,2.2379999999999995z" style="fill: rgb(82, 82, 82); fill-opacity: 1;"></path><path d=" M-272.72700000000003,-107.644 C-272.72700000000003,-107.644 287.27299999999997,-107.644 287.27299999999997,-107.644 C287.27299999999997,-107.644 287.27299999999997,587.356 287.27299999999997,587.356 C287.27299999999997,587.356 -272.72700000000003,587.356 -272.72700000000003,587.356 C-272.72700000000003,587.356 -272.72700000000003,-107.644 -272.72700000000003,-107.644z M-272.72700000000003,587.356 C-272.72700000000003,587.356 287.27299999999997,587.356 287.27299999999997,587.356 C287.27299999999997,587.356 287.27299999999997,-107.644 287.27299999999997,-107.644 C287.27299999999997,-107.644 -272.72700000000003,-107.644 -272.72700000000003,-107.644 C-272.72700000000003,-107.644 -272.72700000000003,587.356 -272.72700000000003,587.356z M0.2889999999999997,16.313 C0.2889999999999997,16.313 22.346,28.887 22.346,28.887 C22.346,28.887 22.343,30.613 22.343,30.613 C22.343,30.613 22.39,31.435 21.649,31.146 C20.908,30.855999999999998 1.274000000000001,19.389 1.274000000000001,19.389 C1.274000000000001,19.389 0.4059999999999988,19.137999999999998 0.3279999999999994,17.927 C0.25,16.715 0.2889999999999997,16.313 0.2889999999999997,16.313z" style="fill: rgb(255, 255, 255); fill-opacity: 1;"></path></g><g transform="matrix(1,0,0,1,280.84,116.591)" style="user-select: none;"><path d=" M-280.84000000000003,-116.59100000000001 C-280.84000000000003,-116.59100000000001 279.15999999999997,-116.59100000000001 279.15999999999997,-116.59100000000001 C279.15999999999997,-116.59100000000001 279.15999999999997,578.409 279.15999999999997,578.409 C279.15999999999997,578.409 -280.84000000000003,578.409 -280.84000000000003,578.409 C-280.84000000000003,578.409 -280.84000000000003,-116.59100000000001 -280.84000000000003,-116.59100000000001z M-280.84000000000003,578.409 C-280.84000000000003,578.409 279.15999999999997,578.409 279.15999999999997,578.409 C279.15999999999997,578.409 279.15999999999997,-116.59100000000001 279.15999999999997,-116.59100000000001 C279.15999999999997,-116.59100000000001 -280.84000000000003,-116.59100000000001 -280.84000000000003,-116.59100000000001 C-280.84000000000003,-116.59100000000001 -280.84000000000003,578.409 -280.84000000000003,578.409z M5.3740000000000006,3.133 C5.487,3.198 5.593999999999999,3.38 5.593,3.51 C5.593,3.51 5.593,3.856 5.593,3.856 C5.593,3.856 0.28200000000000003,0.7909999999999999 0.28200000000000003,0.7909999999999999 C0.28200000000000003,0.7909999999999999 0.28300000000000036,0.44499999999999984 0.28300000000000036,0.44499999999999984 C0.28400000000000025,0.31499999999999995 0.3770000000000002,0.25 0.4910000000000001,0.31499999999999995 C0.4910000000000001,0.31499999999999995 5.3740000000000006,3.133 5.3740000000000006,3.133z" style="fill: rgb(227, 227, 227); fill-opacity: 1;"></path><path d=" M-280.84000000000003,-116.591 C-280.84000000000003,-116.591 279.15999999999997,-116.591 279.15999999999997,-116.591 C279.15999999999997,-116.591 279.15999999999997,578.409 279.15999999999997,578.409 C279.15999999999997,578.409 -280.84000000000003,578.409 -280.84000000000003,578.409 C-280.84000000000003,578.409 -280.84000000000003,-116.591 -280.84000000000003,-116.591z M-280.84000000000003,578.409 C-280.84000000000003,578.409 279.15999999999997,578.409 279.15999999999997,578.409 C279.15999999999997,578.409 279.15999999999997,-116.591 279.15999999999997,-116.591 C279.15999999999997,-116.591 -280.84000000000003,-116.591 -280.84000000000003,-116.591 C-280.84000000000003,-116.591 -280.84000000000003,578.409 -280.84000000000003,578.409z M5.593,3.8560000000000003 C5.593,3.8560000000000003 5.56,9.756 5.56,9.756 C5.558999999999999,9.940999999999999 5.414,10.026 5.253,9.933 C5.253,9.933 0.5409999999999999,7.213 0.5409999999999999,7.213 C0.3799999999999999,7.12 0.24899999999999967,6.8740000000000006 0.24899999999999967,6.689 C0.24899999999999967,6.689 0.28200000000000003,0.7910000000000004 0.28200000000000003,0.7910000000000004 C0.28200000000000003,0.7910000000000004 5.593,3.8560000000000003 5.593,3.8560000000000003z" style="fill: rgb(68, 73, 75); fill-opacity: 1;"></path></g></g></svg>