<svg xmlns="http://www.w3.org/2000/svg" width="500" height="500" viewBox="0 0 500 500" preserveAspectRatio="xMidYMid meet"><defs><clipPath id="animationMask_oiGK6mVNbb"><rect width="500" height="500" x="0" y="0"></rect></clipPath><clipPath id="wVsEYG1Xiv"><path fill="#ffffff" clip-rule="nonzero" d=" M471,250 C471,250 423.5,226 423.5,226 C423.5,226 423.5,338 423.5,338 C423.5,338 471,362 471,362 C471,362 471,250 471,250"></path></clipPath><clipPath id="JX0L7lDswg"><path fill="#ffffff" clip-rule="nonzero" d=" M471,250 C471,250 423.5,226 423.5,226 C423.5,226 423.5,338 423.5,338 C423.5,338 471,362 471,362 C471,362 471,250 471,250"></path></clipPath><clipPath id="9hxml89G6l"><path fill="#ffffff" clip-rule="nonzero" d=" M543.73,190.625 C543.73,190.625 542.5,180.5 542.5,180.5 C542.5,180.5 542.5,303 542.5,303 C542.5,303 543.75,313.125 543.75,313.125 C543.75,313.125 543.73,190.625 543.73,190.625"></path></clipPath><clipPath id="6JaARJpv2t"><path fill="#ffffff" clip-rule="nonzero" d=" M657.5,180.5 C657.5,180.5 542.5,180.5 542.5,180.5 C542.5,180.5 542.5,303 542.5,303 C542.5,303 657.5,303 657.5,303 C657.5,303 657.5,180.5 657.5,180.5"></path></clipPath><clipPath id="dTlrGHLumQ"><path fill="#ffffff" clip-rule="nonzero" d=" M657.5,180.5 C657.5,180.5 542.5,180.5 542.5,180.5 C542.5,180.5 542.5,303 542.5,303 C542.5,303 657.5,303 657.5,303 C657.5,303 657.5,180.5 657.5,180.5"></path></clipPath><clipPath id="xEyPjBWIQA"><path fill="#ffffff" clip-rule="nonzero" d=" M471,250 C471,250 274,250 274,250 C274,250 274,362 274,362 C274,362 471,362 471,362 C471,362 471,250 471,250"></path></clipPath></defs><g clip-path="url(#animationMask_oiGK6mVNbb)" style="user-select: none;"><g transform="matrix(1.1,0,0,1.1,181.3234,93.35036630028799)" style="user-select: none;"><path d=" M124.44999999999999,14.844999999999999 C124.44999999999999,14.844999999999999 124.989,219.153 124.989,219.153 C124.996,221.849 123.024,224.47199999999998 120.678,225.827 C120.678,225.827 7.219000000000001,291.332 7.219000000000001,291.332 C4.873000000000005,292.687 2.745999999999995,292.19399999999996 2.738999999999997,289.49699999999996 C2.738999999999997,289.49699999999996 2.1999999999999957,85.19 2.1999999999999957,85.19 C2.1999999999999957,85.19 124.44999999999999,14.844999999999999 124.44999999999999,14.844999999999999z" style="fill: rgb(226, 226, 226); fill-opacity: 1;"></path><path d=" M119.899,2.073999999999998 C122.34199999999998,0.6640000000000015 124.407,2.014000000000003 124.41499999999999,4.821000000000005 C124.41499999999999,4.821000000000005 124.44999999999999,16.994000000000003 124.44999999999999,16.994000000000003 C124.44999999999999,16.994000000000003 2.468999999999994,87.41900000000001 2.468999999999994,87.41900000000001 C2.468999999999994,87.41900000000001 1.6459999999999937,75.119 1.6459999999999937,75.119 C1.637999999999991,72.31200000000001 3.8629999999999995,67.975 6.305,66.565 C6.305,66.565 119.899,2.073999999999998 119.899,2.073999999999998z" style="fill: rgb(252, 252, 252); fill-opacity: 1;"></path><path d=" M0.32200000000000273,86.591 C0.32200000000000273,86.591 2.470000000000006,87.6 2.470000000000006,87.6 C2.470000000000006,87.6 2.4350000000000023,75.247 2.4350000000000023,75.247 C2.4350000000000023,75.247 3.7520000000000024,69.133 6.797000000000004,67.375 C9.842000000000006,65.61699999999999 119.92,2.125 119.92,2.125 C119.92,2.125 121.584,0.9870000000000019 123.296,2.0249999999999986 C123.296,2.0249999999999986 120.862,1.0019999999999953 120.862,1.0019999999999953 C120.862,1.0019999999999953 119.477,0.2499999999999929 117.75200000000001,1.2459999999999951 C116.02600000000001,2.2419999999999973 4.650000000000006,66.545 4.650000000000006,66.545 C4.650000000000006,66.545 0.32200000000000273,69.131 0.28700000000000614,74.419 C0.2500000000000071,80.114 0.32200000000000273,86.591 0.32200000000000273,86.591z" style="fill: rgb(230, 230, 230); fill-opacity: 1;"></path><path d=" M3.009,289.578 C3.009,289.578 2.469,87.26999999999998 2.469,87.26999999999998 C2.469,87.26999999999998 0.32199999999999984,86.44099999999999 0.32199999999999984,86.44099999999999 C0.32199999999999984,86.44099999999999 0.8619999999999999,288.74899999999997 0.8619999999999999,288.74899999999997 C0.8649999999999998,289.92999999999995 1.2229999999999999,290.673 1.8219999999999998,291.02099999999996 C1.8219999999999998,291.02099999999996 3.9699999999999998,291.84999999999997 3.9699999999999998,291.84999999999997 C3.371,291.50199999999995 3.012,290.759 3.009,289.578z" style="fill: rgb(191, 191, 191); fill-opacity: 1;"></path></g><g transform="matrix(0,0,0,0,211.3512,374.46416630028796)" style="user-select: none;"><path d=" M128.614,41.666999999999994 C128.614,41.666999999999994 108.24700000000001,53.425999999999995 108.24700000000001,53.425999999999995 C107.992,53.573 107.78800000000001,53.925999999999995 107.789,54.22 C107.789,54.22 107.79,54.799 107.79,54.799 C107.79100000000001,55.084999999999994 107.99600000000001,55.202 108.25200000000001,55.055 C108.25200000000001,55.055 128.619,43.296 128.619,43.296 C128.874,43.147999999999996 129.078,42.796 129.077,42.509 C129.077,42.509 129.07500000000002,41.93 129.07500000000002,41.93 C129.074,41.635999999999996 128.869,41.519999999999996 128.614,41.666999999999994z" style="fill: rgb(220, 220, 220); fill-opacity: 1;"></path><path d=" M134.022,6.704000000000001 C134.022,6.704000000000001 102.66,24.811 102.66,24.811 C101.919,25.238 101.314,26.278 101.31700000000001,27.128999999999998 C101.31700000000001,27.128999999999998 101.389,52.572 101.389,52.572 C101.39099999999999,53.423 102,53.769999999999996 102.74,53.342 C102.74,53.342 134.102,35.236 134.102,35.236 C134.843,34.808 135.447,33.761 135.445,32.91 C135.445,32.91 135.373,7.466999999999999 135.373,7.466999999999999 C135.37,6.616 134.763,6.276 134.022,6.704000000000001z" style="fill: rgb(220, 220, 220); fill-opacity: 1;"></path></g><g transform="matrix(0,0,0,0,293.3221000000001,327.676766300288)" style="user-select: none;"><path d=" M27.549999999999997,35.64 C27.549999999999997,35.64 7.176999999999998,47.403999999999996 7.176999999999998,47.403999999999996 C6.927999999999997,47.547 6.723999999999998,47.9 6.724999999999998,48.193999999999996 C6.724999999999998,48.193999999999996 6.725999999999999,48.772999999999996 6.725999999999999,48.772999999999996 C6.7269999999999985,49.059 6.931999999999999,49.176 7.180999999999999,49.032 C7.180999999999999,49.032 27.554,37.269999999999996 27.554,37.269999999999996 C27.802999999999997,37.126 28.006999999999998,36.772 28.006,36.486 C28.006,36.486 28.003999999999998,35.906 28.003999999999998,35.906 C28.003,35.613 27.799,35.495999999999995 27.549999999999997,35.64z" style="fill: rgb(220, 220, 220); fill-opacity: 1;"></path><path d=" M32.957,0.6769999999999996 C32.957,0.6769999999999996 1.5879999999999992,18.787 1.5879999999999992,18.787 C0.847999999999999,19.215 0.24899999999999878,20.251 0.2519999999999989,21.102 C0.2519999999999989,21.102 0.32399999999999807,46.546 0.32399999999999807,46.546 C0.32599999999999696,47.397 0.9279999999999973,47.747 1.6689999999999987,47.32 C1.6689999999999987,47.32 33.038,29.209000000000003 33.038,29.209000000000003 C33.778999999999996,28.782000000000004 34.376999999999995,27.738 34.373999999999995,26.887 C34.373999999999995,26.887 34.301,1.4450000000000003 34.301,1.4450000000000003 C34.299,0.5940000000000012 33.698,0.24899999999999878 32.957,0.6769999999999996z" style="fill: rgb(220, 220, 220); fill-opacity: 1;"></path></g><g transform="matrix(0,0,0,0,251.96320000000003,351.555566300288)" style="user-select: none;"><path d=" M27.549999999999997,35.64 C27.549999999999997,35.64 7.182999999999998,47.4 7.182999999999998,47.4 C6.927999999999997,47.547 6.723999999999998,47.9 6.724999999999998,48.193999999999996 C6.724999999999998,48.193999999999996 6.725999999999999,48.772999999999996 6.725999999999999,48.772999999999996 C6.7269999999999985,49.059 6.931999999999999,49.176 7.187999999999999,49.028999999999996 C7.187999999999999,49.028999999999996 27.554,37.269999999999996 27.554,37.269999999999996 C27.802999999999997,37.126 28.006999999999998,36.772 28.006,36.486 C28.006,36.486 28.005,35.906 28.005,35.906 C28.003999999999998,35.613 27.799,35.495999999999995 27.549999999999997,35.64z" style="fill: rgb(220, 220, 220); fill-opacity: 1;"></path><path d=" M32.957,0.6779999999999973 C32.957,0.6779999999999973 1.5949999999999989,18.784999999999997 1.5949999999999989,18.784999999999997 C0.847999999999999,19.215999999999998 0.24899999999999878,20.252 0.2519999999999989,21.102999999999998 C0.2519999999999989,21.102999999999998 0.32399999999999807,46.547 0.32399999999999807,46.547 C0.32599999999999696,47.397999999999996 0.9289999999999985,47.748000000000005 1.6759999999999984,47.317 C1.6759999999999984,47.317 33.038,29.21 33.038,29.21 C33.778,28.783 34.376999999999995,27.738999999999997 34.373999999999995,26.887999999999998 C34.373999999999995,26.887999999999998 34.301,1.445999999999998 34.301,1.445999999999998 C34.299,0.5949999999999989 33.698,0.24999999999999645 32.957,0.6779999999999973z" style="fill: rgb(220, 220, 220); fill-opacity: 1;"></path></g><g transform="matrix(0,0,0,0,293.19780000000003,283.29176630028803)" style="user-select: none;"><path d=" M27.548000000000002,34.833000000000006 C27.548000000000002,34.833000000000006 7.174999999999999,46.597 7.174999999999999,46.597 C6.925999999999998,46.74 6.7219999999999995,47.093 6.722999999999999,47.379000000000005 C6.722999999999999,47.379000000000005 6.724,47.959 6.724,47.959 C6.725,48.252 6.93,48.369 7.179,48.225 C7.179,48.225 27.552,36.463 27.552,36.463 C27.801000000000002,36.319 28.005,35.965 28.003999999999998,35.672000000000004 C28.003999999999998,35.672000000000004 28.002,35.092000000000006 28.002,35.092000000000006 C28.000999999999998,34.806000000000004 27.797,34.68900000000001 27.548000000000002,34.833000000000006z" style="fill: rgb(220, 220, 220); fill-opacity: 1;"></path><path d=" M32.958,0.6779999999999973 C32.958,0.6779999999999973 1.5890000000000004,18.788999999999998 1.5890000000000004,18.788999999999998 C0.8490000000000002,19.217 0.25,20.259 0.2530000000000001,21.11 C0.2530000000000001,21.11 0.3249999999999993,46.553 0.3249999999999993,46.553 C0.3269999999999982,47.403999999999996 0.9289999999999985,47.747 1.67,47.32 C1.67,47.32 33.039,29.211 33.039,29.211 C33.778999999999996,28.782999999999998 34.378,27.746 34.375,26.895 C34.375,26.895 34.302,1.4529999999999994 34.302,1.4529999999999994 C34.3,0.6020000000000003 33.699,0.24999999999999645 32.958,0.6779999999999973z" style="fill: rgb(220, 220, 220); fill-opacity: 1;"></path></g><g transform="matrix(0,0,0,0,251.83890000000008,307.170566300288)" style="user-select: none;"><path d=" M27.548000000000002,34.833000000000006 C27.548000000000002,34.833000000000006 7.180999999999999,46.593 7.180999999999999,46.593 C6.925999999999998,46.74 6.7219999999999995,47.093 6.722999999999999,47.379000000000005 C6.722999999999999,47.379000000000005 6.724,47.959 6.724,47.959 C6.725,48.252 6.93,48.369 7.186,48.222 C7.186,48.222 27.552,36.463 27.552,36.463 C27.801000000000002,36.319 28.005,35.965 28.003999999999998,35.672000000000004 C28.003999999999998,35.672000000000004 28.003,35.092000000000006 28.003,35.092000000000006 C28.002000000000002,34.806000000000004 27.797,34.68900000000001 27.548000000000002,34.833000000000006z" style="fill: rgb(220, 220, 220); fill-opacity: 1;"></path><path d=" M32.957,0.6779999999999973 C32.957,0.6779999999999973 1.5949999999999989,18.784999999999997 1.5949999999999989,18.784999999999997 C0.847999999999999,19.215999999999998 0.24899999999999878,20.259 0.2519999999999989,21.11 C0.2519999999999989,21.11 0.32399999999999807,46.553 0.32399999999999807,46.553 C0.32599999999999696,47.403999999999996 0.9289999999999985,47.747 1.6759999999999984,47.316 C1.6759999999999984,47.316 33.038,29.209 33.038,29.209 C33.778,28.782 34.376999999999995,27.746 34.373999999999995,26.895 C34.373999999999995,26.895 34.301,1.4519999999999982 34.301,1.4519999999999982 C34.299,0.6009999999999991 33.698,0.24999999999999645 32.957,0.6779999999999973z" style="fill: rgb(220, 220, 220); fill-opacity: 1;"></path></g><g transform="matrix(0,0,0,0,211.2621000000001,330.599466300288)" style="user-select: none;"><path d=" M27.548000000000002,34.833999999999996 C27.548000000000002,34.833999999999996 7.181000000000001,46.592999999999996 7.181000000000001,46.592999999999996 C6.926,46.74 6.722000000000001,47.092999999999996 6.723000000000001,47.379 C6.723000000000001,47.379 6.724,47.958999999999996 6.724,47.958999999999996 C6.725,48.251999999999995 6.9300000000000015,48.369 7.186000000000002,48.222 C7.186000000000002,48.222 27.553,36.463 27.553,36.463 C27.808,36.315 28.012,35.963 28.011000000000003,35.669 C28.011000000000003,35.669 28.009,35.089 28.009,35.089 C28.008000000000003,34.803 27.803,34.687 27.548000000000002,34.833999999999996z" style="fill: rgb(220, 220, 220); fill-opacity: 1;"></path><path d=" M32.957,0.6780000000000008 C32.957,0.6780000000000008 1.5949999999999989,18.785 1.5949999999999989,18.785 C0.8539999999999992,19.212 0.24899999999999878,20.259 0.2519999999999989,21.11 C0.2519999999999989,21.11 0.32399999999999807,46.553 0.32399999999999807,46.553 C0.32599999999999696,47.403999999999996 0.9349999999999987,47.744 1.674999999999999,47.316 C1.674999999999999,47.316 33.037,29.209 33.037,29.209 C33.778,28.782 34.382,27.742 34.379999999999995,26.891 C34.379999999999995,26.891 34.308,1.4480000000000004 34.308,1.4480000000000004 C34.305,0.5970000000000013 33.698,0.25 32.957,0.6780000000000008z" style="fill: rgb(220, 220, 220); fill-opacity: 1;"></path></g><g transform="matrix(1.1,0,0,1.1,192.055,145.182366300288)" style="user-select: none;"><path d=" M108.078,0.703000000000003 C108.078,0.703000000000003 1.6649999999999991,62.142 1.6649999999999991,62.142 C0.8859999999999957,62.591 0.25,63.693000000000005 0.25200000000000244,64.595 C0.25200000000000244,64.595 0.3539999999999992,100.456 0.3539999999999992,100.456 C0.35600000000000165,101.358 0.9969999999999928,101.72300000000001 1.7759999999999962,101.273 C1.7759999999999962,101.273 108.189,39.837 108.189,39.837 C108.97399999999999,39.383 109.604,38.284000000000006 109.602,37.381 C109.602,37.381 109.5,1.5219999999999985 109.5,1.5219999999999985 C109.497,0.6189999999999998 108.863,0.25 108.078,0.703000000000003z" style="fill: rgb(220, 220, 220); fill-opacity: 1;"></path></g><g transform="matrix(1.1,0,0,1.1,276.3194000000001,260.69886630028805)" style="user-select: none;"><path d=" M16.361,0.9909999999999997 C16.361,0.9909999999999997 2.577,8.949 2.577,8.949 C1.286999999999999,9.693999999999999 0.25,11.498 0.25399999999999956,12.972999999999999 C0.25399999999999956,12.972999999999999 0.2550000000000008,13.325 0.2550000000000008,13.325 C0.25900000000000034,14.806999999999999 1.3030000000000008,15.402000000000001 2.593,14.657 C2.593,14.657 16.377000000000002,6.699 16.377000000000002,6.699 C17.661,5.958 18.704,4.157 18.700000000000003,2.675 C18.700000000000003,2.675 18.698999999999998,2.3229999999999995 18.698999999999998,2.3229999999999995 C18.695,0.8489999999999993 17.644,0.25 16.361,0.9909999999999997z" style="fill: rgb(220, 220, 220); fill-opacity: 1;"></path></g><g transform="matrix(1.1,0,0,1.1,266.06960000000004,224.40766630028796)" style="user-select: none;"><path d=" M20.944,11.898 C20.944,11.898 0.9009999999999998,23.463 0.9009999999999998,23.463 C0.536999999999999,23.673000000000002 0.25,24.176000000000002 0.2519999999999989,24.587 C0.2519999999999989,24.587 0.2519999999999989,24.719 0.2519999999999989,24.719 C0.2530000000000001,25.137 0.5410000000000004,25.301000000000002 0.9050000000000011,25.09 C0.9050000000000011,25.09 20.949,13.527 20.949,13.527 C21.313,13.317 21.599,12.821 21.598,12.402 C21.598,12.402 21.597,12.27 21.597,12.27 C21.596,11.859 21.308,11.687999999999999 20.944,11.898z" style="fill: rgb(220, 220, 220); fill-opacity: 1;"></path></g><g transform="matrix(1.1,0,0,1.1,266.06960000000004,218.22016630028796)" style="user-select: none;"><path d=" M40.741,0.4599999999999991 C40.741,0.4599999999999991 0.9009999999999998,23.463 0.9009999999999998,23.463 C0.536999999999999,23.673000000000002 0.25,24.176000000000002 0.2519999999999989,24.587 C0.2519999999999989,24.587 0.2519999999999989,24.719 0.2519999999999989,24.719 C0.2530000000000001,25.137 0.5410000000000004,25.301000000000002 0.9050000000000011,25.09 C0.9050000000000011,25.09 40.745999999999995,2.09 40.745999999999995,2.09 C41.11,1.879999999999999 41.396,1.3840000000000003 41.394999999999996,0.9649999999999999 C41.394999999999996,0.9649999999999999 41.394000000000005,0.8330000000000002 41.394000000000005,0.8330000000000002 C41.393,0.4220000000000006 41.105000000000004,0.24999999999999822 40.741,0.4599999999999991z" style="fill: rgb(220, 220, 220); fill-opacity: 1;"></path></g><g transform="matrix(1.1,0,0,1.1,266.06960000000004,212.17016630028795)" style="user-select: none;"><path d=" M40.741,0.4599999999999991 C40.741,0.4599999999999991 0.9009999999999998,23.463 0.9009999999999998,23.463 C0.536999999999999,23.673000000000002 0.25,24.176000000000002 0.2519999999999989,24.587 C0.2519999999999989,24.587 0.2519999999999989,24.719 0.2519999999999989,24.719 C0.2530000000000001,25.137 0.5410000000000004,25.301000000000002 0.9050000000000011,25.09 C0.9050000000000011,25.09 40.745999999999995,2.09 40.745999999999995,2.09 C41.11,1.879999999999999 41.396,1.3840000000000003 41.394999999999996,0.9649999999999999 C41.394999999999996,0.9649999999999999 41.394000000000005,0.8330000000000002 41.394000000000005,0.8330000000000002 C41.393,0.4220000000000006 41.105000000000004,0.24999999999999822 40.741,0.4599999999999991z" style="fill: rgb(220, 220, 220); fill-opacity: 1;"></path></g><g transform="matrix(1.1,0,0,1.1,267.1355000000001,212.58156630028802)" style="user-select: none;"><path d=" M21.784,0.6219999999999999 C21.784,0.6219999999999999 1.4109999999999996,12.385 1.4109999999999996,12.385 C0.766,12.757 0.25,13.649999999999999 0.25200000000000067,14.390999999999998 C0.25200000000000067,14.390999999999998 0.26200000000000045,18.235 0.26200000000000045,18.235 C0.2640000000000011,18.976 0.7840000000000007,19.272 1.4290000000000003,18.899 C1.4290000000000003,18.899 21.801000000000002,7.136999999999999 21.801000000000002,7.136999999999999 C22.445999999999998,6.763999999999999 22.962,5.872 22.96,5.130999999999999 C22.96,5.130999999999999 22.95,1.2859999999999996 22.95,1.2859999999999996 C22.948,0.5449999999999999 22.429000000000002,0.25 21.784,0.6219999999999999z" style="fill: rgb(220, 220, 220); fill-opacity: 1;"></path></g><g transform="matrix(1.1,0,0,1.1,191.89880000000005,230.77446630028797)" style="user-select: none;"><path d=" M61.260000000000005,0.703000000000003 C61.260000000000005,0.703000000000003 1.6660000000000004,35.11000000000001 1.6660000000000004,35.11000000000001 C0.8870000000000005,35.56 0.25,36.654 0.2530000000000001,37.557 C0.2530000000000001,37.557 0.3550000000000004,73.42500000000001 0.3550000000000004,73.42500000000001 C0.3569999999999993,74.32000000000001 0.9980000000000011,74.685 1.777000000000001,74.23500000000001 C1.777000000000001,74.23500000000001 61.371,39.828 61.371,39.828 C62.156000000000006,39.375 62.786,38.276 62.784,37.381 C62.784,37.381 62.682,1.514000000000003 62.682,1.514000000000003 C62.679,0.6120000000000019 62.045,0.25 61.260000000000005,0.703000000000003z" style="fill: rgb(220, 220, 220); fill-opacity: 1;"></path></g><g transform="matrix(1.1,0,0,1.1,300.3015999999999,123.285766300288)" style="user-select: none;"><path d=" M7.453,7.222 C7.446,7.226000000000001 7.441000000000001,7.23 7.434,7.2330000000000005 C7.083,7.414000000000001 6.801,7.231 6.806,6.817 C6.811,6.4 7.098,5.906000000000001 7.444,5.706 C7.448,5.704000000000001 7.4510000000000005,5.702 7.455,5.7 C7.806,5.497 8.114,5.672000000000001 8.115,6.0680000000000005 C8.122,6.461 7.797000000000001,7.024000000000001 7.453,7.222z M4.503,8.925 C4.152,9.121 3.818,8.923 3.8360000000000003,8.509 C3.854,8.11 4.167,7.591 4.503,7.396000000000001 C4.51,7.392 4.518,7.388 4.525,7.384 C4.863,7.204000000000001 5.176,7.397 5.164,7.7940000000000005 C5.159,8.186 4.8420000000000005,8.73 4.503,8.925z M4.093,7.245000000000001 C3.847,7.3870000000000005 3.708,7.3870000000000005 3.616,7.1450000000000005 C3.358,6.405 3.068,5.7490000000000006 2.791,5.0200000000000005 C2.753,4.917000000000001 2.726,4.719 2.682,4.745 C4.897,3.4660000000000006 7.068,2.2120000000000006 9.322,0.9110000000000005 C9.088000000000001,1.8620000000000005 8.878,2.5120000000000005 8.656,3.3380000000000005 C8.517,3.8520000000000003 8.468,4.3580000000000005 8.193999999999999,4.737 C8.045,4.939 7.841,5.083 7.625,5.208 C7.527,5.264 7.426,5.317 7.3260000000000005,5.37 C7.211,5.429 7.095000000000001,5.488 6.987,5.551 C6.036,6.107 5.085,6.657000000000001 4.128,7.224 C4.116,7.231000000000001 4.104,7.238 4.093,7.245000000000001z M1.923,3.2870000000000004 C1.387,3.5970000000000004 0.9590000000000001,3.902 0.25,4.348000000000001 C0.25,4.348000000000001 0.25,4.436000000000001 0.25,4.436000000000001 C0.9580000000000002,4.071000000000001 1.024,4.122000000000001 1.375,3.9190000000000005 C1.681,3.7430000000000003 1.899,3.7200000000000006 2.0020000000000002,3.998 C2.4400000000000004,5.178000000000001 2.8970000000000002,6.34 3.361,7.49 C3.438,7.674 3.567,7.798 3.689,7.970000000000001 C3.3520000000000003,8.877 3.545,9.192 3.84,9.367 C4.022,9.475999999999999 4.253,9.453 4.492,9.316 C4.646,9.227 4.803,9.09 4.9510000000000005,8.909 C5.601,8.100000000000001 5.612,7.462000000000001 5.272,6.916 C5.569,6.744000000000001 5.836,6.587000000000001 6.093,6.439 C6.221,6.365 6.345000000000001,6.2940000000000005 6.471,6.223000000000001 C6.471,6.223000000000001 6.638,6.164000000000001 6.638,6.164000000000001 C6.392,7.218 6.47,7.643000000000001 6.911,7.719 C7.084,7.747 7.2669999999999995,7.704000000000001 7.448,7.6000000000000005 C7.662,7.476000000000001 7.873,7.265000000000001 8.06,6.982000000000001 C8.461,6.368 8.492,5.8660000000000005 8.241,5.349 C8.368,5.048 8.463000000000001,4.817 8.533,4.571000000000001 C8.856,3.3850000000000007 9.076,2.2510000000000003 9.393,1.0610000000000004 C9.456,0.8340000000000005 9.475000000000001,0.6470000000000002 9.474,0.4630000000000001 C9.474,0.4630000000000001 9.472999999999999,0.2950000000000008 9.472999999999999,0.2950000000000008 C9.472999999999999,0.2500000000000009 9.242,0.3020000000000005 9.057,0.4090000000000007 C7.0520000000000005,1.5590000000000006 5.195,2.6400000000000006 3.197,3.7860000000000005 C3.076,3.8560000000000008 2.974,3.9220000000000006 2.8970000000000002,3.9670000000000005 C2.83,4.007000000000001 2.773,4.042000000000001 2.724,4.07 C2.3920000000000003,4.2620000000000005 2.4520000000000004,4.144 2.2110000000000003,3.591 C2.1460000000000004,3.4510000000000005 2.012,3.2350000000000003 1.923,3.2870000000000004z" style="fill: rgb(220, 220, 220); fill-opacity: 1;"></path></g><g transform="matrix(1.1,0,0,1.1,192.44880000000006,297.87446630028796)" style="user-select: none;"><path d=" M61.260000000000005,0.703000000000003 C61.260000000000005,0.703000000000003 1.6660000000000004,35.11000000000001 1.6660000000000004,35.11000000000001 C0.8870000000000005,35.56 0.25,36.654 0.2530000000000001,37.557 C0.2530000000000001,37.557 0.3550000000000004,73.42500000000001 0.3550000000000004,73.42500000000001 C0.3569999999999993,74.32000000000001 0.9980000000000011,74.685 1.777000000000001,74.23500000000001 C1.777000000000001,74.23500000000001 61.371,39.828 61.371,39.828 C62.156000000000006,39.375 62.786,38.276 62.784,37.381 C62.784,37.381 62.682,1.514000000000003 62.682,1.514000000000003 C62.679,0.6120000000000019 62.045,0.25 61.260000000000005,0.703000000000003z" style="fill: rgb(220, 220, 220); fill-opacity: 1; display: block;"></path></g><g transform="matrix(1.1,0,0,1.1,266.31050000000005,281.33156630028793)" style="user-select: none;"><path d=" M21.784,0.6219999999999999 C21.784,0.6219999999999999 1.4109999999999996,12.385 1.4109999999999996,12.385 C0.766,12.757 0.25,13.649999999999999 0.25200000000000067,14.390999999999998 C0.25200000000000067,14.390999999999998 0.26200000000000045,18.235 0.26200000000000045,18.235 C0.2640000000000011,18.976 0.7840000000000007,19.272 1.4290000000000003,18.899 C1.4290000000000003,18.899 21.801000000000002,7.136999999999999 21.801000000000002,7.136999999999999 C22.445999999999998,6.763999999999999 22.962,5.872 22.96,5.130999999999999 C22.96,5.130999999999999 22.95,1.2859999999999996 22.95,1.2859999999999996 C22.948,0.5449999999999999 22.429000000000002,0.25 21.784,0.6219999999999999z" style="fill: rgb(220, 220, 220); fill-opacity: 1; display: block;"></path></g><g transform="matrix(1.1,0,0,1.1,266.6196000000001,280.920166300288)" style="user-select: none;"><path d=" M40.741,0.4599999999999991 C40.741,0.4599999999999991 0.9009999999999998,23.463 0.9009999999999998,23.463 C0.536999999999999,23.673000000000002 0.25,24.176000000000002 0.2519999999999989,24.587 C0.2519999999999989,24.587 0.2519999999999989,24.719 0.2519999999999989,24.719 C0.2530000000000001,25.137 0.5410000000000004,25.301000000000002 0.9050000000000011,25.09 C0.9050000000000011,25.09 40.745999999999995,2.09 40.745999999999995,2.09 C41.11,1.879999999999999 41.396,1.3840000000000003 41.394999999999996,0.9649999999999999 C41.394999999999996,0.9649999999999999 41.394000000000005,0.8330000000000002 41.394000000000005,0.8330000000000002 C41.393,0.4220000000000006 41.105000000000004,0.24999999999999822 40.741,0.4599999999999991z" style="fill: rgb(220, 220, 220); fill-opacity: 1; display: block;"></path></g><g transform="matrix(1.1,0,0,1.1,266.6196000000001,286.97016630028793)" style="user-select: none;"><path d=" M40.741,0.4599999999999991 C40.741,0.4599999999999991 0.9009999999999998,23.463 0.9009999999999998,23.463 C0.536999999999999,23.673000000000002 0.25,24.176000000000002 0.2519999999999989,24.587 C0.2519999999999989,24.587 0.2519999999999989,24.719 0.2519999999999989,24.719 C0.2530000000000001,25.137 0.5410000000000004,25.301000000000002 0.9050000000000011,25.09 C0.9050000000000011,25.09 40.745999999999995,2.09 40.745999999999995,2.09 C41.11,1.879999999999999 41.396,1.3840000000000003 41.394999999999996,0.9649999999999999 C41.394999999999996,0.9649999999999999 41.394000000000005,0.8330000000000002 41.394000000000005,0.8330000000000002 C41.393,0.4220000000000006 41.105000000000004,0.24999999999999822 40.741,0.4599999999999991z" style="fill: rgb(220, 220, 220); fill-opacity: 1; display: block;"></path></g><g transform="matrix(1.1,0,0,1.1,266.6196000000001,293.15766630028793)" style="user-select: none;"><path d=" M20.944,11.898 C20.944,11.898 0.9009999999999998,23.463 0.9009999999999998,23.463 C0.536999999999999,23.673000000000002 0.25,24.176000000000002 0.2519999999999989,24.587 C0.2519999999999989,24.587 0.2519999999999989,24.719 0.2519999999999989,24.719 C0.2530000000000001,25.137 0.5410000000000004,25.301000000000002 0.9050000000000011,25.09 C0.9050000000000011,25.09 20.949,13.527 20.949,13.527 C21.313,13.317 21.599,12.821 21.598,12.402 C21.598,12.402 21.597,12.27 21.597,12.27 C21.596,11.859 21.308,11.687999999999999 20.944,11.898z" style="fill: rgb(220, 220, 220); fill-opacity: 1; display: block;"></path></g><g transform="matrix(1.1,0,0,1.1,266.6944000000001,320.92386630028795)" style="user-select: none;"><path d=" M16.361,0.9909999999999997 C16.361,0.9909999999999997 2.577,8.949 2.577,8.949 C1.286999999999999,9.693999999999999 0.25,11.498 0.25399999999999956,12.972999999999999 C0.25399999999999956,12.972999999999999 0.2550000000000008,13.325 0.2550000000000008,13.325 C0.25900000000000034,14.806999999999999 1.3030000000000008,15.402000000000001 2.593,14.657 C2.593,14.657 16.377000000000002,6.699 16.377000000000002,6.699 C17.661,5.958 18.704,4.157 18.700000000000003,2.675 C18.700000000000003,2.675 18.698999999999998,2.3229999999999995 18.698999999999998,2.3229999999999995 C18.695,0.8489999999999993 17.644,0.25 16.361,0.9909999999999997z" style="fill: rgb(220, 220, 220); fill-opacity: 1; display: block;"></path></g><g transform="matrix(1.1,0,0,1.1,191.83279999999996,175.60836630028797)" style="user-select: none;"><path d=" M23.240000000000002,0.6099999999999994 C23.240000000000002,0.6099999999999994 1.3789999999999996,13.231 1.3789999999999996,13.231 C0.7599999999999998,13.588999999999999 0.25,14.465 0.2530000000000001,15.184 C0.2530000000000001,15.184 0.2679999999999989,20.737000000000002 0.2679999999999989,20.737000000000002 C0.2699999999999996,21.448999999999998 0.7829999999999995,21.740000000000002 1.4019999999999992,21.381999999999998 C1.4019999999999992,21.381999999999998 23.262999999999998,8.761 23.262999999999998,8.761 C23.889,8.399999999999999 24.392000000000003,7.5219999999999985 24.39,6.810999999999999 C24.39,6.810999999999999 24.374000000000002,1.2569999999999997 24.374000000000002,1.2569999999999997 C24.372,0.5380000000000003 23.866,0.24899999999999878 23.240000000000002,0.6099999999999994z" style="fill: rgb(220, 220, 220); fill-opacity: 1;"></path></g><g transform="matrix(1.1,0,0,1.1,190.35220000000004,173.05306630028798)" style="user-select: none;"><path d=" M1.583,0.6740000000000002 C2.317,0.2500000000000002 2.919,0.5870000000000002 2.9219999999999997,1.431 C2.924,2.282 2.325,3.3100000000000005 1.591,3.734 C0.856,4.158 0.254,3.822 0.252,2.971 C0.25,2.128 0.849,1.098 1.583,0.6740000000000002z" style="fill: rgb(171, 171, 171); fill-opacity: 1;"></path></g><g transform="matrix(1.1,0,0,1.1,198.99050000000005,168.06566630028797)" style="user-select: none;"><path d=" M1.582,0.6740000000000002 C2.316,0.2500000000000002 2.918,0.5870000000000002 2.9210000000000003,1.431 C2.923,2.282 2.324,3.3100000000000005 1.59,3.734 C0.8550000000000001,4.158 0.2530000000000001,3.822 0.2510000000000001,2.971 C0.2490000000000001,2.128 0.8480000000000001,1.098 1.582,0.6740000000000002z" style="fill: rgb(171, 171, 171); fill-opacity: 1;"></path></g><g transform="matrix(1.1,0,0,1.1,207.6365,163.073866300288)" style="user-select: none;"><path d=" M1.576,0.6779999999999999 C2.317,0.25 2.912,0.591 2.915,1.435 C2.917,2.286 2.324,3.311 1.5839999999999999,3.738 C0.849,4.162 0.2549999999999999,3.823 0.252,2.972 C0.25,2.128 0.842,1.1019999999999999 1.576,0.6779999999999999z" style="fill: rgb(171, 171, 171); fill-opacity: 1;"></path></g><g transform="matrix(0,0,0,0,222.90120000000002,383.814166300288)" style="user-select: none;"><path d=" M128.614,41.666999999999994 C128.614,41.666999999999994 108.24700000000001,53.425999999999995 108.24700000000001,53.425999999999995 C107.992,53.573 107.78800000000001,53.925999999999995 107.789,54.22 C107.789,54.22 107.79,54.799 107.79,54.799 C107.79100000000001,55.084999999999994 107.99600000000001,55.202 108.25200000000001,55.055 C108.25200000000001,55.055 128.619,43.296 128.619,43.296 C128.874,43.147999999999996 129.078,42.796 129.077,42.509 C129.077,42.509 129.07500000000002,41.93 129.07500000000002,41.93 C129.074,41.635999999999996 128.869,41.519999999999996 128.614,41.666999999999994z" style="fill: rgb(255, 255, 255); fill-opacity: 1;"></path><path d=" M134.022,6.704000000000001 C134.022,6.704000000000001 102.66,24.811 102.66,24.811 C101.919,25.238 101.314,26.278 101.31700000000001,27.128999999999998 C101.31700000000001,27.128999999999998 101.389,52.572 101.389,52.572 C101.39099999999999,53.423 102,53.769999999999996 102.74,53.342 C102.74,53.342 134.102,35.236 134.102,35.236 C134.843,34.808 135.447,33.761 135.445,32.91 C135.445,32.91 135.373,7.466999999999999 135.373,7.466999999999999 C135.37,6.616 134.763,6.276 134.022,6.704000000000001z" style="fill: rgb(255, 255, 255); fill-opacity: 1;"></path></g><g transform="matrix(0,0,0,0,304.87210000000005,337.02676630028805)" style="user-select: none;"><path d=" M27.549999999999997,35.64 C27.549999999999997,35.64 7.176999999999998,47.403999999999996 7.176999999999998,47.403999999999996 C6.927999999999997,47.547 6.723999999999998,47.9 6.724999999999998,48.193999999999996 C6.724999999999998,48.193999999999996 6.725999999999999,48.772999999999996 6.725999999999999,48.772999999999996 C6.7269999999999985,49.059 6.931999999999999,49.176 7.180999999999999,49.032 C7.180999999999999,49.032 27.554,37.269999999999996 27.554,37.269999999999996 C27.802999999999997,37.126 28.006999999999998,36.772 28.006,36.486 C28.006,36.486 28.003999999999998,35.906 28.003999999999998,35.906 C28.003,35.613 27.799,35.495999999999995 27.549999999999997,35.64z" style="fill: rgb(255, 255, 255); fill-opacity: 1;"></path><path d=" M32.957,0.6769999999999996 C32.957,0.6769999999999996 1.5879999999999992,18.787 1.5879999999999992,18.787 C0.847999999999999,19.215 0.24899999999999878,20.251 0.2519999999999989,21.102 C0.2519999999999989,21.102 0.32399999999999807,46.546 0.32399999999999807,46.546 C0.32599999999999696,47.397 0.9279999999999973,47.747 1.6689999999999987,47.32 C1.6689999999999987,47.32 33.038,29.209000000000003 33.038,29.209000000000003 C33.778999999999996,28.782000000000004 34.376999999999995,27.738 34.373999999999995,26.887 C34.373999999999995,26.887 34.301,1.4450000000000003 34.301,1.4450000000000003 C34.299,0.5940000000000012 33.698,0.24899999999999878 32.957,0.6769999999999996z" style="fill: rgb(255, 255, 255); fill-opacity: 1;"></path></g><g transform="matrix(0,0,0,0,263.5132000000001,360.905566300288)" style="user-select: none;"><path d=" M27.549999999999997,35.64 C27.549999999999997,35.64 7.182999999999998,47.4 7.182999999999998,47.4 C6.927999999999997,47.547 6.723999999999998,47.9 6.724999999999998,48.193999999999996 C6.724999999999998,48.193999999999996 6.725999999999999,48.772999999999996 6.725999999999999,48.772999999999996 C6.7269999999999985,49.059 6.931999999999999,49.176 7.187999999999999,49.028999999999996 C7.187999999999999,49.028999999999996 27.554,37.269999999999996 27.554,37.269999999999996 C27.802999999999997,37.126 28.006999999999998,36.772 28.006,36.486 C28.006,36.486 28.005,35.906 28.005,35.906 C28.003999999999998,35.613 27.799,35.495999999999995 27.549999999999997,35.64z" style="fill: rgb(255, 255, 255); fill-opacity: 1;"></path><path d=" M32.957,0.6779999999999973 C32.957,0.6779999999999973 1.5949999999999989,18.784999999999997 1.5949999999999989,18.784999999999997 C0.847999999999999,19.215999999999998 0.24899999999999878,20.252 0.2519999999999989,21.102999999999998 C0.2519999999999989,21.102999999999998 0.32399999999999807,46.547 0.32399999999999807,46.547 C0.32599999999999696,47.397999999999996 0.9289999999999985,47.748000000000005 1.6759999999999984,47.317 C1.6759999999999984,47.317 33.038,29.21 33.038,29.21 C33.778,28.783 34.376999999999995,27.738999999999997 34.373999999999995,26.887999999999998 C34.373999999999995,26.887999999999998 34.301,1.445999999999998 34.301,1.445999999999998 C34.299,0.5949999999999989 33.698,0.24999999999999645 32.957,0.6779999999999973z" style="fill: rgb(255, 255, 255); fill-opacity: 1;"></path></g><g transform="matrix(0,0,0,0,304.7478000000001,292.64176630028794)" style="user-select: none;"><path d=" M27.548000000000002,34.833000000000006 C27.548000000000002,34.833000000000006 7.174999999999999,46.597 7.174999999999999,46.597 C6.925999999999998,46.74 6.7219999999999995,47.093 6.722999999999999,47.379000000000005 C6.722999999999999,47.379000000000005 6.724,47.959 6.724,47.959 C6.725,48.252 6.93,48.369 7.179,48.225 C7.179,48.225 27.552,36.463 27.552,36.463 C27.801000000000002,36.319 28.005,35.965 28.003999999999998,35.672000000000004 C28.003999999999998,35.672000000000004 28.002,35.092000000000006 28.002,35.092000000000006 C28.000999999999998,34.806000000000004 27.797,34.68900000000001 27.548000000000002,34.833000000000006z" style="fill: rgb(255, 255, 255); fill-opacity: 1;"></path><path d=" M32.958,0.6779999999999973 C32.958,0.6779999999999973 1.5890000000000004,18.788999999999998 1.5890000000000004,18.788999999999998 C0.8490000000000002,19.217 0.25,20.259 0.2530000000000001,21.11 C0.2530000000000001,21.11 0.3249999999999993,46.553 0.3249999999999993,46.553 C0.3269999999999982,47.403999999999996 0.9289999999999985,47.747 1.67,47.32 C1.67,47.32 33.039,29.211 33.039,29.211 C33.778999999999996,28.782999999999998 34.378,27.746 34.375,26.895 C34.375,26.895 34.302,1.4529999999999994 34.302,1.4529999999999994 C34.3,0.6020000000000003 33.699,0.24999999999999645 32.958,0.6779999999999973z" style="fill: rgb(255, 255, 255); fill-opacity: 1;"></path></g><g transform="matrix(0,0,0,0,263.38890000000004,316.520566300288)" style="user-select: none;"><path d=" M27.548000000000002,34.833000000000006 C27.548000000000002,34.833000000000006 7.180999999999999,46.593 7.180999999999999,46.593 C6.925999999999998,46.74 6.7219999999999995,47.093 6.722999999999999,47.379000000000005 C6.722999999999999,47.379000000000005 6.724,47.959 6.724,47.959 C6.725,48.252 6.93,48.369 7.186,48.222 C7.186,48.222 27.552,36.463 27.552,36.463 C27.801000000000002,36.319 28.005,35.965 28.003999999999998,35.672000000000004 C28.003999999999998,35.672000000000004 28.003,35.092000000000006 28.003,35.092000000000006 C28.002000000000002,34.806000000000004 27.797,34.68900000000001 27.548000000000002,34.833000000000006z" style="fill: rgb(255, 255, 255); fill-opacity: 1;"></path><path d=" M32.957,0.6779999999999973 C32.957,0.6779999999999973 1.5949999999999989,18.784999999999997 1.5949999999999989,18.784999999999997 C0.847999999999999,19.215999999999998 0.24899999999999878,20.259 0.2519999999999989,21.11 C0.2519999999999989,21.11 0.32399999999999807,46.553 0.32399999999999807,46.553 C0.32599999999999696,47.403999999999996 0.9289999999999985,47.747 1.6759999999999984,47.316 C1.6759999999999984,47.316 33.038,29.209 33.038,29.209 C33.778,28.782 34.376999999999995,27.746 34.373999999999995,26.895 C34.373999999999995,26.895 34.301,1.4519999999999982 34.301,1.4519999999999982 C34.299,0.6009999999999991 33.698,0.24999999999999645 32.957,0.6779999999999973z" style="fill: rgb(255, 255, 255); fill-opacity: 1;"></path></g><g transform="matrix(0,0,0,0,222.81210000000004,339.949466300288)" style="user-select: none;"><path d=" M27.548000000000002,34.833999999999996 C27.548000000000002,34.833999999999996 7.181000000000001,46.592999999999996 7.181000000000001,46.592999999999996 C6.926,46.74 6.722000000000001,47.092999999999996 6.723000000000001,47.379 C6.723000000000001,47.379 6.724,47.958999999999996 6.724,47.958999999999996 C6.725,48.251999999999995 6.9300000000000015,48.369 7.186000000000002,48.222 C7.186000000000002,48.222 27.553,36.463 27.553,36.463 C27.808,36.315 28.012,35.963 28.011000000000003,35.669 C28.011000000000003,35.669 28.009,35.089 28.009,35.089 C28.008000000000003,34.803 27.803,34.687 27.548000000000002,34.833999999999996z" style="fill: rgb(255, 255, 255); fill-opacity: 1;"></path><path d=" M32.957,0.6780000000000008 C32.957,0.6780000000000008 1.5949999999999989,18.785 1.5949999999999989,18.785 C0.8539999999999992,19.212 0.24899999999999878,20.259 0.2519999999999989,21.11 C0.2519999999999989,21.11 0.32399999999999807,46.553 0.32399999999999807,46.553 C0.32599999999999696,47.403999999999996 0.9349999999999987,47.744 1.674999999999999,47.316 C1.674999999999999,47.316 33.037,29.209 33.037,29.209 C33.778,28.782 34.382,27.742 34.379999999999995,26.891 C34.379999999999995,26.891 34.308,1.4480000000000004 34.308,1.4480000000000004 C34.305,0.5970000000000013 33.698,0.25 32.957,0.6780000000000008z" style="fill: rgb(255, 255, 255); fill-opacity: 1;"></path></g><g transform="matrix(1.1,0,0,1.1,203.60499999999996,155.082366300288)" style="user-select: none;"><path d=" M108.078,0.703000000000003 C108.078,0.703000000000003 1.6649999999999991,62.142 1.6649999999999991,62.142 C0.8859999999999957,62.591 0.25,63.693000000000005 0.25200000000000244,64.595 C0.25200000000000244,64.595 0.3539999999999992,100.456 0.3539999999999992,100.456 C0.35600000000000165,101.358 0.9969999999999928,101.72300000000001 1.7759999999999962,101.273 C1.7759999999999962,101.273 108.189,39.837 108.189,39.837 C108.97399999999999,39.383 109.604,38.284000000000006 109.602,37.381 C109.602,37.381 109.5,1.5219999999999985 109.5,1.5219999999999985 C109.497,0.6189999999999998 108.863,0.25 108.078,0.703000000000003z" style="fill: rgb(255, 255, 255); fill-opacity: 1;"></path></g><g transform="matrix(1.1,0,0,1.1,277.6944000000001,265.92386630028795)" style="user-select: none;"><path d=" M16.361,0.9909999999999997 C16.361,0.9909999999999997 2.577,8.949 2.577,8.949 C1.286999999999999,9.693999999999999 0.25,11.498 0.25399999999999956,12.972999999999999 C0.25399999999999956,12.972999999999999 0.2550000000000008,13.325 0.2550000000000008,13.325 C0.25900000000000034,14.806999999999999 1.3030000000000008,15.402000000000001 2.593,14.657 C2.593,14.657 16.377000000000002,6.699 16.377000000000002,6.699 C17.661,5.958 18.704,4.157 18.700000000000003,2.675 C18.700000000000003,2.675 18.698999999999998,2.3229999999999995 18.698999999999998,2.3229999999999995 C18.695,0.8489999999999993 17.644,0.25 16.361,0.9909999999999997z" style="fill: rgb(255, 255, 255); fill-opacity: 1;"></path></g><g transform="matrix(1.1,0,0,1.1,277.6196000000001,238.15766630028796)" style="user-select: none;"><path d=" M20.944,11.898 C20.944,11.898 0.9009999999999998,23.463 0.9009999999999998,23.463 C0.536999999999999,23.673000000000002 0.25,24.176000000000002 0.2519999999999989,24.587 C0.2519999999999989,24.587 0.2519999999999989,24.719 0.2519999999999989,24.719 C0.2530000000000001,25.137 0.5410000000000004,25.301000000000002 0.9050000000000011,25.09 C0.9050000000000011,25.09 20.949,13.527 20.949,13.527 C21.313,13.317 21.599,12.821 21.598,12.402 C21.598,12.402 21.597,12.27 21.597,12.27 C21.596,11.859 21.308,11.687999999999999 20.944,11.898z" style="fill: rgb(255, 255, 255); fill-opacity: 1;"></path></g><g transform="matrix(1.1,0,0,1.1,277.6196000000001,231.97016630028796)" style="user-select: none;"><path d=" M40.741,0.4599999999999991 C40.741,0.4599999999999991 0.9009999999999998,23.463 0.9009999999999998,23.463 C0.536999999999999,23.673000000000002 0.25,24.176000000000002 0.2519999999999989,24.587 C0.2519999999999989,24.587 0.2519999999999989,24.719 0.2519999999999989,24.719 C0.2530000000000001,25.137 0.5410000000000004,25.301000000000002 0.9050000000000011,25.09 C0.9050000000000011,25.09 40.745999999999995,2.09 40.745999999999995,2.09 C41.11,1.879999999999999 41.396,1.3840000000000003 41.394999999999996,0.9649999999999999 C41.394999999999996,0.9649999999999999 41.394000000000005,0.8330000000000002 41.394000000000005,0.8330000000000002 C41.393,0.4220000000000006 41.105000000000004,0.24999999999999822 40.741,0.4599999999999991z" style="fill: rgb(255, 255, 255); fill-opacity: 1;"></path></g><g transform="matrix(1.1,0,0,1.1,277.6196000000001,225.92016630028795)" style="user-select: none;"><path d=" M40.741,0.4599999999999991 C40.741,0.4599999999999991 0.9009999999999998,23.463 0.9009999999999998,23.463 C0.536999999999999,23.673000000000002 0.25,24.176000000000002 0.2519999999999989,24.587 C0.2519999999999989,24.587 0.2519999999999989,24.719 0.2519999999999989,24.719 C0.2530000000000001,25.137 0.5410000000000004,25.301000000000002 0.9050000000000011,25.09 C0.9050000000000011,25.09 40.745999999999995,2.09 40.745999999999995,2.09 C41.11,1.879999999999999 41.396,1.3840000000000003 41.394999999999996,0.9649999999999999 C41.394999999999996,0.9649999999999999 41.394000000000005,0.8330000000000002 41.394000000000005,0.8330000000000002 C41.393,0.4220000000000006 41.105000000000004,0.24999999999999822 40.741,0.4599999999999991z" style="fill: rgb(255, 255, 255); fill-opacity: 1;"></path></g><g transform="matrix(1.1,0,0,1.1,277.31050000000005,226.33156630028796)" style="user-select: none;"><path d=" M21.784,0.6219999999999999 C21.784,0.6219999999999999 1.4109999999999996,12.385 1.4109999999999996,12.385 C0.766,12.757 0.25,13.649999999999999 0.25200000000000067,14.390999999999998 C0.25200000000000067,14.390999999999998 0.26200000000000045,18.235 0.26200000000000045,18.235 C0.2640000000000011,18.976 0.7840000000000007,19.272 1.4290000000000003,18.899 C1.4290000000000003,18.899 21.801000000000002,7.136999999999999 21.801000000000002,7.136999999999999 C22.445999999999998,6.763999999999999 22.962,5.872 22.96,5.130999999999999 C22.96,5.130999999999999 22.95,1.2859999999999996 22.95,1.2859999999999996 C22.948,0.5449999999999999 22.429000000000002,0.25 21.784,0.6219999999999999z" style="fill: rgb(255, 255, 255); fill-opacity: 1;"></path></g><g transform="matrix(1.1,0,0,1.1,203.44880000000006,242.874466300288)" style="user-select: none;"><path d=" M61.260000000000005,0.703000000000003 C61.260000000000005,0.703000000000003 1.6660000000000004,35.11000000000001 1.6660000000000004,35.11000000000001 C0.8870000000000005,35.56 0.25,36.654 0.2530000000000001,37.557 C0.2530000000000001,37.557 0.3550000000000004,73.42500000000001 0.3550000000000004,73.42500000000001 C0.3569999999999993,74.32000000000001 0.9980000000000011,74.685 1.777000000000001,74.23500000000001 C1.777000000000001,74.23500000000001 61.371,39.828 61.371,39.828 C62.156000000000006,39.375 62.786,38.276 62.784,37.381 C62.784,37.381 62.682,1.514000000000003 62.682,1.514000000000003 C62.679,0.6120000000000019 62.045,0.25 61.260000000000005,0.703000000000003z" style="fill: rgb(255, 255, 255); fill-opacity: 1;"></path></g><g transform="matrix(1.1,0,0,1.1,277.6944000000001,326.42386630028795)" style="user-select: none;"><path d=" M16.361,0.9909999999999997 C16.361,0.9909999999999997 2.577,8.949 2.577,8.949 C1.286999999999999,9.693999999999999 0.25,11.498 0.25399999999999956,12.972999999999999 C0.25399999999999956,12.972999999999999 0.2550000000000008,13.325 0.2550000000000008,13.325 C0.25900000000000034,14.806999999999999 1.3030000000000008,15.402000000000001 2.593,14.657 C2.593,14.657 16.377000000000002,6.699 16.377000000000002,6.699 C17.661,5.958 18.704,4.157 18.700000000000003,2.675 C18.700000000000003,2.675 18.698999999999998,2.3229999999999995 18.698999999999998,2.3229999999999995 C18.695,0.8489999999999993 17.644,0.25 16.361,0.9909999999999997z" style="fill: rgb(255, 255, 255); fill-opacity: 1; display: block;"></path></g><g transform="matrix(1.1,0,0,1.1,277.6196000000001,298.65766630028793)" style="user-select: none;"><path d=" M20.944,11.898 C20.944,11.898 0.9009999999999998,23.463 0.9009999999999998,23.463 C0.536999999999999,23.673000000000002 0.25,24.176000000000002 0.2519999999999989,24.587 C0.2519999999999989,24.587 0.2519999999999989,24.719 0.2519999999999989,24.719 C0.2530000000000001,25.137 0.5410000000000004,25.301000000000002 0.9050000000000011,25.09 C0.9050000000000011,25.09 20.949,13.527 20.949,13.527 C21.313,13.317 21.599,12.821 21.598,12.402 C21.598,12.402 21.597,12.27 21.597,12.27 C21.596,11.859 21.308,11.687999999999999 20.944,11.898z" style="fill: rgb(255, 255, 255); fill-opacity: 1; display: block;"></path></g><g transform="matrix(1.1,0,0,1.1,277.6196000000001,292.47016630028793)" style="user-select: none;"><path d=" M40.741,0.4599999999999991 C40.741,0.4599999999999991 0.9009999999999998,23.463 0.9009999999999998,23.463 C0.536999999999999,23.673000000000002 0.25,24.176000000000002 0.2519999999999989,24.587 C0.2519999999999989,24.587 0.2519999999999989,24.719 0.2519999999999989,24.719 C0.2530000000000001,25.137 0.5410000000000004,25.301000000000002 0.9050000000000011,25.09 C0.9050000000000011,25.09 40.745999999999995,2.09 40.745999999999995,2.09 C41.11,1.879999999999999 41.396,1.3840000000000003 41.394999999999996,0.9649999999999999 C41.394999999999996,0.9649999999999999 41.394000000000005,0.8330000000000002 41.394000000000005,0.8330000000000002 C41.393,0.4220000000000006 41.105000000000004,0.24999999999999822 40.741,0.4599999999999991z" style="fill: rgb(255, 255, 255); fill-opacity: 1; display: block;"></path></g><g transform="matrix(1.1,0,0,1.1,277.6196000000001,286.420166300288)" style="user-select: none;"><path d=" M40.741,0.4599999999999991 C40.741,0.4599999999999991 0.9009999999999998,23.463 0.9009999999999998,23.463 C0.536999999999999,23.673000000000002 0.25,24.176000000000002 0.2519999999999989,24.587 C0.2519999999999989,24.587 0.2519999999999989,24.719 0.2519999999999989,24.719 C0.2530000000000001,25.137 0.5410000000000004,25.301000000000002 0.9050000000000011,25.09 C0.9050000000000011,25.09 40.745999999999995,2.09 40.745999999999995,2.09 C41.11,1.879999999999999 41.396,1.3840000000000003 41.394999999999996,0.9649999999999999 C41.394999999999996,0.9649999999999999 41.394000000000005,0.8330000000000002 41.394000000000005,0.8330000000000002 C41.393,0.4220000000000006 41.105000000000004,0.24999999999999822 40.741,0.4599999999999991z" style="fill: rgb(255, 255, 255); fill-opacity: 1; display: block;"></path></g><g transform="matrix(1.1,0,0,1.1,277.31050000000005,286.83156630028793)" style="user-select: none;"><path d=" M21.784,0.6219999999999999 C21.784,0.6219999999999999 1.4109999999999996,12.385 1.4109999999999996,12.385 C0.766,12.757 0.25,13.649999999999999 0.25200000000000067,14.390999999999998 C0.25200000000000067,14.390999999999998 0.26200000000000045,18.235 0.26200000000000045,18.235 C0.2640000000000011,18.976 0.7840000000000007,19.272 1.4290000000000003,18.899 C1.4290000000000003,18.899 21.801000000000002,7.136999999999999 21.801000000000002,7.136999999999999 C22.445999999999998,6.763999999999999 22.962,5.872 22.96,5.130999999999999 C22.96,5.130999999999999 22.95,1.2859999999999996 22.95,1.2859999999999996 C22.948,0.5449999999999999 22.429000000000002,0.25 21.784,0.6219999999999999z" style="fill: rgb(255, 255, 255); fill-opacity: 1; display: block;"></path></g><g transform="matrix(1.1,0,0,1.1,203.44880000000006,303.37446630028796)" style="user-select: none;"><path d=" M61.260000000000005,0.703000000000003 C61.260000000000005,0.703000000000003 1.6660000000000004,35.11000000000001 1.6660000000000004,35.11000000000001 C0.8870000000000005,35.56 0.25,36.654 0.2530000000000001,37.557 C0.2530000000000001,37.557 0.3550000000000004,73.42500000000001 0.3550000000000004,73.42500000000001 C0.3569999999999993,74.32000000000001 0.9980000000000011,74.685 1.777000000000001,74.23500000000001 C1.777000000000001,74.23500000000001 61.371,39.828 61.371,39.828 C62.156000000000006,39.375 62.786,38.276 62.784,37.381 C62.784,37.381 62.682,1.514000000000003 62.682,1.514000000000003 C62.679,0.6120000000000019 62.045,0.25 61.260000000000005,0.703000000000003z" style="fill: rgb(255, 255, 255); fill-opacity: 1; display: block;"></path></g><g transform="matrix(1.1,0,0,1.1,311.85159999999996,132.635766300288)" style="user-select: none;"><path d=" M7.453,7.222 C7.446,7.226000000000001 7.441000000000001,7.23 7.434,7.2330000000000005 C7.083,7.414000000000001 6.801,7.231 6.806,6.817 C6.811,6.4 7.098,5.906000000000001 7.444,5.706 C7.448,5.704000000000001 7.4510000000000005,5.702 7.455,5.7 C7.806,5.497 8.114,5.672000000000001 8.115,6.0680000000000005 C8.122,6.461 7.797000000000001,7.024000000000001 7.453,7.222z M4.503,8.925 C4.152,9.121 3.818,8.923 3.8360000000000003,8.509 C3.854,8.11 4.167,7.591 4.503,7.396000000000001 C4.51,7.392 4.518,7.388 4.525,7.384 C4.863,7.204000000000001 5.176,7.397 5.164,7.7940000000000005 C5.159,8.186 4.8420000000000005,8.73 4.503,8.925z M4.093,7.245000000000001 C3.847,7.3870000000000005 3.708,7.3870000000000005 3.616,7.1450000000000005 C3.358,6.405 3.068,5.7490000000000006 2.791,5.0200000000000005 C2.753,4.917000000000001 2.726,4.719 2.682,4.745 C4.897,3.4660000000000006 7.068,2.2120000000000006 9.322,0.9110000000000005 C9.088000000000001,1.8620000000000005 8.878,2.5120000000000005 8.656,3.3380000000000005 C8.517,3.8520000000000003 8.468,4.3580000000000005 8.193999999999999,4.737 C8.045,4.939 7.841,5.083 7.625,5.208 C7.527,5.264 7.426,5.317 7.3260000000000005,5.37 C7.211,5.429 7.095000000000001,5.488 6.987,5.551 C6.036,6.107 5.085,6.657000000000001 4.128,7.224 C4.116,7.231000000000001 4.104,7.238 4.093,7.245000000000001z M1.923,3.2870000000000004 C1.387,3.5970000000000004 0.9590000000000001,3.902 0.25,4.348000000000001 C0.25,4.348000000000001 0.25,4.436000000000001 0.25,4.436000000000001 C0.9580000000000002,4.071000000000001 1.024,4.122000000000001 1.375,3.9190000000000005 C1.681,3.7430000000000003 1.899,3.7200000000000006 2.0020000000000002,3.998 C2.4400000000000004,5.178000000000001 2.8970000000000002,6.34 3.361,7.49 C3.438,7.674 3.567,7.798 3.689,7.970000000000001 C3.3520000000000003,8.877 3.545,9.192 3.84,9.367 C4.022,9.475999999999999 4.253,9.453 4.492,9.316 C4.646,9.227 4.803,9.09 4.9510000000000005,8.909 C5.601,8.100000000000001 5.612,7.462000000000001 5.272,6.916 C5.569,6.744000000000001 5.836,6.587000000000001 6.093,6.439 C6.221,6.365 6.345000000000001,6.2940000000000005 6.471,6.223000000000001 C6.471,6.223000000000001 6.638,6.164000000000001 6.638,6.164000000000001 C6.392,7.218 6.47,7.643000000000001 6.911,7.719 C7.084,7.747 7.2669999999999995,7.704000000000001 7.448,7.6000000000000005 C7.662,7.476000000000001 7.873,7.265000000000001 8.06,6.982000000000001 C8.461,6.368 8.492,5.8660000000000005 8.241,5.349 C8.368,5.048 8.463000000000001,4.817 8.533,4.571000000000001 C8.856,3.3850000000000007 9.076,2.2510000000000003 9.393,1.0610000000000004 C9.456,0.8340000000000005 9.475000000000001,0.6470000000000002 9.474,0.4630000000000001 C9.474,0.4630000000000001 9.472999999999999,0.2950000000000008 9.472999999999999,0.2950000000000008 C9.472999999999999,0.2500000000000009 9.242,0.3020000000000005 9.057,0.4090000000000007 C7.0520000000000005,1.5590000000000006 5.195,2.6400000000000006 3.197,3.7860000000000005 C3.076,3.8560000000000008 2.974,3.9220000000000006 2.8970000000000002,3.9670000000000005 C2.83,4.007000000000001 2.773,4.042000000000001 2.724,4.07 C2.3920000000000003,4.2620000000000005 2.4520000000000004,4.144 2.2110000000000003,3.591 C2.1460000000000004,3.4510000000000005 2.012,3.2350000000000003 1.923,3.2870000000000004z" style="fill: rgb(255, 255, 255); fill-opacity: 1;"></path></g><g transform="matrix(1.1,0,0,1.1,203.38279999999997,184.95836630028796)" style="user-select: none;"><path d=" M23.240000000000002,0.6099999999999994 C23.240000000000002,0.6099999999999994 1.3789999999999996,13.231 1.3789999999999996,13.231 C0.7599999999999998,13.588999999999999 0.25,14.465 0.2530000000000001,15.184 C0.2530000000000001,15.184 0.2679999999999989,20.737000000000002 0.2679999999999989,20.737000000000002 C0.2699999999999996,21.448999999999998 0.7829999999999995,21.740000000000002 1.4019999999999992,21.381999999999998 C1.4019999999999992,21.381999999999998 23.262999999999998,8.761 23.262999999999998,8.761 C23.889,8.399999999999999 24.392000000000003,7.5219999999999985 24.39,6.810999999999999 C24.39,6.810999999999999 24.374000000000002,1.2569999999999997 24.374000000000002,1.2569999999999997 C24.372,0.5380000000000003 23.866,0.24899999999999878 23.240000000000002,0.6099999999999994z" style="fill: rgb(255, 255, 255); fill-opacity: 1;"></path></g><g clip-path="url(#wVsEYG1Xiv)" style="user-select: none;" transform="matrix(1.1,0,0,1.1,-270,57.02176630028798)" opacity="1"><g transform="matrix(1,0,0,1,319.243,312.648)" style="user-select: none;"><path d=" M9.482,4.031000000000001 C9.482,4.031000000000001 1.0279999999999996,8.913 1.0279999999999996,8.913 C0.6059999999999999,9.157 0.26099999999999923,9.745000000000001 0.26199999999999957,10.238 C0.26399999999999935,10.722999999999999 0.6109999999999998,10.921 1.0329999999999995,10.678 C1.0329999999999995,10.678 9.486,5.797000000000001 9.486,5.797000000000001 C9.908,5.553 10.254,4.9559999999999995 10.251999999999999,4.471 C10.251,3.978 9.904,3.787 9.482,4.031000000000001z" style="fill: rgb(255, 255, 255); fill-opacity: 1; display: block;"></path><path d=" M9.471,0.4940000000000002 C9.471,0.4940000000000002 1.0170000000000003,5.376 1.0170000000000003,5.376 C0.5950000000000006,5.62 0.25,6.216 0.25100000000000033,6.7010000000000005 C0.2530000000000001,7.194 0.6000000000000005,7.384 1.0220000000000002,7.141 C1.0220000000000002,7.141 9.475000000000001,2.2600000000000002 9.475000000000001,2.2600000000000002 C9.897,2.016 10.243,1.427 10.241,0.9340000000000002 C10.24,0.4490000000000003 9.893,0.25 9.471,0.4940000000000002z" style="fill: rgb(255, 255, 255); fill-opacity: 1; display: block;"></path><path d=" M5.652,9.778 C5.652,9.778 1.0379999999999998,12.442 1.0379999999999998,12.442 C0.6159999999999997,12.686 0.2709999999999999,13.283000000000001 0.2719999999999998,13.768 C0.2729999999999997,14.253 0.621,14.451 1.0430000000000001,14.207 C1.0430000000000001,14.207 5.656000000000001,11.544 5.656000000000001,11.544 C6.078,11.3 6.4239999999999995,10.703 6.422000000000001,10.218 C6.421,9.733 6.074,9.534 5.652,9.778z" style="fill: rgb(255, 255, 255); fill-opacity: 1; display: block;"></path><path d=" M9.482,4.031000000000001 C9.482,4.031000000000001 1.0279999999999996,8.913 1.0279999999999996,8.913 C0.6059999999999999,9.157 0.26099999999999923,9.745000000000001 0.26199999999999957,10.238 C0.26399999999999935,10.722999999999999 0.6109999999999998,10.921 1.0329999999999995,10.678 C1.0329999999999995,10.678 9.486,5.797000000000001 9.486,5.797000000000001 C9.908,5.553 10.254,4.9559999999999995 10.251999999999999,4.471 C10.251,3.978 9.904,3.787 9.482,4.031000000000001z" style="fill: rgb(255, 255, 255); fill-opacity: 1; display: block;"></path><path d="" style="fill: rgb(255, 255, 255); fill-opacity: 1; display: block;"></path><path d=" M5.652,9.778 C5.652,9.778 1.0379999999999998,12.442 1.0379999999999998,12.442 C0.6159999999999997,12.686 0.2709999999999999,13.283000000000001 0.2719999999999998,13.768 C0.2729999999999997,14.253 0.621,14.451 1.0430000000000001,14.207 C1.0430000000000001,14.207 5.656000000000001,11.544 5.656000000000001,11.544 C6.078,11.3 6.4239999999999995,10.703 6.422000000000001,10.218 C6.421,9.733 6.074,9.534 5.652,9.778z" style="fill: rgb(255, 255, 255); fill-opacity: 1; display: block;"></path></g><g transform="matrix(1.4000000000000001,0,0,1.4000000000000001,412.37899999999996,261.61960000000005)" style="user-select: none;"><path d=" M0.2490000000000001,1.163 C0.2490000000000001,1.163 0.2550000000000001,3.503 0.2550000000000001,3.503 C0.2550000000000001,3.503 2.292,2.328 2.292,2.328 C2.292,2.328 2.286,-0.0129999999999999 2.286,-0.0129999999999999 C2.286,-0.0129999999999999 0.2490000000000001,1.163 0.2490000000000001,1.163z M1.27,0.5740000000000001 C0.7020000000000001,0.9020000000000001 0.25,1.685 0.252,2.33 C0.254,2.976 0.7080000000000001,3.242 1.277,2.9139999999999997 C1.838,2.59 2.29,1.8 2.2880000000000003,1.154 C2.287,0.5089999999999999 1.832,0.25 1.27,0.5740000000000001z" style="fill: rgb(255, 255, 255); fill-opacity: 1; display: block;"></path></g><g transform="matrix(1,0,0,1,480,280)" style="user-select: none;"><g style="stroke-linecap: butt; stroke-linejoin: miter; fill-opacity: 0; stroke-miterlimit: 4; stroke: rgb(255, 255, 255); stroke-opacity: 1; stroke-width: 1; display: block;"><path d=" M-147.75,31.5 C-147.75,31.5 -65.625,-16.125 -65.625,-16.125"></path></g></g></g><g clip-path="url(#JX0L7lDswg)" transform="matrix(1.1,0,0,1.1,-270,-41.978233699712035)" opacity="1" style="user-select: none;"><g transform="matrix(1,0,0,1,319.243,312.648)" style="user-select: none;"><path d=" M9.482,4.031000000000001 C9.482,4.031000000000001 1.0279999999999996,8.913 1.0279999999999996,8.913 C0.6059999999999999,9.157 0.26099999999999923,9.745000000000001 0.26199999999999957,10.238 C0.26399999999999935,10.722999999999999 0.6109999999999998,10.921 1.0329999999999995,10.678 C1.0329999999999995,10.678 9.486,5.797000000000001 9.486,5.797000000000001 C9.908,5.553 10.254,4.9559999999999995 10.251999999999999,4.471 C10.251,3.978 9.904,3.787 9.482,4.031000000000001z" style="fill: rgb(255, 255, 255); fill-opacity: 1; display: block;"></path><path d=" M9.471,0.4940000000000002 C9.471,0.4940000000000002 1.0170000000000003,5.376 1.0170000000000003,5.376 C0.5950000000000006,5.62 0.25,6.216 0.25100000000000033,6.7010000000000005 C0.2530000000000001,7.194 0.6000000000000005,7.384 1.0220000000000002,7.141 C1.0220000000000002,7.141 9.475000000000001,2.2600000000000002 9.475000000000001,2.2600000000000002 C9.897,2.016 10.243,1.427 10.241,0.9340000000000002 C10.24,0.4490000000000003 9.893,0.25 9.471,0.4940000000000002z" style="fill: rgb(255, 255, 255); fill-opacity: 1; display: block;"></path><path d=" M5.652,9.778 C5.652,9.778 1.0379999999999998,12.442 1.0379999999999998,12.442 C0.6159999999999997,12.686 0.2709999999999999,13.283000000000001 0.2719999999999998,13.768 C0.2729999999999997,14.253 0.621,14.451 1.0430000000000001,14.207 C1.0430000000000001,14.207 5.656000000000001,11.544 5.656000000000001,11.544 C6.078,11.3 6.4239999999999995,10.703 6.422000000000001,10.218 C6.421,9.733 6.074,9.534 5.652,9.778z" style="fill: rgb(255, 255, 255); fill-opacity: 1; display: block;"></path><path d=" M9.482,4.031000000000001 C9.482,4.031000000000001 1.0279999999999996,8.913 1.0279999999999996,8.913 C0.6059999999999999,9.157 0.26099999999999923,9.745000000000001 0.26199999999999957,10.238 C0.26399999999999935,10.722999999999999 0.6109999999999998,10.921 1.0329999999999995,10.678 C1.0329999999999995,10.678 9.486,5.797000000000001 9.486,5.797000000000001 C9.908,5.553 10.254,4.9559999999999995 10.251999999999999,4.471 C10.251,3.978 9.904,3.787 9.482,4.031000000000001z" style="fill: rgb(255, 255, 255); fill-opacity: 1; display: block;"></path><path d="" style="fill: rgb(255, 255, 255); fill-opacity: 1; display: block;"></path><path d=" M5.652,9.778 C5.652,9.778 1.0379999999999998,12.442 1.0379999999999998,12.442 C0.6159999999999997,12.686 0.2709999999999999,13.283000000000001 0.2719999999999998,13.768 C0.2729999999999997,14.253 0.621,14.451 1.0430000000000001,14.207 C1.0430000000000001,14.207 5.656000000000001,11.544 5.656000000000001,11.544 C6.078,11.3 6.4239999999999995,10.703 6.422000000000001,10.218 C6.421,9.733 6.074,9.534 5.652,9.778z" style="fill: rgb(255, 255, 255); fill-opacity: 1; display: block;"></path></g><g transform="matrix(1.4000000000000001,0,0,1.4000000000000001,412.37899999999996,261.61960000000005)" style="user-select: none;"><path d=" M0.2490000000000001,1.163 C0.2490000000000001,1.163 0.2550000000000001,3.503 0.2550000000000001,3.503 C0.2550000000000001,3.503 2.292,2.328 2.292,2.328 C2.292,2.328 2.286,-0.0129999999999999 2.286,-0.0129999999999999 C2.286,-0.0129999999999999 0.2490000000000001,1.163 0.2490000000000001,1.163z M1.27,0.5740000000000001 C0.7020000000000001,0.9020000000000001 0.25,1.685 0.252,2.33 C0.254,2.976 0.7080000000000001,3.242 1.277,2.9139999999999997 C1.838,2.59 2.29,1.8 2.2880000000000003,1.154 C2.287,0.5089999999999999 1.832,0.25 1.27,0.5740000000000001z" style="fill: rgb(255, 255, 255); fill-opacity: 1; display: block;"></path></g><g transform="matrix(1,0,0,1,480,280)" style="user-select: none;"><g style="stroke-linecap: butt; stroke-linejoin: miter; fill-opacity: 0; stroke-miterlimit: 4; stroke: rgb(255, 255, 255); stroke-opacity: 1; stroke-width: 1; display: block;"><path d=" M-147.75,31.5 C-147.75,31.5 -65.625,-16.125 -65.625,-16.125"></path></g></g></g><g clip-path="url(#9hxml89G6l)" style="user-select: none;" transform="matrix(1.1,0,0,1.1,-270,-52.978233699712035)" opacity="1"><g transform="matrix(1.4000000000000001,0,0,1.4000000000000001,545.0594,256.6844)" style="user-select: none;"><path d=" M2.578,1.414 C2.578,2.057 2.057,2.578 1.414,2.578 C0.7709999999999999,2.578 0.25,2.057 0.25,1.414 C0.25,0.7709999999999999 0.7709999999999999,0.25 1.414,0.25 C2.057,0.25 2.578,0.7709999999999999 2.578,1.414z" style="fill: rgb(255, 255, 255); fill-opacity: 1; display: block;"></path></g><g transform="matrix(1,0,0,1,630.8000000000001,203.61)" style="user-select: none;"><path d=" M9.481,4.031000000000001 C9.481,4.031000000000001 1.0259999999999998,8.913 1.0259999999999998,8.913 C0.6040000000000001,9.157 0.25899999999999945,9.745000000000001 0.2599999999999998,10.238 C0.26199999999999957,10.722999999999999 0.6090000000000009,10.921 1.0310000000000006,10.678 C1.0310000000000006,10.678 9.485,5.797000000000001 9.485,5.797000000000001 C9.907,5.553 10.251999999999999,4.9559999999999995 10.25,4.471 C10.248999999999999,3.978 9.902999999999999,3.787 9.481,4.031000000000001z" style="fill: rgb(255, 255, 255); fill-opacity: 1; display: block;"></path><path d=" M9.471,0.4940000000000002 C9.471,0.4940000000000002 1.016,5.376 1.016,5.376 C0.5940000000000003,5.62 0.24899999999999967,6.216 0.25,6.7010000000000005 C0.2519999999999998,7.194 0.5990000000000011,7.384 1.0210000000000008,7.141 C1.0210000000000008,7.141 9.475000000000001,2.2600000000000002 9.475000000000001,2.2600000000000002 C9.897,2.016 10.242,1.427 10.24,0.9340000000000002 C10.239,0.4490000000000003 9.893,0.25 9.471,0.4940000000000002z" style="fill: rgb(255, 255, 255); fill-opacity: 1; display: block;"></path><path d=" M5.652,9.778 C5.652,9.778 1.036,12.442 1.036,12.442 C0.6150000000000002,12.686 0.2709999999999999,13.284 0.2719999999999998,13.769 C0.2729999999999997,14.254000000000001 0.621,14.452 1.0430000000000001,14.208 C1.0430000000000001,14.208 5.656000000000001,11.544 5.656000000000001,11.544 C6.078,11.3 6.423,10.703 6.420999999999999,10.218 C6.42,9.733 6.074,9.534 5.652,9.778z" style="fill: rgb(255, 255, 255); fill-opacity: 1; display: block;"></path></g><g transform="matrix(1,0,0,1,480,280)" style="user-select: none;"><g style="stroke-linecap: butt; stroke-linejoin: miter; fill-opacity: 0; stroke-miterlimit: 4; stroke: rgb(255, 255, 255); stroke-opacity: 1; stroke-width: 1; display: block;"><path d=" M147.875,-68.5 C147.875,-68.5 67.125,-21.125 67.125,-21.125"></path></g></g></g><g clip-path="url(#6JaARJpv2t)" style="user-select: none;" transform="matrix(1.1,0,0,1.1,-270,-3.4782336997120282)" opacity="1"><g transform="matrix(0.5344406596173485,0,0,0.5344406596173485,546.283300907301,257.90830090730105)" style="user-select: none;"><path d=" M2.578,1.414 C2.578,2.057 2.057,2.578 1.414,2.578 C0.7709999999999999,2.578 0.25,2.057 0.25,1.414 C0.25,0.7709999999999999 0.7709999999999999,0.25 1.414,0.25 C2.057,0.25 2.578,0.7709999999999999 2.578,1.414z" style="fill: rgb(255, 255, 255); fill-opacity: 1; display: block;"></path></g><g transform="matrix(1,0,0,1,630.8000000000001,203.61)" style="user-select: none;"><path d=" M9.481,4.031000000000001 C9.481,4.031000000000001 1.0259999999999998,8.913 1.0259999999999998,8.913 C0.6040000000000001,9.157 0.25899999999999945,9.745000000000001 0.2599999999999998,10.238 C0.26199999999999957,10.722999999999999 0.6090000000000009,10.921 1.0310000000000006,10.678 C1.0310000000000006,10.678 9.485,5.797000000000001 9.485,5.797000000000001 C9.907,5.553 10.251999999999999,4.9559999999999995 10.25,4.471 C10.248999999999999,3.978 9.902999999999999,3.787 9.481,4.031000000000001z" style="fill: rgb(255, 255, 255); fill-opacity: 1; display: block;"></path><path d=" M9.471,0.4940000000000002 C9.471,0.4940000000000002 1.016,5.376 1.016,5.376 C0.5940000000000003,5.62 0.24899999999999967,6.216 0.25,6.7010000000000005 C0.2519999999999998,7.194 0.5990000000000011,7.384 1.0210000000000008,7.141 C1.0210000000000008,7.141 9.475000000000001,2.2600000000000002 9.475000000000001,2.2600000000000002 C9.897,2.016 10.242,1.427 10.24,0.9340000000000002 C10.239,0.4490000000000003 9.893,0.25 9.471,0.4940000000000002z" style="fill: rgb(255, 255, 255); fill-opacity: 1; display: block;"></path><path d=" M5.652,9.778 C5.652,9.778 1.036,12.442 1.036,12.442 C0.6150000000000002,12.686 0.2709999999999999,13.284 0.2719999999999998,13.769 C0.2729999999999997,14.254000000000001 0.621,14.452 1.0430000000000001,14.208 C1.0430000000000001,14.208 5.656000000000001,11.544 5.656000000000001,11.544 C6.078,11.3 6.423,10.703 6.420999999999999,10.218 C6.42,9.733 6.074,9.534 5.652,9.778z" style="fill: rgb(255, 255, 255); fill-opacity: 1; display: block;"></path></g><g transform="matrix(1,0,0,1,480,280)" style="user-select: none;"><g style="stroke-linecap: butt; stroke-linejoin: miter; fill-opacity: 0; stroke-miterlimit: 4; stroke: rgb(255, 255, 255); stroke-opacity: 1; stroke-width: 1; display: block;"><path d=" M147.875,-68.5 C147.875,-68.5 67.125,-21.125 67.125,-21.125"></path></g></g></g><g clip-path="url(#dTlrGHLumQ)" style="user-select: none;" transform="matrix(1.1,0,0,1.1,-270,-107.97823369971204)" opacity="1"><g transform="matrix(1.4000000000000001,0,0,1.4000000000000001,545.0594,256.6844)" style="user-select: none;"><path d=" M2.578,1.414 C2.578,2.057 2.057,2.578 1.414,2.578 C0.7709999999999999,2.578 0.25,2.057 0.25,1.414 C0.25,0.7709999999999999 0.7709999999999999,0.25 1.414,0.25 C2.057,0.25 2.578,0.7709999999999999 2.578,1.414z" style="fill: rgb(255, 255, 255); fill-opacity: 1; display: block;"></path></g><g transform="matrix(1,0,0,1,630.8000000000001,203.61)" style="user-select: none;"><path d=" M9.481,4.031000000000001 C9.481,4.031000000000001 1.0259999999999998,8.913 1.0259999999999998,8.913 C0.6040000000000001,9.157 0.25899999999999945,9.745000000000001 0.2599999999999998,10.238 C0.26199999999999957,10.722999999999999 0.6090000000000009,10.921 1.0310000000000006,10.678 C1.0310000000000006,10.678 9.485,5.797000000000001 9.485,5.797000000000001 C9.907,5.553 10.251999999999999,4.9559999999999995 10.25,4.471 C10.248999999999999,3.978 9.902999999999999,3.787 9.481,4.031000000000001z" style="fill: rgb(255, 255, 255); fill-opacity: 1; display: block;"></path><path d=" M9.471,0.4940000000000002 C9.471,0.4940000000000002 1.016,5.376 1.016,5.376 C0.5940000000000003,5.62 0.24899999999999967,6.216 0.25,6.7010000000000005 C0.2519999999999998,7.194 0.5990000000000011,7.384 1.0210000000000008,7.141 C1.0210000000000008,7.141 9.475000000000001,2.2600000000000002 9.475000000000001,2.2600000000000002 C9.897,2.016 10.242,1.427 10.24,0.9340000000000002 C10.239,0.4490000000000003 9.893,0.25 9.471,0.4940000000000002z" style="fill: rgb(255, 255, 255); fill-opacity: 1; display: block;"></path><path d=" M5.652,9.778 C5.652,9.778 1.036,12.442 1.036,12.442 C0.6150000000000002,12.686 0.2709999999999999,13.284 0.2719999999999998,13.769 C0.2729999999999997,14.254000000000001 0.621,14.452 1.0430000000000001,14.208 C1.0430000000000001,14.208 5.656000000000001,11.544 5.656000000000001,11.544 C6.078,11.3 6.423,10.703 6.420999999999999,10.218 C6.42,9.733 6.074,9.534 5.652,9.778z" style="fill: rgb(255, 255, 255); fill-opacity: 1; display: block;"></path></g><g transform="matrix(1,0,0,1,480,280)" style="user-select: none;"><g style="stroke-linecap: butt; stroke-linejoin: miter; fill-opacity: 0; stroke-miterlimit: 4; stroke: rgb(255, 255, 255); stroke-opacity: 1; stroke-width: 1; display: block;"><path d=" M147.875,-68.5 C147.875,-68.5 67.125,-21.125 67.125,-21.125"></path></g></g></g><g clip-path="url(#xEyPjBWIQA)" style="user-select: none;" transform="matrix(1.1,0,0,1.1,-270,2.0217663002879718)" opacity="1"><g transform="matrix(1,0,0,1,319.243,312.648)" style="user-select: none;"><path d=" M9.482,4.031000000000001 C9.482,4.031000000000001 1.0279999999999996,8.913 1.0279999999999996,8.913 C0.6059999999999999,9.157 0.26099999999999923,9.745000000000001 0.26199999999999957,10.238 C0.26399999999999935,10.722999999999999 0.6109999999999998,10.921 1.0329999999999995,10.678 C1.0329999999999995,10.678 9.486,5.797000000000001 9.486,5.797000000000001 C9.908,5.553 10.254,4.9559999999999995 10.251999999999999,4.471 C10.251,3.978 9.904,3.787 9.482,4.031000000000001z" style="fill: rgb(255, 255, 255); fill-opacity: 1; display: block;"></path><path d=" M9.471,0.4940000000000002 C9.471,0.4940000000000002 1.0170000000000003,5.376 1.0170000000000003,5.376 C0.5950000000000006,5.62 0.25,6.216 0.25100000000000033,6.7010000000000005 C0.2530000000000001,7.194 0.6000000000000005,7.384 1.0220000000000002,7.141 C1.0220000000000002,7.141 9.475000000000001,2.2600000000000002 9.475000000000001,2.2600000000000002 C9.897,2.016 10.243,1.427 10.241,0.9340000000000002 C10.24,0.4490000000000003 9.893,0.25 9.471,0.4940000000000002z" style="fill: rgb(255, 255, 255); fill-opacity: 1; display: block;"></path><path d=" M5.652,9.778 C5.652,9.778 1.0379999999999998,12.442 1.0379999999999998,12.442 C0.6159999999999997,12.686 0.2709999999999999,13.283000000000001 0.2719999999999998,13.768 C0.2729999999999997,14.253 0.621,14.451 1.0430000000000001,14.207 C1.0430000000000001,14.207 5.656000000000001,11.544 5.656000000000001,11.544 C6.078,11.3 6.4239999999999995,10.703 6.422000000000001,10.218 C6.421,9.733 6.074,9.534 5.652,9.778z" style="fill: rgb(255, 255, 255); fill-opacity: 1; display: block;"></path><path d=" M9.482,4.031000000000001 C9.482,4.031000000000001 1.0279999999999996,8.913 1.0279999999999996,8.913 C0.6059999999999999,9.157 0.26099999999999923,9.745000000000001 0.26199999999999957,10.238 C0.26399999999999935,10.722999999999999 0.6109999999999998,10.921 1.0329999999999995,10.678 C1.0329999999999995,10.678 9.486,5.797000000000001 9.486,5.797000000000001 C9.908,5.553 10.254,4.9559999999999995 10.251999999999999,4.471 C10.251,3.978 9.904,3.787 9.482,4.031000000000001z" style="fill: rgb(255, 255, 255); fill-opacity: 1; display: block;"></path><path d="" style="fill: rgb(255, 255, 255); fill-opacity: 1; display: block;"></path><path d=" M5.652,9.778 C5.652,9.778 1.0379999999999998,12.442 1.0379999999999998,12.442 C0.6159999999999997,12.686 0.2709999999999999,13.283000000000001 0.2719999999999998,13.768 C0.2729999999999997,14.253 0.621,14.451 1.0430000000000001,14.207 C1.0430000000000001,14.207 5.656000000000001,11.544 5.656000000000001,11.544 C6.078,11.3 6.4239999999999995,10.703 6.422000000000001,10.218 C6.421,9.733 6.074,9.534 5.652,9.778z" style="fill: rgb(255, 255, 255); fill-opacity: 1; display: block;"></path></g><g transform="matrix(1.4664936673424842,0,0,1.4664936673424842,412.294553042475,261.50350205682)" style="user-select: none;"><path d=" M0.2490000000000001,1.163 C0.2490000000000001,1.163 0.2550000000000001,3.503 0.2550000000000001,3.503 C0.2550000000000001,3.503 2.292,2.328 2.292,2.328 C2.292,2.328 2.286,-0.0129999999999999 2.286,-0.0129999999999999 C2.286,-0.0129999999999999 0.2490000000000001,1.163 0.2490000000000001,1.163z M1.27,0.5740000000000001 C0.7020000000000001,0.9020000000000001 0.25,1.685 0.252,2.33 C0.254,2.976 0.7080000000000001,3.242 1.277,2.9139999999999997 C1.838,2.59 2.29,1.8 2.2880000000000003,1.154 C2.287,0.5089999999999999 1.832,0.25 1.27,0.5740000000000001z" style="fill: rgb(255, 255, 255); fill-opacity: 1; display: block;"></path></g><g transform="matrix(1,0,0,1,480,280)" style="user-select: none;"><g style="stroke-linecap: butt; stroke-linejoin: miter; fill-opacity: 0; stroke-miterlimit: 4; stroke: rgb(255, 255, 255); stroke-opacity: 1; stroke-width: 1; display: block;"><path d=" M-147.75,31.5 C-147.75,31.5 -65.625,-16.125 -65.625,-16.125"></path></g></g></g></g></svg>