<svg xmlns="http://www.w3.org/2000/svg" width="900" height="700" viewBox="0 0 900 700" preserveAspectRatio="xMidYMid meet"><defs><clipPath id="animationMask_PimSoeZ8S9"><rect width="900" height="700" x="0" y="0"></rect></clipPath></defs><g clip-path="url(#animationMask_PimSoeZ8S9)" style="user-select: none;"><g transform="matrix(4.89418,0,0,6.50168,1955.06617,193.872)" style="user-select: none;"><path d=" M-306.875,-26 C-306.875,-26 -320.875,-26 -320.875,-26 C-320.875,-26 -352.5,74 -352.5,74 C-352.5,74 -322.375,74 -322.375,74 C-322.375,74 -306.875,27 -306.875,27 C-306.875,27 -306.875,-26 -306.875,-26z" style="fill: rgb(155, 201, 225); fill-opacity: 1; display: block;"></path></g><g transform="matrix(-5.0782501098,0,0,6.50168,-1108.8939549448748,193.872)" style="user-select: none;"><path d=" M-306.875,-26 C-306.875,-26 -320.875,-26 -320.875,-26 C-320.875,-26 -352.5,74 -352.5,74 C-352.5,74 -322.375,74 -322.375,74 C-322.375,74 -306.875,27 -306.875,27 C-306.875,27 -306.875,-26 -306.875,-26z" style="fill: rgb(155, 201, 225); fill-opacity: 1; display: block;"></path></g><g transform="matrix(4.89418,0,0,6.50168,1955.06617,193.872)" style="user-select: none;"><path d=" M-396.938,-26 C-396.938,-26 -362,74 -362,74 C-362,74 -330.813,74 -330.813,74 C-330.813,74 -354,-25.75 -354,-25.75 C-354,-25.75 -396.938,-26 -396.938,-26z" style="fill: rgb(155, 201, 225); fill-opacity: 1; display: block;"></path></g><g transform="matrix(-4.876512010200001,0,0,6.50168,-1044.7880826924002,193.872)" style="user-select: none;"><path d=" M-396.938,-26 C-396.938,-26 -362,74 -362,74 C-362,74 -333.227,74 -333.227,74 C-333.227,74 -354,-25.75 -354,-25.75 C-354,-25.75 -396.938,-26 -396.938,-26z" style="fill: rgb(155, 201, 225); fill-opacity: 1; display: block;"></path></g><g transform="matrix(4.894162724129392,0,0,6.50168,455,193.872)" style="user-select: none;"><path d=" M13.6245,-26 C13.6245,-26 13.6245,74 13.6245,74 C13.6245,74 13.6245,74 13.6245,74 C13.6245,74 -14.0005,74 -14.0005,74 C-14.0005,74 -14.0005,74 -14.0005,74 C-14.0005,74 -14.0005,-26 -14.0005,-26 C-14.0005,-26 -14.0005,-26 -14.0005,-26 C-14.0005,-26 13.6245,-26 13.6245,-26 C13.6245,-26 13.6245,-26 13.6245,-26z" style="fill: rgb(155, 201, 225); fill-opacity: 1; display: none;"></path></g><g transform="matrix(4.89418,0,0,6.50168,455,193.872)" style="user-select: none;"><path d=" M25.24366733453679,46.35046092133006 C5.868667334536791,51.72546092133006 -22.760696835816873,49.48581851640234 -30.25,45.375 C-38.39313627030833,40.90745491049895 -40.73330973946451,55.65201434876049 -30.25,53.5 C-17.695684409794783,50.924979158483644 -4.730631663988731,50.791741322911975 5.70639166306275,51.5470642888506 C15.977104689506534,52.29038725478922 23.799661643886488,53.892423006209256 26.375,54.875 C30.06677675249766,56.284643286251715 44.61866733453679,40.97546092133006 25.24366733453679,46.35046092133006z" style="fill: rgb(155, 201, 225); fill-opacity: 1; display: none;"></path></g><g transform="matrix(4.89418,0,0,6.50168,455,193.872)" style="user-select: none;"><path d=" M17.375,49.938 C14.875,50.063 10.25,50.688 16.5,50.063 C22.75,49.438 25.25,50.5 27.875,52.25 C30.5,54 32.375,49.125 27,49.375 C21.625,49.625 19.875,49.813 17.375,49.938z" style="fill: rgb(155, 201, 225); fill-opacity: 1; display: block;"></path></g><g transform="matrix(4.89418,0,0,6.50168,455,193.872)" style="user-select: none;"><path d=" M-35.75,48.75 C-35.75,48.75 -36.125,51.125 -36.125,51.125 C-36.125,51.125 -34.138,50.128 -23.875,50.688 C-17,51.063 -14.5,49.938 -16.625,49.938 C-18.75,49.938 -35.75,48.75 -35.75,48.75z" style="fill: rgb(155, 201, 225); fill-opacity: 1; display: block;"></path></g><g transform="matrix(4.89418,0,0,6.50168,442.76455,242.63460000000003)" style="user-select: none;"><path d=" M25.242001001955074,46.34400388257591 C5.8670010019550745,51.71900388257591 -22.787719751294556,49.47787677531788 -30.25,45.375 C-38.36501690799189,40.91599486498024 -40.733128109213105,55.652807523069384 -30.25,53.5 C-17.70796861358719,50.927078737536604 -4.738954995234401,50.79509398406638 5.703073994892554,51.55050193296668 C15.978711034115308,52.29390988186697 23.807203465151332,53.894902509090855 26.375,54.875 C30.054087629887896,56.28060242974105 44.617001001955074,40.96900388257591 25.242001001955074,46.34400388257591z" style="fill: rgb(155, 201, 225); fill-opacity: 1; display: none;"></path></g><g transform="matrix(4.89418,0,0,6.50168,442.76455,242.63460000000003)" style="user-select: none;"><path d=" M17.375,49.938 C14.875,50.063 10.25,50.688 16.5,50.063 C22.75,49.438 25.25,50.5 27.875,52.25 C30.5,54 32.375,49.125 27,49.375 C21.625,49.625 19.875,49.813 17.375,49.938z" style="fill: rgb(155, 201, 225); fill-opacity: 1; display: block;"></path></g><g transform="matrix(4.89418,0,0,6.50168,442.76455,242.63460000000003)" style="user-select: none;"><path d=" M-35.75,48.75 C-35.75,48.75 -36.125,51.125 -36.125,51.125 C-36.125,51.125 -34.138,50.128 -23.875,50.688 C-17,51.063 -14.5,49.938 -16.625,49.938 C-18.75,49.938 -35.75,48.75 -35.75,48.75z" style="fill: rgb(155, 201, 225); fill-opacity: 1; display: block;"></path></g><g transform="matrix(4.89418,0,0,6.50168,467.23545,174.36696)" style="user-select: none;"><path d=" M25.243001001425615,46.34787888052425 C5.868001001425613,51.72287888052425 -22.77150275988083,49.48264277279447 -30.25,45.375 C-38.38189189905722,40.910869867693734 -40.7332371091554,55.65233152332141 -30.25,53.5 C-17.70059661749038,50.92581873820373 -4.73395999787906,50.793081985131664 5.705064993838397,51.54843893405896 C15.97774703462571,52.29179588298626 23.802677467547674,53.89341450987869 26.375,54.875 C30.06170262585605,56.28302742845711 44.61800100142561,40.97287888052425 25.243001001425615,46.34787888052425z" style="fill: rgb(155, 201, 225); fill-opacity: 1; display: none;"></path></g><g transform="matrix(4.89418,0,0,6.50168,467.23545,174.36696)" style="user-select: none;"><path d=" M17.375,49.938 C14.875,50.063 10.25,50.688 16.5,50.063 C22.75,49.438 25.25,50.5 27.875,52.25 C30.5,54 32.375,49.125 27,49.375 C21.625,49.625 19.875,49.813 17.375,49.938z" style="fill: rgb(155, 201, 225); fill-opacity: 1; display: block;"></path></g><g transform="matrix(4.89418,0,0,6.50168,467.23545,174.36696)" style="user-select: none;"><path d=" M-35.75,48.75 C-35.75,48.75 -36.125,51.125 -36.125,51.125 C-36.125,51.125 -34.138,50.128 -23.875,50.688 C-17,51.063 -14.5,49.938 -16.625,49.938 C-18.75,49.938 -35.75,48.75 -35.75,48.75z" style="fill: rgb(155, 201, 225); fill-opacity: 1; display: block;"></path></g><g transform="matrix(4.89418,0,0,6.50168,305.36534068000003,-202.73048000000003)" style="user-select: none;"><path d=" M25.243008003841666,46.34787189478508 C5.868008003841665,51.72287189478508 -22.388314718745782,49.50363277556379 -29.8668050153465,45.395996985460464 C-37.998696972131384,40.93185983662694 -40.35529837023505,55.668086259783564 -29.872054261711618,53.515747739095346 C-17.32264385498798,50.94156647298875 -4.733959980791674,50.793067980258506 5.705058001654251,51.54842492901134 C15.97774003233281,52.291781877764166 23.802684451059843,53.893414504788396 26.375,54.875 C30.06170965090134,56.28301343876248 44.618008003841666,40.97287189478508 25.243008003841666,46.34787189478508z" style="fill: rgb(155, 201, 225); fill-opacity: 1; display: none;"></path></g><g transform="matrix(4.89418,0,0,6.50168,305.36534068000003,-202.73048000000003)" style="user-select: none;"><path d=" M17.375,49.938 C14.875,50.063 10.25,50.688 16.5,50.063 C22.75,49.438 25.25,50.5 27.875,52.25 C30.5,54 32.375,49.125 27,49.375 C21.625,49.625 19.875,49.813 17.375,49.938z" style="fill: rgb(155, 201, 225); fill-opacity: 1; display: block;"></path></g><g transform="matrix(4.89418,0,0,6.50168,305.36534068000003,-202.73048000000003)" style="user-select: none;"><path d=" M-35.75,48.75 C-35.75,48.75 -36.125,51.125 -36.125,51.125 C-36.125,51.125 -34.138,50.128 -23.875,50.688 C-17,51.063 -14.5,49.938 -16.625,49.938 C-18.75,49.938 -35.75,48.75 -35.75,48.75z" style="fill: rgb(155, 201, 225); fill-opacity: 1; display: block;"></path></g><g transform="matrix(4.89418,0,0,6.50168,305.36534068000003,-137.71368000000004)" style="user-select: none;"><path d=" M-35.75,48.75 C-35.75,48.75 -36.125,51.125 -36.125,51.125 C-36.125,51.125 -34.138,50.128 -23.875,50.688 C-17,51.063 -14.5,49.938 -16.625,49.938 C-18.75,49.938 -35.75,48.75 -35.75,48.75z" style="fill: rgb(155, 201, 225); fill-opacity: 1; display: block;"></path></g><g transform="matrix(4.89418,0,0,6.50168,305.36534068000003,-137.71368000000004)" style="user-select: none;"><path d=" M17.375,49.938 C14.875,50.063 10.25,50.688 16.5,50.063 C22.75,49.438 25.25,50.5 27.875,52.25 C30.5,54 32.375,49.125 27,49.375 C21.625,49.625 19.875,49.813 17.375,49.938z" style="fill: rgb(155, 201, 225); fill-opacity: 1; display: block;"></path></g><g transform="matrix(4.89418,0,0,6.50168,305.36534068000003,-137.71368000000004)" style="user-select: none;"><path d=" M25.242341339550105,46.34528531741362 C5.867341339550104,51.72028531741362 -22.362601096641264,49.50245360058562 -29.830268608977192,45.397998980330016 C-37.95089934462085,40.93728123873368 -40.319190390767815,55.66990607311999 -29.836018354059696,53.51724923524751 C-17.29152684873055,50.94390880698612 -4.737293302249477,50.79440931682111 5.7037286770608695,51.54980029948672 C15.978382672685935,52.293191282152335 23.805705461317995,53.894407494243694 26.375,54.875 C30.056628587922418,56.28139382491301 44.6173413395501,40.97028531741362 25.242341339550105,46.34528531741362z" style="fill: rgb(155, 201, 225); fill-opacity: 1; display: none;"></path></g><g transform="matrix(4.89418,0,0,6.50168,570.8746056800001,-202.73048000000003)" style="user-select: none;"><path d=" M25.242341339550105,46.34528531741362 C5.867341339550104,51.72028531741362 -22.362601096641264,49.50245360058562 -29.830268608977192,45.397998980330016 C-37.95089934462085,40.93728123873368 -40.319190390767815,55.66990607311999 -29.836018354059696,53.51724923524751 C-17.29152684873055,50.94390880698612 -4.737293302249477,50.79440931682111 5.7037286770608695,51.54980029948672 C15.978382672685935,52.293191282152335 23.805705461317995,53.894407494243694 26.375,54.875 C30.056628587922418,56.28139382491301 44.6173413395501,40.97028531741362 25.242341339550105,46.34528531741362z" style="fill: rgb(155, 201, 225); fill-opacity: 1; display: none;"></path></g><g transform="matrix(4.89418,0,0,6.50168,570.8746056800001,-202.73048000000003)" style="user-select: none;"><path d=" M17.375,49.938 C14.875,50.063 10.25,50.688 16.5,50.063 C22.75,49.438 25.25,50.5 27.875,52.25 C30.5,54 32.375,49.125 27,49.375 C21.625,49.625 19.875,49.813 17.375,49.938z" style="fill: rgb(155, 201, 225); fill-opacity: 1; display: none;"></path></g><g transform="matrix(4.89418,0,0,6.50168,570.8746056800001,-202.73048000000003)" style="user-select: none;"><path d=" M-35.75,48.75 C-35.75,48.75 -36.125,51.125 -36.125,51.125 C-36.125,51.125 -34.138,50.128 -23.875,50.688 C-17,51.063 -14.5,49.938 -16.625,49.938 C-18.75,49.938 -35.75,48.75 -35.75,48.75z" style="fill: rgb(155, 201, 225); fill-opacity: 1; display: block;"></path></g><g transform="matrix(4.89418,0,0,6.50168,570.8746056800001,-292.12858000000006)" style="user-select: none;"><path d=" M17.375,49.938 C14.875,50.063 10.25,50.688 16.5,50.063 C22.75,49.438 25.25,50.5 27.875,52.25 C30.5,54 32.375,49.125 27,49.375 C21.625,49.625 19.875,49.813 17.375,49.938z" style="fill: rgb(155, 201, 225); fill-opacity: 1; display: none;"></path></g><g transform="matrix(4.89418,0,0,6.50168,570.8746056800001,-287.25232000000005)" style="user-select: none;"><path d=" M-35.75,48.75 C-35.75,48.75 -36.125,51.125 -36.125,51.125 C-36.125,51.125 -34.138,50.128 -23.875,50.688 C-17,51.063 -14.5,49.938 -16.625,49.938 C-18.75,49.938 -35.75,48.75 -35.75,48.75z" style="fill: rgb(155, 201, 225); fill-opacity: 1; display: block;"></path></g></g></svg>